<svg xmlns="http://www.w3.org/2000/svg" width="100" height="100" viewBox="0 0 100 100">
  <g id="img11" transform="translate(-637 -6992)">
    <g id="Group_1098742" data-name="Group 1098742" transform="translate(637.242 6992)">
      <rect id="Rectangle_400898" data-name="Rectangle 400898" width="100" height="100" rx="50" transform="translate(-0.242)" fill="#fff" opacity="0.859"/>
      <g id="Rectangle_400907" data-name="Rectangle 400907" transform="translate(-0.242)" fill="none" stroke="#f3bc5b" stroke-linecap="round" stroke-width="3" stroke-dasharray="0 7">
        <rect width="100" height="100" rx="50" stroke="none"/>
        <rect x="1.5" y="1.5" width="97" height="97" rx="48.5" fill="none"/>
      </g>
    </g>
    <g id="Group_1107006" data-name="Group 1107006" transform="translate(645.398 7000.157)">
      <rect id="Rectangle_400898-2" data-name="Rectangle 400898" width="84" height="84" rx="42" transform="translate(-0.399 -0.157)" fill="#004e3d" opacity="0.859"/>
      <rect id="Rectangle_400907-2" data-name="Rectangle 400907" width="84" height="84" rx="42" transform="translate(-0.398 -0.157)" fill="none"/>
    </g>
    <g id="Group_1175981" data-name="Group 1175981" transform="translate(663.28 7017.285)">
      <path id="Path_929090" data-name="Path 929090" d="M50.36,57.5H11.935A1.931,1.931,0,0,1,10,55.569V11.931A1.931,1.931,0,0,1,11.935,10H50.36a1.931,1.931,0,0,1,1.931,1.931V55.569A1.931,1.931,0,0,1,50.36,57.5Z" transform="translate(-9.035 -9.035)" fill="#a5ddff"/>
      <rect id="Rectangle_454025" data-name="Rectangle 454025" width="33.019" height="38.232" transform="translate(5.603 5.6)" fill="#fff"/>
      <path id="Path_929091" data-name="Path 929091" d="M380.178,310.695v9.075l-3.089-3.073L374,319.77v-9.075Z" transform="translate(-337.888 -280.699)" fill="#95e540"/>
      <path id="Path_929092" data-name="Path 929092" d="M320.256,118.975h0a1.843,1.843,0,0,1,2.632.705h0a1.843,1.843,0,0,0,1.723.995h0a1.843,1.843,0,0,1,1.927,1.927h0a1.843,1.843,0,0,0,.995,1.723h0a1.843,1.843,0,0,1,.705,2.632h0a1.843,1.843,0,0,0,0,1.99h0a1.843,1.843,0,0,1-.705,2.632h0a1.843,1.843,0,0,0-.995,1.723h0a1.843,1.843,0,0,1-1.927,1.927h0a1.843,1.843,0,0,0-1.723.995h0a1.843,1.843,0,0,1-2.632.705h0a1.843,1.843,0,0,0-1.99,0h0a1.843,1.843,0,0,1-2.632-.705h0a1.843,1.843,0,0,0-1.723-.995h0a1.843,1.843,0,0,1-1.927-1.927h0a1.843,1.843,0,0,0-.995-1.723h0a1.843,1.843,0,0,1-.705-2.632h0a1.843,1.843,0,0,0,0-1.99h0a1.843,1.843,0,0,1,.705-2.632h0a1.843,1.843,0,0,0,.995-1.723h0a1.843,1.843,0,0,1,1.927-1.927h0a1.843,1.843,0,0,0,1.723-.995h0a1.843,1.843,0,0,1,2.632-.705h0A1.844,1.844,0,0,0,320.256,118.975Z" transform="translate(-280.06 -107.225)" fill="#fe6663"/>
      <path id="Path_929093" data-name="Path 929093" d="M43.256,42.866a.965.965,0,0,0-.965.965v2.7a.967.967,0,0,1-.965.965H2.9a.967.967,0,0,1-.965-.965V2.9A.967.967,0,0,1,2.9,1.931H41.325a.967.967,0,0,1,.965.965V8.013a.965.965,0,1,0,1.931,0V2.9a2.9,2.9,0,0,0-2.9-2.9H2.9A2.9,2.9,0,0,0,0,2.9V46.535a2.9,2.9,0,0,0,2.9,2.9H41.325a2.9,2.9,0,0,0,2.9-2.9v-2.7A.965.965,0,0,0,43.256,42.866Z"/>
      <path id="Path_929094" data-name="Path 929094" d="M81.983,52.441a.965.965,0,0,0,.965-.965v-2.51A.965.965,0,0,0,81.983,48H48.963a.965.965,0,0,0-.965.965V69.143a.965.965,0,1,0,1.931,0V49.931H81.018v1.545A.965.965,0,0,0,81.983,52.441Z" transform="translate(-43.36 -43.366)"/>
      <path id="Path_929095" data-name="Path 929095" d="M48.959,295.931a.966.966,0,1,0-.683-.283A.971.971,0,0,0,48.959,295.931Z" transform="translate(-43.357 -265.616)"/>
      <path id="Path_929096" data-name="Path 929096" d="M49.929,333.465a.965.965,0,0,0-1.931,0V344.23a.965.965,0,0,0,.965.965h33.02a.965.965,0,0,0,.965-.965v-2.124a.965.965,0,1,0-1.931,0v1.159H49.929Z" transform="translate(-43.36 -300.399)"/>
      <path id="Path_929097" data-name="Path 929097" d="M231.526,350.689l-1.908,1.908-1.186-1.186a1.923,1.923,0,0,0-2.716,0l-.772.772a.966.966,0,1,0,1.365,1.365l.764-.764,1.186,1.186a1.923,1.923,0,0,0,2.716,0l1.915-1.915a.966.966,0,0,0-1.365-1.366Z" transform="translate(-202.968 -316.576)"/>
      <path id="Path_929098" data-name="Path 929098" d="M153.587,118.451a2.809,2.809,0,0,0-1.075-4.011.88.88,0,0,1-.474-.821,2.809,2.809,0,0,0-2.936-2.936.877.877,0,0,1-.821-.474,2.809,2.809,0,0,0-4.011-1.075h0a.88.88,0,0,1-.947,0,2.809,2.809,0,0,0-4.011,1.075.882.882,0,0,1-.821.474,2.809,2.809,0,0,0-2.936,2.936.88.88,0,0,1-.474.821,2.8,2.8,0,0,0-1.492,2.873H116.744a.965.965,0,0,0,0,1.931h17.34a.87.87,0,0,1-.076.154,2.815,2.815,0,0,0-.348,2.243,2.776,2.776,0,0,0,.1.306H116.743a.965.965,0,1,0,0,1.931H135.5a.872.872,0,0,1,.057.351,2.809,2.809,0,0,0,2.936,2.936.879.879,0,0,1,.821.474,2.8,2.8,0,0,0,.43.612v9.017a.965.965,0,0,0,1.646.684l2.409-2.4,2.409,2.4a.965.965,0,0,0,1.646-.685v-9.017a2.8,2.8,0,0,0,.43-.612.881.881,0,0,1,.821-.474,2.809,2.809,0,0,0,2.936-2.936.88.88,0,0,1,.474-.821,2.809,2.809,0,0,0,1.075-4.011A.879.879,0,0,1,153.587,118.451Zm-9.109,15.06a.965.965,0,0,0-1.362,0l-1.443,1.436v-5.792a2.816,2.816,0,0,0,1.65-.44.88.88,0,0,1,.947,0,2.814,2.814,0,0,0,1.518.444c.044,0,.088,0,.133,0v5.793Zm7.483-13.07a.878.878,0,0,1-.336,1.254,2.816,2.816,0,0,0-1.516,2.626.878.878,0,0,1-.918.918,2.816,2.816,0,0,0-2.626,1.516.878.878,0,0,1-1.253.336,2.816,2.816,0,0,0-3.032,0,.878.878,0,0,1-1.254-.336,2.815,2.815,0,0,0-2.626-1.516.878.878,0,0,1-.918-.918,2.815,2.815,0,0,0-.764-2.056c-.015-.017-.03-.033-.047-.048a2.793,2.793,0,0,0-.705-.521.878.878,0,0,1-.336-1.253,2.816,2.816,0,0,0,0-3.032.878.878,0,0,1,.336-1.254,2.816,2.816,0,0,0,1.516-2.626.878.878,0,0,1,.918-.918,2.816,2.816,0,0,0,2.626-1.516.878.878,0,0,1,1.253-.336,2.816,2.816,0,0,0,3.032,0,.878.878,0,0,1,1.254.336,2.816,2.816,0,0,0,2.626,1.516.878.878,0,0,1,.918.918,2.816,2.816,0,0,0,1.516,2.626.878.878,0,0,1,.336,1.253A2.816,2.816,0,0,0,151.962,120.441Z" transform="translate(-104.597 -98.198)"/>
      <path id="Path_929099" data-name="Path 929099" d="M382.066,184.84l-3.2,3.2-1.276-1.276a.966.966,0,0,0-1.365,1.365l1.958,1.958a.965.965,0,0,0,1.365,0l3.887-3.887a.965.965,0,0,0-1.365-1.365Z" transform="translate(-339.64 -166.739)"/>
      <path id="Path_929100" data-name="Path 929100" d="M106.935,118.965a.966.966,0,1,0-.283.683A.973.973,0,0,0,106.935,118.965Z" transform="translate(-94.863 -106.608)"/>
      <path id="Path_929101" data-name="Path 929101" d="M143.3,118a.965.965,0,0,0,0,1.931h4.7a.965.965,0,0,0,0-1.931Z" transform="translate(-128.585 -106.608)"/>
      <path id="Path_929102" data-name="Path 929102" d="M190.519,294H179.481a.965.965,0,1,0,0,1.931h11.037a.965.965,0,0,0,0-1.931Z" transform="translate(-161.278 -265.616)"/>
    </g>
  </g>
</svg>
