<svg xmlns="http://www.w3.org/2000/svg" width="70" height="70" viewBox="0 0 70 70">
  <g id="img29" transform="translate(-201 -12965)">
    <rect id="Rectangle_454099" data-name="Rectangle 454099" width="70" height="70" transform="translate(201 12965)" fill="#f3bc5b"/>
    <g id="XMLID_1710_" transform="translate(214.186 12928.787)">
      <path id="XMLID_872_" d="M48.517,64H13.409A3.409,3.409,0,0,0,10,67.409V93.314a3.409,3.409,0,0,0,3.409,3.409H48.517a3.409,3.409,0,0,0,3.409-3.409V67.409A3.409,3.409,0,0,0,48.517,64Z" transform="translate(-9.148 -9.148)" fill="#ade5ff"/>
      <rect id="XMLID_1168_" width="41.5" height="23.178" transform="translate(1.065 59.624)" fill="#fff"/>
      <path id="XMLID_1169_" d="M60.588,160h-8.9A1.683,1.683,0,0,0,50,161.683v8.9a1.683,1.683,0,0,0,1.683,1.683h8.9a1.683,1.683,0,0,0,1.683-1.683v-8.9A1.683,1.683,0,0,0,60.588,160Z" transform="translate(-45.739 -96.967)" fill="#ade5ff"/>
      <path id="XMLID_1172_" d="M75.23,248.373a4.8,4.8,0,1,0-9.609,0" transform="translate(-60.029 -173.415)" fill="#ffb954"/>
      <g id="XMLID_2189_" transform="translate(25.137 67.833)">
        <path id="XMLID_2079_" d="M306.756,270.8H296.517a1.528,1.528,0,0,0-1.528,1.528v3.439h13.3v-3.439a1.528,1.528,0,0,0-1.528-1.528Z" transform="translate(-294.989 -266.161)" fill="#4dbaf6"/>
        <path id="XMLID_2078_" d="M323.164,220.975l-.835-3.4a1.631,1.631,0,0,0-1.584-1.242h-5.4a1.631,1.631,0,0,0-1.584,1.242l-.835,3.4Z" transform="translate(-311.397 -216.333)" fill="#c9f3ff"/>
      </g>
      <circle id="XMLID_1171_" cx="2.112" cy="2.112" r="2.112" transform="translate(8.284 65.93)" fill="#fff"/>
      <g id="XMLID_1233_" transform="translate(0 54)">
        <path id="XMLID_1397_" d="M39.369,54H33.963a.852.852,0,0,0,0,1.7h5.407a2.559,2.559,0,0,1,2.556,2.556v.511H1.7v-.511A2.559,2.559,0,0,1,4.261,55.7H27.145a.852.852,0,0,0,0-1.7H4.261A4.266,4.266,0,0,0,0,58.261V84.166a4.266,4.266,0,0,0,4.261,4.261H39.369a4.266,4.266,0,0,0,4.261-4.261V58.261A4.266,4.266,0,0,0,39.369,54Zm0,32.722H4.261A2.559,2.559,0,0,1,1.7,84.166v-.511H18.718a.852.852,0,0,0,0-1.7H1.7V60.476H41.926V81.95H25.535a.852.852,0,0,0,0,1.7h16.39v.511A2.559,2.559,0,0,1,39.369,86.722Z" transform="translate(0 -54)"/>
        <path id="XMLID_1437_" d="M349.4,55.7a.852.852,0,1,0-.6-.25A.859.859,0,0,0,349.4,55.7Z" transform="translate(-318.848 -54)"/>
        <path id="XMLID_1451_" d="M250.512,382a.853.853,0,1,0,.6.25A.859.859,0,0,0,250.512,382Z" transform="translate(-228.385 -354.05)"/>
        <path id="XMLID_1682_" d="M51.44,150h-8.9A2.538,2.538,0,0,0,40,152.535v8.9a2.538,2.538,0,0,0,2.535,2.535h8.9a2.538,2.538,0,0,0,2.535-2.535v-8.9A2.538,2.538,0,0,0,51.44,150Zm-8.9,1.7h8.9a.832.832,0,0,1,.831.831v8.225a5.687,5.687,0,0,0-2.916-3.118,2.964,2.964,0,1,0-4.735,0,5.687,5.687,0,0,0-2.916,3.118v-8.225A.832.832,0,0,1,42.535,151.7Zm3.193,4.157a1.26,1.26,0,1,1,1.26,1.26A1.261,1.261,0,0,1,45.728,155.861Zm1.26,2.964a3.957,3.957,0,0,1,3.919,3.445H43.069A3.957,3.957,0,0,1,46.988,158.826Z" transform="translate(-36.591 -141.819)"/>
        <path id="XMLID_1814_" d="M287.422,217.646v.418a.852.852,0,1,0,1.7,0v-.418h6.723v.418a.852.852,0,1,0,1.7,0v-.418h1.582a.852.852,0,0,0,.852-.852v-3.439a2.377,2.377,0,0,0-.867-1.836l.22-.22a.852.852,0,0,0-1.205-1.205l-.061.061-.474-1.931a2.478,2.478,0,0,0-2.412-1.891h-5.4a2.478,2.478,0,0,0-2.412,1.891l-.474,1.931-.061-.061a.852.852,0,0,0-1.205,1.205l.22.22a2.377,2.377,0,0,0-.867,1.836v3.439a.852.852,0,0,0,.852.852h1.582Zm10.861-1.7H286.692v-2.587a.677.677,0,0,1,.676-.676h10.24a.677.677,0,0,1,.675.676Zm-8.5-7.9h5.4a.777.777,0,0,1,.757.593l.576,2.344h-8.065l.576-2.344A.777.777,0,0,1,289.788,208.037Z" transform="translate(-260.703 -193.352)"/>
        <path id="XMLID_2674_" d="M317.242,289.95a.851.851,0,1,0,.6.25A.859.859,0,0,0,317.242,289.95Z" transform="translate(-289.429 -269.844)"/>
        <path id="XMLID_2675_" d="M410.461,289.95a.851.851,0,1,0,.6.25A.858.858,0,0,0,410.461,289.95Z" transform="translate(-374.704 -269.844)"/>
        <path id="XMLID_2676_" d="M224.852,159.7h6.16a.852.852,0,0,0,0-1.7h-6.16a.852.852,0,1,0,0,1.7Z" transform="translate(-204.912 -149.138)"/>
        <path id="XMLID_2677_" d="M224.852,205.7h2.13a.852.852,0,0,0,0-1.7h-2.13a.852.852,0,1,0,0,1.7Z" transform="translate(-204.912 -191.218)"/>
        <path id="XMLID_2678_" d="M227.835,250.852a.852.852,0,0,0-.852-.852h-2.13a.852.852,0,1,0,0,1.7h2.13A.852.852,0,0,0,227.835,250.852Z" transform="translate(-204.912 -233.298)"/>
        <path id="XMLID_2679_" d="M337.238,159.7h6.16a.852.852,0,0,0,0-1.7h-6.16a.852.852,0,1,0,0,1.7Z" transform="translate(-307.721 -149.138)"/>
        <path id="XMLID_2680_" d="M44.847,334.333h-4a.852.852,0,1,0,0,1.7h4a.852.852,0,1,0,0-1.7Z" transform="translate(-36.591 -310.445)"/>
        <path id="XMLID_2681_" d="M141.857,334.333h-4.005a.852.852,0,1,0,0,1.7h4.005a.852.852,0,1,0,0-1.7Z" transform="translate(-125.326 -310.445)"/>
      </g>
    </g>
  </g>
</svg>
