<svg xmlns="http://www.w3.org/2000/svg" width="114" height="114" viewBox="0 0 114 114">
  <g id="img38" transform="translate(-1234.5 -458)">
    <g id="Ellipse_12108" data-name="Ellipse 12108" transform="translate(1241.5 465)" fill="#f3bc5b" stroke="rgba(255,255,255,0.4)" stroke-width="7">
      <circle cx="50" cy="50" r="50" stroke="none"/>
      <circle cx="50" cy="50" r="53.5" fill="none"/>
    </g>
    <g id="Group_1176837" data-name="Group 1176837" transform="translate(1259.5 483)">
      <path id="Path_930890" data-name="Path 930890" d="M51.5,27A1.5,1.5,0,1,0,53,28.5,1.5,1.5,0,0,0,51.5,27Z" fill="#004e3d"/>
      <path id="Path_930891" data-name="Path 930891" d="M40.5,27A1.5,1.5,0,1,0,42,28.5,1.5,1.5,0,0,0,40.5,27Z" fill="#004e3d"/>
      <path id="Path_930892" data-name="Path 930892" d="M52.5,18A1.5,1.5,0,1,0,51,16.5,1.5,1.5,0,0,0,52.5,18Z" fill="#004e3d"/>
      <path id="Path_930893" data-name="Path 930893" d="M39.5,18A1.5,1.5,0,1,0,38,16.5,1.5,1.5,0,0,0,39.5,18Z" fill="#004e3d"/>
      <path id="Path_930894" data-name="Path 930894" d="M62.109,13.361A5.291,5.291,0,0,0,57.7,11h-.283l.012-.012A5.338,5.338,0,0,0,59,7.188a5.4,5.4,0,0,0-2.15-4.3L54.6,1.2A1,1,0,0,0,53,2a8.86,8.86,0,0,1-1.179,4.381A8.705,8.705,0,0,0,49.275,6H42.724a8.7,8.7,0,0,0-2.545.381A8.86,8.86,0,0,1,39,2a1,1,0,0,0-1.6-.8L35.15,2.888A5.4,5.4,0,0,0,33,7.188a5.34,5.34,0,0,0,1.574,3.8l.012.011H34.3A5.3,5.3,0,0,0,29,16.3v1.784L14.275,19.425A9.986,9.986,0,0,0,8.232,22.2,10.694,10.694,0,0,0,1,32.28V50.5a4.018,4.018,0,0,0,1.6,3.2l2.8,2.1A.99.99,0,0,0,6,56a1,1,0,0,0,1-1V50.854a3.98,3.98,0,0,0-2.211-3.578L3,46.382V32.28a8.673,8.673,0,0,1,2.808-6.363,9.807,9.807,0,0,0-.33,1.043l-.105.426A9.93,9.93,0,0,0,5.1,30.477L6,44.067a1.041,1.041,0,0,0,.028.176l2.95,11.8A4.973,4.973,0,0,0,7,60v2a1,1,0,0,0,1,1H20a1,1,0,0,0,1-1V60a5,5,0,0,0-2.914-4.529l.339-2.369a57.576,57.576,0,0,0,.558-7.158c.04.01.078.024.118.034A6.209,6.209,0,0,0,23,50.413V53h2V50.932a7.387,7.387,0,0,0,2,0V53h2V50.413a6.359,6.359,0,0,0,3.738-3.808,33.968,33.968,0,0,0,5.472-1.3,73.151,73.151,0,0,0,1.528,10.624l.058.261A4.971,4.971,0,0,0,38,60v2a1,1,0,0,0,1,1H51a1,1,0,0,0,1-1V60a4.993,4.993,0,0,0-2.846-4.493l.144-.577A57.013,57.013,0,0,0,51,41.218a13.947,13.947,0,0,0,1.994-7.026c2.366-1.027,3.97-2.933,4-5.121h0l.719-10.062A5.258,5.258,0,0,0,60.782,20H62a1,1,0,0,0,1-1V16.3a5.281,5.281,0,0,0-.891-2.942ZM3.9,49.065A1.991,1.991,0,0,1,5,50.854V53l-1.2-.9A2.01,2.01,0,0,1,3,50.5V48.618ZM49.117,8h.159A6.733,6.733,0,0,1,56,14.725c0,.16-.006.321-.017.479L55.655,19.8A6.988,6.988,0,0,1,49.117,8Zm5.721-4.121.812.608a3.35,3.35,0,0,1,.513,4.9A8.758,8.758,0,0,0,53.672,7.2a10.866,10.866,0,0,0,1.166-3.324ZM46.532,8A8.982,8.982,0,0,0,54,22a9.1,9.1,0,0,0,1.507-.133l-.244,3.412A9.156,9.156,0,0,0,49,23a10.34,10.34,0,0,0-3,.438A10.34,10.34,0,0,0,43,23a9.161,9.161,0,0,0-6.263,2.278l-.719-10.073c-.012-.159-.018-.32-.018-.48A6.733,6.733,0,0,1,42.725,8ZM36.35,4.487l.812-.608A10.875,10.875,0,0,0,38.327,7.2a8.8,8.8,0,0,0-2.491,2.187,3.35,3.35,0,0,1,.514-4.9ZM31,16.3a3.282,3.282,0,0,1,3.171-3.286A8.656,8.656,0,0,0,34,14.725c0,.207.008.413.022.621l.081,1.137-.551.551A3.283,3.283,0,0,1,31.218,18H31ZM24,23a4,4,0,0,1-8,0,3.963,3.963,0,0,1,.415-1.761l6.8-.618A3.968,3.968,0,0,1,24,23ZM7.271,33.027A3.989,3.989,0,0,1,7.8,40.919ZM15,61H13V59H11v2H9V60a3,3,0,0,1,6,0Zm4-1v1H17V60a4.952,4.952,0,0,0-1.023-3c.008,0,.015,0,.023,0A3,3,0,0,1,19,60Zm-2.556-7.182-.314,2.195c-.044,0-.085-.013-.13-.013a5,5,0,0,0-1.9.375,45.884,45.884,0,0,1,2.617-10.086c.091.03.184.05.275.08a55.317,55.317,0,0,1-.549,7.449ZM26,49a5.1,5.1,0,0,1-4.648-2.552,33.956,33.956,0,0,0,6,.552h.289q1.373,0,2.735-.11A5.257,5.257,0,0,1,26,49ZM46,61H44V59H42v2H40V60a3,3,0,0,1,6,0Zm4,0H48V60a4.952,4.952,0,0,0-1.023-3c.008,0,.015,0,.023,0a3,3,0,0,1,3,3Zm-3-6a5.066,5.066,0,0,0-.779.067l0-.021c.347-3.127.569-6.292.683-9.462a13.97,13.97,0,0,0,2.007-1.69,55.123,55.123,0,0,1-1.556,10.551l-.144.576c-.071,0-.14-.021-.213-.021Zm-.028-12c.011-.667.028-1.334.028-2l-2,.021a125.227,125.227,0,0,1-.765,13.8l-.037.336A4.987,4.987,0,0,0,43,55a4.929,4.929,0,0,0-1.364.213A71.338,71.338,0,0,1,40,40l-2,.1c0,1.051.041,2.1.087,3.154l-.323.108A31.994,31.994,0,0,1,27.645,45h-.289a31.96,31.96,0,0,1-9.874-1.571c.321-.734.654-1.464,1.014-2.183l.4-.8-1.789-.9-.4.8a47.89,47.89,0,0,0-4.571,14.662c-.047,0-.09-.013-.136-.013a4.952,4.952,0,0,0-1.181.156L7.992,43.844l-.061-.924a5.993,5.993,0,0,0-.795-11.913l-.044-.663a7.96,7.96,0,0,1,.221-2.474l.105-.427a8,8,0,0,1,6.8-5.986A5.993,5.993,0,1,0,26,23a5.942,5.942,0,0,0-.595-2.578L30.048,20h1.17a5.25,5.25,0,0,0,3.066-.992L35,29.071h0C35.056,32.347,38.621,35,43,35a10.34,10.34,0,0,0,3-.438A10.34,10.34,0,0,0,49,35a10.515,10.515,0,0,0,1.952-.188A11.943,11.943,0,0,1,46.972,43ZM49,33a8.3,8.3,0,0,1-2.679-.435,1,1,0,0,0-.642,0A8.3,8.3,0,0,1,43,33c-3.252,0-6-1.832-6-4s2.748-4,6-4a8.3,8.3,0,0,1,2.679.435,1.011,1.011,0,0,0,.643,0A8.291,8.291,0,0,1,49,25c3.252,0,6,1.832,6,4s-2.748,4-6,4ZM61,18h-.218a3.284,3.284,0,0,1-2.335-.967l-.55-.55.081-1.139c.014-.206.022-.412.022-.619a8.74,8.74,0,0,0-.17-1.708A3.28,3.28,0,0,1,61,16.3Z" fill="#004e3d"/>
      <path id="Path_930895" data-name="Path 930895" d="M31,33h-.1A5,5,0,1,0,26,39h.1A5,5,0,1,0,31,33Zm0,8a3,3,0,0,1-3-2.938c0-.034.016-.134.017-.168a1,1,0,0,0-1-1.04,1.03,1.03,0,0,0-.252.032A2.991,2.991,0,1,1,29,33.938c0,.033-.016.135-.017.169a1,1,0,0,0,1.254,1.006A2.993,2.993,0,1,1,31,41Z" fill="#004e3d"/>
    </g>
  </g>
</svg>
