<svg xmlns="http://www.w3.org/2000/svg" xmlns:xlink="http://www.w3.org/1999/xlink" width="107" height="107" viewBox="0 0 107 107">
  <defs>
    <clipPath id="clip-path">
      <rect id="Rectangle_454711" data-name="Rectangle 454711" width="63.249" height="64.035" fill="#b2be91"/>
    </clipPath>
  </defs>
  <g id="conectada_04" transform="translate(-285.047 -6728.001)">
    <g id="Group_1177638" data-name="Group 1177638" transform="translate(-0.285 -1547.086)">
      <g id="Grupo_156312" data-name="Grupo 156312" transform="translate(-3.336 3826.65)">
        <path id="Elipse_5845" data-name="Elipse 5845" d="M53.5,0A53.5,53.5,0,1,1,0,53.5,53.5,53.5,0,0,1,53.5,0Z" transform="translate(288.668 4448.437)" fill="#004e3d"/>
      </g>
    </g>
    <g id="Group_1177641" data-name="Group 1177641" transform="translate(-276 361)">
      <g id="Group_1177640" data-name="Group 1177640" transform="translate(583.047 6388)">
        <g id="Group_1177639" data-name="Group 1177639" clip-path="url(#clip-path)">
          <path id="Path_933183" data-name="Path 933183" d="M40.086,4.773A30.193,30.193,0,0,1,63.562,26.045c.409,1.462,1.809,8.125.794,9-1.067.52-4.612.591-3.878-1.242.38-.947,1.247-.776,2.111-.754-.491-6.484-2.844-12.859-7.432-17.518-.373-.064-1.394,1.528-2.3.61-1.061-1.072.827-1.86.526-2.446a17.766,17.766,0,0,0-3.016-2.465A30.327,30.327,0,0,0,39.826,6.862c.032.73-.921,1.508-1.028,2.02-.1.46.176,1.357.054,2.139-.185,1.187-.978,2.829-1.311,4.036,1.9.048,3.691.993,4.106,2.963,3.169-1.087,5.562,2.061,4.774,5.009a3.678,3.678,0,0,1,4,4.567c-.611,3.347-3.034,9.684-5.356,12.177a33.438,33.438,0,0,1-2.978,2.26c-.664.6-1.186,1.716-2.048,2.279a4.6,4.6,0,0,1-3.237.525c-3.58-1.751-9.991-2.4-13.229-4.3-2.192-1.291-1.517-3.358-2.128-5.387-.472-1.567-1.489-2.649-1.66-4.488-.194-2.083,1.749-8.726,2.771-10.661,1.38-2.613,3.676-1.962,6.091-1.539L31.381,9.7,29.468,6.912a28.059,28.059,0,0,0-13.555,6.9c2.007,1.714.341,3.737-1.519,1.726-.626-.112-3.41,4.216-3.844,4.986A26.045,26.045,0,0,0,7.023,33.052c2.146-.414,3.022,1.988.577,2.28-2.682.321-2.956-.464-2.85-2.849C5.293,20.2,14.133,9.523,25.58,5.719c.692-.23,3.506-.8,3.762-1.02.226-.195.634-2.148,1.505-3.05a5.409,5.409,0,0,1,9.238,3.124m-3.078-1.7c-1.722-1.724-5.032-.83-5.366,1.651-.095.7.022,2.314.655,2.721.381.245,1.884-1.3,2.63-1.039l2.612.688a3.577,3.577,0,0,0-.53-4.021m-.664,5.9c-.619-.586-2.351-.4-2.621.564L27.175,29.858a1.129,1.129,0,0,1-1.947-.784l2.521-8.548c-1.429-.1-2.455-1.067-3.364.622a55.922,55.922,0,0,0-2.555,8.6c0,2.014,1.569,3.815,1.944,5.8.183.967-.146,2.336.663,2.981l13.423,4.306c1.3-.051,2.136-1.762,3.089-2.612a22.209,22.209,0,0,0,2.972-2.494c1.765-2.121,3.708-7.4,4.218-10.127a4.349,4.349,0,0,0,.12-1.271,1.555,1.555,0,0,0-2.646-.8c-.9.89-1.324,4.764-2.137,6-.6.918-2.033.427-1.786-1.268.391-2.686,2.231-5.931,2.69-8.714A1.586,1.586,0,0,0,41.3,20.98c-1.14,2.3-1.634,6.847-2.877,8.737-.669,1.017-1.446.678-1.983-.248L39.6,19.038c-.26-2.434-2.421-2.2-3.311-.1-1.214,2.863-1.725,6.417-2.974,9.322-1.14,1.034-2.379.084-1.821-1.365l5.321-16.557a2.555,2.555,0,0,0-.472-1.364" transform="translate(-3.654 0)" fill="#b2be91"/>
          <path id="Path_933184" data-name="Path 933184" d="M11.8,183.485c1.029-.506,2.128-2.954,3.4-1.93,1.055.845-.059,1.746-.68,2.494-.532.642-2.385,2.135-2.609,2.629-.358.79.013,2.287-.116,3.183a11.593,11.593,0,0,0,2.952-1.031c1.053-.906,1.785-5.507,3.726-4.859,1.4.469-.366,3.059-.759,3.838.516.392,3.625-1.773,3.659.336.026,1.62-1.939,1.29-2.974,1.828.827.882,3.172,1,2.966,2.492-.327,2.369-4.932-1.422-6.037-1.443-.729-.014-2.026.844-2.851.891.475.511,1.35,2.321,1.83,2.608,1.007.6,5.293.275,5.64,1.421.707,2.333-2.333,1.194-3.6,1.208-.4.345,2.14,2.094,1.159,3.322-1.2,1.5-2.365-1.475-3.207-1.957-.2.882-.119,2.6-.662,3.273-.309.384-1.5.168-1.732-.311-.457-.923.754-4.2.564-5.563-.113-.81-1.283-1.864-1.7-2.633L8.9,195.921c-.006,1.056,1.293,5.274.466,5.8-2.011,1.279-2.1-1.905-2.126-3.2-.525-.131-.374.1-.52.287-.579.745-1.08,2.28-2.276,1.957-1.976-.533.918-3.482.748-3.609-1.29-.076-3.56,1.075-3.864-.806.061-1.5,4.724-1.361,5.858-1.758l1.877-2.674c-1,.067-2.143-.974-3.062-.908-.742.052-3.165,1.887-4.218,2.164-.849.223-1.626.289-1.721-.78-.1-1.144,1.823-1.539,2.559-2.018.22-.143.408.026.294-.508-.83-.137-3.018-.539-2.912-1.675.2-2.169,3.264-.063,3.593-.378-.087-.99-1.887-2.813-.817-3.664,1.872-1.487,3.016,3.96,3.835,4.746a13.648,13.648,0,0,0,3.131.967c-.13-.9.242-2.393-.117-3.183-.327-.721-5.543-4.418-3.144-5.212,1.637-.542,2.82,2.517,3.261,2.019l.114-2.96c2.322-1.646,1.982,1.4,1.939,2.961" transform="translate(-0.001 -139.047)" fill="#b2be91"/>
          <path id="Path_933185" data-name="Path 933185" d="M185.407,178.228c1.281-.256,2.85,2.807,3.864,3.108,1.116.332,3.691-.334,4.525.258,1.079.765.25,3.678.6,4.866.277.944,3.126,2.163,3.126,3.463s-2.824,2.446-3.126,3.463c-.353,1.185.483,4.1-.6,4.866-.834.592-3.409-.074-4.525.258-.8.239-2.647,3.062-3.471,3.148-1.389.145-2.553-2.813-3.682-3.148s-3.691.334-4.525-.258c-1.079-.765-.25-3.678-.6-4.866-.283-.964-3.042-2.074-3.126-3.463-.038-1.141,2.957-2.931,3.136-3.453.387-1.131-.529-4.083.589-4.876.835-.592,3.409.074,4.525-.258.982-.292,2.038-2.858,3.289-3.108m6.664,5.2h-3.758l-2.7-2.489-2.536,2.489h-3.758v3.53c0,.486-2.326,2.421-2.729,2.961,0,.2,2.3,2.057,2.557,2.677.462,1.137-.066,2.443.271,3.6.349.5,2.822.025,3.612.26.652.193,2.217,2.535,2.748,2.442.717-.394,1.943-2.252,2.583-2.442.79-.235,3.263.242,3.612-.26.337-1.157-.19-2.463.271-3.6.252-.621,2.557-2.478,2.557-2.677-.4-.54-2.729-2.475-2.729-2.961Z" transform="translate(-134.272 -137.628)" fill="#b2be91"/>
          <path id="Path_933186" data-name="Path 933186" d="M206.843,206.046c7.261-1.247,8.677,9.944,1.513,10.626-6.876.654-8.072-9.5-1.513-10.626m.893,2.073c-4.271.127-4.047,6.572.157,6.447s3.988-6.57-.157-6.447" transform="translate(-156.392 -159.048)" fill="#b2be91"/>
        </g>
      </g>
    </g>
  </g>
</svg>
