<svg xmlns="http://www.w3.org/2000/svg" xmlns:xlink="http://www.w3.org/1999/xlink" width="107" height="107" viewBox="0 0 107 107">
  <defs>
    <clipPath id="clip-path">
      <rect id="Rectangle_454712" data-name="Rectangle 454712" width="65.211" height="65.242" fill="#b2be91"/>
    </clipPath>
  </defs>
  <g id="conectada_02" transform="translate(-285.047 -6407.999)">
    <g id="Group_1177636" data-name="Group 1177636" transform="translate(-0.285 -1547.088)">
      <g id="Grupo_156312" data-name="Grupo 156312" transform="translate(-3.336 3506.65)">
        <path id="Elipse_5845" data-name="Elipse 5845" d="M53.5,0A53.5,53.5,0,1,1,0,53.5,53.5,53.5,0,0,1,53.5,0Z" transform="translate(288.668 4448.437)" fill="#004e3d"/>
      </g>
    </g>
    <g id="Group_1177643" data-name="Group 1177643" transform="translate(306.047 6428)">
      <g id="Group_1177642" data-name="Group 1177642" clip-path="url(#clip-path)">
        <path id="Path_933187" data-name="Path 933187" d="M24.352,48.794a23.922,23.922,0,0,1-.576,3.241c-.242.87-1.619,4.053-1.57,4.51.035.326,1.69,1.388,1.888,3.2.248,2.269-.107,4.974-2.828,5.3-5.294.637-11.822-.491-17.252,0C.155,64.576.2,57.908,3.409,56.488,4.06,52.339,1.9,49.035.877,45.275,0,42.033-.22,34.329.224,30.946A6.864,6.864,0,0,1,4.4,25.711c.332-5.825-.475-12.186-.018-17.946.26-3.281,2.515-6.718,5.9-7.395C12.81-.134,26.16-.095,28.837.32c3.335.517,6.113,4.109,6.1,7.441-.665,10.97.847,22.908,0,33.762-.46,5.88-5.216,7.928-10.587,7.27m-7.893-4.2,1.148,2.177c5.049-.389,14.438,2.179,15.118-5.245l-.07-34.678a5.417,5.417,0,0,0-4.063-4.311C23.065,2.8,16.845,1.982,11.4,2.468A5.054,5.054,0,0,0,7.21,5.421a11.96,11.96,0,0,0-.6,1.614V29.816H8.823V7.034c0-.485,1.049-1.673,1.49-1.959,1.174-.762,3.9-.834,5.237-.569.874.172.72.842,1.148,1.053a32.722,32.722,0,0,0,5.543.115C23,5.53,23.21,4.666,23.775,4.5c1.712-.506,5.849-.166,6.53,1.989l.2,35.279a3.439,3.439,0,0,1-2.591,2.827ZM11.957,6.72a1.467,1.467,0,0,0-.8.435l-.133,23.537c.857,1.583,1.892,2.463,2.166,4.484.348,2.571-.953,5.923,1.916,7.2l12.68-.117.442-.543L28.158,7.156c-.341-.7-3.2-.647-3.814-.364-.29.133-.54.641-.9.828-.862.452-6.706.456-7.575,0-.394-.206-.654-.782-1.065-.905a9.873,9.873,0,0,0-2.851.005M4.39,28.339c-1.1.144-1.822,1.918-1.949,2.854C2,34.406,2.224,41.951,3.093,45.028c.45,1.594,2.528,6.158,2.528,7.324v4.064l14.521-.011c.39-2.594,1.916-4.926,1.981-7.624h-4.68c-.094,0,.121,1.354-1.1,1.243-1.313-.119-1.015-2.126-1.227-2.983-.665-2.692-3.837-4.439-4.085-6.506-.286-2.381.8-6.18-1.488-7.872-.784-.58-2.177-1.045-2.94-.262v9.359c0,.782-2.217.81-2.217-.246ZM4.07,58.682c-.994.235-.814,3.321-.443,3.792l.647.339L21.531,62.6c.575-.453.68-3.824-.516-3.965Z" transform="translate(0 0)" fill="#b2be91"/>
        <path id="Path_933188" data-name="Path 933188" d="M181.688,18.2a5.54,5.54,0,0,1,5.855,3.87l.115,26.485c.9,1.5,2.387,2.3,3.241,3.9a9.783,9.783,0,1,1-17.535.78c.833-1.9,2.171-3.014,3.447-4.434l.069-25.792a5.66,5.66,0,0,1,4.809-4.81m-.01,2.211a3.7,3.7,0,0,0-2.646,3.028l-.006,26.347c-.134.709-1.954,1.819-2.583,2.589a7.573,7.573,0,0,0,2.5,11.548c7.974,3.807,14.965-6.389,8.337-12.524-.5-.464-1.466-.677-1.6-1.359l.011-25.625c.079-2.267-1.582-4.47-4.012-4" transform="translate(-130.063 -13.694)" fill="#b2be91"/>
        <path id="Path_933189" data-name="Path 933189" d="M241.141,1.052c5.365-.965,5.213,7.066.205,6.33-3.4-.5-3.544-5.729-.205-6.33m.222,2.192c-.616.206-.793,1.97.459,1.959,1.635-.014,1.584-2.644-.459-1.959" transform="translate(-179.922 -0.732)" fill="#b2be91"/>
        <path id="Path_933190" data-name="Path 933190" d="M155.491,128.06h5.172c.78,0,.78,2.217,0,2.217h-5.172c-.648,0-.937-1.893,0-2.217" transform="translate(-116.743 -96.52)" fill="#b2be91"/>
        <path id="Path_933191" data-name="Path 933191" d="M155.492,42.125c-.686-.194-.821-1.6-.2-1.99a17.26,17.26,0,0,1,5.5-.1c.718.351.77,2.095-.124,2.095a39.178,39.178,0,0,1-5.172,0" transform="translate(-116.744 -30.042)" fill="#b2be91"/>
        <path id="Path_933192" data-name="Path 933192" d="M155.524,86.277c-.962-.272-.648-2.217.246-2.217H160.7c.78,0,.78,2.217,0,2.217a39.22,39.22,0,0,1-5.172,0" transform="translate(-116.776 -63.357)" fill="#b2be91"/>
        <path id="Path_933193" data-name="Path 933193" d="M164.4,61.759c1.188-.351,4.379-.284,3.4,1.676-.34.682-2.982.659-3.574.369a1.172,1.172,0,0,1,.174-2.045" transform="translate(-123.39 -46.425)" fill="#b2be91"/>
        <path id="Path_933194" data-name="Path 933194" d="M164.4,105.759c1.188-.351,4.379-.284,3.4,1.676-.34.682-2.982.659-3.574.369a1.172,1.172,0,0,1,.174-2.045" transform="translate(-123.39 -79.588)" fill="#b2be91"/>
        <path id="Path_933195" data-name="Path 933195" d="M54.013,49.113a1.263,1.263,0,0,1,.181-2.035c1.233-.575,7.793.114,8.071-.18l.121-1.481c1.312-1.266,2.423-.084,2.095,1.479,2.76-.239,3,2.726,0,2.215.042.711.083,2.083-.869,2.231-1.477.114-1.432-1.059-1.346-2.23Z" transform="translate(-40.387 -33.828)" fill="#b2be91"/>
        <path id="Path_933196" data-name="Path 933196" d="M57.823,77.45c.272.276,6.594-.221,7.755,0a1.385,1.385,0,0,1,1.051,1.315l-.245.59c-.766.736-7.108.079-8.561.305.465,3.124-2.416,2.84-2.215,0-2.708.454-2.71-2.671,0-2.217-.24-2.755,2.724-3,2.215,0" transform="translate(-40.38 -56.745)" fill="#b2be91"/>
        <path id="Path_933197" data-name="Path 933197" d="M62.54,108.363l.12-1.726c1.594-1.2,2.323.125,2.1,1.727l1.806.225c.98,1.28-.449,2.315-1.807,1.989.284,1.428-.593,2.652-1.992,1.814l-.223-1.813h-8c-.78,0-.78-2.217,0-2.217Z" transform="translate(-40.663 -80.024)" fill="#b2be91"/>
        <path id="Path_933198" data-name="Path 933198" d="M199.741,49.368c.274.275.283.9.315,1.284l-.026,25.6c5,1.435,3.785,8.67-1.339,8.544a4.452,4.452,0,0,1-3.082-7.289c.581-.65,2.081-.975,2.222-1.719l.121-26.231a1.212,1.212,0,0,1,1.789-.187m.711,32.61c2.128-2.133-1.278-5.074-3.121-3a2.164,2.164,0,0,0,3.121,3" transform="translate(-146.644 -36.978)" fill="#b2be91"/>
      </g>
    </g>
  </g>
</svg>
