<svg xmlns="http://www.w3.org/2000/svg" width="114" height="114" viewBox="0 0 114 114">
  <g id="img10" transform="translate(-1234.5 -458)">
    <g id="Ellipse_12108" data-name="Ellipse 12108" transform="translate(1241.5 465)" fill="#f3bc5b" stroke="rgba(255,255,255,0.4)" stroke-width="7">
      <circle cx="50" cy="50" r="50" stroke="none"/>
      <circle cx="50" cy="50" r="53.5" fill="none"/>
    </g>
    <g id="Group_1177351" data-name="Group 1177351" transform="translate(1228.03 486.836)">
      <g id="Group_1177328" data-name="Group 1177328" transform="translate(51.266 40.368)">
        <g id="Group_1177327" data-name="Group 1177327" transform="translate(0)">
          <path id="Path_933087" data-name="Path 933087" d="M138.816,344h-1.878a.939.939,0,0,0,0,1.878h1.878a.939.939,0,0,0,0-1.878Z" transform="translate(-136 -344)" fill="#004e3d"/>
        </g>
      </g>
      <g id="Group_1177330" data-name="Group 1177330" transform="translate(56.898 40.368)">
        <g id="Group_1177329" data-name="Group 1177329">
          <path id="Path_933088" data-name="Path 933088" d="M207.47,344H184.939a.939.939,0,1,0,0,1.878H207.47a.939.939,0,1,0,0-1.878Z" transform="translate(-184 -344)" fill="#004e3d"/>
        </g>
      </g>
      <g id="Group_1177332" data-name="Group 1177332" transform="translate(51.266 34.735)">
        <g id="Group_1177331" data-name="Group 1177331" transform="translate(0)">
          <path id="Path_933089" data-name="Path 933089" d="M138.816,296h-1.878a.939.939,0,0,0,0,1.878h1.878a.939.939,0,0,0,0-1.878Z" transform="translate(-136 -296)" fill="#004e3d"/>
        </g>
      </g>
      <g id="Group_1177334" data-name="Group 1177334" transform="translate(56.898 34.735)">
        <g id="Group_1177333" data-name="Group 1177333">
          <path id="Path_933090" data-name="Path 933090" d="M207.47,296H184.939a.939.939,0,1,0,0,1.878H207.47a.939.939,0,1,0,0-1.878Z" transform="translate(-184 -296)" fill="#004e3d"/>
        </g>
      </g>
      <g id="Group_1177336" data-name="Group 1177336" transform="translate(51.266 29.103)">
        <g id="Group_1177335" data-name="Group 1177335" transform="translate(0)">
          <path id="Path_933091" data-name="Path 933091" d="M138.816,248h-1.878a.939.939,0,0,0,0,1.878h1.878a.939.939,0,0,0,0-1.878Z" transform="translate(-136 -248)" fill="#004e3d"/>
        </g>
      </g>
      <g id="Group_1177338" data-name="Group 1177338" transform="translate(56.898 29.103)">
        <g id="Group_1177337" data-name="Group 1177337">
          <path id="Path_933092" data-name="Path 933092" d="M207.47,248H184.939a.939.939,0,1,0,0,1.878H207.47a.939.939,0,1,0,0-1.878Z" transform="translate(-184 -248)" fill="#004e3d"/>
        </g>
      </g>
      <g id="Group_1177340" data-name="Group 1177340" transform="translate(51.266 23.47)">
        <g id="Group_1177339" data-name="Group 1177339" transform="translate(0)">
          <path id="Path_933093" data-name="Path 933093" d="M138.816,200h-1.878a.939.939,0,0,0,0,1.878h1.878a.939.939,0,0,0,0-1.878Z" transform="translate(-136 -200)" fill="#004e3d"/>
        </g>
      </g>
      <g id="Group_1177342" data-name="Group 1177342" transform="translate(56.898 23.47)">
        <g id="Group_1177341" data-name="Group 1177341">
          <path id="Path_933094" data-name="Path 933094" d="M207.47,200H184.939a.939.939,0,1,0,0,1.878H207.47a.939.939,0,1,0,0-1.878Z" transform="translate(-184 -200)" fill="#004e3d"/>
        </g>
      </g>
      <g id="Group_1177344" data-name="Group 1177344" transform="translate(51.266 17.837)">
        <g id="Group_1177343" data-name="Group 1177343" transform="translate(0)">
          <path id="Path_933095" data-name="Path 933095" d="M138.816,152h-1.878a.939.939,0,0,0,0,1.878h1.878a.939.939,0,0,0,0-1.878Z" transform="translate(-136 -152)" fill="#004e3d"/>
        </g>
      </g>
      <g id="Group_1177346" data-name="Group 1177346" transform="translate(56.898 17.837)">
        <g id="Group_1177345" data-name="Group 1177345">
          <path id="Path_933096" data-name="Path 933096" d="M207.47,152H184.939a.939.939,0,1,0,0,1.878H207.47a.939.939,0,1,0,0-1.878Z" transform="translate(-184 -152)" fill="#004e3d"/>
        </g>
      </g>
      <g id="Group_1177348" data-name="Group 1177348" transform="translate(40)">
        <g id="Group_1177347" data-name="Group 1177347" transform="translate(0)">
          <path id="Path_933097" data-name="Path 933097" d="M86.927,14.023a.887.887,0,0,0-.048-.241c-.01-.03-.018-.059-.031-.088a.938.938,0,0,0-.188-.275L73.518.275a.938.938,0,0,0-.275-.188c-.029-.013-.058-.021-.087-.031a.935.935,0,0,0-.243-.049C72.9.01,72.878,0,72.858,0H46.572a.939.939,0,0,0-.939.939V3.755H40.939A.939.939,0,0,0,40,4.694V55.389a.939.939,0,0,0,.939.939H80.368a.939.939,0,0,0,.939-.939V50.695H86a.939.939,0,0,0,.939-.939V14.082C86.94,14.061,86.929,14.043,86.927,14.023ZM73.8,3.205l9.938,9.938H73.8ZM79.429,54.45H41.878V5.633h3.755V49.756a.939.939,0,0,0,.939.939H79.429Zm5.633-5.633H47.51V1.878H71.919v12.2a.939.939,0,0,0,.939.939h12.2Z" transform="translate(-40)" fill="#004e3d"/>
        </g>
      </g>
      <g id="Group_1177350" data-name="Group 1177350" transform="translate(51.266 8.449)">
        <g id="Group_1177349" data-name="Group 1177349" transform="translate(0)">
          <path id="Path_933098" data-name="Path 933098" d="M142.572,72h-5.633a.939.939,0,0,0-.939.939v5.633a.939.939,0,0,0,.939.939h5.633a.939.939,0,0,0,.939-.939V72.939A.939.939,0,0,0,142.572,72Zm-.939,5.633h-3.755V73.878h3.755Z" transform="translate(-136 -72)" fill="#004e3d"/>
        </g>
      </g>
    </g>
  </g>
</svg>
