<svg xmlns="http://www.w3.org/2000/svg" width="100" height="100" viewBox="0 0 100 100">
  <g id="img13" transform="translate(-637 -6992)">
    <g id="Group_1098742" data-name="Group 1098742" transform="translate(637.242 6992)">
      <rect id="Rectangle_400898" data-name="Rectangle 400898" width="100" height="100" rx="50" transform="translate(-0.242)" fill="#fff" opacity="0.859"/>
      <g id="Rectangle_400907" data-name="Rectangle 400907" transform="translate(-0.242)" fill="none" stroke="#f3bc5b" stroke-linecap="round" stroke-width="3" stroke-dasharray="0 7">
        <rect width="100" height="100" rx="50" stroke="none"/>
        <rect x="1.5" y="1.5" width="97" height="97" rx="48.5" fill="none"/>
      </g>
    </g>
    <g id="Group_1107006" data-name="Group 1107006" transform="translate(645.398 7000.157)">
      <rect id="Rectangle_400898-2" data-name="Rectangle 400898" width="84" height="84" rx="42" transform="translate(-0.399 -0.157)" fill="#004e3d" opacity="0.859"/>
      <rect id="Rectangle_400907-2" data-name="Rectangle 400907" width="84" height="84" rx="42" transform="translate(-0.398 -0.157)" fill="none"/>
    </g>
    <g id="Page-1" transform="translate(662.984 7017.882)">
      <g id="_040---Frozen-Meat" data-name="040---Frozen-Meat" transform="translate(0.974 0.074)">
        <path id="Shape" d="M53.036,40.518a11.518,11.518,0,1,1-23.036,0c0-.207.008-.407.015-.607a11.527,11.527,0,0,1,11.08-10.9c.138-.008.284-.008.422-.008A11.509,11.509,0,0,1,53.036,40.518Z" transform="translate(-7.712 -6.789)" fill="#00bcd4"/>
        <path id="Shape-2" data-name="Shape" d="M44.652,29c-.389,0-.773.021-1.152.058a11.518,11.518,0,0,1,0,22.92c.379.038.763.058,1.152.058a11.518,11.518,0,1,0,0-23.036Z" transform="translate(-10.845 -6.789)" fill="#00838f"/>
        <path id="Shape-3" data-name="Shape" d="M39.067,13.048a11.552,11.552,0,0,0-1.159-1.236l-.323-.261c-.261-.207-.5-.392-.737-.545C31.042,7.066,25.775,5.07,21.183,5.07a14.807,14.807,0,0,0-3.217.353C11.661,6.851,6.777,14.215,6.079,23.33a23.019,23.019,0,0,0,1.1,9.522A14.016,14.016,0,0,0,8.8,36.023a8.984,8.984,0,0,0,3.118,2.9,5.452,5.452,0,0,0,2.473.614,4.657,4.657,0,0,0,2.941-1.021,16.224,16.224,0,0,0,2.818-3.471c.522-.768,1.06-1.559,1.659-2.327a23.6,23.6,0,0,1,4.976-4.745,11.514,11.514,0,0,1,8.731-4.523,13.216,13.216,0,0,0,2.043-1.229,6.994,6.994,0,0,0,2.979-5.506,6.33,6.33,0,0,0-1.474-3.67Z" transform="translate(-2.135 -1.234)" fill="#f44335"/>
        <path id="Shape-4" data-name="Shape" d="M41.252,13.048a11.552,11.552,0,0,0-1.159-1.236l-.323-.261c-.261-.207-.5-.392-.737-.545C33.227,7.066,27.96,5.07,23.368,5.07c-.379,0-.754.02-1.126.048,4.309.307,9.171,2.281,14.487,5.888.238.154.476.338.737.545l.323.261a11.552,11.552,0,0,1,1.159,1.236,6.33,6.33,0,0,1,1.474,3.67,6.994,6.994,0,0,1-2.979,5.506A13.216,13.216,0,0,1,35.4,23.453a11.513,11.513,0,0,0-8.731,4.523,23.6,23.6,0,0,0-4.976,4.745c-.6.768-1.136,1.559-1.659,2.327a16.224,16.224,0,0,1-2.818,3.471,4.613,4.613,0,0,1-1.828.876,5.167,5.167,0,0,0,1.191.145,4.657,4.657,0,0,0,2.941-1.021,16.224,16.224,0,0,0,2.818-3.471c.522-.768,1.06-1.559,1.659-2.327a23.6,23.6,0,0,1,4.976-4.745A11.514,11.514,0,0,1,37.7,23.453a13.216,13.216,0,0,0,2.043-1.229,6.994,6.994,0,0,0,2.979-5.506,6.33,6.33,0,0,0-1.474-3.67Z" transform="translate(-4.32 -1.234)" fill="#c81e1e"/>
        <path id="Shape-5" data-name="Shape" d="M23.2,20.855c-3.609,1.467-7.2.346-8.032-2.5s1.436-6.327,5.045-7.794,7.2-.338,8.032,2.5S26.809,19.4,23.2,20.855Z" transform="translate(-4.229 -2.36)" fill="#ffe0b2"/>
        <path id="Shape-6" data-name="Shape" d="M42.684,15.683a9.8,9.8,0,0,1-3.609,7.571,11.518,11.518,0,0,0-4.062-.737c-.138,0-.284,0-.422.008A13.216,13.216,0,0,0,36.633,21.3a6.994,6.994,0,0,0,2.979-5.506,6.33,6.33,0,0,0-1.474-3.67,11.553,11.553,0,0,0-1.159-1.236l-.323-.261c-.261-.207-.5-.392-.737-.545C30.113,6.139,24.846,4.142,20.254,4.142a14.807,14.807,0,0,0-3.217.353C10.732,5.924,5.849,13.288,5.15,22.4a23.019,23.019,0,0,0,1.1,9.522A14.016,14.016,0,0,0,7.876,35.1,8.984,8.984,0,0,0,10.993,38a5.452,5.452,0,0,0,2.473.614,4.657,4.657,0,0,0,2.941-1.021,16.224,16.224,0,0,0,2.818-3.471c.522-.768,1.06-1.559,1.659-2.327a23.6,23.6,0,0,1,4.976-4.745,11.449,11.449,0,0,0-2.35,6.381c-.069.084-.138.177-.207.261-1.651,2.112-2.964,4.684-4.976,6.3a8,8,0,0,1-8.746.737,11.973,11.973,0,0,1-4.223-3.87,17.22,17.22,0,0,1-1.989-3.87A26.023,26.023,0,0,1,2.086,22.164c.745-9.729,6-18.79,14.275-20.664C23.61-.142,31.227,3.182,37.639,7.529c.1.069.192.131.284.2.069.046.131.092.2.146.161.115.315.238.468.361l.392.323a14.07,14.07,0,0,1,1.543,1.628,9.384,9.384,0,0,1,2.158,5.5Z" transform="translate(-1.206 -0.306)" fill="#ffe0b2"/>
        <g id="Group_1176321" data-name="Group 1176321" transform="translate(4.143 0.769)">
          <path id="Shape-7" data-name="Shape" d="M45.685,10.186a14.07,14.07,0,0,0-1.543-1.628l-.392-.323c-.154-.123-.307-.246-.468-.361-.069-.054-.131-.1-.2-.146-.092-.069-.184-.131-.284-.2C37.172,3.716,30.619.691,24.2,1.116c5.667.318,11.341,3.055,16.294,6.413.1.069.192.131.284.2.069.046.131.092.2.146.161.115.315.238.468.361l.392.323a14.07,14.07,0,0,1,1.543,1.628,9.384,9.384,0,0,1,2.158,5.5,9.6,9.6,0,0,1-3.078,7.07,11.536,11.536,0,0,1,1.772.5,9.8,9.8,0,0,0,3.609-7.571,9.384,9.384,0,0,0-2.158-5.5Z" transform="translate(-10.509 -1.076)" fill="#dfc49c"/>
          <path id="Shape-8" data-name="Shape" d="M24.748,38.765a11.42,11.42,0,0,0-.416,2.516c-.069.084-.138.177-.207.261-1.651,2.112-2.964,4.684-4.976,6.3a7.654,7.654,0,0,1-3.71,1.613,7.775,7.775,0,0,0,6.014-1.613c2.012-1.613,3.325-4.185,4.976-6.3.069-.084.138-.177.207-.261a11.449,11.449,0,0,1,2.35-6.381,23.783,23.783,0,0,0-4.237,3.865Z" transform="translate(-8.475 -8.927)" fill="#dfc49c"/>
          <path id="Shape-9" data-name="Shape" d="M26.074,49.591A17.667,17.667,0,0,1,22.726,53.6a7.94,7.94,0,0,1-6.45,1.6,7.442,7.442,0,0,1-3.64-1.889c-1.82-1.643-5.222-4.845-6.266-6.673h.008A11.973,11.973,0,0,0,10.6,50.5a8,8,0,0,0,8.746-.737c2.012-1.613,3.325-4.185,4.976-6.3.069-.084.138-.177.207-.261-.008.2-.015.4-.015.607a11.421,11.421,0,0,0,1.559,5.774Z" transform="translate(-6.37 -10.856)" fill="#dfc49c"/>
          <path id="Shape-10" data-name="Shape" d="M57.451,21.033a9.883,9.883,0,0,1-3.095,7.21A11.384,11.384,0,0,0,50,25.311a9.8,9.8,0,0,0,3.609-7.571,9.384,9.384,0,0,0-2.158-5.5,14.07,14.07,0,0,0-1.543-1.628l-.392-.323c-.154-.123-.307-.246-.468-.361a44.013,44.013,0,0,1,6.2,5.483,9.644,9.644,0,0,1,2.2,5.621Z" transform="translate(-16.277 -3.131)" fill="#dfc49c"/>
        </g>
        <path id="Shape-11" data-name="Shape" d="M23.2,20.855c-3.609,1.467-7.2.346-8.032-2.5s1.436-6.327,5.045-7.794,7.2-.338,8.032,2.5S26.809,19.4,23.2,20.855Z" transform="translate(-4.229 -2.36)" fill="#ffe0b2"/>
        <path id="Shape-12" data-name="Shape" d="M23.135,18.529c2.421-.981,3.225-2.858,3.133-3.185-.132-.456-1.882-1.152-4.13-.244A5.943,5.943,0,0,0,19.4,17.25a1.843,1.843,0,0,0-.393,1.035C19.137,18.739,20.888,19.439,23.135,18.529Z" transform="translate(-5.16 -3.459)" fill="#f44335"/>
        <path id="Shape-13" data-name="Shape" d="M49.763,42.157,47.472,43.29l-3.48-2.009,3.48-2.009L49.763,40.4a.768.768,0,0,0,.68-1.377l-1.372-.679.895-.517A.768.768,0,1,0,49.2,36.5l-.895.517.1-1.529a.769.769,0,1,0-1.536-.1l-.165,2.55-3.476,2.009V35.933l2.126-1.417a.768.768,0,1,0-.852-1.278l-1.274.849V33.054a.768.768,0,1,0-1.536,0v1.033l-1.274-.849a.768.768,0,1,0-.852,1.278l2.126,1.417v4.018L38.21,37.942l-.165-2.55a.769.769,0,0,0-1.536.1l.1,1.529-.895-.517a.768.768,0,1,0-.768,1.33l.895.517-1.372.679a.768.768,0,0,0,.68,1.377l2.291-1.133,3.483,2.009-3.48,2.009L35.15,42.157a.768.768,0,0,0-.68,1.377l1.372.679-.895.517a.768.768,0,1,0,.768,1.33l.895-.517-.1,1.529a.768.768,0,0,0,.716.815h.051a.768.768,0,0,0,.768-.719l.165-2.55,3.477-2.007v4.018l-2.126,1.417a.768.768,0,0,0,.852,1.278l1.274-.849v1.033a.768.768,0,1,0,1.536,0V48.475l1.274.849a.768.768,0,0,0,.852-1.278l-2.126-1.417V42.611L46.7,44.62l.165,2.55a.768.768,0,0,0,.768.719h.051a.768.768,0,0,0,.716-.815l-.1-1.529.895.517a.768.768,0,1,0,.768-1.33l-.895-.517,1.372-.679a.768.768,0,0,0-.68-1.377Z" transform="translate(-8.65 -7.551)" fill="#f5f5f5"/>
        <path id="Shape-14" data-name="Shape" d="M47.058,18.72a10.415,10.415,0,0,0-2.4-6.117,43.956,43.956,0,0,0-6.3-5.566,2.371,2.371,0,0,0-.211-.154l-.028-.02-.008-.006c-.068-.049-.135-.1-.206-.146l-.071-.049C29.693,1.143,22.33-.924,15.958.52,7.9,2.345,1.926,10.927,1.088,21.875A26.779,26.779,0,0,0,2.416,33.016a17.905,17.905,0,0,0,2.028,3.965A.027.027,0,0,0,4.451,37c1.1,1.92,4.492,5.123,6.416,6.861a8.221,8.221,0,0,0,4.018,2.073,9.015,9.015,0,0,0,1.62.153,8.692,8.692,0,0,0,5.452-1.9,15.192,15.192,0,0,0,2.853-3.235A12.275,12.275,0,1,0,44.237,25.967a10.478,10.478,0,0,0,2.821-7.246Zm-1.536.052a8.907,8.907,0,0,1-2.356,6.079,12.313,12.313,0,0,0-2.972-2.059,10.329,10.329,0,0,0,3.023-7.366,9.231,9.231,0,0,0-.482-2.6c.475.478.759.782.76.782a8.847,8.847,0,0,1,2.029,5.167ZM2.62,21.991C3.274,13.443,7.757,3.953,16.3,2.018,22.242.671,29.2,2.661,36.97,7.93l.07.048c.065.045.127.088.23.16.053.035.1.07.178.131.145.1.285.215.426.329l.365.3a13.275,13.275,0,0,1,1.456,1.54,8.554,8.554,0,0,1,1.986,5.04,8.928,8.928,0,0,1-3.037,6.672,12.267,12.267,0,0,0-1.819-.448l.035-.025a7.772,7.772,0,0,0,3.285-6.143A7.107,7.107,0,0,0,38.5,11.409a12.3,12.3,0,0,0-1.276-1.353L36.9,9.789c-.282-.223-.538-.422-.783-.579-5.933-4.026-11.348-6.066-16.1-6.066a15.6,15.6,0,0,0-3.387.372c-6.623,1.5-11.755,9.147-12.479,18.6a23.779,23.779,0,0,0,1.142,9.849A14.756,14.756,0,0,0,7.012,35.3a9.747,9.747,0,0,0,3.4,3.148,6.2,6.2,0,0,0,2.823.7,5.424,5.424,0,0,0,3.42-1.189,16.722,16.722,0,0,0,2.975-3.639c.513-.756,1.044-1.536,1.629-2.287a22.089,22.089,0,0,1,1.867-2.092,12.209,12.209,0,0,0-.585,2.949l-.077.1c-.553.706-1.07,1.465-1.569,2.2a17.826,17.826,0,0,1-3.283,3.972,7.189,7.189,0,0,1-7.909.654,11.252,11.252,0,0,1-3.947-3.631,16.382,16.382,0,0,1-1.9-3.7,25.257,25.257,0,0,1-1.236-10.5Zm22.5,4.247a24.418,24.418,0,0,0-5.075,4.851c-.614.79-1.16,1.592-1.7,2.387a15.7,15.7,0,0,1-2.649,3.283,4.249,4.249,0,0,1-4.582.325,8.234,8.234,0,0,1-2.841-2.66,13.262,13.262,0,0,1-1.536-2.995,22.245,22.245,0,0,1-1.054-9.2C6.354,13.447,11,6.368,16.969,5.015a14.115,14.115,0,0,1,3.053-.336c4.434,0,9.559,1.952,15.248,5.813.219.141.436.312.67.5l.284.23a10.827,10.827,0,0,1,1.086,1.157,5.563,5.563,0,0,1,1.305,3.214,6.223,6.223,0,0,1-2.67,4.861,12.32,12.32,0,0,1-1.827,1.1,12.259,12.259,0,0,0-9,4.683Zm-4.126,16.75a7.134,7.134,0,0,1-5.836,1.44,6.7,6.7,0,0,1-3.259-1.7c-.237-.214-.53-.481-.853-.781a9.089,9.089,0,0,0,2.17.266,8.531,8.531,0,0,0,5.364-1.857,19.158,19.158,0,0,0,3.591-4.305c.147-.214.3-.43.445-.646a12.182,12.182,0,0,0,1.31,4.13,15.572,15.572,0,0,1-2.932,3.455ZM34.78,44.554A10.75,10.75,0,1,1,45.531,33.8a10.75,10.75,0,0,1-10.75,10.75Z" transform="translate(-0.974 -0.074)"/>
        <path id="Shape-15" data-name="Shape" d="M26.117,9.573a7.977,7.977,0,0,0-6.423.053c-3.959,1.6-6.423,5.513-5.491,8.717a4.9,4.9,0,0,0,2.633,3.048,6.806,6.806,0,0,0,2.98.646,9.214,9.214,0,0,0,3.444-.7c3.959-1.6,6.423-5.513,5.491-8.717a4.906,4.906,0,0,0-2.634-3.045ZM22.684,19.915a6.548,6.548,0,0,1-5.178.094,3.347,3.347,0,0,1-1.829-2.095c-.718-2.469,1.343-5.549,4.593-6.866a7.715,7.715,0,0,1,2.869-.582,5.3,5.3,0,0,1,2.308.488,3.349,3.349,0,0,1,1.83,2.1C27.994,15.519,25.933,18.6,22.684,19.915Z" transform="translate(-3.999 -2.128)"/>
        <path id="Shape-16" data-name="Shape" d="M25.933,14.028a5.484,5.484,0,0,0-4.309.124,6.726,6.726,0,0,0-3.1,2.444,2.3,2.3,0,0,0-.485,1.667,1.49,1.49,0,0,0,.845.866,4.341,4.341,0,0,0,1.861.377,6.527,6.527,0,0,0,2.448-.5c2.651-1.075,3.826-3.273,3.582-4.11a1.488,1.488,0,0,0-.844-.866Zm-3.312,3.554a4.125,4.125,0,0,1-2.995.2,2.5,2.5,0,0,1,.192-.349A5.165,5.165,0,0,1,22.2,15.575a4.127,4.127,0,0,1,2.995-.2A4.774,4.774,0,0,1,22.621,17.581Z" transform="translate(-4.933 -3.224)"/>
      </g>
    </g>
  </g>
</svg>
