<svg xmlns="http://www.w3.org/2000/svg" width="124" height="124" viewBox="0 0 124 124">
  <g id="img25" transform="translate(-1234.5 -458)">
    <g id="Ellipse_12108" data-name="Ellipse 12108" transform="translate(1241.5 465)" fill="#f3bc5b" stroke="rgba(255,255,255,0.4)" stroke-width="7">
      <circle cx="55" cy="55" r="55" stroke="none"/>
      <circle cx="55" cy="55" r="58.5" fill="none"/>
    </g>
    <g id="Group_1176220" data-name="Group 1176220" transform="translate(1164.383 479.36)">
      <g id="Group_1176218" data-name="Group 1176218" transform="translate(110.327 1.587)">
        <path id="Path_929485" data-name="Path 929485" d="M230.069,10h14.583v6.35H230.069Z" transform="translate(-212.396 -10)" fill="#ff9eb1"/>
        <path id="Path_929486" data-name="Path 929486" d="M207.228,50h21.835v7.937H207.228Z" transform="translate(-193.181 -43.65)" fill="#ff7d97"/>
        <path id="Path_929487" data-name="Path 929487" d="M141.68,163.817H125.09V152.945l-6.35-7.808v-38.9h10.2l3.848-6.24h21.834l7.7,12.481v51.336H141.68Z" transform="translate(-118.74 -85.713)" fill="#fff2a0"/>
        <path id="Path_929488" data-name="Path 929488" d="M158.739,207.991V178.62h7.937Z" transform="translate(-152.389 -151.852)" fill="#fff"/>
        <path id="Path_929489" data-name="Path 929489" d="M276,178.62h18.615v43.639H276Z" transform="translate(-251.035 -151.852)" fill="#fff"/>
        <path id="Path_929490" data-name="Path 929490" d="M326,229.653h10.677v11.123H326Z" transform="translate(-293.098 -194.783)" fill="#ff9eb1"/>
      </g>
      <g id="Group_1176219" data-name="Group 1176219" transform="translate(108.74)">
        <path id="Path_929491" data-name="Path 929491" d="M155.258,27.522l-7.461-12.1V7.937A1.588,1.588,0,0,0,146.21,6.35h-2.039V1.587A1.587,1.587,0,0,0,142.584,0H128a1.587,1.587,0,0,0-1.587,1.587V6.35h-2.039a1.588,1.588,0,0,0-1.587,1.587v7.488l-3.146,5.1h-9.313a1.588,1.588,0,0,0-1.587,1.587v38.9a1.587,1.587,0,0,0,.356,1l5.994,7.37V79.692a1.588,1.588,0,0,0,1.587,1.587h16.589a1.587,1.587,0,1,0,0-3.175h-15V68.82a1.587,1.587,0,0,0-.356-1l-5.994-7.37V23.7h8.612a1.588,1.588,0,0,0,1.351-.754l3.383-5.486h20.062l5.74,9.306H135.292a1.588,1.588,0,0,0-1.587,1.587V71.995a1.587,1.587,0,0,0,1.587,1.587H152.32V78.1h-4.766a1.587,1.587,0,0,0,0,3.175h6.353a1.588,1.588,0,0,0,1.587-1.587V28.356A1.588,1.588,0,0,0,155.258,27.522ZM129.588,3.175H141V6.35H129.588Zm15.034,6.35v4.762h-18.66V9.525Zm7.7,36.468h-7.5V38.045h7.5ZM136.88,70.407V29.943h15.44v4.926h-9.09a1.588,1.588,0,0,0-1.587,1.587V47.58a1.588,1.588,0,0,0,1.587,1.587h9.09v5.995h-9.09a1.587,1.587,0,1,0,0,3.175h9.09v3.969h-9.09a1.587,1.587,0,1,0,0,3.175h9.09v4.926H136.88Z" transform="translate(-108.74)"/>
        <circle id="Ellipse_13529" data-name="Ellipse 13529" cx="1.587" cy="1.587" r="1.587" transform="translate(30.082 78.104)"/>
        <path id="Path_929492" data-name="Path 929492" d="M158.264,168.62h-7.937a1.588,1.588,0,0,0-1.587,1.587v29.371a1.587,1.587,0,0,0,3.12.414l7.937-29.371a1.587,1.587,0,0,0-1.533-2Zm-6.35,19V171.795h4.277Z" transform="translate(-142.389 -141.852)"/>
      </g>
    </g>
  </g>
</svg>
