<svg xmlns="http://www.w3.org/2000/svg" width="100" height="100" viewBox="0 0 100 100">
  <g id="img39" transform="translate(-637 -6992)">
    <g id="Group_1098742" data-name="Group 1098742" transform="translate(637.242 6992)">
      <rect id="Rectangle_400898" data-name="Rectangle 400898" width="100" height="100" rx="50" transform="translate(-0.242)" fill="#fff" opacity="0.859"/>
      <g id="Rectangle_400907" data-name="Rectangle 400907" transform="translate(-0.242)" fill="none" stroke="#f3bc5b" stroke-linecap="round" stroke-width="3" stroke-dasharray="0 7">
        <rect width="100" height="100" rx="50" stroke="none"/>
        <rect x="1.5" y="1.5" width="97" height="97" rx="48.5" fill="none"/>
      </g>
    </g>
    <g id="Group_1107006" data-name="Group 1107006" transform="translate(645.398 7000.157)">
      <rect id="Rectangle_400898-2" data-name="Rectangle 400898" width="84" height="84" rx="42" transform="translate(-0.399 -0.157)" fill="#004e3d" opacity="0.859"/>
      <rect id="Rectangle_400907-2" data-name="Rectangle 400907" width="84" height="84" rx="42" transform="translate(-0.398 -0.157)" fill="none"/>
    </g>
    <g id="Support_Color_Line_Outline" data-name="Support_Color Line Outline" transform="translate(662.296 7016.986)">
      <g id="_15_Request_Support" data-name="15_Request Support" transform="translate(3)">
        <path id="Path_932778" data-name="Path 932778" d="M41.522,49.465H4V1H36.831l4.69,4.69Z" transform="translate(-3.218 -0.218)" fill="#e6e6e6"/>
        <path id="Path_932779" data-name="Path 932779" d="M50.251,7.275V5.69L45.561,1H43.989V7.275Z" transform="translate(-11.948 -0.218)" fill="#e6e6e6"/>
        <path id="Path_932780" data-name="Path 932780" d="M6.345,11.944V1H4V49.465H41.522V47.12A35.176,35.176,0,0,1,6.345,11.944Z" transform="translate(-3.218 -0.218)" fill="#f2f2f2"/>
        <path id="Path_932781" data-name="Path 932781" d="M41.3,50.029H3.782A.782.782,0,0,1,3,49.247V.782A.782.782,0,0,1,3.782,0H36.613a.782.782,0,0,1,.553.229l4.69,4.69a.782.782,0,0,1,.229.553v8.6H40.522V5.8L36.289,1.563H4.563v46.9H40.522V32.05h1.563v17.2A.782.782,0,0,1,41.3,50.029Z" transform="translate(-3 0)"/>
        <path id="Path_932782" data-name="Path 932782" d="M50.251,7.275V5.69L45.561,1H43.989V7.275Z" transform="translate(-11.948 -0.218)" fill="#f2f2f2"/>
        <path id="Path_932783" data-name="Path 932783" d="M8,31h4.69v4.69H8Z" transform="translate(-4.092 -6.767)" fill="#f29500"/>
        <path id="Path_932784" data-name="Path 932784" d="M8,42h4.69v4.69H8Z" transform="translate(-4.092 -9.169)" fill="#f29500"/>
        <path id="Path_932785" data-name="Path 932785" d="M8,53h4.69v4.69H8Z" transform="translate(-4.092 -11.57)" fill="#f29500"/>
        <path id="Path_932786" data-name="Path 932786" d="M50.033,7.838H43.77a.782.782,0,0,1-.782-.782V.782A.782.782,0,0,1,43.77,0h1.573A.782.782,0,0,1,45.9.229l4.69,4.69a.782.782,0,0,1,.229.553V7.056A.782.782,0,0,1,50.033,7.838ZM44.551,6.275h4.7V5.8L45.019,1.563H44.55Z" transform="translate(-11.729 0)"/>
        <circle id="Ellipse_13575" data-name="Ellipse 13575" cx="8.599" cy="8.599" r="8.599" transform="translate(10.944 3.908)" fill="#f4b400"/>
        <path id="Path_932787" data-name="Path 932787" d="M27.943,20.26A8.6,8.6,0,0,1,20.805,6.868,8.6,8.6,0,1,0,32.737,18.8a8.556,8.556,0,0,1-4.793,1.46Z" transform="translate(-6.056 -1.499)" fill="#f29500"/>
        <g id="Group_1177094" data-name="Group 1177094" transform="translate(3.127 3.126)">
          <path id="Path_932788" data-name="Path 932788" d="M25.382,22.761A9.38,9.38,0,1,1,28.607,4.569l-.538,1.468a7.827,7.827,0,1,0,2.61,1.595l1.06-1.149a9.38,9.38,0,0,1-6.357,16.278Z" transform="translate(-8.967 -4)" fill="#383838"/>
          <path id="Path_932789" data-name="Path 932789" d="M12.472,36.254H7.782A.782.782,0,0,1,7,35.472v-4.69A.782.782,0,0,1,7.782,30H9.345v1.563H8.563V34.69H11.69v-.7h1.563v1.48A.782.782,0,0,1,12.472,36.254Z" transform="translate(-7 -9.676)"/>
          <path id="Path_932790" data-name="Path 932790" d="M12.472,47.254H7.782A.782.782,0,0,1,7,46.472v-4.69A.782.782,0,0,1,7.782,41H9.345v1.563H8.563V45.69H11.69v-.7h1.563v1.48A.782.782,0,0,1,12.472,47.254Z" transform="translate(-7 -12.077)"/>
          <path id="Path_932791" data-name="Path 932791" d="M12.472,58.254H7.782A.782.782,0,0,1,7,57.472v-4.69A.782.782,0,0,1,7.782,52H9.345v1.563H8.563V56.69H11.69v-.7h1.563v1.48A.782.782,0,0,1,12.472,58.254Z" transform="translate(-7 -14.478)"/>
          <path id="Path_932792" data-name="Path 932792" d="M0,0H5.527V1.563H0Z" transform="translate(2.57 22.897) rotate(-45)"/>
          <path id="Path_932793" data-name="Path 932793" d="M0,0H5.527V1.563H0Z" transform="translate(2.569 31.495) rotate(-45)"/>
          <path id="Path_932794" data-name="Path 932794" d="M0,0H6.08V1.563H0Z" transform="translate(2.569 40.092) rotate(-45)"/>
          <path id="Path_932795" data-name="Path 932795" d="M18,33H28.944v1.563H18Z" transform="translate(-9.401 -10.33)" fill="#383838"/>
          <path id="Path_932796" data-name="Path 932796" d="M18,44h7.035v1.563H18Z" transform="translate(-9.401 -12.732)" fill="#383838"/>
          <path id="Path_932797" data-name="Path 932797" d="M18,55H30.507v1.563H18Z" transform="translate(-9.401 -15.133)" fill="#383838"/>
          <path id="Path_932798" data-name="Path 932798" d="M41.451,37.191a.782.782,0,0,1-.553-.235l-3.361-3.361a.782.782,0,0,1,0-1.105L48.75,21.272a.781.781,0,0,1,1.105,0l3.361,3.365a.782.782,0,0,1,0,1.105L42,36.956A.782.782,0,0,1,41.451,37.191Zm-2.258-4.143,2.258,2.26L51.561,25.19,49.3,22.931Z" transform="translate(-13.616 -7.72)" fill="#383838"/>
        </g>
        <path id="Path_932799" data-name="Path 932799" d="M0,0H15.861V4.758H0Z" transform="translate(27.592 28.448) rotate(-45)" fill="#f4b400"/>
        <path id="Path_932800" data-name="Path 932800" d="M41.451,37.191a.782.782,0,0,1-.553-.235l-3.361-3.361a.782.782,0,0,1,0-1.105L48.75,21.272a.781.781,0,0,1,1.105,0l3.361,3.365a.782.782,0,0,1,0,1.105L42,36.956A.782.782,0,0,1,41.451,37.191Zm-2.258-4.143,2.258,2.26L51.561,25.19,49.3,22.931Z" transform="translate(-10.489 -4.594)"/>
        <path id="Path_932801" data-name="Path 932801" d="M56.017,24.744l-3.361-3.361L54.332,19.7A2.38,2.38,0,1,1,57.7,23.062Z" transform="translate(-13.84 -4.148)" fill="#db4437"/>
        <path id="Path_932802" data-name="Path 932802" d="M55.8,25.288a.782.782,0,0,1-.553-.229L51.885,21.7a.782.782,0,0,1,0-1.105l1.681-1.685a3.16,3.16,0,1,1,4.467,4.467l-1.682,1.682A.782.782,0,0,1,55.8,25.288ZM53.54,21.145l2.259,2.26,1.129-1.133a1.6,1.6,0,0,0,0-2.259,1.634,1.634,0,0,0-2.258,0Z" transform="translate(-13.622 -3.91)"/>
        <path id="Path_932803" data-name="Path 932803" d="M34,43.747l4.486-1.122-3.364-3.364Z" transform="translate(-9.767 -8.571)" fill="#f4b400"/>
        <path id="Path_932804" data-name="Path 932804" d="M33.782,44.311a.782.782,0,0,1-.758-.972l1.122-4.486a.782.782,0,0,1,1.311-.363l3.361,3.361a.782.782,0,0,1-.363,1.312l-4.483,1.124A.782.782,0,0,1,33.782,44.311Zm1.545-3.739-.469,1.882,1.883-.469Z" transform="translate(-9.549 -8.352)"/>
        <path id="Path_932805" data-name="Path 932805" d="M0,0H3.172V4.758H0Z" transform="translate(25.348 30.689) rotate(-45)" fill="#db4437"/>
        <path id="Path_932806" data-name="Path 932806" d="M38.582,42.563a.782.782,0,0,1-.553-.229l-3.361-3.361a.782.782,0,0,1,0-1.105l2.243-2.243a.782.782,0,0,1,1.105,0l3.361,3.361a.782.782,0,0,1,0,1.105l-2.243,2.243A.782.782,0,0,1,38.582,42.563ZM36.323,38.42l2.259,2.259,1.137-1.137-2.258-2.259Z" transform="translate(-9.863 -7.727)" fill="#383838"/>
        <path id="Path_932807" data-name="Path 932807" d="M24.7,18.935a.782.782,0,0,1-.553-.229l-2.378-2.378,1.105-1.105L24.7,17.048l5.712-5.713,1.105,1.105-6.265,6.265A.782.782,0,0,1,24.7,18.935Z" transform="translate(-7.096 -2.474)" fill="#383838"/>
        <path id="Path_932808" data-name="Path 932808" d="M51,37h1.563v1.563H51Z" transform="translate(-13.478 -8.077)" fill="#383838"/>
        <path id="Path_932809" data-name="Path 932809" d="M29,44h1.563v1.563H29Z" transform="translate(-8.676 -9.605)" fill="#383838"/>
      </g>
    </g>
  </g>
</svg>
