<svg xmlns="http://www.w3.org/2000/svg" width="60" height="60" viewBox="0 0 60 60">
  <g id="img46" transform="translate(-198.711 -31670)">
    <path id="Path_929557" data-name="Path 929557" d="M6.667,0H53.333A6.667,6.667,0,0,1,60,6.667V53.333A6.667,6.667,0,0,1,53.333,60H6.667A6.667,6.667,0,0,1,0,53.333V6.667A6.667,6.667,0,0,1,6.667,0Z" transform="translate(198.711 31670)" fill="#dae4e3"/>
    <g id="Group_1177129" data-name="Group 1177129" transform="translate(207.088 31617.945)">
      <g id="Group_1177118" data-name="Group 1177118" transform="translate(8.446 71.076)">
        <g id="Group_1177117" data-name="Group 1177117" transform="translate(0 0)">
          <path id="Path_932871" data-name="Path 932871" d="M100.84,126.006a.845.845,0,1,0,.845.845A.845.845,0,0,0,100.84,126.006Z" transform="translate(-99.995 -126.006)" fill="#004e3d"/>
        </g>
      </g>
      <g id="Group_1177120" data-name="Group 1177120" transform="translate(0 66.008)">
        <g id="Group_1177119" data-name="Group 1177119" transform="translate(0 0)">
          <path id="Path_932872" data-name="Path 932872" d="M39.776,78.3l-1.222-2.444a2.52,2.52,0,0,0-2.266-1.4H29.223V68.542a2.537,2.537,0,0,0-2.534-2.534H2.534A2.537,2.537,0,0,0,0,68.542V90.5a2.537,2.537,0,0,0,2.534,2.534H5.068a5.047,5.047,0,0,0,1.294,3.378H.845a.845.845,0,1,0,0,1.689H42.4a.845.845,0,1,0,0-1.689H40.26a5.047,5.047,0,0,0,1.294-3.378c0-.048,0-.1,0-.144a2.538,2.538,0,0,0,1.693-2.39V85.833C43.244,84.847,43.439,85.767,39.776,78.3ZM38.5,79.522l2.534,5.068H32.6V79.522ZM1.689,86.279H3.378v1.689H1.689Zm8.446,10.135a3.382,3.382,0,0,1-3.378-3.378,3.334,3.334,0,0,1,.068-.677,3.378,3.378,0,0,1,6.62,0v0a3.321,3.321,0,0,1,.068.673A3.382,3.382,0,0,1,10.135,96.414Zm0-8.446a5.085,5.085,0,0,0-4.778,3.378H2.534a.846.846,0,0,1-.845-.845v-.845H4.223a.845.845,0,0,0,.845-.845V85.434a.845.845,0,0,0-.845-.845H1.689V68.542a.846.846,0,0,1,.845-.845H26.69a.846.846,0,0,1,.845.845v22.8H14.913A5.085,5.085,0,0,0,10.135,87.968Zm3.773,8.446A5.047,5.047,0,0,0,15.2,93.035H31.419a5.047,5.047,0,0,0,1.294,3.378H13.908Zm22.579,0a3.382,3.382,0,0,1-3.378-3.378,3.334,3.334,0,0,1,.068-.677,3.378,3.378,0,0,1,6.62,0v0a3.321,3.321,0,0,1,.068.673A3.382,3.382,0,0,1,36.487,96.414ZM41.555,90.5a.844.844,0,0,1-.35.683,5.068,5.068,0,0,0-9.5.161H29.223v-15.2h7.064a.84.84,0,0,1,.756.467l.611,1.222h-5.9a.845.845,0,0,0-.845.845v6.757a.845.845,0,0,0,.845.845h9.8Z" transform="translate(0 -66.008)" fill="#004e3d"/>
        </g>
      </g>
      <g id="Group_1177122" data-name="Group 1177122" transform="translate(11.824 71.076)">
        <g id="Group_1177121" data-name="Group 1177121" transform="translate(0 0)">
          <path id="Path_932873" data-name="Path 932873" d="M151.481,126.006H140.839a.845.845,0,1,0,0,1.689h10.642a.845.845,0,0,0,0-1.689Z" transform="translate(-139.994 -126.006)" fill="#004e3d"/>
        </g>
      </g>
      <g id="Group_1177124" data-name="Group 1177124" transform="translate(15.203 74.454)">
        <g id="Group_1177123" data-name="Group 1177123" transform="translate(0 0)">
          <path id="Path_932874" data-name="Path 932874" d="M188.1,166h-7.264a.845.845,0,0,0,0,1.689H188.1a.845.845,0,0,0,0-1.689Z" transform="translate(-179.992 -166.004)" fill="#004e3d"/>
        </g>
      </g>
      <g id="Group_1177126" data-name="Group 1177126" transform="translate(34.798 91.346)">
        <g id="Group_1177125" data-name="Group 1177125">
          <path id="Path_932875" data-name="Path 932875" d="M413.672,366a1.689,1.689,0,1,0,1.689,1.689A1.691,1.691,0,0,0,413.672,366Z" transform="translate(-411.983 -365.996)" fill="#004e3d"/>
        </g>
      </g>
      <g id="Group_1177128" data-name="Group 1177128" transform="translate(8.446 91.346)">
        <g id="Group_1177127" data-name="Group 1177127">
          <path id="Path_932876" data-name="Path 932876" d="M101.685,366a1.689,1.689,0,1,0,1.689,1.689A1.691,1.691,0,0,0,101.685,366Z" transform="translate(-99.996 -365.996)" fill="#004e3d"/>
        </g>
      </g>
    </g>
  </g>
</svg>
