<svg xmlns="http://www.w3.org/2000/svg" width="60" height="60" viewBox="0 0 60 60">
  <g id="img44" transform="translate(-828.711 -31420)">
    <path id="Path_929556" data-name="Path 929556" d="M6.667,0H53.333A6.667,6.667,0,0,1,60,6.667V53.333A6.667,6.667,0,0,1,53.333,60H6.667A6.667,6.667,0,0,1,0,53.333V6.667A6.667,6.667,0,0,1,6.667,0Z" transform="translate(828.711 31420)" fill="#dae4e3"/>
    <g id="_x32_9_Truck" transform="translate(828.559 31335.967)">
      <g id="Group_1177109" data-name="Group 1177109" transform="translate(6.086 98.907)">
        <path id="Path_932859" data-name="Path 932859" d="M176.582,371.815h-16.61a.623.623,0,1,0,0,1.247h16.61a.623.623,0,1,0,0-1.247Z" transform="translate(-144.59 -345.534)" fill="#004e3d"/>
        <path id="Path_932860" data-name="Path 932860" d="M53.017,122.261v-8a.624.624,0,0,0-.108-.35c-5.829-8.588-4.837-7.133-5.035-7.406a3.6,3.6,0,0,0-2.908-1.491,1.423,1.423,0,0,0,.021-.2v-4.449a1.453,1.453,0,0,0-1.452-1.451H11.094a3.76,3.76,0,0,0-3.756,3.756v19.6H7.3a1.219,1.219,0,0,0-1.217,1.217v1.746A1.216,1.216,0,0,0,7.3,126.435H8.9a.623.623,0,1,0,0-1.247l-1.571.035-.03-1.716h1.74a.623.623,0,1,0,0-1.247H8.585v-19.6a2.512,2.512,0,0,1,2.509-2.509H43.535a.2.2,0,0,1,.2.2v4.449a.2.2,0,0,1-.2.2H37.869a.623.623,0,0,0-.623.623V122.26H21.329a.623.623,0,0,0,0,1.247H38.218a.623.623,0,0,0,.623-.623.658.658,0,0,0-.349-.56v-7.494H51.77v2.6H50.113a.623.623,0,0,0,0,1.247H51.77v.705H50.113a.623.623,0,1,0,0,1.247H51.77v1.626H50.5a.623.623,0,1,0,0,1.247l2.469-.03.03,1.711H50.643a.623.623,0,1,0,0,1.247H53a1.216,1.216,0,0,0,1.217-1.212v-1.745a1.218,1.218,0,0,0-1.2-1.216Zm-14.525-8.679V107.2a.935.935,0,0,1,.909-.935H44.96a2.36,2.36,0,0,1,1.955,1.036l4.264,6.286Z" transform="translate(-6.086 -98.907)" fill="#004e3d"/>
        <path id="Path_932861" data-name="Path 932861" d="M369.77,292.546h1.372a.623.623,0,1,0,0-1.247H369.77a.623.623,0,1,0,0,1.247Z" transform="translate(-334.184 -272.772)" fill="#004e3d"/>
        <path id="Path_932862" data-name="Path 932862" d="M58.149,319.179A4.522,4.522,0,1,0,62.67,323.7,4.527,4.527,0,0,0,58.149,319.179Zm0,7.8a3.275,3.275,0,1,1,3.275-3.275A3.278,3.278,0,0,1,58.149,326.976Z" transform="translate(-49.049 -297.967)" fill="#004e3d"/>
        <path id="Path_932863" data-name="Path 932863" d="M82.6,346.241a1.916,1.916,0,1,0,1.916,1.916A1.919,1.919,0,0,0,82.6,346.241Zm0,2.585a.669.669,0,1,1,.669-.669A.67.67,0,0,1,82.6,348.826Z" transform="translate(-73.499 -322.423)" fill="#004e3d"/>
        <path id="Path_932864" data-name="Path 932864" d="M361.124,319.179a4.522,4.522,0,1,0,4.522,4.522A4.527,4.527,0,0,0,361.124,319.179Zm0,7.8A3.275,3.275,0,1,1,364.4,323.7,3.279,3.279,0,0,1,361.124,326.976Z" transform="translate(-322.848 -297.967)" fill="#004e3d"/>
        <path id="Path_932865" data-name="Path 932865" d="M385.579,346.241a1.916,1.916,0,1,0,1.916,1.916A1.919,1.919,0,0,0,385.579,346.241Zm0,2.585a.669.669,0,1,1,.669-.669A.67.67,0,0,1,385.579,348.826Z" transform="translate(-347.303 -322.423)" fill="#004e3d"/>
        <path id="Path_932866" data-name="Path 932866" d="M63.509,164.476a2.611,2.611,0,0,0,2.608-2.608V152.8a2.608,2.608,0,1,0-5.217,0v9.065A2.611,2.611,0,0,0,63.509,164.476ZM62.148,152.8a1.361,1.361,0,1,1,2.723,0v9.065a1.361,1.361,0,1,1-2.723,0Z" transform="translate(-55.622 -145.255)" fill="#004e3d"/>
        <path id="Path_932867" data-name="Path 932867" d="M154.924,161.869V152.8a2.609,2.609,0,0,0-5.217,0v9.065a2.609,2.609,0,0,0,5.217,0Zm-3.97,0V152.8a1.362,1.362,0,0,1,2.723,0v9.065a1.362,1.362,0,0,1-2.723,0Z" transform="translate(-135.876 -145.256)" fill="#004e3d"/>
        <path id="Path_932868" data-name="Path 932868" d="M247.6,161.869V152.8a2.609,2.609,0,0,0-5.217,0v9.065a2.609,2.609,0,0,0,5.217,0Zm-3.97,0V152.8a1.362,1.362,0,0,1,2.723,0v9.065a1.362,1.362,0,0,1-2.723,0Z" transform="translate(-219.628 -145.256)" fill="#004e3d"/>
      </g>
    </g>
  </g>
</svg>
