<svg xmlns="http://www.w3.org/2000/svg" width="295" height="230" viewBox="0 0 295 230">
  <g id="img49" transform="translate(-1124.711 -31649)">
    <rect id="Rectangle_454217" data-name="Rectangle 454217" width="295" height="230" rx="20" transform="translate(1124.711 31649)" fill="#d8dec8"/>
    <path id="Rectangle_454543" data-name="Rectangle 454543" d="M0,0H295a0,0,0,0,1,0,0V53a20,20,0,0,1-20,20H20A20,20,0,0,1,0,53V0A0,0,0,0,1,0,0Z" transform="translate(1124.711 31806)" fill="#b2be91"/>
    <g id="_19962583_6174256" data-name="19962583_6174256" transform="translate(1066.211 31614.324)">
      <g id="OBJECTS" transform="translate(79.211 68.097)">
        <path id="Path_932882" data-name="Path 932882" d="M97.573,416.107a.6.6,0,0,0,.113,1.2l111.917-.644a130.286,130.286,0,0,0,28.667-3.339l104.333-24.1a.521.521,0,0,0-.107-1.029l-85.078-1.73Z" transform="translate(-89.429 -250.147)" fill="#342447"/>
        <g id="Group_1177178" data-name="Group 1177178" transform="translate(0 0)">
          <g id="Group_1177152" data-name="Group 1177152" transform="translate(113.49 112.341)">
            <g id="Group_1177142" data-name="Group 1177142" transform="translate(3.765)">
              <path id="Path_932883" data-name="Path 932883" d="M482.572,336.08l.09,1.471-3.145-.117.066-4.752L353.058,330.47s6.864,16.96,7.763,17.005,118.594-2.738,118.594-2.738l.028-2.019h3.536l.152,2.48h2.96l.56-9.4Z" transform="translate(-353.058 -330.47)" fill="#241933"/>
              <path id="Path_932884" data-name="Path 932884" d="M661.7,345.7v6.86h1.732l.3-6.857Z" transform="translate(-529.545 -339.18)" fill="#ef701b"/>
            </g>
            <g id="Group_1177144" data-name="Group 1177144" transform="translate(111.827 3.923)">
              <path id="Path_932885" data-name="Path 932885" d="M612.066,339.632c-3.661,0-6.629,5.6-6.629,12.5s2.968,12.5,6.629,12.5H619.3V339.632Z" transform="translate(-605.437 -339.632)" fill="#241933"/>
              <g id="Group_1177143" data-name="Group 1177143" transform="translate(7.234)">
                <ellipse id="Ellipse_13576" data-name="Ellipse 13576" cx="6.629" cy="12.504" rx="6.629" ry="12.504" fill="#241933"/>
                <ellipse id="Ellipse_13577" data-name="Ellipse 13577" cx="4.002" cy="7.548" rx="4.002" ry="7.548" transform="translate(3.225 4.955)" fill="#342447"/>
                <ellipse id="Ellipse_13578" data-name="Ellipse 13578" cx="1.884" cy="3.555" rx="1.884" ry="3.555" transform="translate(5.342 8.949)" fill="#47315d"/>
              </g>
            </g>
            <g id="Group_1177146" data-name="Group 1177146" transform="translate(90.392 3.846)">
              <path id="Path_932886" data-name="Path 932886" d="M563.3,339.453c-4.377,0-7.926,6.694-7.926,14.95s3.549,14.951,7.926,14.951h8.65v-29.9Z" transform="translate(-555.375 -339.453)" fill="#241933"/>
              <g id="Group_1177145" data-name="Group 1177145" transform="translate(8.65)">
                <ellipse id="Ellipse_13579" data-name="Ellipse 13579" cx="7.926" cy="14.951" rx="7.926" ry="14.951" fill="#241933"/>
                <ellipse id="Ellipse_13580" data-name="Ellipse 13580" cx="4.785" cy="9.025" rx="4.785" ry="9.025" transform="translate(3.857 5.925)" fill="#342447"/>
                <ellipse id="Ellipse_13581" data-name="Ellipse 13581" cx="2.253" cy="4.25" rx="2.253" ry="4.25" transform="translate(6.388 10.701)" fill="#47315d"/>
              </g>
            </g>
            <g id="Group_1177147" data-name="Group 1177147" transform="translate(72.98 7.149)">
              <path id="Path_932887" data-name="Path 932887" d="M541,347.229v13.339l16.8-2.54V347.166Z" transform="translate(-529.743 -347.166)" fill="#47315d"/>
              <path id="Path_932888" data-name="Path 932888" d="M525.967,347.314H514.71l1.445,13.339h9.812Z" transform="translate(-514.71 -347.251)" fill="#342447"/>
            </g>
            <g id="Group_1177149" data-name="Group 1177149" transform="translate(51.312 2.212)">
              <path id="Path_932889" data-name="Path 932889" d="M474.036,335.636c-5.485,0-9.932,8.388-9.932,18.734s4.447,18.734,9.932,18.734h10.84V335.636Z" transform="translate(-464.104 -335.636)" fill="#241933"/>
              <g id="Group_1177148" data-name="Group 1177148" transform="translate(10.84)">
                <ellipse id="Ellipse_13582" data-name="Ellipse 13582" cx="9.932" cy="18.734" rx="9.932" ry="18.734" fill="#241933"/>
                <ellipse id="Ellipse_13583" data-name="Ellipse 13583" cx="5.996" cy="11.31" rx="5.996" ry="11.31" transform="translate(4.833 7.425)" fill="#342447"/>
                <ellipse id="Ellipse_13584" data-name="Ellipse 13584" cx="2.823" cy="5.326" rx="2.823" ry="5.326" transform="translate(8.005 13.408)" fill="#47315d"/>
              </g>
            </g>
            <g id="Group_1177151" data-name="Group 1177151" transform="translate(0 3.211)">
              <path id="Path_932890" data-name="Path 932890" d="M415.705,337.97H374.6l16.044,33.074,20.921-2.249a6.192,6.192,0,0,0,5.52-6.507Z" transform="translate(-361.611 -337.97)" fill="#ef701b"/>
              <path id="Path_932891" data-name="Path 932891" d="M366.835,337.97H344.266a56.634,56.634,0,0,1,5.609,32.4l23.423.67a43.4,43.4,0,0,0,1.272-10.607C374.569,350.417,371.392,341.806,366.835,337.97Z" transform="translate(-344.266 -337.97)" fill="#241933"/>
              <g id="Group_1177150" data-name="Group 1177150" transform="translate(29.092 3.889)">
                <path id="Path_932892" data-name="Path 932892" d="M423.026,386.537l.215,5.2,3.919-.275.28-4.924Z" transform="translate(-418.395 -369.631)" fill="#bf5208"/>
                <path id="Path_932893" data-name="Path 932893" d="M421.613,359.951l.6,5.7h4.134l.28-6.059Z" transform="translate(-417.587 -354.222)" fill="#bf5208"/>
                <path id="Path_932894" data-name="Path 932894" d="M412.211,347.2l.726,2.759,22.829-.372v-2.536Z" transform="translate(-412.211 -347.052)" fill="#bf5208"/>
                <path id="Path_932895" data-name="Path 932895" d="M446.056,382.989c0,1.988-.987,3.6-2.2,3.6s-2.2-1.612-2.2-3.6.987-3.6,2.2-3.6S446.056,381,446.056,382.989Z" transform="translate(-429.043 -365.544)" fill="#ffbe3d"/>
              </g>
            </g>
          </g>
          <g id="Group_1177155" data-name="Group 1177155" transform="translate(52.747)">
            <g id="Group_1177153" data-name="Group 1177153">
              <path id="Path_932896" data-name="Path 932896" d="M292.732,68.1l.372,117.51-85.848.667L202.4,72.391Z" transform="translate(-202.4 -68.097)" fill="#47315d"/>
              <path id="Path_932897" data-name="Path 932897" d="M215.924,89.01,220.1,192.449l74.661-1.82V85.411Z" transform="translate(-210.133 -77.998)" fill="#583d71"/>
              <path id="Path_932898" data-name="Path 932898" d="M283.357,82.592l9.322-.52a.756.756,0,0,1,.748.837l-.152,2.829a.75.75,0,0,1-.712.744h-8.9a.743.743,0,0,1-.708-.69l-.268-2.309A.771.771,0,0,1,283.357,82.592Zm-70.99,3.057.208,1.744a1.512,1.512,0,0,0,1.532,1.35l8.078-.232a1.517,1.517,0,0,0,1.454-1.419l.112-1.511a1.522,1.522,0,0,0-1.5-1.652h-8.4A1.523,1.523,0,0,0,212.367,85.649Z" transform="translate(-208.093 -76.088)" fill="#fda635"/>
            </g>
            <g id="Group_1177154" data-name="Group 1177154" transform="translate(90.332)">
              <path id="Path_932899" data-name="Path 932899" d="M413.37,68.1l110.218,49.11-1.07,66.668-108.776,1.732Z" transform="translate(-413.37 -68.097)" fill="#342447"/>
              <path id="Path_932900" data-name="Path 932900" d="M431.81,97.612l-.39,97.823,97.42.323-1.729-58.194Z" transform="translate(-423.692 -84.974)" fill="#241933"/>
              <path id="Path_932901" data-name="Path 932901" d="M469.121,198.069l-1.686-.006V112.328l1.686.707Zm6.137-82.461-1.686-.707v83.183l1.686.006Zm6.137,2.572-1.686-.707V198.1l1.686.006Zm-18.41-7.718-1.686-.707v88.287l1.686.006Zm24.546,10.29-1.686-.707v78.078l1.686.006Zm-36.82-15.436-1.686-.707V198l1.686.006Zm6.137,2.573-1.686-.707v90.839l1.686.006Zm-13.96,90.092,1.686.006V102.745l-1.686-.707Zm81.463-61.793-1.686-.707v62.765l1.686.006Zm-6.137-2.572-1.686-.707v65.317l1.686.006Zm12.274,5.145-1.686-.707v60.212l1.686.006Zm-18.41-7.717-1.686-.707v67.869l1.686.006ZM499.8,125.9l-1.686-.707v72.974l1.686.006Zm-6.137-2.572-1.686-.707v75.526l1.686.006Zm12.273,5.145-1.686-.707v70.421l1.686.006Z" transform="translate(-430.249 -87.505)" fill="#342447"/>
              <path id="Path_932902" data-name="Path 932902" d="M429.964,95.164l6.7,2.361a.668.668,0,0,1,.471.615v1.474a.742.742,0,0,1-1.019.617l-6.7-2.29a.669.669,0,0,1-.479-.617V95.78A.744.744,0,0,1,429.964,95.164Zm90.3,39.083v.825a.425.425,0,0,0,.28.4l3.94,1.435a.425.425,0,0,0,.568-.352l.094-.848a.425.425,0,0,0-.282-.448l-4.034-1.412A.425.425,0,0,0,520.266,134.247Zm2.286,59.758.054.577a.436.436,0,0,0,.434.395h3.786a.436.436,0,0,0,.436-.436v-.577a.436.436,0,0,0-.436-.436h-3.841A.436.436,0,0,0,522.553,194.006ZM426.9,193.03v1.545a.628.628,0,0,0,.629.629h5.522a.628.628,0,0,0,.628-.6l.066-1.253a.629.629,0,0,0-.6-.661l-5.588-.291A.628.628,0,0,0,426.9,193.03Z" transform="translate(-421.107 -83.548)" fill="#ef701b"/>
            </g>
          </g>
          <g id="Group_1177177" data-name="Group 1177177" transform="translate(0 15.799)">
            <g id="Group_1177156" data-name="Group 1177156" transform="translate(0 41.604)">
              <path id="Path_932903" data-name="Path 932903" d="M92.053,226.419A83.745,83.745,0,0,1,92,244.649a2.781,2.781,0,0,1-2.595,2.517,37.256,37.256,0,0,1-6.6-.233,2.763,2.763,0,0,1-2.372-2.4,123.968,123.968,0,0,1-1.207-18.3,2.784,2.784,0,0,1,2.791-2.721,57.609,57.609,0,0,1,7.666.5A2.773,2.773,0,0,1,92.053,226.419Z" transform="translate(-79.211 -214.366)" fill="#241933"/>
              <path id="Path_932904" data-name="Path 932904" d="M102.188,205.173a2.206,2.206,0,0,1,2.144-2.3l1.792-.049a1.122,1.122,0,0,1,1.022-.662h3.012a1.124,1.124,0,0,1,1.124,1.124v.8a1.124,1.124,0,0,1-1.124,1.124h-3.012a1.121,1.121,0,0,1-.937-.5l-1.827.05a.327.327,0,0,0-.318.341l-3.7,27.439,4.824,2.124v-.03a1.71,1.71,0,0,1,1.71-1.71h2.67a1.71,1.71,0,0,1,1.71,1.71v2.67a1.71,1.71,0,0,1-1.71,1.71H106.9a1.71,1.71,0,0,1-1.71-1.71v-.586l-6.651-2.929Z" transform="translate(-90.265 -202.162)" fill="#241933"/>
            </g>
            <path id="Path_932905" data-name="Path 932905" d="M158.554,347.051H145.923c-6.392,0-11.573,9.774-11.573,21.83s5.182,21.831,11.573,21.831h12.631c6.392,0,11.574-9.774,11.574-21.831S164.946,347.051,158.554,347.051Z" transform="translate(-110.741 -243.409)" fill="#241933"/>
            <rect id="Rectangle_454542" data-name="Rectangle 454542" width="94.325" height="8.277" transform="translate(13.831 133.391)" fill="#342447"/>
            <g id="Group_1177158" data-name="Group 1177158" transform="translate(100.326 103.642)">
              <path id="Path_932906" data-name="Path 932906" d="M325.094,347.052c-6.392,0-11.573,9.773-11.573,21.83s5.182,21.831,11.573,21.831h12.631V347.052Z" transform="translate(-313.521 -347.052)" fill="#241933"/>
              <g id="Group_1177157" data-name="Group 1177157" transform="translate(12.631)">
                <ellipse id="Ellipse_13585" data-name="Ellipse 13585" cx="11.573" cy="21.83" rx="11.573" ry="21.83" fill="#241933"/>
                <ellipse id="Ellipse_13586" data-name="Ellipse 13586" cx="6.987" cy="13.179" rx="6.987" ry="13.179" transform="translate(5.631 8.652)" fill="#342447"/>
                <ellipse id="Ellipse_13587" data-name="Ellipse 13587" cx="3.29" cy="6.206" rx="3.29" ry="6.206" transform="translate(9.328 15.625)" fill="#47315d"/>
              </g>
            </g>
            <g id="Group_1177160" data-name="Group 1177160" transform="translate(13.831)">
              <path id="Path_932907" data-name="Path 932907" d="M158.088,106.3c-14.851.461-28.571,14.2-35.858,29.529-13.67,28.749-11.115,73.084-9.122,89.127.371,2.989,2.305,5.177,4.573,5.177h70.591L226.564,105Z" transform="translate(-111.514 -104.995)" fill="#fda635"/>
              <g id="Group_1177159" data-name="Group 1177159" transform="translate(9.906 0.536)">
                <path id="Path_932908" data-name="Path 932908" d="M249.456,106.248l-.483.009A61,61,0,0,1,242.1,117c-5.442,6.748-14.615,14.611-27.81,14.61-.53,0-1.069-.013-1.612-.039-6.228-.3-9.967-2.01-11.115-5.088-2.056-5.514,4.519-14.289,9.1-19.5l-.611.012c-4.635,5.293-11,13.96-8.89,19.634,1.213,3.254,5.08,5.059,11.5,5.366q.829.04,1.635.039c13.364,0,22.646-7.954,28.148-14.779A61.556,61.556,0,0,0,249.456,106.248Z" transform="translate(-172.448 -106.248)" fill="#ef701b"/>
                <path id="Path_932909" data-name="Path 932909" d="M134.65,180h95.167l.262-.856H135.037Q134.841,179.572,134.65,180Z" transform="translate(-134.65 -147.933)" fill="#ef701b"/>
              </g>
            </g>
            <path id="Path_932910" data-name="Path 932910" d="M317.01,200.4a133.305,133.305,0,0,1,15.243.2,704.007,704.007,0,0,0-.556-79.479c-.236-3.541-2.216-16.328-4.873-16.1-11.011.935-25.783,17.492-30.753,30.822-12.919,34.654-7.059,94.3-7.059,94.3l18.574-.28C305.9,202.322,317.01,200.4,317.01,200.4Z" transform="translate(-198.422 -105.008)" fill="#ef701b"/>
            <path id="Path_932911" data-name="Path 932911" d="M305.785,180H342.93c-.012-.286-.023-.57-.035-.856h-36.8C305.988,179.431,305.885,179.714,305.785,180Z" transform="translate(-208.772 -147.396)" fill="#bf5208"/>
            <path id="Path_932912" data-name="Path 932912" d="M137.542,350.054l4.185,13.86h40.4l5.267-13.86Z" transform="translate(-112.566 -245.126)" fill="#241933"/>
            <path id="Path_932913" data-name="Path 932913" d="M107.28,299l-1.882,1.221a8.437,8.437,0,0,0-3.809,7.085v8.969a8.453,8.453,0,0,0,3.353,6.766l2.028,1.521a5.611,5.611,0,0,0,3.367,1.127h68.717l1.325-1.071a11.851,11.851,0,0,0,4.366-9.219v-15.1L178.6,297.15Z" transform="translate(-92.007 -214.874)" fill="#fda635"/>
            <path id="Path_932914" data-name="Path 932914" d="M164.115,296.974l1.2,2.673a1.474,1.474,0,0,0,1.345.872h18.209a1.473,1.473,0,0,0,1.329-.838l1.115-2.333A1.473,1.473,0,0,0,186,295.239l-20.519-.34A1.473,1.473,0,0,0,164.115,296.974Z" transform="translate(-127.687 -213.587)" fill="#fff5df"/>
            <g id="Group_1177161" data-name="Group 1177161" transform="translate(20.421 84.348)">
              <path id="Path_932915" data-name="Path 932915" d="M171.479,305.652l-1.629,2.118a2.5,2.5,0,0,1-1.936.977l-21.24.421a2.5,2.5,0,0,1-1.854-.767l-2.471-2.567a2.5,2.5,0,0,0-1.834-.767l-8.562.1a2.512,2.512,0,0,0-2.451,2.86,26.429,26.429,0,0,0,3.608,10.575,10.8,10.8,0,0,0,9.181,5.029h28.871a10.826,10.826,0,0,0,8.313-3.85,26.117,26.117,0,0,0,5.648-12.274,2.5,2.5,0,0,0-2.5-2.943l-9.195.11A2.5,2.5,0,0,0,171.479,305.652Z" transform="translate(-128.376 -303.462)" fill="#47315d"/>
              <path id="Path_932916" data-name="Path 932916" d="M184.386,303.919a3.62,3.62,0,0,0-3.244-1.929l-9.176.109a3.647,3.647,0,0,0-2.847,1.423l-1.618,2.1a1.394,1.394,0,0,1-1.083.547l-21.24.42a1.433,1.433,0,0,1-1.037-.429l-2.471-2.567a3.676,3.676,0,0,0-2.642-1.105l-8.482.1a3.709,3.709,0,0,0-1.522.315,3.636,3.636,0,0,0-2.089,3.8,27.316,27.316,0,0,0,3.765,11.01,11.974,11.974,0,0,0,10.118,5.549h28.871a11.891,11.891,0,0,0,9.16-4.246,27.324,27.324,0,0,0,5.872-12.7A3.652,3.652,0,0,0,184.386,303.919ZM177.159,317.6a9.691,9.691,0,0,1-7.467,3.455H140.82a9.753,9.753,0,0,1-8.245-4.509l-.041-.065a1.515,1.515,0,0,1,1.3-2.3h42.89a1.519,1.519,0,0,1,1.216,2.429Q177.563,317.117,177.159,317.6Zm5.4-11.7a27.2,27.2,0,0,1-1.139,4.23,3.822,3.822,0,0,1-3.61,2.495h-44.46a3.668,3.668,0,0,1-3.558-2.754,30.567,30.567,0,0,1-.657-3.389,1.521,1.521,0,0,1,.19-1.022,1.39,1.39,0,0,1,1.171-.661l8.562-.1h0a1.44,1.44,0,0,1,1.038.442l2.459,2.554a3.574,3.574,0,0,0,2.671,1.105l21.24-.42a3.588,3.588,0,0,0,2.788-1.407l1.629-2.118h0a1.394,1.394,0,0,1,1.094-.547l9.195-.11a1.426,1.426,0,0,1,1.272.766A1.456,1.456,0,0,1,182.557,305.9Z" transform="translate(-126.903 -301.989)" fill="#241933"/>
            </g>
            <path id="Path_932917" data-name="Path 932917" d="M320.336,357.276s-4.956-29.094,13.226-32.05c6.917-1.124,17.008,1.116,17.008,1.116l-4.159,7.317s-10.035-4.591-15.277,4.521c-2.964,5.151-2.578,19.46-2.578,19.46Z" transform="translate(-216.74 -230.748)" fill="#ef701b"/>
            <path id="Path_932918" data-name="Path 932918" d="M342.05,311.061l.686,3.956a1.665,1.665,0,0,0,1.784,1.374l1.383-.12a1.665,1.665,0,0,0,1.5-1.386l.624-3.763a1.665,1.665,0,0,0-1.6-1.937l-2.693-.074A1.665,1.665,0,0,0,342.05,311.061Z" transform="translate(-229.494 -221.714)" fill="#342447"/>
            <path id="Path_932919" data-name="Path 932919" d="M364.093,266.939l.391,12.005c.042,1.295.744,2.312,1.6,2.312h4.457c.846,0,1.546-1.006,1.595-2.292l.448-11.858c.052-1.379-.659-2.547-1.566-2.572l-5.3-.146C364.793,264.361,364.048,265.533,364.093,266.939Z" transform="translate(-242.113 -196.139)" fill="none" stroke="#fda635" stroke-miterlimit="10" stroke-width="1"/>
            <g id="Group_1177162" data-name="Group 1177162" transform="translate(98.641 100.633)">
              <path id="Path_932920" data-name="Path 932920" d="M309.586,340.862v1.48a.84.84,0,0,0,.84.84h6.049a.839.839,0,0,0,.84-.829l.019-1.48a.84.84,0,0,0-.84-.85h-6.068A.84.84,0,0,0,309.586,340.862Z" transform="translate(-309.586 -340.022)" fill="#fda635"/>
              <path id="Path_932921" data-name="Path 932921" d="M312.035,342.28v.693a.394.394,0,0,0,.394.393h2.833a.394.394,0,0,0,.393-.388l.009-.693a.393.393,0,0,0-.393-.4h-2.842A.393.393,0,0,0,312.035,342.28Z" transform="translate(-310.986 -341.088)" fill="#ffe08a"/>
            </g>
            <path id="Path_932922" data-name="Path 932922" d="M308.509,375.16l-20.816.084c0,.061-.008,1.442-.008,1.5V398.6h19.223c1.935,0,3.5-1.895,3.5-4.232l1.8-14.982C312.209,376.955,310.518,375.024,308.509,375.16Z" transform="translate(-198.422 -259.478)" fill="#ef701b"/>
            <g id="Group_1177165" data-name="Group 1177165" transform="translate(94.013 39.921)">
              <g id="Group_1177163" data-name="Group 1177163">
                <path id="Path_932923" data-name="Path 932923" d="M305.373,202.163c-3.057,8.483-4.883,28.846-4.287,40.607.065,1.287.841,2.287,1.782,2.287h4.146a1.615,1.615,0,0,0,1.316-.793l15.046-26.222a3.006,3.006,0,0,0,.469-1.654V202.873c0-1.368-.819-2.471-1.817-2.446l-15.082.368A1.844,1.844,0,0,0,305.373,202.163Z" transform="translate(-300.033 -199.486)" fill="#cbe3f8"/>
                <path id="Path_932924" data-name="Path 932924" d="M305.758,244.741h-4.146c-1.459,0-2.629-1.367-2.721-3.179-.594-11.729,1.173-32.182,4.342-40.973a2.748,2.748,0,0,1,2.434-1.989l15.082-.368a2.409,2.409,0,0,1,1.746.719,3.718,3.718,0,0,1,1.034,2.667v13.515a3.952,3.952,0,0,1-.609,2.147l-15.031,26.2c-.011.019-.022.037-.034.055A2.538,2.538,0,0,1,305.758,244.741ZM320.8,200.11H320.8l-15.082.368c-.267.006-.553.307-.711.747h0c-3.046,8.45-4.806,28.924-4.233,40.241.042.823.478,1.4.844,1.4h4.146a.707.707,0,0,0,.519-.352l15.028-26.191c.011-.018.022-.037.034-.055a2.081,2.081,0,0,0,.311-1.131V201.617a1.9,1.9,0,0,0-.468-1.322A.555.555,0,0,0,320.8,200.11Zm-16.687.8h0Z" transform="translate(-298.777 -198.23)" fill="#342447"/>
                <path id="Path_932925" data-name="Path 932925" d="M301,281.74c-.054,2.727-.03,5.284.084,7.526.065,1.287.841,2.287,1.782,2.287h4.146a1.615,1.615,0,0,0,1.316-.793l5.176-9.021H301Z" transform="translate(-300.033 -245.983)" fill="#342447"/>
              </g>
              <g id="Group_1177164" data-name="Group 1177164" transform="translate(0.55 1.683)">
                <path id="Path_932926" data-name="Path 932926" d="M319.361,226.419a83.768,83.768,0,0,0,.048,18.23A2.781,2.781,0,0,0,322,247.165a37.258,37.258,0,0,0,6.6-.233,2.763,2.763,0,0,0,2.372-2.4,123.9,123.9,0,0,0,1.206-18.3,2.784,2.784,0,0,0-2.791-2.721,57.609,57.609,0,0,0-7.666.5A2.774,2.774,0,0,0,319.361,226.419Z" transform="translate(-310.826 -214.366)" fill="#241933"/>
                <path id="Path_932927" data-name="Path 932927" d="M314.035,205.173a2.206,2.206,0,0,0-2.144-2.3l-1.792-.049a1.121,1.121,0,0,0-1.022-.662h-3.012a1.124,1.124,0,0,0-1.124,1.124v.8a1.124,1.124,0,0,0,1.124,1.124h3.012a1.121,1.121,0,0,0,.937-.5l1.827.05a.327.327,0,0,1,.318.341l-1.183,27.439-4.824,2.124v-.03a1.71,1.71,0,0,0-1.71-1.71h-2.67a1.71,1.71,0,0,0-1.71,1.71v2.67a1.71,1.71,0,0,0,1.71,1.71h2.67a1.71,1.71,0,0,0,1.71-1.71v-.586l6.651-2.929Z" transform="translate(-300.062 -202.162)" fill="#241933"/>
              </g>
            </g>
            <path id="Path_932928" data-name="Path 932928" d="M170.328,309.465l-.855-.389,10.145-22.309,3.7-30,.933.115-3.72,30.144Zm-43.95-.389-10.123-22.261,2.729-29.688-.936-.086L115.3,286.978l10.226,22.488Z" transform="translate(-99.845 -191.782)" fill="#ef701b"/>
            <path id="Path_932929" data-name="Path 932929" d="M258.516,324.113l-4.935,9.646a1.741,1.741,0,0,0,1.55,2.534h0a8.744,8.744,0,0,0,7.407-4.1l3.751-5.98a1.994,1.994,0,0,0-1.69-3.053l-4.6,0A1.74,1.74,0,0,0,258.516,324.113Z" transform="translate(-178.81 -229.749)" fill="#47315d"/>
            <path id="Path_932930" data-name="Path 932930" d="M113.3,324.113l4.935,9.646a1.741,1.741,0,0,1-1.55,2.534h0a8.744,8.744,0,0,1-7.407-4.1l-3.751-5.98a1.993,1.993,0,0,1,1.69-3.053l4.6,0A1.74,1.74,0,0,1,113.3,324.113Z" transform="translate(-94.084 -229.749)" fill="#47315d"/>
            <path id="Path_932931" data-name="Path 932931" d="M180.771,399.348H103.983a3.4,3.4,0,0,1-3.4-3.4V379.86a3.4,3.4,0,0,1,3.4-3.4h76.788a3.4,3.4,0,0,1,3.4,3.4v16.089A3.4,3.4,0,0,1,180.771,399.348Z" transform="translate(-91.432 -260.226)" fill="#fda635"/>
            <path id="Path_932932" data-name="Path 932932" d="M146.255,426.018H185.4l-2.02-3.246c-1.089-1.75-2.024-2-4.027-1.966l-26.995-.356a5.8,5.8,0,0,0-5.174,3.493Z" transform="translate(-117.548 -285.38)" fill="#241933"/>
            <path id="Path_932933" data-name="Path 932933" d="M208.964,374.266H114.047l.068.94h6.909l5.434,11.656a5.8,5.8,0,0,0,5.207,3.332l32.044.127h.024a5.8,5.8,0,0,0,4.954-2.813l7.344-12.3h32.933v-.94Zm-41.083,12.761a4.851,4.851,0,0,1-4.147,2.355h-.02l-32.044-.127a4.852,4.852,0,0,1-4.36-2.79l-5.249-11.259h52.876Z" transform="translate(-99.131 -258.971)" fill="#ef701b"/>
            <path id="Path_932934" data-name="Path 932934" d="M146.255,386.736H185.4l-2.02,3.246a5.756,5.756,0,0,1-4.972,2.76l-26.05-.438a5.8,5.8,0,0,1-5.174-3.493Z" transform="translate(-117.548 -266.102)" fill="#241933"/>
            <g id="Group_1177166" data-name="Group 1177166" transform="translate(34.71 113.678)">
              <path id="Path_932935" data-name="Path 932935" d="M161.435,373.787l.429,4.435a1.961,1.961,0,0,0,1.907,1.772l17.948.42a1.962,1.962,0,0,0,2-1.741l.55-4.855a1.962,1.962,0,0,0-1.949-2.183H163.387A1.962,1.962,0,0,0,161.435,373.787Z" transform="translate(-160.933 -371.145)" fill="#e1f1ff"/>
              <path id="Path_932936" data-name="Path 932936" d="M181.11,380.251h-.06l-17.948-.42a2.457,2.457,0,0,1-2.385-2.217l-.429-4.435a2.454,2.454,0,0,1,2.442-2.69h18.927a2.454,2.454,0,0,1,2.438,2.73l-.55,4.855A2.441,2.441,0,0,1,181.11,380.251Zm-19.843-7.168.429,4.435a1.471,1.471,0,0,0,1.429,1.328l17.948.42a1.456,1.456,0,0,0,1.495-1.3l.55-4.855a1.469,1.469,0,0,0-1.461-1.635H162.73a1.469,1.469,0,0,0-1.463,1.611Z" transform="translate(-160.276 -370.489)" fill="#241933"/>
            </g>
            <g id="Group_1177170" data-name="Group 1177170" transform="translate(12.891 39.575)">
              <path id="Path_932937" data-name="Path 932937" d="M112.8,231.462l3.231,2.386a3.178,3.178,0,0,0,1.887.621h59.694a3.178,3.178,0,0,0,1.883-.618l4.3-3.162a3.163,3.163,0,0,0,1.29-2.417,155.738,155.738,0,0,1,3.136-22.965,3.176,3.176,0,0,0-3.113-3.815H119.5a3.166,3.166,0,0,0-2.954,2c-3.028,7.759-4.485,16.581-5.025,25.2A3.188,3.188,0,0,0,112.8,231.462Z" transform="translate(-110.573 -199.749)" fill="#cbe3f8"/>
              <path id="Path_932938" data-name="Path 932938" d="M111.979,252.543c-.195,1.782-.348,3.568-.459,5.344a3.189,3.189,0,0,0,1.285,2.768l3.231,2.386a3.175,3.175,0,0,0,1.887.621h59.694a3.181,3.181,0,0,0,1.883-.618l4.3-3.163a3.163,3.163,0,0,0,1.29-2.417c.066-1.61.185-3.264.341-4.921H111.979Z" transform="translate(-110.573 -228.942)" fill="#a1c5eb"/>
              <g id="Group_1177167" data-name="Group 1177167" transform="translate(14.689 1.742)">
                <path id="Path_932939" data-name="Path 932939" d="M179.56,201.492h-8.616l-13.157,32.977H166.4Z" transform="translate(-151.723 -201.492)" fill="#e1f1ff"/>
                <path id="Path_932940" data-name="Path 932940" d="M209.411,201.492H196.651l-13.157,32.977h12.761Z" transform="translate(-166.423 -201.492)" fill="#e1f1ff"/>
                <path id="Path_932941" data-name="Path 932941" d="M143.624,234.469h4.308l13.157-32.977h-4.308Z" transform="translate(-143.624 -201.492)" fill="#e1f1ff"/>
              </g>
              <path id="Path_932942" data-name="Path 932942" d="M187.049,200.813a4.1,4.1,0,0,0-3.193-1.516H118.243a4.131,4.131,0,0,0-3.83,2.6c-2.759,7.07-4.471,15.644-5.088,25.484a4.113,4.113,0,0,0,1.664,3.583l3.232,2.386a4.148,4.148,0,0,0,2.445.8H176.36a4.091,4.091,0,0,0,2.44-.8l4.3-3.162a4.086,4.086,0,0,0,1.672-3.136,155.348,155.348,0,0,1,3.118-22.814A4.1,4.1,0,0,0,187.049,200.813Zm-1,3.049a157.292,157.292,0,0,0-3.155,23.116,2.212,2.212,0,0,1-.907,1.7l-.219.161-69.51.724-.15-.111h0a2.239,2.239,0,0,1-.9-1.952c.6-9.646,2.274-18.03,4.963-24.918a2.238,2.238,0,0,1,2.078-1.4h65.613a2.236,2.236,0,0,1,2.193,2.685Z" transform="translate(-109.318 -198.495)" fill="#241933"/>
              <g id="Group_1177168" data-name="Group 1177168" transform="translate(4.369)">
                <path id="Path_932943" data-name="Path 932943" d="M121.1,197.782a1.292,1.292,0,0,0-1.259,1.03c-.381,1.874-.856,5.733,1.494,6.486,3.129,1,65.742-.027,65.742-.027a7.734,7.734,0,0,0,7.886-6.23,1.3,1.3,0,0,0-1.264-1.618Z" transform="translate(-119.52 -197.423)" fill="#241933"/>
                <path id="Path_932944" data-name="Path 932944" d="M273.083,204.289h-4.471a1.064,1.064,0,0,1-1.064-1.064h0a1.064,1.064,0,0,1,1.064-1.064h4.471a1.064,1.064,0,0,1,1.064,1.064h0A1.064,1.064,0,0,1,273.083,204.289Z" transform="translate(-204.166 -200.133)" fill="#e1f1ff"/>
                <path id="Path_932945" data-name="Path 932945" d="M126.127,204.289h-4.471a1.063,1.063,0,0,1-1.064-1.064h0a1.063,1.063,0,0,1,1.064-1.064h4.471a1.064,1.064,0,0,1,1.064,1.064h0A1.063,1.063,0,0,1,126.127,204.289Z" transform="translate(-120.133 -200.133)" fill="#e1f1ff"/>
              </g>
              <g id="Group_1177169" data-name="Group 1177169" transform="translate(4.368 25.467)">
                <path id="Path_932946" data-name="Path 932946" d="M149.169,264.551l-3.778-4.976a.76.76,0,0,0-.792-.662l-15.626.8a.764.764,0,0,0-.63.394s0,0,0,0l-8.289.261a.662.662,0,0,0-.463.178c-.206.23.065.511.492.511h8.447a.747.747,0,0,0,.484.179h15l2.816,4.045a.626.626,0,0,0,.514.268h1.331A.626.626,0,0,0,149.169,264.551Z" transform="translate(-119.519 -258.051)" fill="#241933"/>
                <path id="Path_932947" data-name="Path 932947" d="M226.026,262.54l-3.778-4.976a.76.76,0,0,0-.792-.662l-15.626.8a.764.764,0,0,0-.63.394v0l-8.289.262a.66.66,0,0,0-.463.178c-.206.23.065.511.492.511h8.447a.747.747,0,0,0,.484.179h15l2.816,4.045a.626.626,0,0,0,.514.268h1.331A.627.627,0,0,0,226.026,262.54Z" transform="translate(-163.468 -256.902)" fill="#241933"/>
              </g>
            </g>
            <g id="Group_1177173" data-name="Group 1177173" transform="translate(11.137 118.95)">
              <g id="Group_1177171" data-name="Group 1177171">
                <path id="Path_932948" data-name="Path 932948" d="M106.87,390.843h7.09a1.648,1.648,0,0,0,1.648-1.648v-4.744a1.648,1.648,0,0,0-1.648-1.648h-7.09a1.648,1.648,0,0,0-1.648,1.648V389.2A1.648,1.648,0,0,0,106.87,390.843Z" transform="translate(-105.222 -382.804)" fill="#a1c5eb"/>
                <path id="Path_932949" data-name="Path 932949" d="M115.952,382.8h-7.071a5.744,5.744,0,0,0-.11,2.265,5,5,0,0,0,.84,2.051,6.685,6.685,0,0,0,5.3,2.629,5.873,5.873,0,0,0,2.693-.578v-4.718A1.648,1.648,0,0,0,115.952,382.8Z" transform="translate(-107.214 -382.803)" fill="#e1f1ff"/>
              </g>
              <g id="Group_1177172" data-name="Group 1177172" transform="translate(0.113 9.827)">
                <path id="Path_932950" data-name="Path 932950" d="M115.468,407.073v3.843c0,.775-.488,1.386-1.052,1.317-3.317-.4-6.051-.378-8.461-2.751-.766-.754-.563-3.728.381-3.728H114.5C115.036,405.754,115.468,406.344,115.468,407.073Z" transform="translate(-105.485 -405.754)" fill="#a1c5eb"/>
                <path id="Path_932951" data-name="Path 932951" d="M117.692,405.753h-6.63a5.689,5.689,0,0,0,.128.928,8.2,8.2,0,0,0,1.718,3.506A8.1,8.1,0,0,0,115,411.938c.828.1,1.693.184,2.6.3.565.069,1.052-.543,1.052-1.318v-3.843C118.657,406.344,118.225,405.753,117.692,405.753Z" transform="translate(-108.674 -405.753)" fill="#e1f1ff"/>
              </g>
            </g>
            <g id="Group_1177176" data-name="Group 1177176" transform="translate(77.871 118.95)">
              <g id="Group_1177174" data-name="Group 1177174">
                <path id="Path_932952" data-name="Path 932952" d="M269.816,390.843h-7.09a1.648,1.648,0,0,1-1.648-1.648v-4.744a1.648,1.648,0,0,1,1.648-1.648h7.09a1.648,1.648,0,0,1,1.648,1.648V389.2A1.647,1.647,0,0,1,269.816,390.843Z" transform="translate(-261.078 -382.804)" fill="#a1c5eb"/>
                <path id="Path_932953" data-name="Path 932953" d="M262.726,382.8H269.8a5.743,5.743,0,0,1,.11,2.265,4.992,4.992,0,0,1-.84,2.051,6.685,6.685,0,0,1-5.3,2.629,5.873,5.873,0,0,1-2.693-.578v-4.718A1.648,1.648,0,0,1,262.726,382.8Z" transform="translate(-261.078 -382.803)" fill="#e1f1ff"/>
              </g>
              <g id="Group_1177175" data-name="Group 1177175" transform="translate(0.29 9.827)">
                <path id="Path_932954" data-name="Path 932954" d="M261.755,407.073v3.843c0,.775.488,1.386,1.052,1.317,3.317-.4,6.05-.378,8.461-2.751.766-.754.563-3.728-.381-3.728H262.72C262.187,405.754,261.755,406.344,261.755,407.073Z" transform="translate(-261.755 -405.754)" fill="#a1c5eb"/>
                <path id="Path_932955" data-name="Path 932955" d="M262.72,405.753h6.63a5.688,5.688,0,0,1-.128.928,8.2,8.2,0,0,1-1.718,3.506,8.1,8.1,0,0,1-2.094,1.751c-.828.1-1.693.184-2.6.3-.565.069-1.052-.543-1.052-1.318v-3.843C261.755,406.344,262.187,405.753,262.72,405.753Z" transform="translate(-261.755 -405.753)" fill="#e1f1ff"/>
              </g>
            </g>
          </g>
        </g>
      </g>
    </g>
  </g>
</svg>
