<svg xmlns="http://www.w3.org/2000/svg" width="124" height="124" viewBox="0 0 124 124">
  <g id="img15" transform="translate(-1234.5 -458)">
    <g id="Ellipse_12108" data-name="Ellipse 12108" transform="translate(1241.5 465)" fill="#f3bc5b" stroke="rgba(255,255,255,0.4)" stroke-width="7">
      <circle cx="55" cy="55" r="55" stroke="none"/>
      <circle cx="55" cy="55" r="58.5" fill="none"/>
    </g>
    <g id="Group_1176851" data-name="Group 1176851" transform="translate(1252.047 488.786)">
      <g id="Group_1176850" data-name="Group 1176850" transform="translate(15.078 0)">
        <path id="Path_931260" data-name="Path 931260" d="M69.856,29.118H68.383V13.29a.915.915,0,0,0-.942-.914.94.94,0,0,0-.886.952V29.117H60.425a.914.914,0,0,0,0,1.829h9.43a2.143,2.143,0,1,1,0,4.286H51.173V30.946h4.985a.914.914,0,1,0,0-1.829h-5.2a1.611,1.611,0,0,0-1.478.973H43.007a1.525,1.525,0,0,0-1.419-.973H38.916a1.525,1.525,0,0,0-1.419.973h-3.92v-.785a2.132,2.132,0,0,0-1.034-1.825V25.152a3.9,3.9,0,0,0-1.123-7.64H28.336V1.829H66.554V9.023a.915.915,0,0,0,.942.914.94.94,0,0,0,.886-.952V1.524A1.524,1.524,0,0,0,66.859,0H28.031a1.524,1.524,0,0,0-1.524,1.524V17.512H23.776a3.9,3.9,0,0,0-1.123,7.64V27.48a2.132,2.132,0,0,0-1.034,1.825v7.568A2.132,2.132,0,0,0,22.653,38.7v2.328a3.9,3.9,0,0,0,1.123,7.64h2.731v3.175H19.36a2.136,2.136,0,0,0-2.134,2.134V55.49h-.014a2.136,2.136,0,0,0-2.134,2.134V60.9A1.526,1.526,0,0,0,16.6,62.427H66.859A1.524,1.524,0,0,0,68.383,60.9V37.062h1.472a3.972,3.972,0,0,0,0-7.944Zm-26.744,2.8h6.232V34.26H43.112Zm-3.892-.973h2.063v4.286H39.22Zm-5.644.973h3.815V34.26H33.577ZM21.7,21.415a2.076,2.076,0,0,1,2.074-2.074H31.42a2.074,2.074,0,0,1,0,4.147H23.776A2.076,2.076,0,0,1,21.7,21.415Zm2.051,15.764a.305.305,0,0,1-.3-.3V29.305a.305.305,0,0,1,.3-.3h7.69a.305.305,0,0,1,.3.3v7.568a.305.305,0,0,1-.3.3Zm6.961,1.829v1.854H24.482V39.008ZM24.482,27.172V25.317h6.232v1.854Zm-.706,19.666a2.074,2.074,0,1,1,0-4.147H31.42a2.074,2.074,0,1,1,0,4.147ZM38.289,60.6H16.907V57.624a.305.305,0,0,1,.3-.3h5.66a.914.914,0,0,0,0-1.829H19.055V53.975a.305.305,0,0,1,.3-.3H35.836a.305.305,0,0,1,.3.3V55.49h-9a.914.914,0,1,0,0,1.829H37.984a.305.305,0,0,1,.3.3Zm28.266,0H40.118V57.624a2.136,2.136,0,0,0-2.134-2.134h-.014V53.975a2.136,2.136,0,0,0-2.134-2.134h-7.5V48.667H31.42a3.9,3.9,0,0,0,1.123-7.64V38.7a2.132,2.132,0,0,0,1.034-1.825v-.785H37.5a1.525,1.525,0,0,0,1.419.973h2.672a1.525,1.525,0,0,0,1.419-.973h6.469a1.611,1.611,0,0,0,1.478.973h15.6V60.6Z" transform="translate(-15.078 0)" fill="#004e3d"/>
        <path id="Path_931261" data-name="Path 931261" d="M202.872,56.077a9.47,9.47,0,1,0,9.47-9.47,9.481,9.481,0,0,0-9.47,9.47Zm17.111,0a7.641,7.641,0,1,1-7.641-7.641,7.65,7.65,0,0,1,7.641,7.641Z" transform="translate(-179.975 -40.924)" fill="#004e3d"/>
        <path id="Path_931262" data-name="Path 931262" d="M247.9,102.974a.914.914,0,1,0-1.293,1.293l2.813,2.813a.915.915,0,0,0,1.293,0l4.36-4.36a.914.914,0,1,0-1.293-1.293l-3.713,3.713Z" transform="translate(-218.146 -88.825)" fill="#004e3d"/>
        <path id="Path_931263" data-name="Path 931263" d="M243.681,327.983a.914.914,0,0,0,.914.914h16.817a.914.914,0,0,0,0-1.829H244.6A.914.914,0,0,0,243.681,327.983Z" transform="translate(-215.808 -287.19)" fill="#004e3d"/>
        <path id="Path_931264" data-name="Path 931264" d="M320.085,363.546h-8.67a.914.914,0,1,0,0,1.829h8.67a.914.914,0,0,0,0-1.829Z" transform="translate(-274.48 -319.22)" fill="#004e3d"/>
        <path id="Path_931265" data-name="Path 931265" d="M244.6,365.375h4.977a.914.914,0,1,0,0-1.829H244.6a.914.914,0,1,0,0,1.829Z" transform="translate(-215.808 -319.22)" fill="#004e3d"/>
        <path id="Path_931266" data-name="Path 931266" d="M261.412,400.023H244.594a.914.914,0,1,0,0,1.829h16.817a.914.914,0,1,0,0-1.829Z" transform="translate(-215.807 -351.249)" fill="#004e3d"/>
        <path id="Path_931267" data-name="Path 931267" d="M350.817,436.5h-4.4a.914.914,0,0,0,0,1.829h4.4a.914.914,0,1,0,0-1.829Z" transform="translate(-305.213 -383.279)" fill="#004e3d"/>
        <path id="Path_931268" data-name="Path 931268" d="M254.206,436.5H244.6a.914.914,0,0,0,0,1.829h9.61a.914.914,0,1,0,0-1.829Z" transform="translate(-215.808 -383.279)" fill="#004e3d"/>
      </g>
    </g>
  </g>
</svg>
