<svg xmlns="http://www.w3.org/2000/svg" width="85" height="85" viewBox="0 0 85 85">
  <g id="img11" transform="translate(-64 -6445)">
    <rect id="Rectangle_402033" data-name="Rectangle 402033" width="85" height="85" rx="10" transform="translate(64 6445)" fill="#f3bc5b"/>
    <g id="Group_1155336" data-name="Group 1155336" transform="translate(77.152 6460.432)">
      <g id="Ellipse_13474" data-name="Ellipse 13474" transform="translate(2.848 0.568)" fill="none" stroke="#fff" stroke-width="1">
        <ellipse cx="27" cy="26.5" rx="27" ry="26.5" stroke="none"/>
        <ellipse cx="27" cy="26.5" rx="26.5" ry="26" fill="none"/>
      </g>
      <g id="Group_1175076" data-name="Group 1175076" transform="translate(0 2.737)">
        <g id="Group_1175070" data-name="Group 1175070" transform="translate(0.87 0.872)">
          <g id="Group_1175050" data-name="Group 1175050" transform="translate(38.79 21.318)">
            <g id="Group_1175049" data-name="Group 1175049">
              <path id="Path_928271" data-name="Path 928271" d="M346.135,252.871a.581.581,0,0,1,.137-.444l7.117-8.263-5.463-5.616-5.413,3.415a13.33,13.33,0,0,0,3.285,4.018.583.583,0,0,1,.1.844l-3.677,4.38a.582.582,0,0,0-.127.475l.388,2.193a.577.577,0,0,1-.027.3c-.207.553-.861,2.622.279,4.172a.578.578,0,0,0,.844.085l2.664-2.322a.582.582,0,0,0,.2-.5Z" transform="translate(-342.082 -238.549)" fill="#945c33"/>
            </g>
          </g>
          <g id="Group_1175052" data-name="Group 1175052" transform="translate(49.193 8.244)">
            <g id="Group_1175051" data-name="Group 1175051">
              <path id="Path_928272" data-name="Path 928272" d="M439.234,129.113a5.784,5.784,0,0,0-7.416-2.916l4.213,10.463a6.639,6.639,0,0,0,2.284,4.8.582.582,0,0,0,.94-.3C439.823,138.924,441.175,132.568,439.234,129.113Z" transform="translate(-431.818 -125.779)" fill="#633d22"/>
            </g>
          </g>
          <g id="Group_1175054" data-name="Group 1175054" transform="translate(0 0)">
            <g id="Group_1175053" data-name="Group 1175053">
              <path id="Path_928273" data-name="Path 928273" d="M62.224,81.062a5.667,5.667,0,0,1-1.552-4.324c.148-2.03.317-4.775.263-6.127A8.6,8.6,0,0,0,56.02,63.2c-2.83-1.367-5.948-1.1-9.3-.212v6.1a3.456,3.456,0,0,1-3.456,3.456H37.576a3.456,3.456,0,0,1-3.456-3.456V63.315a17.2,17.2,0,0,1-2.028-.858c-2.122-1.084-4.107-3.065-6.437-4.966s-6.3-3.787-10.577-2.267a9.565,9.565,0,0,0-3,1.655h0a5.45,5.45,0,0,0-4.067-1.163.574.574,0,0,0-.514.619,4.5,4.5,0,0,0,2.445,3.707l0,0c-1.1,3.5.041,5.245.552,8.2.132.764.274,1.775.4,2.774h0l5.89.593.68-4.73a.323.323,0,0,1,.483-.232c3.3,1.94,2.243,6.206,2.243,8.062a11.232,11.232,0,0,0,.367,2.854.581.581,0,0,1-.307.673L15.6,80.5a.581.581,0,0,0-.273.278l-2.81,6.038a3.817,3.817,0,0,0-.3,2.265l.512,2.941a.588.588,0,0,1,0,.218,6.972,6.972,0,0,0-.024,2.739.582.582,0,0,0,.891.377l2.789-1.833a.582.582,0,0,0,.255-.575l-.709-4.578A.582.582,0,0,1,16,88l2.474-4.48a.582.582,0,0,1,.329-.272l8.455-2.66a5.09,5.09,0,0,1,2.693-.1c2.431.571,7.469,1.471,12,.472A23.881,23.881,0,0,0,51.2,76.811a.582.582,0,0,1,.841.144c1.948,2.935,6.13,6.338,8.1,7.854A2.738,2.738,0,0,1,61.2,86.969l.034,9.628a.583.583,0,0,1-.216.454A4.589,4.589,0,0,0,59.2,99.937a.582.582,0,0,0,.576.666h3.627a.582.582,0,0,0,.53-.342l.762-1.685a.583.583,0,0,0,.052-.238l.043-13.477a2.736,2.736,0,0,0-.756-1.9Z" transform="translate(-7.499 -54.67)" fill="#c57a44"/>
            </g>
          </g>
          <g id="Group_1175059" data-name="Group 1175059" transform="translate(5.08 20.656)">
            <g id="Group_1175056" data-name="Group 1175056" transform="translate(0)">
              <g id="Group_1175055" data-name="Group 1175055">
                <path id="Path_928274" data-name="Path 928274" d="M90.079,234.218a4.274,4.274,0,0,0-5.19-.852,25.908,25.908,0,0,1-6.752,2.555c-4.531,1-9.569.1-12-.472a5.091,5.091,0,0,0-2.693.1l-8.455,2.66a.583.583,0,0,0-.329.272l-2.474,4.48a.582.582,0,0,0-.066.37l.709,4.578a.582.582,0,0,1-.255.575l-1.152.757.051.293a.588.588,0,0,1,0,.218,6.972,6.972,0,0,0-.024,2.738.583.583,0,0,0,.891.377l2.789-1.833a.582.582,0,0,0,.255-.575l-.709-4.578a.582.582,0,0,1,.066-.37l2.474-4.48a.582.582,0,0,1,.329-.272l8.455-2.66a5.09,5.09,0,0,1,2.693-.1c2.431.571,7.469,1.471,12,.472a23.881,23.881,0,0,0,9.249-4.145.57.57,0,0,1,.165-.086Z" transform="translate(-51.321 -232.843)" fill="#aa693b"/>
              </g>
            </g>
            <g id="Group_1175058" data-name="Group 1175058" transform="translate(46.618 5.2)">
              <g id="Group_1175057" data-name="Group 1175057">
                <path id="Path_928275" data-name="Path 928275" d="M458.273,280.137l-1.814-1.9c-.07-.073-.385-.459-.451-.535a3.94,3.94,0,0,1,.469,1.783l-.043,13.477a.582.582,0,0,1-.052.238l-.762,1.685a.582.582,0,0,1-.53.342h-.823a4.06,4.06,0,0,0-.83,1.885.582.582,0,0,0,.576.666h3.627a.582.582,0,0,0,.53-.342l.762-1.685a.582.582,0,0,0,.052-.238l.043-13.477A2.737,2.737,0,0,0,458.273,280.137Z" transform="translate(-453.433 -277.7)" fill="#aa693b"/>
              </g>
            </g>
          </g>
          <g id="Group_1175061" data-name="Group 1175061" transform="translate(3.404 15.541)">
            <g id="Group_1175060" data-name="Group 1175060">
              <path id="Path_928276" data-name="Path 928276" d="M36.859,189.518c.052.406.1.81.149,1.194a2.882,2.882,0,0,0,2.637,2.551,2.84,2.84,0,0,0,3-2.429l.1-.723A4.689,4.689,0,0,0,36.859,189.518Z" transform="translate(-36.859 -188.72)" fill="#945c33"/>
            </g>
          </g>
          <g id="Group_1175063" data-name="Group 1175063" transform="translate(26.621 8.321)">
            <g id="Group_1175062" data-name="Group 1175062">
              <path id="Path_928277" data-name="Path 928277" d="M240.576,136h5.689a3.456,3.456,0,0,0,3.456-3.456v-6.1c-.94.249-1.9.548-2.875.873-3.375,1.125-7.164.359-9.725-.549v5.777A3.456,3.456,0,0,0,240.576,136Z" transform="translate(-237.12 -126.445)" fill="#fed2a4"/>
            </g>
          </g>
          <g id="Group_1175065" data-name="Group 1175065" transform="translate(26.621 8.321)">
            <g id="Group_1175064" data-name="Group 1175064">
              <path id="Path_928278" data-name="Path 928278" d="M246.845,127.317c-.2.067-.4.126-.6.18v1.57a3.456,3.456,0,0,1-3.456,3.456h-5.666v.023A3.456,3.456,0,0,0,240.575,136h5.689a3.456,3.456,0,0,0,3.456-3.456v-6.1C248.779,126.693,247.82,126.992,246.845,127.317Z" transform="translate(-237.119 -126.444)" fill="#ffbd86"/>
            </g>
          </g>
          <g id="Group_1175067" data-name="Group 1175067" transform="translate(18.507 25.364)">
            <g id="Group_1175066" data-name="Group 1175066">
              <path id="Path_928279" data-name="Path 928279" d="M168.245,274.071l.684,16.729a.578.578,0,0,1-.189.457,5.053,5.053,0,0,0-1.6,2.853.579.579,0,0,0,.576.662h2.7a.582.582,0,0,0,.487-.263l1.249-1.91a.582.582,0,0,0,.095-.313l.143-18.832Z" transform="translate(-167.133 -273.453)" fill="#945c33"/>
            </g>
          </g>
          <g id="Group_1175069" data-name="Group 1175069" transform="translate(5.355 0)">
            <g id="Group_1175068" data-name="Group 1175068" transform="translate(0)">
              <path id="Path_928280" data-name="Path 928280" d="M62.373,60.2c3.361,5.492,2.418,9.328,7.207,11.581a.581.581,0,0,0,.8-.344c.636-1.937,2.139-8.206-2.948-13.163q-.463-.393-.942-.786c-2.33-1.9-6.3-3.787-10.577-2.267a10.392,10.392,0,0,0-2.224,1.083C53.8,56.3,58.942,54.6,62.373,60.2Z" transform="translate(-53.687 -54.67)" fill="#633d22"/>
            </g>
          </g>
        </g>
        <g id="Group_1175075" data-name="Group 1175075" transform="translate(0 0)">
          <g id="Group_1175074" data-name="Group 1175074" transform="translate(0 0)">
            <g id="Group_1175073" data-name="Group 1175073">
              <g id="Group_1175072" data-name="Group 1175072">
                <g id="Group_1175071" data-name="Group 1175071">
                  <path id="Path_928281" data-name="Path 928281" d="M56.223,73.815a4.808,4.808,0,0,1-1.2-2.2A6.927,6.927,0,0,0,56,72.618a1.448,1.448,0,0,0,.934.343,1.464,1.464,0,0,0,.448-.071,1.442,1.442,0,0,0,.961-1.024c.657-2.589,1.963-9.008-.106-12.69a6.678,6.678,0,0,0-5.449-3.76,7.167,7.167,0,0,0-2.915.411,11.1,11.1,0,0,0-3.164-.975.869.869,0,1,0-.243,1.722,8.5,8.5,0,0,1,2.548.766A7.763,7.763,0,0,1,53.436,64c.052,1.307-.113,4-.261,6.029a6.551,6.551,0,0,0,1.79,4.987l1.814,1.9a1.858,1.858,0,0,1,.516,1.294l-.043,13.415-.66,1.46H53.5a3.98,3.98,0,0,1,1.432-2.007,1.446,1.446,0,0,0,.537-1.132l-.034-9.628a3.579,3.579,0,0,0-1.4-2.841c-1.742-1.343-6-4.778-7.907-7.65a1.451,1.451,0,0,0-2.094-.352,23.013,23.013,0,0,1-8.906,3.985,26.471,26.471,0,0,1-11.614-.469,5.964,5.964,0,0,0-3.152.117L11.9,75.771a1.447,1.447,0,0,0-.822.679L8.6,80.929a1.458,1.458,0,0,0-.164.924l.681,4.4L6.859,87.735a6.217,6.217,0,0,1,.09-1.969,1.447,1.447,0,0,0,.009-.542l-.512-2.941a2.934,2.934,0,0,1,.232-1.749l2.326-5a2.957,2.957,0,0,1,1.382-1.407l3.624-1.765a1.454,1.454,0,0,0,.766-1.68,10.42,10.42,0,0,1-.337-2.629c0-.284.029-.651.063-1.076.175-2.189.467-5.853-2.735-7.736a1.192,1.192,0,0,0-1.785.858l-.469,3.262a5.412,5.412,0,0,0-4.538-.309c-.089-.636-.172-1.177-.248-1.614-.138-.8-.316-1.493-.488-2.167a8.855,8.855,0,0,1-.092-5.62.868.868,0,0,0-.455-1.044l-.062-.027a3.615,3.615,0,0,1-1.856-2.672A4.509,4.509,0,0,1,4.9,50.9.87.87,0,0,0,6.013,50.9q.266-.225.561-.427c4.365-1.089,6.914,2.43,7.594,3.54a27.074,27.074,0,0,1,2.4,5.262c.988,2.725,1.841,5.079,5.182,6.651a1.451,1.451,0,0,0,2-.859,14.666,14.666,0,0,0-.041-9.295,13.136,13.136,0,0,0,1.366.815c.178.091.732.364,1.554.684v5.177a4.33,4.33,0,0,0,4.325,4.325h5.689a4.33,4.33,0,0,0,4.325-4.325V57.022c.634-.153,1.22-.271,1.779-.359a.87.87,0,0,0-.269-1.718,34.276,34.276,0,0,0-5.529,1.449c-4.024,1.342-8.86-.222-11.083-1.357a24.646,24.646,0,0,1-4.439-3.308c-.592-.509-1.2-1.035-1.844-1.557a13.841,13.841,0,0,0-4.869-2.578,10.542,10.542,0,0,0-6.548.166,12.51,12.51,0,0,0-2.72,1.386,6.391,6.391,0,0,0-4.146-.939A1.45,1.45,0,0,0,.005,49.769,5.4,5.4,0,0,0,2.3,53.8a10.682,10.682,0,0,0,.257,5.9c.164.641.333,1.3.459,2.033.151.87.339,2.227.545,3.925a3.71,3.71,0,0,0,7.36.141l.654-4.545c1.526,1.443,1.337,3.8,1.2,5.585-.037.462-.069.861-.069,1.214a12.119,12.119,0,0,0,.338,2.849L9.625,72.567a4.7,4.7,0,0,0-2.2,2.236L5.1,79.8a4.665,4.665,0,0,0-.368,2.781l.5,2.886A7.865,7.865,0,0,0,5.22,88.5a1.452,1.452,0,0,0,2.222.936L10.231,87.6a1.455,1.455,0,0,0,.637-1.435l-.694-4.481,2.371-4.293,7.12-2.24L20.3,90.642a5.927,5.927,0,0,0-1.773,3.267,1.435,1.435,0,0,0,.328,1.156,1.455,1.455,0,0,0,1.107.51h2.7a1.447,1.447,0,0,0,1.215-.657l1.249-1.91a1.449,1.449,0,0,0,.237-.782l.023-2.849a.87.87,0,0,0-.862-.877h-.007a.87.87,0,0,0-.869.862l-.022,2.764-1.117,1.709H20.314a4.3,4.3,0,0,1,1.252-2A1.44,1.44,0,0,0,22.04,90.7l-.656-16.055a4.218,4.218,0,0,1,1.733.04c.2.047.418.1.647.145l-.084,10.477a.87.87,0,0,0,.862.877h.007a.87.87,0,0,0,.869-.862L25.5,75.162a27.231,27.231,0,0,0,10,0,26.549,26.549,0,0,0,4.213-1.3,13.7,13.7,0,0,0,2.9,3.434l-3.484,4.15a1.448,1.448,0,0,0-.317,1.186l.374,2.117a5.442,5.442,0,0,0,.421,4.916,1.438,1.438,0,0,0,1,.574,1.459,1.459,0,0,0,1.117-.35l2.664-2.322a1.452,1.452,0,0,0,.489-1.255l-.292-2.614,5.892-6.853c.928.787,1.8,1.479,2.494,2.016a1.852,1.852,0,0,1,.725,1.47l.033,9.492a5.374,5.374,0,0,0-2.02,3.353,1.451,1.451,0,0,0,1.437,1.656h3.627a1.454,1.454,0,0,0,1.323-.854l.762-1.685a1.445,1.445,0,0,0,.129-.593l.043-13.477a3.589,3.589,0,0,0-1-2.5ZM51.882,57.151a4.925,4.925,0,0,1,4.838,2.877c.448.8,1.749,3.907.053,10.938a6.48,6.48,0,0,1-1.66-4.05c.058-1.173.09-2.266.061-2.986A9.547,9.547,0,0,0,51.882,57.151Zm-23.523.712a15.523,15.523,0,0,0,9.131.18c.62-.207,1.192-.388,1.73-.548v4.952a2.589,2.589,0,0,1-2.586,2.586H30.945a2.589,2.589,0,0,1-2.586-2.586Zm-9.884-6.344c.305.249.606.5.9.751,4.47,4.372,3.414,9.9,2.812,11.934-2.442-1.254-3.065-2.973-3.99-5.524A28.529,28.529,0,0,0,15.651,53.1a9.092,9.092,0,0,0-4.94-4.161,10.847,10.847,0,0,1,7.764,2.577ZM9.2,65.555A1.96,1.96,0,0,1,7.115,67.24a2,2,0,0,1-1.83-1.788q-.038-.316-.076-.615a3.648,3.648,0,0,1,4.027.448Zm33.991,17.1a1.456,1.456,0,0,0-.342,1.107l.289,2.589-2.3,2a4.119,4.119,0,0,1,.008-3.074,1.445,1.445,0,0,0,.07-.761l-.364-2.061,3.59-4.277a1.453,1.453,0,0,0-.249-2.1,11.356,11.356,0,0,1-2.571-2.935,22.575,22.575,0,0,0,3.527-2.105A29.527,29.527,0,0,0,49.172,75.7Z" transform="translate(0.001 -47.152)"/>
                </g>
              </g>
            </g>
          </g>
          <circle id="Ellipse_13521" data-name="Ellipse 13521" cx="0.87" cy="0.87" r="0.87" transform="translate(5.953 10.303)"/>
        </g>
      </g>
    </g>
  </g>
</svg>
