<svg xmlns="http://www.w3.org/2000/svg" width="100" height="100" viewBox="0 0 100 100">
  <g id="img12" transform="translate(-637 -6992)">
    <g id="Group_1098742" data-name="Group 1098742" transform="translate(637.242 6992)">
      <rect id="Rectangle_400898" data-name="Rectangle 400898" width="100" height="100" rx="50" transform="translate(-0.242)" fill="#fff" opacity="0.859"/>
      <g id="Rectangle_400907" data-name="Rectangle 400907" transform="translate(-0.242)" fill="none" stroke="#f3bc5b" stroke-linecap="round" stroke-width="3" stroke-dasharray="0 7">
        <rect width="100" height="100" rx="50" stroke="none"/>
        <rect x="1.5" y="1.5" width="97" height="97" rx="48.5" fill="none"/>
      </g>
    </g>
    <g id="Group_1107006" data-name="Group 1107006" transform="translate(645.398 7000.157)">
      <rect id="Rectangle_400898-2" data-name="Rectangle 400898" width="84" height="84" rx="42" transform="translate(-0.399 -0.157)" fill="#004e3d" opacity="0.859"/>
      <rect id="Rectangle_400907-2" data-name="Rectangle 400907" width="84" height="84" rx="42" transform="translate(-0.398 -0.157)" fill="none"/>
    </g>
    <g id="Group_1175985" data-name="Group 1175985" transform="translate(634.592 7017.129)">
      <g id="Group_1175983" data-name="Group 1175983" transform="translate(31.229 0.729)">
        <path id="Path_929103" data-name="Path 929103" d="M163.486,92.5h29.243a.486.486,0,0,1,.486.486v39.056a.486.486,0,0,1-.486.486H163.486a.486.486,0,0,1-.486-.486V92.986A.486.486,0,0,1,163.486,92.5Z" transform="translate(-150.856 -84.242)" fill="#f5f5f5"/>
        <path id="Path_929104" data-name="Path 929104" d="M191.029,92.5v37.356a.486.486,0,0,1-.486.486H163V92.986a.486.486,0,0,1,.486-.486Z" transform="translate(-150.856 -84.242)" fill="#e6e6e6"/>
        <path id="Path_929105" data-name="Path 929105" d="M150.229,50H120.986a.486.486,0,0,0-.486.486V89.542a.486.486,0,0,0,.486.486h29.243a.486.486,0,0,0,.486-.486V50.486A.486.486,0,0,0,150.229,50Z" transform="translate(-112.485 -45.871)" fill="#f5f5f5"/>
        <path id="Path_929106" data-name="Path 929106" d="M148.529,50V87.356a.486.486,0,0,1-.486.486H120.5V50.486a.486.486,0,0,1,.486-.486Z" transform="translate(-112.485 -45.871)" fill="#e6e6e6"/>
        <path id="Path_929107" data-name="Path 929107" d="M72.1,7.986V47.042a.486.486,0,0,1-.486.486H42.858A4.858,4.858,0,0,1,38,42.67V41.407a.486.486,0,0,1,.486-.486h2.931a.485.485,0,0,0,.469-.485V7.986a.486.486,0,0,1,.486-.486H71.615A.486.486,0,0,1,72.1,7.986Z" transform="translate(-38 -7.5)" fill="#f5f5f5"/>
        <path id="Path_929108" data-name="Path 929108" d="M121.841,65.827h-8.355a.486.486,0,0,1-.486-.486V56.986a.486.486,0,0,1,.486-.486h8.355a.486.486,0,0,1,.486.486v8.355A.486.486,0,0,1,121.841,65.827Z" transform="translate(-105.713 -51.739)" fill="#faa515"/>
        <g id="Group_1175982" data-name="Group 1175982" transform="translate(0 5.295)">
          <path id="Path_929109" data-name="Path 929109" d="M247.916,133.457H237.229a.729.729,0,0,1,0-1.457h10.687a.729.729,0,0,1,0,1.457Z" transform="translate(-217.215 -125.199)" fill="#2b597f"/>
          <path id="Path_929110" data-name="Path 929110" d="M182.013,201.457H171.229a.729.729,0,0,1,0-1.457h10.784a.729.729,0,0,1,0,1.457Z" transform="translate(-157.627 -186.593)" fill="#2b597f"/>
          <path id="Path_929111" data-name="Path 929111" d="M247.916,98.457H237.229a.729.729,0,1,1,0-1.457h10.687a.729.729,0,0,1,0,1.457Z" transform="translate(-217.215 -93.6)" fill="#2b597f"/>
          <path id="Path_929112" data-name="Path 929112" d="M247.916,63.457H237.229a.729.729,0,0,1,0-1.457h10.687a.729.729,0,0,1,0,1.457Z" transform="translate(-217.215 -62)" fill="#2b597f"/>
          <path id="Path_929113" data-name="Path 929113" d="M129.643,290.457H106.229a.729.729,0,1,1,0-1.457h23.414a.729.729,0,1,1,0,1.457Z" transform="translate(-98.942 -266.946)" fill="#2b597f"/>
          <path id="Path_929114" data-name="Path 929114" d="M228.956,245.457H216.229a.729.729,0,0,1,0-1.457h12.727a.729.729,0,1,1,0,1.457Z" transform="translate(-198.255 -226.318)" fill="#2b597f"/>
          <path id="Path_929115" data-name="Path 929115" d="M113.064,245.457h-7.335a.729.729,0,1,1,0-1.457h7.335a.729.729,0,1,1,0,1.457Z" transform="translate(-98.491 -226.318)" fill="#2b597f"/>
          <path id="Path_929116" data-name="Path 929116" d="M67.319,358.1H42.858A4.858,4.858,0,0,1,38,353.24v-1.263a.486.486,0,0,1,.486-.486H62.024a.486.486,0,0,1,.486.486v1.264A4.858,4.858,0,0,0,67.319,358.1Z" transform="translate(-38 -323.365)" fill="#2b597f"/>
        </g>
      </g>
      <g id="Group_1175984" data-name="Group 1175984" transform="translate(30.5)">
        <path id="Path_929117" data-name="Path 929117" d="M73.588,8.258h-3.4v-3.4a.729.729,0,0,0-.729-.729h-3.4V.729A.729.729,0,0,0,65.33,0H35.115a.729.729,0,0,0-.729.729V33.421H31.229a.729.729,0,0,0-.729.729V35.9a5.593,5.593,0,0,0,5.586,5.586h2.429v3.4a.729.729,0,0,0,.729.729h3.4v3.4a.729.729,0,0,0,.729.729H57.995a.729.729,0,0,0,0-1.457H44.1V45.614H69.459a.729.729,0,0,0,.729-.729V33.421a.729.729,0,1,0-1.457,0V44.156H39.973V41.485H65.33a.729.729,0,0,0,.729-.729V5.586H68.73V30.118a.729.729,0,1,0,1.457,0V9.715h2.672v38.57H61.3a.729.729,0,0,0,0,1.457h12.29a.729.729,0,0,0,.729-.729V8.987A.729.729,0,0,0,73.588,8.258ZM64.6,40.027H60.569A4.134,4.134,0,0,1,56.44,35.9V34.15a.729.729,0,0,0-.729-.729H50.659a.729.729,0,0,0,0,1.457h4.323V35.9a5.573,5.573,0,0,0,1.828,4.129H36.086A4.134,4.134,0,0,1,31.957,35.9v-1.02h15.3a.729.729,0,0,0,0-1.457H35.843V1.457H64.6Z" transform="translate(-30.5)"/>
        <path id="Path_929118" data-name="Path 929118" d="M106.229,59.784h9.327a.729.729,0,0,0,.729-.729V49.729a.729.729,0,0,0-.729-.729h-9.327a.729.729,0,0,0-.729.729v9.327A.729.729,0,0,0,106.229,59.784Zm.729-9.327h7.869v7.869h-7.869Z" transform="translate(-98.213 -44.239)"/>
        <path id="Path_929119" data-name="Path 929119" d="M247.916,132H237.229a.729.729,0,0,0,0,1.457h10.687a.729.729,0,0,0,0-1.457Z" transform="translate(-216.486 -119.176)"/>
        <path id="Path_929120" data-name="Path 929120" d="M170.5,200.729a.729.729,0,0,0,.729.729h10.784a.729.729,0,0,0,0-1.457H171.229A.729.729,0,0,0,170.5,200.729Z" transform="translate(-156.898 -180.569)"/>
        <path id="Path_929121" data-name="Path 929121" d="M247.916,97H237.229a.729.729,0,1,0,0,1.457h10.687a.729.729,0,0,0,0-1.457Z" transform="translate(-216.486 -87.576)"/>
        <path id="Path_929122" data-name="Path 929122" d="M247.916,62H237.229a.729.729,0,0,0,0,1.457h10.687a.729.729,0,0,0,0-1.457Z" transform="translate(-216.486 -55.976)"/>
        <path id="Path_929123" data-name="Path 929123" d="M129.643,289H106.229a.729.729,0,1,0,0,1.457h23.414a.729.729,0,1,0,0-1.457Z" transform="translate(-98.213 -260.923)"/>
        <path id="Path_929124" data-name="Path 929124" d="M228.956,244H216.229a.729.729,0,0,0,0,1.457h12.727a.729.729,0,1,0,0-1.457Z" transform="translate(-197.527 -220.294)"/>
        <path id="Path_929125" data-name="Path 929125" d="M105.729,245.457h7.335a.729.729,0,1,0,0-1.457h-7.335a.729.729,0,1,0,0,1.457Z" transform="translate(-97.762 -220.294)"/>
      </g>
    </g>
  </g>
</svg>
