<svg xmlns="http://www.w3.org/2000/svg" width="124" height="124" viewBox="0 0 124 124">
  <g id="img14" transform="translate(-1234.5 -458)">
    <g id="Ellipse_12108" data-name="Ellipse 12108" transform="translate(1241.5 465)" fill="#f3bc5b" stroke="rgba(255,255,255,0.4)" stroke-width="7">
      <circle cx="55" cy="55" r="55" stroke="none"/>
      <circle cx="55" cy="55" r="58.5" fill="none"/>
    </g>
    <g id="Group_1176849" data-name="Group 1176849" transform="translate(1267.05 491.338)">
      <path id="Path_931249" data-name="Path 931249" d="M57.057,44.417,46.571,33.931l.759-.759.266.266a.908.908,0,0,0,1.285,0l2.725-2.725a.907.907,0,0,0,0-1.285l-5.184-5.184V7.359A6.367,6.367,0,0,0,40.063,1H5.542A4.547,4.547,0,0,0,1,5.542V12.81a.908.908,0,0,0,.908.908H8.267V52.781a4.547,4.547,0,0,0,4.542,4.542h32.7a4.547,4.547,0,0,0,4.542-4.542V50.964a.908.908,0,0,0-.908-.908H46.422V40.893L53.5,47.972a.908.908,0,0,0,1.285,0L57.057,45.7A.907.907,0,0,0,57.057,44.417ZM40.971,36.961,37.713,33.7l5.075-5.075,3.258,3.258Zm-.376,2.193-1.441,1.441L34.08,35.52,35.52,34.08Zm7.644-7.644-5.074-5.074L44.6,25l5.075,5.074ZM8.267,11.9H2.817V5.542a2.725,2.725,0,1,1,5.451,0ZM48.238,52.781a2.729,2.729,0,0,1-2.725,2.725H16.442a4.518,4.518,0,0,0,.91-2.725v-.908H48.238ZM44.6,50.055H16.443a.908.908,0,0,0-.908.908v1.817a2.725,2.725,0,0,1-5.451,0V5.542a4.5,4.5,0,0,0-.932-2.725h30.91A4.547,4.547,0,0,1,44.6,7.359V22.8a.906.906,0,0,0-.642.266l-2.725,2.725a.907.907,0,0,0,0,1.285l.266.266-5.074,5.074-.266-.266a.907.907,0,0,0-1.285,0l-2.725,2.725a.907.907,0,0,0,0,1.285l6.359,6.359a.908.908,0,0,0,1.285,0L42.522,39.8a.907.907,0,0,0,0-1.285l-.266-.266.759-.759,1.59,1.59Zm9.539-4.01L44.3,36.2l.987-.987,9.844,9.844Z" fill="#004e3d"/>
      <path id="Path_931250" data-name="Path 931250" d="M14,19H43.978v1.817H14Z" transform="translate(-1.19 -1.648)" fill="#004e3d"/>
      <path id="Path_931251" data-name="Path 931251" d="M14,27H40.345v1.817H14Z" transform="translate(-1.19 -2.381)" fill="#004e3d"/>
      <path id="Path_931252" data-name="Path 931252" d="M14,23H43.978v1.817H14Z" transform="translate(-1.19 -2.015)" fill="#004e3d"/>
      <path id="Path_931253" data-name="Path 931253" d="M14,11H43.978v1.817H14Z" transform="translate(-1.19 -0.916)" fill="#004e3d"/>
      <path id="Path_931254" data-name="Path 931254" d="M14,7H43.978V8.817H14Z" transform="translate(-1.19 -0.549)" fill="#004e3d"/>
      <path id="Path_931255" data-name="Path 931255" d="M14,15H43.978v1.817H14Z" transform="translate(-1.19 -1.282)" fill="#004e3d"/>
      <path id="Path_931256" data-name="Path 931256" d="M14,31H38.528v1.817H14Z" transform="translate(-1.19 -2.747)" fill="#004e3d"/>
      <path id="Path_931257" data-name="Path 931257" d="M21.176,35a8.176,8.176,0,1,0,8.176,8.176A8.185,8.185,0,0,0,21.176,35Zm0,14.535a6.359,6.359,0,1,1,6.359-6.359A6.367,6.367,0,0,1,21.176,49.535Z" transform="translate(-1.099 -3.113)" fill="#004e3d"/>
      <path id="Path_931258" data-name="Path 931258" d="M21.542,39a4.542,4.542,0,1,0,4.542,4.542A4.547,4.547,0,0,0,21.542,39Zm0,7.267a2.725,2.725,0,1,1,2.725-2.725A2.729,2.729,0,0,1,21.542,46.267Z" transform="translate(-1.465 -3.48)" fill="#004e3d"/>
      <path id="Path_931259" data-name="Path 931259" d="M38.451,48.908a.909.909,0,0,0-1.664-.5l-.305.458A4.176,4.176,0,0,1,33,50.725v1.817a5.99,5.99,0,0,0,4.19-1.7,3.635,3.635,0,0,0,3.078,1.7H43.9V50.725H40.267A1.819,1.819,0,0,1,38.451,48.908Z" transform="translate(-2.93 -4.304)" fill="#004e3d"/>
    </g>
  </g>
</svg>
