<svg xmlns="http://www.w3.org/2000/svg" width="100" height="100" viewBox="0 0 100 100">
  <g id="img19" transform="translate(-637 -6992)">
    <g id="Group_1098742" data-name="Group 1098742" transform="translate(637.242 6992)">
      <rect id="Rectangle_400898" data-name="Rectangle 400898" width="100" height="100" rx="50" transform="translate(-0.242)" fill="#fff" opacity="0.859"/>
      <g id="Rectangle_400907" data-name="Rectangle 400907" transform="translate(-0.242)" fill="none" stroke="#f3bc5b" stroke-linecap="round" stroke-width="3" stroke-dasharray="0 7">
        <rect width="100" height="100" rx="50" stroke="none"/>
        <rect x="1.5" y="1.5" width="97" height="97" rx="48.5" fill="none"/>
      </g>
    </g>
    <g id="Group_1107006" data-name="Group 1107006" transform="translate(645.398 7000.157)">
      <rect id="Rectangle_400898-2" data-name="Rectangle 400898" width="84" height="84" rx="42" transform="translate(-0.399 -0.157)" fill="#004e3d" opacity="0.859"/>
      <rect id="Rectangle_400907-2" data-name="Rectangle 400907" width="84" height="84" rx="42" transform="translate(-0.398 -0.157)" fill="none"/>
    </g>
    <g id="Group_1176765" data-name="Group 1176765" transform="translate(655.744 6918.293)">
      <g id="Group_1176764" data-name="Group 1176764" transform="translate(0.917 117.383)">
        <path id="Path_930684" data-name="Path 930684" d="M410.83,296.592h9.656v3.561H410.83Z" transform="translate(-361.587 -285.313)" fill="#d3cee5" fill-rule="evenodd"/>
        <path id="Path_930685" data-name="Path 930685" d="M7.512,204.21h50.07v13.062L32.9,218.636l-25.39-1.364Z" transform="translate(-7.512 -204.21)" fill="#f5bc98" fill-rule="evenodd"/>
        <path id="Path_930686" data-name="Path 930686" d="M7.512,311.19v3.741a.95.95,0,0,0,.948.948H56.634a.95.95,0,0,0,.948-.948V311.19H7.512Z" transform="translate(-7.512 -298.128)" fill="#9dc6fb" fill-rule="evenodd"/>
        <path id="Path_930687" data-name="Path 930687" d="M51.657,312.917H7.512v2.014a.95.95,0,0,0,.948.948H56.634a.95.95,0,0,0,.948-.948V311.19H54.35A2.973,2.973,0,0,1,51.657,312.917Z" transform="translate(-7.512 -298.128)" fill="#80b4fb" fill-rule="evenodd"/>
        <path id="Path_930688" data-name="Path 930688" d="M42.433,309.541a6.233,6.233,0,1,0-6.233-6.233,6.245,6.245,0,0,0,6.233,6.233Z" transform="translate(-32.697 -285.736)" fill="#0c5e7f" fill-rule="evenodd"/>
        <path id="Path_930689" data-name="Path 930689" d="M67.618,331.222a2.731,2.731,0,1,0-2.731-2.731A2.736,2.736,0,0,0,67.618,331.222Z" transform="translate(-57.882 -310.92)" fill="#d3cee5" fill-rule="evenodd"/>
        <path id="Path_930690" data-name="Path 930690" d="M293.045,309.541a6.233,6.233,0,1,0-6.233-6.233A6.245,6.245,0,0,0,293.045,309.541Z" transform="translate(-252.711 -285.736)" fill="#0c5e7f" fill-rule="evenodd"/>
        <path id="Path_930691" data-name="Path 930691" d="M299.1,335.993a6.235,6.235,0,1,1-12.11,0,6.234,6.234,0,0,0,12.11,0Z" transform="translate(-252.711 -319.903)" fill="#174b67" fill-rule="evenodd"/>
        <path id="Path_930692" data-name="Path 930692" d="M48.486,335.993A6.233,6.233,0,1,1,36.2,337.474a6.354,6.354,0,0,1,.177-1.481,6.234,6.234,0,0,0,12.11,0Z" transform="translate(-32.696 -319.903)" fill="#174b67" fill-rule="evenodd"/>
        <path id="Path_930693" data-name="Path 930693" d="M318.231,331.222a2.731,2.731,0,1,0-2.731-2.731A2.734,2.734,0,0,0,318.231,331.222Z" transform="translate(-277.896 -310.92)" fill="#d3cee5" fill-rule="evenodd"/>
        <path id="Path_930694" data-name="Path 930694" d="M475.348,280.379v-5.818a1.781,1.781,0,0,1,3.561,0v5.818a1.781,1.781,0,1,1-3.561,0Z" transform="translate(-418.228 -264.41)" fill="#ede9fb" fill-rule="evenodd"/>
        <path id="Path_930695" data-name="Path 930695" d="M391.4,204.21v11.826a2.957,2.957,0,0,1-.27,1.235h3.233V204.21Z" transform="translate(-344.292 -204.21)" fill="#e59b6c" fill-rule="evenodd"/>
      </g>
      <path id="Path_930696" data-name="Path 930696" d="M35.936,134.955a5.318,5.318,0,1,0,5.316-5.316A5.305,5.305,0,0,0,35.936,134.955Zm21.185-1.6v-.211H51.9v1.994a.916.916,0,0,1-.917.914H48.319a7.15,7.15,0,0,1-14.131,0H28.027a.915.915,0,1,1,0-1.831h6.115a7.109,7.109,0,0,1,.931-2.859H16.831a7.108,7.108,0,0,1,.931,2.859h6.116a.915.915,0,1,1,0,1.831H17.717a7.15,7.15,0,0,1-14.131,0H.917A.916.916,0,0,1,0,135.135v-28.91a.915.915,0,1,1,1.831,0v1.931H12.518v-1.931a.915.915,0,1,1,1.831,0v1.931H25.037v-1.931a.915.915,0,1,1,1.831,0v1.931H37.555v-1.931a.915.915,0,1,1,1.831,0v1.931H50.074v-1.931a.915.915,0,1,1,1.831,0v15.235a.915.915,0,1,1-1.831,0V118.3H1.831v11.227H6a7.154,7.154,0,0,1,9.307,0H36.6a7.154,7.154,0,0,1,9.307,0h4.167V125.61a.915.915,0,1,1,1.831,0v2.139H57.12v-.214a2.7,2.7,0,0,1,5.392,0v5.818a2.7,2.7,0,0,1-5.392,0Zm1.831-5.818v5.818a.869.869,0,0,0,.865.865.863.863,0,0,0,.865-.865v-5.818a.864.864,0,0,0-.253-.609.875.875,0,0,0-.613-.256.867.867,0,0,0-.609.256A.853.853,0,0,0,58.951,127.535ZM57.12,129.58H51.9v1.731H57.12Zm-7.047-13.11v-2.326H39.386v2.326Zm0-4.156v-2.322H39.386v2.322ZM1.831,109.991v2.322H12.519v-2.322Zm0,4.153v2.326H12.519v-2.326Zm12.518-4.153v2.322H25.037v-2.322Zm0,4.153v2.326H25.037v-2.326Zm12.518-4.153v2.322H37.555v-2.322Zm0,4.153v2.326H37.555v-2.326Zm20.565,17.215a7.159,7.159,0,0,1,.931,2.859h1.71v-2.859Zm-6.181-.048a3.639,3.639,0,1,1-2.578,1.066A3.638,3.638,0,0,1,41.252,131.311Zm1.284,2.364a1.809,1.809,0,1,0,.533,1.281A1.81,1.81,0,0,0,42.536,133.674Zm-31.883-2.364a3.645,3.645,0,1,1-2.578,1.066A3.645,3.645,0,0,1,10.653,131.311Zm1.284,2.364a1.818,1.818,0,1,0,.53,1.281A1.81,1.81,0,0,0,11.937,133.674Zm-1.284-4.035a5.318,5.318,0,1,0,5.316,5.316A5.318,5.318,0,0,0,10.653,129.639Zm-7.112,4.579a7.161,7.161,0,0,1,.931-2.859H1.831v2.859Z"/>
    </g>
  </g>
</svg>
