<svg xmlns="http://www.w3.org/2000/svg" width="100" height="100" viewBox="0 0 100 100">
  <g id="img13" transform="translate(-637 -6992)">
    <g id="Group_1098742" data-name="Group 1098742" transform="translate(637.242 6992)">
      <rect id="Rectangle_400898" data-name="Rectangle 400898" width="100" height="100" rx="50" transform="translate(-0.242)" fill="#fff" opacity="0.859"/>
      <g id="Rectangle_400907" data-name="Rectangle 400907" transform="translate(-0.242)" fill="none" stroke="#f3bc5b" stroke-linecap="round" stroke-width="3" stroke-dasharray="0 7">
        <rect width="100" height="100" rx="50" stroke="none"/>
        <rect x="1.5" y="1.5" width="97" height="97" rx="48.5" fill="none"/>
      </g>
    </g>
    <g id="Group_1107006" data-name="Group 1107006" transform="translate(645.398 7000.157)">
      <rect id="Rectangle_400898-2" data-name="Rectangle 400898" width="84" height="84" rx="42" transform="translate(-0.399 -0.157)" fill="#004e3d" opacity="0.859"/>
      <rect id="Rectangle_400907-2" data-name="Rectangle 400907" width="84" height="84" rx="42" transform="translate(-0.398 -0.157)" fill="none"/>
    </g>
    <g id="Group_1175992" data-name="Group 1175992" transform="translate(628.35 7015.104)">
      <g id="Group_1175986" data-name="Group 1175986" transform="translate(36.27 4.853)">
        <path id="Path_929126" data-name="Path 929126" d="M47.046,46.193H44.08a1.1,1.1,0,0,0-1.1,1.1V90.631a1.1,1.1,0,0,0,1.1,1.1H74.79A7.683,7.683,0,0,0,73.1,87.667Z" transform="translate(-42.981 -46.193)" fill="#b6c4cf" fill-rule="evenodd"/>
      </g>
      <g id="Group_1175987" data-name="Group 1175987" transform="translate(40.335 0.788)">
        <path id="Path_929127" data-name="Path 929127" d="M116.579,45.2V8.6a1.1,1.1,0,0,0-1.1-1.1H82.772a1.1,1.1,0,0,0-1.1,1.1V51.938a1.1,1.1,0,0,0,1.1,1.1h24.951C111.469,52.905,116.585,49.659,116.579,45.2Z" transform="translate(-81.673 -7.5)" fill="#eff6ff" fill-rule="evenodd"/>
      </g>
      <g id="Group_1175988" data-name="Group 1175988" transform="translate(71.023 0.788)">
        <path id="Path_929128" data-name="Path 929128" d="M377.978,46.255V8.6a1.1,1.1,0,0,0-1.1-1.1h-2.99c-.6,0,1.1.494,1.1,1.1V46.231a7.258,7.258,0,0,1,1.441-.14,7.488,7.488,0,0,1,1.549.164Z" transform="translate(-373.76 -7.5)" fill="#d9eeff" fill-rule="evenodd"/>
      </g>
      <g id="Group_1175989" data-name="Group 1175989" transform="translate(66.355 38.328)">
        <path id="Path_929129" data-name="Path 929129" d="M344.007,372.146a7.338,7.338,0,1,0-14.676,0c0,.223.009.444.03.661a7.338,7.338,0,0,0,14.646-.661Z" transform="translate(-329.331 -364.808)" fill="#3bc3a4" fill-rule="evenodd"/>
      </g>
      <g id="Group_1175990" data-name="Group 1175990" transform="translate(71.927 38.328)">
        <path id="Path_929130" data-name="Path 929130" d="M391.47,372.146a7.331,7.331,0,0,0-7.338-7.338,7.477,7.477,0,0,0-.971.063,7.263,7.263,0,0,1,2.433,1.108.6.6,0,0,1,.057.039,7.339,7.339,0,0,1-3.285,13.253,7.343,7.343,0,0,0,9.1-7.124Z" transform="translate(-382.366 -364.808)" fill="#00a887" fill-rule="evenodd"/>
      </g>
      <g id="Group_1175991" data-name="Group 1175991" transform="translate(35.482 0)">
        <path id="Path_929131" data-name="Path 929131" d="M146.631,49.946H121.5a.788.788,0,1,0,0,1.576h25.126a.788.788,0,0,0,0-1.576Z" transform="translate(-111.762 -44.699)"/>
        <path id="Path_929132" data-name="Path 929132" d="M182.437,86.026a.788.788,0,0,0-.788-.788H165.838a.788.788,0,1,0,0,1.576h15.811A.788.788,0,0,0,182.437,86.026Z" transform="translate(-151.437 -76.283)"/>
        <path id="Path_929133" data-name="Path 929133" d="M121,130.745l1.972,1.671a.788.788,0,0,0,.509.187l.067,0a.788.788,0,0,0,.537-.279l3.714-4.432a.788.788,0,0,0-1.208-1.012l-3.2,3.824-1.367-1.158a.788.788,0,0,0-1.019,1.2Z" transform="translate(-111.762 -113.295)"/>
        <path id="Path_929134" data-name="Path 929134" d="M121,202.32l1.972,1.671a.788.788,0,0,0,.509.187l.067,0a.788.788,0,0,0,.537-.279l3.714-4.432a.788.788,0,0,0-1.208-1.012l-3.2,3.824-1.367-1.158a.788.788,0,0,0-1.019,1.2Z" transform="translate(-111.762 -177.35)"/>
        <path id="Path_929135" data-name="Path 929135" d="M121,273.9l1.972,1.671a.788.788,0,0,0,.509.187l.067,0a.788.788,0,0,0,.537-.279l3.714-4.432a.788.788,0,1,0-1.208-1.012l-3.2,3.824-1.367-1.158A.788.788,0,0,0,121,273.9Z" transform="translate(-111.762 -241.405)"/>
        <path id="Path_929136" data-name="Path 929136" d="M121,345.443l1.972,1.674a.788.788,0,0,0,.51.187l.067,0a.788.788,0,0,0,.537-.279l3.714-4.435a.788.788,0,0,0-1.208-1.012l-3.2,3.826-1.367-1.16a.788.788,0,0,0-1.02,1.2Z" transform="translate(-111.762 -305.436)"/>
        <path id="Path_929137" data-name="Path 929137" d="M223.2,165.346h-8.976a.788.788,0,1,0,0,1.576H223.2a.788.788,0,0,0,0-1.576Z" transform="translate(-194.74 -147.974)"/>
        <path id="Path_929138" data-name="Path 929138" d="M280.632,130.025h-9.319a.788.788,0,1,0,0,1.576h9.319a.788.788,0,0,0,0-1.576Z" transform="translate(-245.831 -116.364)"/>
        <path id="Path_929139" data-name="Path 929139" d="M216.5,130.025h-2.272a.788.788,0,1,0,0,1.576H216.5a.788.788,0,0,0,0-1.576Z" transform="translate(-194.74 -116.364)"/>
        <path id="Path_929140" data-name="Path 929140" d="M214.225,236.921a.788.788,0,1,0,0,1.576H223.2a.788.788,0,1,0,0-1.576Z" transform="translate(-194.74 -212.029)"/>
        <path id="Path_929141" data-name="Path 929141" d="M230.329,273.964a.788.788,0,0,0-.788-.788H214.225a.788.788,0,1,0,0,1.576h15.316A.788.788,0,0,0,230.329,273.964Z" transform="translate(-194.74 -244.475)"/>
        <path id="Path_929142" data-name="Path 929142" d="M214.225,380.07a.788.788,0,1,0,0,1.576h7.052a.788.788,0,0,0,0-1.576Z" transform="translate(-194.74 -340.139)"/>
        <path id="Path_929143" data-name="Path 929143" d="M340.651,201.6h-2.272a.788.788,0,1,0,0,1.576h2.272a.788.788,0,0,0,0-1.576Z" transform="translate(-305.85 -180.42)"/>
        <path id="Path_929144" data-name="Path 929144" d="M224.334,202.389a.788.788,0,0,0-.788-.788h-9.321a.788.788,0,1,0,0,1.576h9.321A.788.788,0,0,0,224.334,202.389Z" transform="translate(-194.74 -180.42)"/>
        <path id="Path_929145" data-name="Path 929145" d="M214.225,310.071H216.1a.788.788,0,0,0,0-1.576h-1.876a.788.788,0,1,0,0,1.576Z" transform="translate(-194.74 -276.083)"/>
        <path id="Path_929146" data-name="Path 929146" d="M262.977,310.071a.788.788,0,1,0,0-1.576h-4.306a.788.788,0,0,0,0,1.576Z" transform="translate(-234.517 -276.083)"/>
        <path id="Path_929147" data-name="Path 929147" d="M225.313,345.539a.788.788,0,0,0-.788-.788h-10.3a.788.788,0,0,0,0,1.576h10.3A.788.788,0,0,0,225.313,345.539Z" transform="translate(-194.74 -308.53)"/>
        <path id="Path_929148" data-name="Path 929148" d="M375.625,409.005a.788.788,0,0,0-1.108.119l-2.455,3.048-.96-.848a.788.788,0,0,0-1.043,1.181l1.578,1.394a.788.788,0,0,0,.522.2l.067,0a.788.788,0,0,0,.547-.291l2.972-3.69A.788.788,0,0,0,375.625,409.005Z" transform="translate(-334.668 -365.878)"/>
        <path id="Path_929149" data-name="Path 929149" d="M76.029,37.883V21.269a.788.788,0,0,0-1.576,0V37.577c-.252-.023-.506-.037-.761-.037a8.134,8.134,0,0,0-8.123,8H41.434a.317.317,0,0,1-.311-.314V1.887a.315.315,0,0,1,.311-.311H74.143a.315.315,0,0,1,.311.311V17.633a.788.788,0,1,0,1.576,0V1.887A1.889,1.889,0,0,0,74.143,0H41.434a1.889,1.889,0,0,0-1.887,1.887V4.065H37.369a1.889,1.889,0,0,0-1.887,1.887V28.664a.788.788,0,1,0,1.576,0V5.952a.315.315,0,0,1,.311-.311h2.178V45.226a1.891,1.891,0,0,0,1.887,1.89H65.7a8.035,8.035,0,0,0,.885,2.489H37.369a.317.317,0,0,1-.311-.314V32.3a.788.788,0,0,0-1.576,0V49.291a1.891,1.891,0,0,0,1.887,1.89h30.3l.054,0a8.126,8.126,0,1,0,8.307-13.295ZM73.693,52.217a6.549,6.549,0,0,1-6.524-5.964c-.018-.184-.026-.375-.026-.586a6.55,6.55,0,1,1,6.55,6.55Z" transform="translate(-35.482 0)"/>
      </g>
    </g>
  </g>
</svg>
