<svg xmlns="http://www.w3.org/2000/svg" width="114" height="114" viewBox="0 0 114 114">
  <g id="img15" transform="translate(-1234.5 -458)">
    <g id="Ellipse_12108" data-name="Ellipse 12108" transform="translate(1241.5 465)" fill="#f3bc5b" stroke="rgba(255,255,255,0.4)" stroke-width="7">
      <circle cx="50" cy="50" r="50" stroke="none"/>
      <circle cx="50" cy="50" r="53.5" fill="none"/>
    </g>
    <path id="Path_933099" data-name="Path 933099" d="M12.726,45.021a.923.923,0,0,1,.923-.923H23.26a.923.923,0,1,1,0,1.847H13.649A.923.923,0,0,1,12.726,45.021ZM30.17,50.577H13.649a.923.923,0,1,0,0,1.847H30.17a.923.923,0,0,0,0-1.847Zm0,6.479H13.649a.923.923,0,1,0,0,1.847H30.17a.923.923,0,0,0,0-1.847Zm0,6.479H13.649a.923.923,0,1,0,0,1.847H30.17a.923.923,0,0,0,0-1.847Zm17.123-4.669V56.31l-5.344-.027V73.956h5.344V71.405a3.22,3.22,0,0,1,3.216-3.216h6.948a3.22,3.22,0,0,1,3.212,3.067L63.71,68.5a.923.923,0,1,1,1.241,1.368l-4.278,3.882v4.607a3.22,3.22,0,0,1-3.216,3.216H50.509a3.22,3.22,0,0,1-3.216-3.216V75.8H41.026a.923.923,0,0,1-.923-.923V56.274l-4.283-.021V73.3a.923.923,0,0,1-.923.923H8.923A.923.923,0,0,1,8,73.3V36.176a.923.923,0,0,1,.923-.923H27.534a.923.923,0,0,1,.667.285l7.361,7.683a.923.923,0,0,1,.257.639V54.406l4.283.021V35.9a.923.923,0,0,1,.923-.923h6.267V32.429a3.22,3.22,0,0,1,3.216-3.216h6.948A3.22,3.22,0,0,1,60.67,32.28l3.04-2.759a.923.923,0,0,1,1.241,1.368L60.673,34.77v4.607a3.22,3.22,0,0,1-3.216,3.216H50.509a3.22,3.22,0,0,1-3.216-3.216V36.827H41.949v17.61l5.344.027V51.917A3.22,3.22,0,0,1,50.509,48.7h6.948a3.22,3.22,0,0,1,3.212,3.067l3.04-2.759a.923.923,0,1,1,1.241,1.368l-4.278,3.882v4.607a3.22,3.22,0,0,1-3.216,3.216H50.509a3.22,3.22,0,0,1-3.216-3.216Zm1.847,0a1.371,1.371,0,0,0,1.369,1.369h6.948a1.371,1.371,0,0,0,1.369-1.369V55.935l-2.069,1.878a.923.923,0,0,1-1.274-.031L52.11,54.408A.923.923,0,0,1,53.416,53.1l2.751,2.751,2.659-2.413V51.917a1.371,1.371,0,0,0-1.369-1.369H50.509a1.371,1.371,0,0,0-1.369,1.369v6.948Zm0-19.488a1.371,1.371,0,0,0,1.369,1.369h6.948a1.371,1.371,0,0,0,1.369-1.369V36.446l-2.069,1.878a.923.923,0,0,1-1.274-.031L52.11,34.92a.923.923,0,1,1,1.306-1.306l2.751,2.751,2.659-2.413V32.429a1.371,1.371,0,0,0-1.369-1.369H50.509a1.371,1.371,0,0,0-1.369,1.369v6.948Zm-21-1.239v4.8h4.6ZM33.972,72.38v-27.6h-6.76a.923.923,0,0,1-.923-.923V37.1H9.847V72.38ZM49.14,78.354a1.371,1.371,0,0,0,1.369,1.369h6.948a1.371,1.371,0,0,0,1.369-1.369V75.423L56.757,77.3a.923.923,0,0,1-1.274-.031L52.11,73.9a.923.923,0,1,1,1.306-1.306l2.751,2.751,2.659-2.413V71.405a1.371,1.371,0,0,0-1.369-1.369H50.509a1.371,1.371,0,0,0-1.369,1.369v6.948Z" transform="translate(1255.333 459.197)" fill="#004e3d"/>
  </g>
</svg>
