<svg xmlns="http://www.w3.org/2000/svg" xmlns:xlink="http://www.w3.org/1999/xlink" width="295" height="180" viewBox="0 0 295 180">
  <defs>
    <clipPath id="clip-path">
      <rect id="Rectangle_454533" data-name="Rectangle 454533" width="295" height="180" rx="10" transform="translate(1124.711 12138)" fill="#f3bc5b"/>
    </clipPath>
    <clipPath id="clip-path-2">
      <rect id="Rectangle_454532" data-name="Rectangle 454532" width="295" height="255.667" fill="none"/>
    </clipPath>
  </defs>
  <g id="img16" transform="translate(-1124.711 -12138)" clip-path="url(#clip-path)">
    <g id="Group_1176854" data-name="Group 1176854" transform="translate(1125 12069.735)">
      <rect id="Rectangle_454522" data-name="Rectangle 454522" width="294.998" height="255.665" transform="translate(0.002 -0.002)" fill="#ffbf72"/>
      <path id="Path_931269" data-name="Path 931269" d="M.013,1799.958V1822.6h0v-22.638Z" transform="translate(-0.011 -1566.934)" fill="#fba854"/>
      <g id="Group_1176853" data-name="Group 1176853" transform="translate(0 -0.002)">
        <g id="Group_1176852" data-name="Group 1176852" transform="translate(0 0)" clip-path="url(#clip-path-2)">
          <path id="Path_931270" data-name="Path 931270" d="M26.711,1803.039a23.66,23.66,0,0,1-2.35-3.081H21.817c1.612,1.049,3.238,2.083,4.894,3.081" transform="translate(-18.993 -1566.932)" fill="#fba854"/>
          <path id="Path_931271" data-name="Path 931271" d="M1423.422,1698.763a20.39,20.39,0,0,0-.454-3.919q-3.31-.437-6.6-.983-.047,2.5-.093,5h4.216c3.252,0,3.246,5.054,0,5.056h-.772q1.912.8,3.81,1.632c-.406-2.106-.091-4.581-.11-6.786" transform="translate(-1232.925 -1474.57)" fill="#fba854"/>
          <path id="Path_931272" data-name="Path 931272" d="M571.3,1801.418c-.112-.486-.225-.974-.337-1.46H568.3l3,1.46" transform="translate(-494.73 -1566.932)" fill="#fba854"/>
          <path id="Path_931273" data-name="Path 931273" d="M686.525,1800.724q3.7,1.6,7.407,3.2-1.4-1.983-2.794-3.966h-4.6l-.014.766" transform="translate(-597.646 -1566.932)" fill="#fba854"/>
          <path id="Path_931274" data-name="Path 931274" d="M1178.086,1664.4v6.178l11.095,0q-1.173-2.195-2.346-4.39c1.225.393,2.443.8,3.661,1.21q-3.841-3.01-7.669-6.036-2.357,1.542-4.741,3.041" transform="translate(-1025.569 -1446.28)" fill="#fba854"/>
          <path id="Path_931275" data-name="Path 931275" d="M1178.086,1635.743l.457-.292c-.152-.048-.306-.093-.457-.142Z" transform="translate(-1025.569 -1423.599)" fill="#fba854"/>
          <path id="Path_931276" data-name="Path 931276" d="M1282.138,1665.424c2.558,2.071,5.14,4.148,7.847,6.018.071-.248.146-.494.213-.743.051-.4.091-.808.134-1.212.075-.7.135-1.4.187-2.1q-4.235-.9-8.38-1.96" transform="translate(-1116.15 -1449.815)" fill="#fba854"/>
          <path id="Path_931277" data-name="Path 931277" d="M1194.138,1771.616l14.511,5.223q-1.395-2.613-2.792-5.224h-.422q-5.649,0-11.3,0" transform="translate(-1039.543 -1542.258)" fill="#fba854"/>
          <path id="Path_931278" data-name="Path 931278" d="M859.694,1801.418l-1.036-1.46h-3.047q2.033.747,4.083,1.46" transform="translate(-744.842 -1566.932)" fill="#fba854"/>
          <path id="Path_931279" data-name="Path 931279" d="M1595.416,1535.028a4.534,4.534,0,0,1-1.593.656l-.265.071a1.743,1.743,0,0,1-1.784,1.8,1.679,1.679,0,0,1-1.431-.706c-17.647,6.667-37.858,8.257-57.9,6.516q.2,1.288.412,2.573c.166.981.359,1.984.608,2.969q18.3,5.145,36.59,10.292-3.018-3.947-6.036-7.9a267.3,267.3,0,0,0,31.539,7.015,19.157,19.157,0,0,1-7.974-11.073,229.181,229.181,0,0,1,31.146,9.08,32.931,32.931,0,0,1,.287-6.324q-1.993-2.653-3.984-5.306c1.586.51,3.162,1.04,4.735,1.579a30.69,30.69,0,0,1,3.112-7.575,32.181,32.181,0,0,1,6.172-7.586v-12.306c-11.829,4.058-21.908,10.719-33.191,15.771a2.272,2.272,0,0,1-.438.451m9.577,5.262a1.852,1.852,0,0,1,0,3.7,1.852,1.852,0,0,1,0-3.7" transform="translate(-1334.046 -1322.177)" fill="#fba854"/>
          <path id="Path_931280" data-name="Path 931280" d="M2198.935,1759.756a32.979,32.979,0,0,0-.287,6.324c2.386.883,4.758,1.792,7.1,2.752q-3.4-4.536-6.815-9.077" transform="translate(-1913.969 -1531.934)" fill="#ffe5b9"/>
          <path id="Path_931281" data-name="Path 931281" d="M2210.067,1621.447a30.682,30.682,0,0,0-3.112,7.575q4.681,1.606,9.283,3.372v-18.533a32.178,32.178,0,0,0-6.172,7.586" transform="translate(-1921.239 -1404.927)" fill="#ffe5b9"/>
          <path id="Path_931282" data-name="Path 931282" d="M333.837,530.334a54.1,54.1,0,0,1,2.718-8.967v-70.9h-14.5v79.867Z" transform="translate(-280.361 -392.149)" fill="#e13537"/>
          <path id="Path_931283" data-name="Path 931283" d="M430.231,1046.426q-.307,1.35-.569,2.713h.569Z" transform="translate(-374.037 -910.953)" fill="#e13537"/>
          <rect id="Rectangle_454523" data-name="Rectangle 454523" width="14.5" height="79.866" transform="translate(23.831 58.319)" fill="#e13537"/>
          <path id="Path_931284" data-name="Path 931284" d="M915.119,1512.473a2.944,2.944,0,0,1,.174,2.073,2.086,2.086,0,0,1-1.3,1.231c-.065.024-.137.041-.207.061v2.834q4.246-3.073,8.455-6.2h-7.124" transform="translate(-795.487 -1316.665)" fill="#e13537"/>
          <path id="Path_931285" data-name="Path 931285" d="M1123.611,428.309c-.088-.148-.178-.295-.267-.442h-6.563v64.5c2.646-.122,5.292-.2,7.937-.19V428.616a.81.81,0,0,1-1.107-.307" transform="translate(-972.2 -372.474)" fill="#e13537"/>
          <path id="Path_931286" data-name="Path 931286" d="M1028.525,427.866h-9.261v65.122c3.087-.1,6.174-.283,9.261-.449V427.866Z" transform="translate(-887.308 -372.473)" fill="#e13537"/>
          <path id="Path_931287" data-name="Path 931287" d="M813.406,492.362v-64.5H802.341v63.211l.411.047c3.551.422,7.1.874,10.653,1.238" transform="translate(-698.468 -372.474)" fill="#e13537"/>
          <path id="Path_931288" data-name="Path 931288" d="M699.647,490.7V427.866H688.239v61.985c2.244.08,4.487.205,6.725.39,1.563.129,3.124.286,4.683.454" transform="translate(-599.138 -372.473)" fill="#e13537"/>
          <path id="Path_931289" data-name="Path 931289" d="M924.079,427.866H913.788v64.8c2.19.181,4.384.318,6.583.372,1.236.03,2.472.034,3.709.021v-65.2Z" transform="translate(-795.487 -372.473)" fill="#e13537"/>
          <path id="Path_931290" data-name="Path 931290" d="M583.237,489.77v-61.9H571.485v62.2q5.176-.34,10.367-.32c.461,0,.923.013,1.384.019" transform="translate(-497.499 -372.474)" fill="#e13537"/>
          <rect id="Rectangle_454524" data-name="Rectangle 454524" width="11.064" height="82.792" transform="translate(9.402 55.393)" fill="#e13537"/>
          <path id="Path_931291" data-name="Path 931291" d="M1088.662,1512.466l.277.218v-.218Z" transform="translate(-947.722 -1316.659)" fill="#e13537"/>
          <path id="Path_931292" data-name="Path 931292" d="M1116.782,1512.458v2.872l1.539,1.214,6.4,5.047v-9.134h-7.937" transform="translate(-972.201 -1316.651)" fill="#e13537"/>
          <path id="Path_931293" data-name="Path 931293" d="M1057.4,1539.493l-4.538-3.587-.429,23.034q2.5-1.388,4.967-2.822Z" transform="translate(-916.183 -1337.065)" fill="#e13537"/>
          <path id="Path_931294" data-name="Path 931294" d="M822.95,1512.55l-.043-.1h-2.162a20.852,20.852,0,0,1-2.4,1.038q-.931.329-1.883.606a11.454,11.454,0,0,1-.051,2.854,2.12,2.12,0,0,1-.937,1.783,5.081,5.081,0,0,1-2.02.479.623.623,0,0,1-.147-.021l5.985,4.493c1.219-.864,2.445-1.719,3.66-2.59Z" transform="translate(-708.013 -1316.648)" fill="#e13537"/>
          <path id="Path_931295" data-name="Path 931295" d="M1124.718,1590.415q-3.968-3.133-7.937-6.265v11.981c.292-.175.589-.344.88-.52q3.561-2.149,7.056-4.4v-.792Z" transform="translate(-972.2 -1379.063)" fill="#e13537"/>
          <path id="Path_931296" data-name="Path 931296" d="M460.5,494.463a.8.8,0,0,1,.807-.36,15.84,15.84,0,0,1,2.676-2.184.708.708,0,0,1,.7-.071,17.953,17.953,0,0,1,6.418-1.519V427.867H461.035v2.926h-1v64.4c.155-.242.3-.489.462-.729" transform="translate(-400.481 -372.474)" fill="#e13537"/>
          <path id="Path_931297" data-name="Path 931297" d="M686.843,1771.962a1.693,1.693,0,0,1-.16.74l-.047,2.53h4.6q-1.3-1.838-2.59-3.676h-1.8Z" transform="translate(-597.742 -1542.206)" fill="#e13537"/>
          <path id="Path_931298" data-name="Path 931298" d="M647.875,1771.7l0-.166h-.047c.014.057.029.11.044.166" transform="translate(-563.962 -1542.192)" fill="#e13537"/>
          <path id="Path_931299" data-name="Path 931299" d="M774.365,1534.984c-.1,0-.2.006-.3.007l.3.222Z" transform="translate(-673.857 -1336.262)" fill="#e13537"/>
          <path id="Path_931300" data-name="Path 931300" d="M695.413,1526.812a2.12,2.12,0,0,1-1.405.669,2.847,2.847,0,0,1-2.565-1.355,3.307,3.307,0,0,1-.026-2.315l-2.714-2.038q-.232,12.436-.463,24.872v.349q4.215-2.791,8.4-5.622c1.006-.683,2-1.381,3-2.068v-9.314l-4.234-3.179" transform="translate(-599.138 -1324.761)" fill="#e13537"/>
          <path id="Path_931301" data-name="Path 931301" d="M734.554,1708.02l5.412,0v-3.648q-2.7,1.835-5.412,3.645" transform="translate(-639.457 -1483.723)" fill="#e13537"/>
          <path id="Path_931302" data-name="Path 931302" d="M564.219,1744.191v2.917a1.534,1.534,0,0,1-1.081,1.531v2.447l.669.326h2.664q-.511-2.227-1.026-4.454c-.31-.786-.613-1.579-.99-2.319-.076-.15-.156-.3-.235-.447" transform="translate(-490.233 -1518.385)" fill="#e13537"/>
          <path id="Path_931303" data-name="Path 931303" d="M803.189,1536.5a.839.839,0,0,1-.074-.153,24.642,24.642,0,0,1-.764-3.518h-.01v3.032l.848.636" transform="translate(-698.468 -1334.387)" fill="#e13537"/>
          <path id="Path_931304" data-name="Path 931304" d="M920.186,1553.125c-2.123,1.555-4.261,3.089-6.4,4.624v4.1l10.291,7.727v-19.341c-1.3.963-2.589,1.938-3.894,2.894" transform="translate(-795.487 -1349.535)" fill="#e13537"/>
          <path id="Path_931305" data-name="Path 931305" d="M632.232,1466.576c-.367-.022-.733-.044-1.1-.068-.068.293-.13.586-.193.88h1.7a8.725,8.725,0,0,1-.408-.813" transform="translate(-549.258 -1276.651)" fill="#e13537"/>
          <path id="Path_931306" data-name="Path 931306" d="M921.4,1694.145l-5.528-4.15-2.085-1.566v5.715H921.4" transform="translate(-795.487 -1469.841)" fill="#e13537"/>
          <path id="Path_931307" data-name="Path 931307" d="M809.667,1647.236q-3.649,2.564-7.325,5.09v5.956H806.1q-1.775-2.5-3.552-5.007,5.432,2.161,10.862,4.326v-7.558l-3.739-2.808" transform="translate(-698.469 -1433.981)" fill="#e13537"/>
          <path id="Path_931308" data-name="Path 931308" d="M622.736,1512.524a3.007,3.007,0,0,1-.529-.975h-.367a2.625,2.625,0,0,1-.767-.121,68.334,68.334,0,0,0-.075,15.78q.051.493.109.988c.122,1.042.9,6.651,1.9,11.851h1.238l.5-26.89a1.9,1.9,0,0,1-.518.16,1.6,1.6,0,0,1-1.5-.794" transform="translate(-540.239 -1315.756)" fill="#e13537"/>
          <path id="Path_931309" data-name="Path 931309" d="M799.005,1772.432q3.631,1.479,7.328,2.837h3.047q-1.3-1.834-2.6-3.669l-7.369,0a1.5,1.5,0,0,1-.4.835" transform="translate(-695.564 -1542.243)" fill="#e13537"/>
          <path id="Path_931310" data-name="Path 931310" d="M1053.172,1778.418l-2.161-3.07q-.021,1.1-.041,2.193l2.2.877" transform="translate(-914.909 -1545.508)" fill="#e13537"/>
          <path id="Path_931311" data-name="Path 931311" d="M802.341,1609.226c1.033-.715,2.068-1.427,3.1-2.147l-3.1-2.325Z" transform="translate(-698.468 -1396.999)" fill="#e13537"/>
          <path id="Path_931312" data-name="Path 931312" d="M0,603.639c.93.631,1.876,1.246,2.821,1.862H5.369A21.428,21.428,0,0,1,1.89,592.754l4.149,2.265V427.867H0V563.23c2.985.2,2.98,4.817,0,5.018v28.534c2.985.2,2.98,4.817,0,5.018v3.7H0Z" transform="translate(0 -372.474)" fill="#e13537"/>
          <path id="Path_931313" data-name="Path 931313" d="M1116.782,1691.033h2.469l5.468,0v-6.178q-3.93,2.468-7.937,4.811Z" transform="translate(-972.201 -1466.729)" fill="#e13537"/>
          <rect id="Rectangle_454525" data-name="Rectangle 454525" width="11.064" height="55.391" transform="translate(9.402 0.002)" fill="#e13537"/>
          <rect id="Rectangle_454526" data-name="Rectangle 454526" width="6.038" height="55.391" transform="translate(0 0.002)" fill="#e13537"/>
          <rect id="Rectangle_454527" data-name="Rectangle 454527" width="10.067" height="55.391" transform="translate(60.554 0.002)" fill="#e13537"/>
          <rect id="Rectangle_454528" data-name="Rectangle 454528" width="11.408" height="55.391" transform="translate(89.101 0.002)" fill="#e13537"/>
          <path id="Path_931314" data-name="Path 931314" d="M1028.525,207.964a1.575,1.575,0,0,1,1.58-1.62l-10.841-17.44V219.84h9.261Z" transform="translate(-887.308 -164.448)" fill="#e13537"/>
          <rect id="Rectangle_454529" data-name="Rectangle 454529" width="11.752" height="55.391" transform="translate(73.986 0.002)" fill="#e13537"/>
          <path id="Path_931315" data-name="Path 931315" d="M1116.782,356.405h6.563c-.438-.734-.883-1.463-1.322-2.2l-5.241-8.431Z" transform="translate(-972.201 -301.013)" fill="#e13537"/>
          <path id="Path_931316" data-name="Path 931316" d="M813.406,55.4V1.959A1.56,1.56,0,0,1,814.837.351l-.221-.337H802.341V55.4Z" transform="translate(-698.468 -0.012)" fill="#e13537"/>
          <path id="Path_931317" data-name="Path 931317" d="M913.789,77.526H924.08V44.477a1.534,1.534,0,0,1,1.083-1.531q-5.642-8.79-11.375-17.521v52.1Z" transform="translate(-795.488 -22.133)" fill="#e13537"/>
          <path id="Path_931318" data-name="Path 931318" d="M46.643,222.557,49.1,223.9V138.2h.909V.014H46.643V222.557Z" transform="translate(-40.605 -0.012)" fill="#b61d24"/>
          <path id="Path_931319" data-name="Path 931319" d="M158.09,138.2h3.364V58.33h-2.987V.014h-.377V138.2Z" transform="translate(-137.623 -0.012)" fill="#b61d24"/>
          <rect id="Rectangle_454530" data-name="Rectangle 454530" width="3.364" height="79.866" transform="translate(38.33 58.319)" fill="#b61d24"/>
          <path id="Path_931320" data-name="Path 931320" d="M1090.8,1512.464v.218l3.364,2.653v-2.872H1090.8" transform="translate(-949.581 -1316.656)" fill="#b61d24"/>
          <path id="Path_931321" data-name="Path 931321" d="M1094.162,1566.27l-3.364-2.659v16.625q1.689-.981,3.364-1.984Z" transform="translate(-949.581 -1361.183)" fill="#b61d24"/>
          <path id="Path_931322" data-name="Path 931322" d="M1098.673,1723.384h2.344v-1.37c-.781.457-1.559.919-2.344,1.369" transform="translate(-956.437 -1499.079)" fill="#b61d24"/>
          <path id="Path_931323" data-name="Path 931323" d="M1092.377,323.613a1.576,1.576,0,0,0-1.58,1.62v76.549q1.682-.091,3.364-.17V326.483Z" transform="translate(-949.58 -281.717)" fill="#b61d24"/>
          <path id="Path_931324" data-name="Path 931324" d="M996.331,1532.729q-1.521,1.138-3.049,2.266v19.341l1.29.968-.51-.725,1.85.666q.21-11.258.42-22.516" transform="translate(-864.69 -1334.299)" fill="#b61d24"/>
          <path id="Path_931325" data-name="Path 931325" d="M999.141,1771.644l1.7.678q.007-.339.013-.678h-1.714" transform="translate(-869.79 -1542.283)" fill="#b61d24"/>
          <path id="Path_931326" data-name="Path 931326" d="M993.282,162.292v98.246c1.121-.012,2.242-.039,3.364-.076V164.4l-1.7-2.729c-.2-.3-.388-.61-.584-.915a1.534,1.534,0,0,0-1.083,1.531" transform="translate(-864.69 -139.948)" fill="#b61d24"/>
          <path id="Path_931327" data-name="Path 931327" d="M887.807,122.168q1.681.172,3.364.309V5.573Q890.2,4.1,889.239,2.62a1.56,1.56,0,0,0-1.432,1.608v117.94Z" transform="translate(-772.87 -2.281)" fill="#b61d24"/>
          <path id="Path_931328" data-name="Path 931328" d="M892.253,1610.3l2.788,2.093v-4.1c-.93.667-1.856,1.339-2.788,2" transform="translate(-776.74 -1400.083)" fill="#b61d24"/>
          <path id="Path_931329" data-name="Path 931329" d="M891.17,1671.447l-3.364-2.525v7.558l1.712.682h1.651Z" transform="translate(-772.869 -1452.86)" fill="#b61d24"/>
          <path id="Path_931330" data-name="Path 931330" d="M889.772,1516.462a2.383,2.383,0,0,1-1.053-1.323q-.384-.784-.751-1.577c-.055-.121-.107-.243-.162-.364v8.545c1.126-.807,2.242-1.628,3.364-2.44v-2.834a2.111,2.111,0,0,1-1.4-.008" transform="translate(-772.869 -1317.297)" fill="#b61d24"/>
          <path id="Path_931331" data-name="Path 931331" d="M776.357,118.234q1.683.182,3.364.381V.014h-3.364v118.22Z" transform="translate(-675.848 -0.012)" fill="#b61d24"/>
          <path id="Path_931332" data-name="Path 931332" d="M776.357,1692.51h3.364v-5.956q-1.681,1.155-3.364,2.307Z" transform="translate(-675.848 -1468.21)" fill="#b61d24"/>
          <path id="Path_931333" data-name="Path 931333" d="M779.72,1535.872v-3.032a28.315,28.315,0,0,1-3.364.278v.229l3.364,2.526" transform="translate(-675.847 -1334.396)" fill="#b61d24"/>
          <path id="Path_931334" data-name="Path 931334" d="M776.357,1585.246v9.314q1.684-1.155,3.364-2.316v-4.472l-3.364-2.526" transform="translate(-675.848 -1380.017)" fill="#b61d24"/>
          <path id="Path_931335" data-name="Path 931335" d="M783.486,1771.59c.669.28,1.337.562,2.009.836a1.5,1.5,0,0,0,.4-.835h-2.413" transform="translate(-682.054 -1542.236)" fill="#b61d24"/>
          <path id="Path_931336" data-name="Path 931336" d="M662.257,117.308q1.682.023,3.364.082V.014h-3.364V117.308Z" transform="translate(-576.52 -0.012)" fill="#b61d24"/>
          <path id="Path_931337" data-name="Path 931337" d="M687.16,1771.554h-.139q-.01.573-.021,1.146a1.692,1.692,0,0,0,.16-.74Z" transform="translate(-598.06 -1542.205)" fill="#b61d24"/>
          <path id="Path_931338" data-name="Path 931338" d="M688.188,1714.248l.007,0v-.349l-.007.353" transform="translate(-599.094 -1492.011)" fill="#b61d24"/>
          <path id="Path_931339" data-name="Path 931339" d="M545.5,117.867c.247-.023.5-.046.749-.068.871-.073,1.743-.133,2.614-.19V.014H545.5V117.867Z" transform="translate(-474.881 -0.012)" fill="#b61d24"/>
          <path id="Path_931340" data-name="Path 931340" d="M564.219,1661.16v-2.917a6.418,6.418,0,0,1-.636-1.475,7.036,7.036,0,0,1-.053-2.189,42.157,42.157,0,0,0-.393-9.117v17.229a1.534,1.534,0,0,0,1.081-1.531" transform="translate(-490.233 -1432.437)" fill="#b61d24"/>
          <path id="Path_931341" data-name="Path 931341" d="M434.056,1018.6v2.712h1.169a32.619,32.619,0,0,1-.073-6.85c-.126.4-.248.8-.36,1.2-.272.97-.512,1.95-.736,2.935" transform="translate(-377.862 -883.132)" fill="#b61d24"/>
          <path id="Path_931342" data-name="Path 931342" d="M434.261,520.895a25.584,25.584,0,0,1,1.373-2.945c.543-1.051,1.141-2.078,1.786-3.084v-64.4h-3.364v70.9c.065-.159.138-.314.2-.472" transform="translate(-377.862 -392.148)" fill="#b61d24"/>
          <path id="Path_931343" data-name="Path 931343" d="M161.005,58.33h39.71V.014h-39.71Zm3.709-56.891h32.292V53.6H164.714Z" transform="translate(-140.161 -0.012)" fill="#fff6d3"/>
          <rect id="Rectangle_454531" data-name="Rectangle 454531" width="32.292" height="52.162" transform="translate(24.553 1.427)" fill="#130909"/>
          <path id="Path_931344" data-name="Path 931344" d="M947.671,54.98a.831.831,0,0,1,.122.424h15.995L929.772.014h-16.8c11.892,18.112,23.6,36.348,34.694,54.966" transform="translate(-794.781 -0.012)" fill="#130909"/>
          <path id="Path_931345" data-name="Path 931345" d="M1018.7,187.994l1.784,2.87,5.241,8.431q-4.3-7.172-8.7-14.282-5.36-8.638-10.859-17.187l1.7,2.729Z" transform="translate(-875.9 -146.098)" fill="#130909"/>
          <path id="Path_931346" data-name="Path 931346" d="M899.312,3.3q5.725,8.736,11.375,17.521c.2.3.388.61.584.914q5.485,8.558,10.858,17.187,4.409,7.106,8.7,14.282c.439.733.885,1.462,1.322,2.2.088.148.178.295.266.442a.81.81,0,0,0,1.107.307.849.849,0,0,0,.5-.749.832.832,0,0,0-.123-.424C922.809,36.362,911.1,18.126,899.207.014h-2.048l.221.337q.968,1.475,1.932,2.953" transform="translate(-781.011 -0.012)" fill="#fff6d3"/>
          <path id="Path_931347" data-name="Path 931347" d="M0,1473.452v5.018c2.98-.2,2.985-4.822,0-5.018" transform="translate(0 -1282.696)" fill="#fff6d3"/>
          <path id="Path_931348" data-name="Path 931348" d="M0,1732.621v5.018c2.98-.2,2.985-4.822,0-5.018" transform="translate(0 -1508.313)" fill="#fff6d3"/>
          <path id="Path_931349" data-name="Path 931349" d="M872.517,1505.163c-.564.335-1.146.647-1.74.944h2.162c-.142-.314-.284-.628-.422-.945" transform="translate(-758.045 -1310.301)" fill="#7f0f15"/>
          <path id="Path_931350" data-name="Path 931350" d="M1068.574,1489h11.3q6.688,0,13.376,0l7.733,0a4.837,4.837,0,0,0-.988-2.492c-2.661-2.573-12.387.628-15.734,1.027-.526.063-1.051.115-1.573.157-5.928.489-11.639-.248-17.419-1.075L1068.3,1489Z" transform="translate(-927.357 -1293.19)" fill="#7f0f15"/>
          <path id="Path_931351" data-name="Path 931351" d="M625.531,1478.362a1.837,1.837,0,0,1-.077-.428,2.339,2.339,0,0,1,.519-1.389,8.934,8.934,0,0,1,.88-1.109,8.257,8.257,0,0,1,.942-.86,10.2,10.2,0,0,1-.851-1.268h-1.7q-.533,2.461-.847,4.936a2.63,2.63,0,0,0,.767.121h.367" transform="translate(-543.562 -1282.569)" fill="#7f0f15"/>
          <path id="Path_931352" data-name="Path 931352" d="M911.625,1475.58c.4.7.771,1.4,1.1,2.132.163.358.353.745.508,1.146h7.124c1.488-1.1,2.979-2.2,4.459-3.319-3.634-.454-7.168-.983-10.673-1.68-.858.567-1.694,1.145-2.522,1.72" transform="translate(-793.604 -1283.051)" fill="#7f0f15"/>
          <path id="Path_931353" data-name="Path 931353" d="M1420.042,1732.475l-4.216,0q-.033,1.807-.067,3.614c1.173.476,2.346.952,3.511,1.442h.771c3.246,0,3.252-5.059,0-5.056" transform="translate(-1232.472 -1508.185)" fill="#7f0f15"/>
          <path id="Path_931354" data-name="Path 931354" d="M640.455,1737.536h.047q.047-2.528.094-5.056h-1.238c.346,1.8.718,3.56,1.1,5.057" transform="translate(-556.585 -1508.189)" fill="#7f0f15"/>
          <path id="Path_931355" data-name="Path 931355" d="M1099.078,1732.552h-4.813c-.218.125-.438.245-.656.369l13.015,4.684h11.72l-2.7-5.058-11.095,0-5.468,0" transform="translate(-952.028 -1508.247)" fill="#7f0f15"/>
          <path id="Path_931356" data-name="Path 931356" d="M915.476,1736.088a1.865,1.865,0,0,1-.973-.357l-4.207-3.159h-9.264l12.7,5.058h1.714q.014-.771.029-1.542" transform="translate(-784.383 -1508.27)" fill="#7f0f15"/>
          <path id="Path_931357" data-name="Path 931357" d="M729.071,1732.532h-2.794l-5.412,0q-1.017.681-2.036,1.36,4.133,1.931,8.371,3.7h2.413l7.369,0-3.587-5.056h-4.324" transform="translate(-625.768 -1508.231)" fill="#7f0f15"/>
          <path id="Path_931358" data-name="Path 931358" d="M687.189,1759.722q-.013.673-.025,1.346h1.941l-1.1-1.56a2.176,2.176,0,0,1-.817.214" transform="translate(-598.202 -1531.719)" fill="#7f0f15"/>
          <path id="Path_931359" data-name="Path 931359" d="M1400.919,1639.96q.075-4.008.149-8.016c-.021.13-.043.264-.064.392l-.137.851q-1.17,7.242-2.339,14.484c.746.3,1.487.6,2.231.9q.034-1.807.067-3.614.046-2.5.093-5" transform="translate(-1217.472 -1420.669)" fill="#7f0f15"/>
          <path id="Path_931360" data-name="Path 931360" d="M1018.621,1544.539q.215-11.517.429-23.034l-2.71-2.142c-.772.582-1.554,1.151-2.328,1.73q-.21,11.258-.42,22.516l4.087,1.471c.024-.014.042-.034.067-.047.293-.162.582-.331.875-.494" transform="translate(-882.371 -1322.663)" fill="#7f0f15"/>
          <path id="Path_931361" data-name="Path 931361" d="M1012.325,1749.982q-.014.771-.029,1.542-.006.339-.013.678l5.008,1.995q.021-1.1.041-2.193l-2.444-3.471c-.03.062-.049.125-.085.186a2.747,2.747,0,0,1-2.479,1.264" transform="translate(-881.232 -1522.163)" fill="#7f0f15"/>
          <path id="Path_931362" data-name="Path 931362" d="M653.355,1534.773q.232-12.436.463-24.872l-2.352-1.766a10.493,10.493,0,0,1-.784.792,12.048,12.048,0,0,1-1.1.872,4.964,4.964,0,0,1-.817.492q-.25,13.445-.5,26.889-.047,2.528-.094,5.056c0,.055,0,.111,0,.166.242.942.487,1.776.729,2.448l4.237,1.831q.007-.383.014-.766.024-1.265.047-2.531.011-.573.021-1.147.013-.673.025-1.346a2.641,2.641,0,0,1-2.386-1.245,2.522,2.522,0,0,1,.372-2.988q-.587-.835-1.176-1.669c.663.34,1.333.67,2,1,.434-.286.863-.58,1.3-.867q0-.177.007-.353" transform="translate(-564.254 -1312.889)" fill="#fff6d3"/>
          <path id="Path_931363" data-name="Path 931363" d="M752.1,1537.862l-.848-.637-3.364-2.526-.3-.222c-.786.008-1.571-.017-2.353-.083-.232.709-.47,1.416-.76,2.1a4.2,4.2,0,0,1-.825,1.307l4.234,3.179,3.364,2.526,3.1,2.326c1.441-1.007,2.872-2.028,4.307-3.044l-5.985-4.494a.83.83,0,0,1-.572-.429" transform="translate(-647.379 -1335.748)" fill="#7f0f15"/>
          <path id="Path_931364" data-name="Path 931364" d="M866.025,1625.862l-2.788-2.093c-1.433,1.02-2.876,2.027-4.315,3.038l3.739,2.808,3.364,2.525,2.085,1.566,5.528,4.15,4.207,3.159a1.867,1.867,0,0,0,.973.357,2.746,2.746,0,0,0,2.479-1.264c.036-.062.055-.125.085-.187q-1.887-2.681-3.776-5.363l-1.29-.969-10.291-7.727" transform="translate(-747.724 -1413.553)" fill="#7f0f15"/>
          <path id="Path_931365" data-name="Path 931365" d="M678.92,1509.335c.072-.248.161-.491.241-.736a21.631,21.631,0,0,1-5.26-2.631c-.081.1-.167.187-.251.28l2.352,1.766,2.715,2.038c.064-.245.136-.486.2-.717" transform="translate(-586.439 -1311.002)" fill="#7f0f15"/>
          <path id="Path_931366" data-name="Path 931366" d="M1223.438,1642.158c-1.033-.836-2.064-1.671-3.1-2.487l-1.233-.973q-2.186,1.486-4.4,2.934,3.833,3.02,7.669,6.036,4.118,1.377,8.182,2.864.386-1.171.725-2.356c-2.706-1.87-5.288-3.947-7.846-6.018" transform="translate(-1057.45 -1426.549)" fill="#7f0f15"/>
          <path id="Path_931367" data-name="Path 931367" d="M1035.2,1494.49c-.128.1-.257.19-.385.286q1.356,1.07,2.709,2.142l4.538,3.587,3.364,2.659q3.966,3.137,7.937,6.265l.556.437q2.229-1.438,4.432-2.915l-4.988-3.935-6.4-5.047-1.539-1.214-3.364-2.654-.276-.218-3.029-2.389-2.612-.375a2.62,2.62,0,0,1-.946,3.37" transform="translate(-900.85 -1298.076)" fill="#7f0f15"/>
          <path id="Path_931368" data-name="Path 931368" d="M1054.433,1548.338q4-2.345,7.937-4.811,2.385-1.5,4.741-3.041,2.212-1.448,4.4-2.934,5.685-3.866,11.194-7.984c.414-.311.822-.631,1.235-.944-.047-1.7-.047-4.072-.27-6.114q-7.951,6.161-16.31,11.767-2.2,1.478-4.432,2.915l-.1.063-.457.292q-3.5,2.247-7.056,4.4c-.292.176-.588.344-.88.519q-1.676,1-3.364,1.985-2.47,1.435-4.967,2.823c-.293.163-.582.332-.875.494-.024.013-.043.033-.066.047l6.272,2.257c.218-.124.438-.245.656-.369.785-.45,1.563-.912,2.344-1.369" transform="translate(-909.852 -1325.403)" fill="#7f0f15"/>
          <path id="Path_931369" data-name="Path 931369" d="M690.887,1515c1.124-.765,2.243-1.537,3.364-2.307q3.676-2.526,7.325-5.09c1.439-1.011,2.882-2.018,4.315-3.038.932-.664,1.858-1.336,2.788-2,2.137-1.535,4.275-3.069,6.4-4.624,1.3-.955,2.595-1.931,3.894-2.894q1.526-1.131,3.049-2.266c.774-.579,1.556-1.148,2.328-1.73.128-.1.257-.19.385-.286a2.619,2.619,0,0,0,.945-3.37c-1.341-.192-2.687-.38-4.044-.549l-.041-.006c-1.481,1.114-2.972,2.214-4.459,3.319q-4.209,3.125-8.455,6.2c-1.122.812-2.238,1.634-3.364,2.44-1.215.871-2.441,1.726-3.66,2.59-1.435,1.016-2.866,2.037-4.307,3.044-1.029.72-2.065,1.431-3.1,2.146q-1.679,1.163-3.364,2.316c-1,.688-2,1.385-3,2.068q-4.182,2.841-8.4,5.623l-.007,0c-.433.287-.862.581-1.3.867q2.611,1.306,5.263,2.552,1.019-.678,2.036-1.36,2.711-1.814,5.412-3.645" transform="translate(-590.378 -1294.35)" fill="#7f0f15"/>
          <path id="Path_931370" data-name="Path 931370" d="M666.7,1731.453a2.642,2.642,0,0,0,2.386,1.245,2.177,2.177,0,0,0,.817-.214q-1.415-2.009-2.831-4.019a2.522,2.522,0,0,0-.372,2.988" transform="translate(-580.094 -1504.694)" fill="#7f0f15"/>
          <path id="Path_931371" data-name="Path 931371" d="M422.6,1067.379c-.409,2.141-.742,4.3-1.051,6.455h3.7c-.151-1.034-.3-2.056-.46-3.054-.176-1.128-.331-2.264-.449-3.4H422.6Z" transform="translate(-366.971 -929.194)" fill="#7f0f15"/>
          <path id="Path_931372" data-name="Path 931372" d="M70.33,1073.834h39.136c.293-2.167.659-4.324,1.123-6.455H65.606v85.7l4.724,2.578Z" transform="translate(-57.113 -929.194)" fill="#7f0f15"/>
          <path id="Path_931373" data-name="Path 931373" d="M531.375,1527.118c-.855-5.937-2.678-11.729-4.2-17.6q-.265.437-.528.88v34.1l4.723,2.3v-19.676Z" transform="translate(-458.471 -1314.094)" fill="#7f0f15"/>
          <path id="Path_931374" data-name="Path 931374" d="M405.887,1119.643q-1.147,8.248-1.611,16.575a207.458,207.458,0,0,0-.066,22.048.872.872,0,0,1,.084.257q.634,5.025.764,10.087c1.249-3.162,2.812-6.251,3.9-9.408,3.427-9.92,3.253-22.085,2.063-33.348-.312-2.955-.694-5.845-1.1-8.619h-3.7q-.173,1.206-.34,2.408" transform="translate(-351.653 -972.595)" fill="#130909"/>
          <path id="Path_931375" data-name="Path 931375" d="M392.793,1529.429c-.015.3-.031.6-.035.9.015-.3.03-.6.035-.9" transform="translate(-341.911 -1331.426)" fill="#130909"/>
          <path id="Path_931376" data-name="Path 931376" d="M483.45,1524.175c-2.282,5.745-1.968,12.146-1.619,18.317.1,1.741.2,3.559.369,5.376l5.221,2.542v-34.1a57.872,57.872,0,0,0-3.972,7.861" transform="translate(-419.24 -1320.009)" fill="#130909"/>
          <path id="Path_931377" data-name="Path 931377" d="M140.267,1178.511c-.005-.1,0-.195,0-.293a.822.822,0,0,1-1.521-.134c-.142-.652-.254-1.308-.35-1.965a37.045,37.045,0,0,0,.192,4.723c.1.9-1.112.995-1.532.415A14.417,14.417,0,0,1,134.34,1173a13.907,13.907,0,0,1,.615-4.288,48.765,48.765,0,0,1,1.919-4.549c1.267-2.969,1.314-6.161,1.525-9.334q.329-4.927.657-9.855c.42-6.3.8-12.611,1.276-18.91.223-2.926.5-5.885.9-8.829H102.092v81.823q4.888,2.667,9.776,5.336a37.665,37.665,0,0,1-4.224-15.934q12.637,6.642,25.282,13.271-3.351-4.766-6.7-9.54a179.886,179.886,0,0,0,17.456,10.22c-1.126-4.286-1.128-8.85-1.77-13.266-.516-3.552-1.458-7.05-1.643-10.634" transform="translate(-88.875 -972.595)" fill="#130909"/>
          <path id="Path_931378" data-name="Path 931378" d="M377.919,1440.368c-.012-.058-.02-.117-.032-.175a.844.844,0,0,1,.95-1.014q-.175-2.392-.3-4.788a21.746,21.746,0,0,1-1.643,7.031c-.187.422-.371.839-.55,1.255a14.788,14.788,0,0,1,1.571-2.308" transform="translate(-327.625 -1248.692)" fill="#130909"/>
          <path id="Path_931379" data-name="Path 931379" d="M1716.844,293.43a3.475,3.475,0,0,0-.858-5.624c-2.461-1.124-5.394.232-7.342,2.1,4.009-4.053,3.934-11.245.111-15.472s-10.686-5.175-15.725-2.484a15.054,15.054,0,0,0-7.544,14.259,4.651,4.651,0,0,0-5.021-3.08c-2.1.455-3.41,3.276-2.068,4.941-3.674-2.839-9.388-3.33-12.866-.257a7.638,7.638,0,0,0-.777,10.105,15.355,15.355,0,0,0-14.831-.673c-2.108,1.094-4.067,2.926-4.321,5.275-.235,2.176,1.049,4.242,2.587,5.81,3.016,3.075,6.918,4.389,11.1,4.981,1.244.176,9.256,1.067,8.71-1.954a4.156,4.156,0,1,0,7.9-2.394,22.894,22.894,0,0,0,4.858,5.363,9.07,9.07,0,0,0,6.837,1.877c2.485-.455,4.037-2.468,5.136-4.459,7.573,3.552,15.178,5.574,23.546,3.331,2.035-.545,4.2-1.468,5.107-3.356s-.452-4.753-2.54-4.463a38.005,38.005,0,0,0,8.687-2.08V289.256c-3.913-.419-7.539,2.041-10.691,4.174" transform="translate(-1432.534 -235.43)" fill="#fff6d3"/>
          <path id="Path_931380" data-name="Path 931380" d="M1373.079,740.652l.374.289a1.842,1.842,0,0,0,.934.253h.378a1.9,1.9,0,0,0,1.851-1.851c-.022-.164-.044-.328-.066-.492a1.849,1.849,0,0,0-.476-.817l-.375-.289a1.84,1.84,0,0,0-.934-.253h-.378a1.9,1.9,0,0,0-1.851,1.851l.066.492a1.85,1.85,0,0,0,.476.817" transform="translate(-1194.844 -642.014)" fill="#fff6d3"/>
          <path id="Path_931381" data-name="Path 931381" d="M1424.416,758.742a1.852,1.852,0,0,0,0-3.7,1.852,1.852,0,0,0,0,3.7" transform="translate(-1238.452 -657.291)" fill="#fff6d3"/>
          <path id="Path_931382" data-name="Path 931382" d="M1313.552,366.974a1.852,1.852,0,0,0,0-3.7,1.852,1.852,0,0,0,0,3.7" transform="translate(-1141.94 -316.242)" fill="#fff6d3"/>
          <path id="Path_931383" data-name="Path 931383" d="M1978.735,1650.629a1.78,1.78,0,0,0,.127.2,1.679,1.679,0,0,0,1.431.706,1.743,1.743,0,0,0,1.784-1.8l-3.342.9" transform="translate(-1722.564 -1436.153)" fill="#fff6d3"/>
          <path id="Path_931384" data-name="Path 931384" d="M2080.853,1688.461a1.852,1.852,0,0,0,0-3.7,1.852,1.852,0,0,0,0,3.7" transform="translate(-1809.905 -1466.647)" fill="#fff6d3"/>
          <path id="Path_931385" data-name="Path 931385" d="M640.913,1447.984a8.75,8.75,0,0,0,.408.813,10.213,10.213,0,0,0,.851,1.268,8.659,8.659,0,0,1,1.155-.766.826.826,0,0,1,1.06.211.771.771,0,0,1,.093.816.813.813,0,0,1,.909.223.851.851,0,0,1,.662.06.829.829,0,0,1,.3,1.125,11.672,11.672,0,0,1-.945,1.292,21.63,21.63,0,0,0,5.26,2.631c.256-.785.541-1.56.866-2.32a.824.824,0,0,1,.928-.378.835.835,0,0,1,.6.793c-.009.317-.028.634-.047.95a.818.818,0,0,1,.732-.292.839.839,0,0,1,.639.478.913.913,0,0,1,.265.063.822.822,0,0,1,1.583.441c-.148.435-.289.875-.432,1.314.781.066,1.567.091,2.353.083.1,0,.2,0,.3-.007a28.236,28.236,0,0,0,3.364-.278h.01q-.088-.614-.148-1.232a.81.81,0,0,1,.505-.751.834.834,0,0,1,.9.17,2.459,2.459,0,0,1,.341.347.749.749,0,0,1,.326-.2c.009,0,.019,0,.028,0a.841.841,0,0,1,.768-.566c.014,0,.028,0,.042,0a.81.81,0,0,1,.584-.672.832.832,0,0,1,1.011.574,11.28,11.28,0,0,1,.211,1.331q.951-.278,1.883-.606a20.9,20.9,0,0,0,2.4-1.038c.594-.3,1.176-.609,1.74-.944q-.421-.964-.821-1.938c-.27-.661.65-1.315,1.207-.928a4.779,4.779,0,0,1,.5.407.9.9,0,0,1,.555-.2c-.023-.037-.044-.076-.067-.113a.822.822,0,1,1,1.419-.83c.265.415.509.842.752,1.27.828-.575,1.664-1.153,2.522-1.72a88.057,88.057,0,0,1-11.6-3.091,11.893,11.893,0,0,0-4.678-.6c-.1.032-.2.075-.3.1a.758.758,0,0,1-.548-.032c-3.647.419-7.229,2.034-11.238,2.62-.341.049-.684.09-1.03.126a50.333,50.333,0,0,1-8.179-.012" transform="translate(-557.939 -1258.06)" fill="#ec7366"/>
          <path id="Path_931386" data-name="Path 931386" d="M878.836,1479.264c.055.121.107.243.162.364q.366.793.751,1.577a2.381,2.381,0,0,0,1.053,1.323,2.111,2.111,0,0,0,1.4.007c.069-.02.141-.037.207-.061a2.087,2.087,0,0,0,1.3-1.231,2.943,2.943,0,0,0-.174-2.073c-.155-.4-.345-.789-.508-1.146-.332-.729-.708-1.436-1.1-2.133-.243-.428-.487-.855-.752-1.27a.822.822,0,1,0-1.42.83c.024.037.044.076.068.113a.9.9,0,0,0-.555.2,4.7,4.7,0,0,0-.5-.406c-.558-.386-1.477.267-1.207.928s.54,1.3.821,1.938q.207.474.422.945l.043.1" transform="translate(-763.899 -1283.362)" fill="#ec7366"/>
          <path id="Path_931387" data-name="Path 931387" d="M802.24,1516.823a.829.829,0,0,0,.572.429.624.624,0,0,0,.147.022,5.085,5.085,0,0,0,2.02-.479,2.121,2.121,0,0,0,.937-1.783,11.454,11.454,0,0,0,.051-2.854,11.257,11.257,0,0,0-.211-1.331.832.832,0,0,0-1.011-.574.81.81,0,0,0-.584.672c-.014,0-.028,0-.042,0a.841.841,0,0,0-.768.566c-.009,0-.019,0-.028,0a.751.751,0,0,0-.326.2,2.472,2.472,0,0,0-.341-.347.834.834,0,0,0-.9-.17.811.811,0,0,0-.505.751q.06.618.148,1.232a24.667,24.667,0,0,0,.764,3.518.843.843,0,0,0,.074.153" transform="translate(-697.519 -1314.709)" fill="#ec7366"/>
          <path id="Path_931388" data-name="Path 931388" d="M711.457,1509.426a3.308,3.308,0,0,0,.026,2.315,2.847,2.847,0,0,0,2.565,1.355,2.119,2.119,0,0,0,1.4-.669,4.206,4.206,0,0,0,.825-1.306c.29-.683.528-1.39.76-2.1.143-.439.285-.879.432-1.314a.822.822,0,0,0-1.583-.441.927.927,0,0,0-.265-.063.84.84,0,0,0-.639-.478.818.818,0,0,0-.732.292c.019-.317.038-.633.047-.95a.835.835,0,0,0-.6-.793.824.824,0,0,0-.928.378c-.326.76-.61,1.535-.866,2.32-.08.245-.169.487-.241.736-.067.232-.139.472-.2.717" transform="translate(-619.178 -1310.376)" fill="#ec7366"/>
          <path id="Path_931389" data-name="Path 931389" d="M639.065,1478.9a.829.829,0,0,0-.3-1.125.851.851,0,0,0-.662-.06.813.813,0,0,0-.909-.223.771.771,0,0,0-.093-.815.825.825,0,0,0-1.06-.211,8.6,8.6,0,0,0-1.155.766,8.316,8.316,0,0,0-.942.86,8.986,8.986,0,0,0-.88,1.109,2.338,2.338,0,0,0-.519,1.389,1.838,1.838,0,0,0,.076.429,3.014,3.014,0,0,0,.529.975,1.6,1.6,0,0,0,1.5.793,1.881,1.881,0,0,0,.518-.16,4.951,4.951,0,0,0,.817-.492,12.04,12.04,0,0,0,1.1-.872,10.484,10.484,0,0,0,.784-.792c.084-.093.17-.184.251-.28a11.669,11.669,0,0,0,.945-1.292" transform="translate(-550.657 -1285.228)" fill="#ec7366"/>
          <path id="Path_931390" data-name="Path 931390" d="M1915.993,1242.309a13.025,13.025,0,0,1,.263,2.211,15.193,15.193,0,0,0,4.453-2.321,13.073,13.073,0,0,0,4.97-14.259c-.644-2.18-1.864-3.163-2.885-.721a13.549,13.549,0,0,1-3.809,5.424,17.194,17.194,0,0,1-6.935,3.366c-.261.064-.527.127-.8.19.023.016.047.029.07.045,2.186,1.585,4.09,3.4,4.669,6.065" transform="translate(-1663.819 -1067.095)" fill="#330d0c"/>
          <path id="Path_931391" data-name="Path 931391" d="M545.89,1503.939c-.379-1.5-.751-3.252-1.1-5.057-1-5.2-1.781-10.809-1.9-11.851q-.057-.494-.109-.987a68.337,68.337,0,0,1,.075-15.78q.315-2.475.847-4.936c.064-.293.125-.587.193-.88-1.694-.11-3.371-.225-4.992-.267-3.511-.089-4.245-.279-6.172,2.66-.662,1.01-1.337,2.078-2,3.175,1.518,5.87,3.34,11.663,4.2,17.6a42.165,42.165,0,0,1,.393,9.117,7.031,7.031,0,0,0,.053,2.189,6.417,6.417,0,0,0,.636,1.475c.079.148.159.3.235.446.377.74.68,1.534.99,2.32-.059-.254-.117-.508-.176-.762q4.805,2.074,9.607,4.151c-.243-.672-.487-1.506-.729-2.448-.015-.056-.029-.109-.044-.166" transform="translate(-462.021 -1274.592)" fill="#130909"/>
          <path id="Path_931392" data-name="Path 931392" d="M1442.344,1491.259c.015-.553.078-1.168.15-1.814a18.945,18.945,0,0,0-5.089,1.676c-3.489,1.781-5.4,5.308-6.584,9.167q1.046,4.4,2.452,8.713a71.884,71.884,0,0,1,2.354,7.891,20.39,20.39,0,0,1,.454,3.919c.02,2.205-.3,4.679.11,6.786q5.192,2.263,10.275,4.7l-6.236-10.287,4.765,1.34c-.249-.985-.442-1.988-.608-2.969q-.218-1.284-.412-2.573-.209-1.376-.392-2.755a149.8,149.8,0,0,1-1.24-23.8" transform="translate(-1245.584 -1296.618)" fill="#130909"/>
          <path id="Path_931393" data-name="Path 931393" d="M708.429,908.664c-3.086.167-6.174.346-9.261.449-1.121.037-2.242.065-3.364.076-1.236.013-2.472.009-3.709-.021-2.2-.054-4.392-.192-6.583-.372q-1.683-.139-3.364-.309c-3.554-.363-7.1-.815-10.653-1.238l-.411-.047q-1.681-.2-3.364-.382c-1.56-.168-3.12-.325-4.683-.454-2.238-.185-4.481-.31-6.725-.39q-1.681-.06-3.364-.082c-.461-.006-.923-.017-1.384-.019,3.369,6.138,4.66,12.3,6.808,18.739.329,1.644,1.644,3.617,3.617,3.946,3.288.986,7.891.329,9.206,3.945,3.288,8.878,10.522,17.1,20.057,14.467,11.837-2.959,17.426-14.8,25.975-23.016a4.4,4.4,0,0,1,2.96-.329c3.288,1.644,7.562,2.3,9.864-1.315,3.268-5.05,6.274-10.094,11.188-13.2-1.4.063-2.807.117-4.211.116-4.339,0-8.656-.577-12.984-.8-1.438-.076-2.876-.11-4.314-.118-2.645-.014-5.291.068-7.937.19q-1.682.077-3.364.17" transform="translate(-567.212 -788.599)" fill="#130909"/>
          <path id="Path_931394" data-name="Path 931394" d="M1217.128,1313a4.837,4.837,0,0,1,.988,2.492q.114.619.189,1.307c.222,2.042.223,4.415.27,6.114.016.561.036,1.056.072,1.43a75.616,75.616,0,0,1,.211,12.917c-.052.7-.112,1.4-.187,2.1,4.747-1.228,7.452-5.008,8.385-9.677a4.9,4.9,0,0,1,.966,1.672c.021-.129.043-.262.064-.392a57.2,57.2,0,0,1,1.64-7.6c1.187-3.86,3.1-7.387,6.584-9.167a18.938,18.938,0,0,1,5.089-1.676c4.378-.833,9.216-.5,13.569,0,2.175-3.028,3.894-6.056,2.009-8.151-4.932-5.261-7.891-11.508-12.823-16.769-.657-.986-2.3-1.973-3.617-.986-6.247,4.932-8.22,16.111-16.769,15.125-3.946-.329-7.233-6.576-10.85-4.274s-5.589,6.247-8.878,9.206a2.173,2.173,0,0,1-1.972-.329,32.245,32.245,0,0,0-2.247,7.842c.523-.043,1.047-.094,1.573-.157,3.347-.4,13.073-3.6,15.734-1.027" transform="translate(-1044.49 -1119.688)" fill="#130909"/>
          <path id="Path_931395" data-name="Path 931395" d="M1347.434,1624.585c.045-.279.091-.563.137-.851a4.906,4.906,0,0,0-.966-1.672c-.934,4.668-3.638,8.449-8.385,9.677-.043.4-.083.808-.134,1.212-.066.249-.142.5-.213.743q-.339,1.185-.725,2.356,4,1.461,7.946,3.019l2.339-14.484" transform="translate(-1164.039 -1412.067)" fill="#fff6d3"/>
          <path id="Path_931396" data-name="Path 931396" d="M1480.884,965.632c1.644,6.247,5.261,19.07,12.823,14.467,2.631-1.841,1.477-7.047,3.6-9.9l-21.121-19.275c-2.636-2.405-4.744-4.716-7.454-6.243.148,8.7,1.521,21.556,12.149,20.949" transform="translate(-1278.59 -822.382)" fill="#130909"/>
          <path id="Path_931397" data-name="Path 931397" d="M1858.889,1288.528c-.03.017-.062.03-.093.047.351,0,.7.018,1.047.041-.258-.17-.514-.344-.77-.518a.363.363,0,0,1-.185.43" transform="translate(-1618.154 -1121.338)" fill="#fff6d3"/>
          <path id="Path_931398" data-name="Path 931398" d="M547.073,922.306c-2.3,3.617-6.576,2.959-9.864,1.315a4.394,4.394,0,0,0-2.959.329c-8.549,8.22-14.138,20.056-25.975,23.016-9.535,2.63-16.769-5.59-20.057-14.467-1.315-3.617-5.918-2.959-9.206-3.945-1.973-.329-3.288-2.3-3.617-3.946-2.148-6.444-3.439-12.6-6.808-18.739q-5.187-.022-10.367.32c-.872.057-1.744.117-2.614.19-.254.021-.5.044-.749.068a17.951,17.951,0,0,0-6.418,1.519.858.858,0,0,1,.128,1.49c-3.7,2.392-5.751,6.374-7.043,10.471a32.624,32.624,0,0,0,.072,6.85c.118,1.137.274,2.273.449,3.4.155,1,.309,2.019.46,3.054.405,2.774.788,5.664,1.1,8.619,1.878-3.238,2.246-6.763,4.828-9.022,2.3-1.972,6.576-3.288,7.562-.329,1.644,4.6.329,10.522,4.932,13.809,4.932,3.617,11.508,6.576,12.165,11.837.329,5.59-.986,10.85,1.644,16.44.265,1.06,1.168,2.546.65,3.944.346-.036.689-.077,1.03-.126,4.01-.586,7.591-2.2,11.238-2.62a.842.842,0,0,1,.111-1.552c7.316-2.137,11.127-10.076,18.547-12.114a.823.823,0,0,1,.437,1.585c-7.259,1.994-11.088,9.732-18.247,12.009a11.891,11.891,0,0,1,4.678.6,88.019,88.019,0,0,0,11.6,3.091c3.5.7,7.039,1.226,10.673,1.68l.04.005c1.357.169,2.7.357,4.044.549l2.612.375c5.78.828,11.491,1.564,17.419,1.075a32.244,32.244,0,0,1,2.247-7.842,2.174,2.174,0,0,0,1.973.329c3.288-2.959,5.261-6.9,8.877-9.206s6.9,3.946,10.85,4.275c8.549.986,10.522-10.193,16.769-15.125,1.315-.986,2.959,0,3.617.987,4.932,5.261,7.891,11.508,12.823,16.769,1.885,2.095.167,5.123-2.008,8.151.936.109,1.85.225,2.732.339,1.985.258,3.954.605,5.911,1.016A17.022,17.022,0,0,0,597.7,981a43.212,43.212,0,0,1,3.031-7.531,40.189,40.189,0,0,1,6.625-9.395c-.112-.066-.223-.135-.333-.2a10.184,10.184,0,0,0-4.335,4.417c-.237.474-.946.057-.71-.415a10.933,10.933,0,0,1,4.28-4.516c-.106-.076-.216-.147-.32-.226a13.072,13.072,0,0,1-4.971-14.259c.644-2.18,1.863-3.164,2.885-.722a13.544,13.544,0,0,0,3.809,5.424,17.2,17.2,0,0,0,6.936,3.365c.5.124,1.023.241,1.543.372-.1-.252.019-.58.358-.549a14.1,14.1,0,0,0,1.568.047,26.6,26.6,0,0,1,4.641-.882,13.79,13.79,0,0,0,1.852-.857.411.411,0,0,1,.125-.04A147.16,147.16,0,0,1,609.524,942.4l-6.57-5.995c-2.126,2.851-.972,8.057-3.6,9.9-7.563,4.6-11.179-8.22-12.823-14.467-10.628.607-12-12.245-12.149-20.949a13.568,13.568,0,0,0-4.679-1.618,57.424,57.424,0,0,0-11.44-.172c-4.913,3.11-7.92,8.153-11.187,13.2" transform="translate(-384.234 -788.591)" fill="#fff6d3"/>
          <path id="Path_931399" data-name="Path 931399" d="M409.762,1160.172a57.873,57.873,0,0,1,3.972-7.862q.262-.443.528-.879c.666-1.1,1.34-2.165,2-3.174,1.927-2.94,2.661-2.75,6.172-2.661,1.621.041,3.3.156,4.992.266.365.024.731.045,1.1.068a50.332,50.332,0,0,0,8.179.012c.518-1.4-.385-2.884-.649-3.944-2.631-5.59-1.315-10.85-1.644-16.44-.658-5.261-7.233-8.22-12.165-11.837-4.6-3.288-3.288-9.206-4.932-13.81-.986-2.959-5.261-1.644-7.562.329-2.581,2.259-2.95,5.784-4.828,9.022,1.19,11.263,1.364,23.428-2.063,33.348-1.091,3.157-2.654,6.246-3.9,9.408q.086,3.283-.036,6.57a.843.843,0,0,1-1.39.6c-.148.773-.316,1.544-.526,2.308a.731.731,0,0,1-.065.134c0,.1,0,.194,0,.293.185,3.585,1.127,7.082,1.643,10.634.642,4.416.644,8.979,1.77,13.266q2.438,1.251,4.919,2.441l-3.639-7.743,6.875,3.346c-.173-1.818-.271-3.635-.369-5.376-.349-6.171-.663-12.572,1.619-18.317" transform="translate(-345.552 -956.006)" fill="#fff6d3"/>
          <path id="Path_931400" data-name="Path 931400" d="M369.217,921.728a15.849,15.849,0,0,0-2.676,2.184.8.8,0,0,0-.807.36c-.161.24-.307.487-.462.729-.645,1.007-1.243,2.034-1.786,3.084a25.585,25.585,0,0,0-1.373,2.945c-.067.158-.14.313-.2.472a54.12,54.12,0,0,0-2.718,8.967c-.463,2.13-.829,4.287-1.123,6.455-.4,2.944-.674,5.9-.9,8.829-.479,6.3-.856,12.607-1.276,18.91q-.329,4.928-.657,9.856c-.211,3.173-.259,6.365-1.525,9.334a48.782,48.782,0,0,0-1.919,4.549,13.908,13.908,0,0,0-.615,4.288,14.418,14.418,0,0,0,2.713,8.257c.42.579,1.628.485,1.532-.415a37.048,37.048,0,0,1-.192-4.723c.1.657.209,1.313.35,1.965a.822.822,0,0,0,1.521.134.733.733,0,0,0,.065-.134c.21-.763.377-1.534.526-2.308a.843.843,0,0,0,1.39-.6q.125-3.286.036-6.57-.133-5.056-.764-10.086a.871.871,0,0,0-.084-.256,207.434,207.434,0,0,1,.066-22.048q.472-8.314,1.611-16.575.167-1.2.34-2.408c.309-2.154.642-4.313,1.051-6.455q.26-1.363.569-2.713c.224-.985.464-1.965.736-2.935.112-.4.234-.8.36-1.2,1.292-4.1,3.345-8.079,7.042-10.471a.858.858,0,0,0-.128-1.49.708.708,0,0,0-.7.071m-12.62,78.558c-.006.3-.02.6-.035.9,0-.3.021-.6.035-.9m.034-12.3q.12,2.4.3,4.788a.844.844,0,0,0-.95,1.014c.013.058.02.117.032.175a14.782,14.782,0,0,0-1.571,2.308c.18-.415.363-.832.55-1.254a21.747,21.747,0,0,0,1.643-7.031" transform="translate(-305.715 -802.283)" fill="#fff6d3"/>
          <path id="Path_931401" data-name="Path 931401" d="M1879.341,1587.532c1.67.965,3.332,1.936,4.912,2.979a3.508,3.508,0,0,0,3.682.676l4.273-1.15,3.341-.9.265-.072a4.539,4.539,0,0,0,1.593-.656,2.286,2.286,0,0,0,.438-.451,3.386,3.386,0,0,0,.515-2.645,10.346,10.346,0,0,0-1.4-3.1c-.4-.687-.773-1.386-1.139-2.091-2.038,1.11-3.857,3.127-5.54,3.127-4.4,0-9.05.264-10.942,4.278m10.725.29a.425.425,0,0,1-.505.287,4.213,4.213,0,0,0-2.691.57.411.411,0,0,1-.415-.71,5.1,5.1,0,0,1,3.324-.653.414.414,0,0,1,.287.506m6.31-1.461a.411.411,0,0,1,0,.822.411.411,0,0,1,0-.822" transform="translate(-1636.038 -1375.56)" fill="#f29990"/>
          <path id="Path_931402" data-name="Path 931402" d="M1806.154,1293.436a13.927,13.927,0,0,0,4.641-.882,26.621,26.621,0,0,0-4.641.882" transform="translate(-1572.326 -1125.217)" fill="#fff6d3"/>
          <path id="Path_931403" data-name="Path 931403" d="M1668.372,1293.576a6.474,6.474,0,0,1,2.849,1.655c2.368,2.542.487,5.448-2.334,6.444a9.923,9.923,0,0,1-4.488.365,15.152,15.152,0,0,1-5.1-1.574c-.9,2.24-2.511,4.087-3.064,6.476a23.288,23.288,0,0,0-.088,7.414c.049.527-.773.522-.822,0a24.769,24.769,0,0,1,.065-7.394c.531-2.531,2.214-4.414,3.14-6.768a.423.423,0,0,1,.07-.108c-.034-.019-.066-.041-.1-.06a40.184,40.184,0,0,0-6.625,9.395,43.213,43.213,0,0,0-3.031,7.531,17.024,17.024,0,0,1,5.659,1.774,7.271,7.271,0,0,1,1.227.9c1.562,1.447,2.364,3.578,3.951,5a12.8,12.8,0,0,0,2.4,1.568,89.22,89.22,0,0,1,9.137,5.7c2.333,1.678,4.911,3.141,7.471,4.619,1.892-4.014,6.546-4.278,10.942-4.278,1.683,0,3.5-2.018,5.54-3.128-.067.036-4.343-9.84-4.632-10.586a35.1,35.1,0,0,1-2.733-11.935c-.03-1.537.084-3.089.017-4.621a13.036,13.036,0,0,0-.263-2.211c-.58-2.663-2.483-4.481-4.669-6.065-.022-.016-.047-.029-.07-.045a11.141,11.141,0,0,0-5.744-1.826c-.347-.023-.7-.038-1.047-.041a14.711,14.711,0,0,1-7.652,1.8m4.02,17.868a3.528,3.528,0,0,1,.67.061c.223.031.445.068.665.115a9.745,9.745,0,0,1,1.3.369.42.42,0,0,1,.287.506.415.415,0,0,1-.505.287,9.887,9.887,0,0,0-.97-.288.407.407,0,0,1-.156.534,1.887,1.887,0,0,1-1.607.172,1.078,1.078,0,0,1-.573-.923.869.869,0,0,1,.894-.832m12.972,20.1c-4.014-3.692-4.9-9.45-8.432-13.5-.347-.4.233-.981.581-.581,3.526,4.042,4.436,9.819,8.432,13.5.39.359-.192.939-.581.581" transform="translate(-1435.381 -1124.543)" fill="#fff6d3"/>
          <path id="Path_931404" data-name="Path 931404" d="M1830.109,1450.179l0,0,0,0Z" transform="translate(-1593.178 -1262.435)" fill="#fff6d3"/>
          <path id="Path_931405" data-name="Path 931405" d="M1830.194,1450.012l0,0V1450l0,.007a.037.037,0,0,1,0,.007" transform="translate(-1593.254 -1262.278)" fill="#fff6d3"/>
          <path id="Path_931406" data-name="Path 931406" d="M1830.171,1450.021s0,0,0,0a.031.031,0,0,1,.007.015.049.049,0,0,1,0,.02.058.058,0,0,1,.005.008l.038.062c.006,0,.034.037.043.047h0l.029.018c.091.027-.06,0,.027.014a.729.729,0,0,0,.244.019,1.8,1.8,0,0,0,.462-.144c-.1-.017-.2-.039-.3-.053a2.194,2.194,0,0,0-.51-.033l-.03.01-.01,0a.089.089,0,0,1,0,.01" transform="translate(-1593.233 -1262.272)" fill="#fff6d3"/>
          <path id="Path_931407" data-name="Path 931407" d="M1830.127,1450.153h0l0,0Z" transform="translate(-1593.195 -1262.411)" fill="#fff6d3"/>
          <path id="Path_931408" data-name="Path 931408" d="M1936.261,1635.325a5.1,5.1,0,0,0-3.324.653.411.411,0,0,0,.415.71,4.215,4.215,0,0,1,2.691-.571.425.425,0,0,0,.505-.287.414.414,0,0,0-.287-.506" transform="translate(-1682.52 -1423.568)" fill="#130909"/>
          <path id="Path_931409" data-name="Path 931409" d="M2008.254,1629.112a.411.411,0,0,0,0-.822.411.411,0,0,0,0,.822" transform="translate(-1747.916 -1417.488)" fill="#130909"/>
          <path id="Path_931410" data-name="Path 931410" d="M1865.674,1489.308c-.348-.4-.927.184-.581.581,3.529,4.045,4.418,9.8,8.432,13.5.389.358.972-.222.581-.581-4-3.676-4.906-9.453-8.432-13.5" transform="translate(-1623.542 -1296.383)" fill="#130909"/>
          <path id="Path_931411" data-name="Path 931411" d="M1824.405,1445.417a1.885,1.885,0,0,0,1.607-.172.408.408,0,0,0,.157-.534,9.941,9.941,0,0,1,.97.288.415.415,0,0,0,.505-.287.42.42,0,0,0-.287-.506,9.73,9.73,0,0,0-1.3-.368c-.22-.046-.442-.084-.665-.115a3.547,3.547,0,0,0-.67-.061.869.869,0,0,0-.894.832,1.077,1.077,0,0,0,.573.923m.243-.916h0l0,0h0m.046-.015a2.18,2.18,0,0,1,.51.033c.1.013.2.035.3.052a1.8,1.8,0,0,1-.461.144.724.724,0,0,1-.245-.019c-.086-.015.064.013-.026-.014l-.029-.019h0c-.009-.01-.037-.043-.043-.047l-.038-.062-.005-.008a.049.049,0,0,0,0-.02.029.029,0,0,0-.007-.015s0,0,0,0a.082.082,0,0,0,0-.01l.009,0Zm-.034,0,0,0a.053.053,0,0,0,0-.007l0-.007Zm-.014.014h0l0,0Z" transform="translate(-1587.715 -1256.76)" fill="#130909"/>
          <path id="Path_931412" data-name="Path 931412" d="M1700.437,1356.065c-.925,2.354-2.609,4.237-3.14,6.768a24.761,24.761,0,0,0-.065,7.394c.049.522.872.527.822,0a23.3,23.3,0,0,1,.088-7.414c.553-2.389,2.169-4.236,3.064-6.476-.236-.122-.471-.246-.7-.379a.42.42,0,0,0-.069.108" transform="translate(-1477.289 -1180.412)" fill="#130909"/>
          <path id="Path_931413" data-name="Path 931413" d="M1681.572,1354.461c-.236.472.473.889.71.415a10.182,10.182,0,0,1,4.335-4.417q-.391-.246-.765-.514a10.934,10.934,0,0,0-4.28,4.516" transform="translate(-1463.831 -1175.178)" fill="#130909"/>
          <path id="Path_931414" data-name="Path 931414" d="M1797.625,1286.469a13.93,13.93,0,0,1-4.641.883,14.082,14.082,0,0,1-1.568-.047c-.339-.031-.455.3-.358.549.366.092.73.2,1.089.312a14.71,14.71,0,0,0,7.652-1.8c.03-.017.062-.03.092-.047a.363.363,0,0,0,.185-.43.422.422,0,0,0-.6-.28,13.807,13.807,0,0,1-1.852.857" transform="translate(-1559.156 -1119.132)" fill="#130909"/>
          <path id="Path_931415" data-name="Path 931415" d="M796.271,1353.825c.1-.03.2-.073.3-.1,7.16-2.276,10.988-10.015,18.247-12.009a.823.823,0,0,0-.437-1.585c-7.42,2.038-11.231,9.977-18.547,12.114a.842.842,0,0,0-.111,1.553.758.758,0,0,0,.549.032" transform="translate(-692.302 -1166.601)" fill="#130909"/>
          <path id="Path_931416" data-name="Path 931416" d="M1677.656,1239.235a15.15,15.15,0,0,0,5.1,1.574,9.925,9.925,0,0,0,4.488-.365c2.821-1,4.7-3.9,2.334-6.444a6.473,6.473,0,0,0-2.849-1.655q-.538-.174-1.089-.312c-.519-.131-1.04-.248-1.543-.372a17.2,17.2,0,0,1-6.936-3.365,13.54,13.54,0,0,1-3.809-5.424c-1.022-2.442-2.242-1.458-2.885.722a13.072,13.072,0,0,0,4.971,14.259c.1.079.214.15.32.226q.374.268.765.514c.11.069.221.137.333.2l.1.061c.229.133.463.258.7.379" transform="translate(-1453.739 -1063.311)" fill="#330d0c"/>
          <path id="Path_931417" data-name="Path 931417" d="M281,1674.05q1.993,2.652,3.984,5.306,3.409,4.539,6.815,9.077c-2.344-.96-4.716-1.869-7.1-2.752a229.141,229.141,0,0,0-31.146-9.08,19.158,19.158,0,0,0,7.974,11.073,267.258,267.258,0,0,1-31.539-7.015q3.018,3.947,6.035,7.9-18.3-5.143-36.59-10.292l-4.765-1.34,6.236,10.287q-5.079-2.443-10.275-4.7-1.9-.827-3.809-1.632c-1.166-.489-2.338-.966-3.512-1.442-.743-.3-1.484-.607-2.231-.9q-3.944-1.564-7.946-3.019-4.065-1.485-8.182-2.864c-1.218-.407-2.436-.817-3.661-1.21q1.175,2.2,2.346,4.39l2.7,5.058q1.4,2.611,2.792,5.224l-14.511-5.223-13.015-4.684-6.272-2.257-4.087-1.471-1.85-.666.51.725q1.889,2.68,3.776,5.363l2.444,3.472,2.161,3.07-2.2-.877-5.008-1.995-1.7-.678-12.7-5.058-1.712-.682q-5.431-2.163-10.862-4.326,1.774,2.5,3.552,5.007l3.587,5.056q1.3,1.835,2.6,3.669l1.036,1.46q-2.051-.711-4.083-1.46-3.7-1.358-7.328-2.837c-.672-.274-1.34-.556-2.009-.836q-4.233-1.771-8.37-3.7-2.656-1.241-5.263-2.552c-.667-.334-1.337-.663-2-1q.587.835,1.176,1.669,1.414,2.011,2.831,4.019l1.1,1.56q1.3,1.838,2.59,3.677,1.4,1.982,2.794,3.966-3.7-1.6-7.407-3.2l-4.237-1.83q-4.8-2.076-9.607-4.151c.059.254.117.508.176.762q.517,2.226,1.026,4.454.168.73.337,1.46l-3-1.46-.669-.326-4.724-2.3-5.221-2.542-6.875-3.346,3.639,7.743q-2.485-1.184-4.919-2.441a179.811,179.811,0,0,1-17.456-10.22q3.351,4.766,6.7,9.54-12.648-6.632-25.282-13.271a37.665,37.665,0,0,0,4.224,15.934q-4.888-2.666-9.776-5.336l-4.723-2.578-2.455-1.34-4.149-2.265a21.428,21.428,0,0,0,3.479,12.746,23.633,23.633,0,0,0,2.35,3.081c-1.655-1-3.281-2.031-4.894-3.081-.945-.615-1.891-1.231-2.821-1.862v12.284q3.773,1.771,7.715,3.416c-4.046-3.095-6.147-7.04-5.829-10.937q10.551,3.984,21.1,7.96a20.136,20.136,0,0,1-4.224-11.011q12.637,4.59,25.282,9.171-3.351-3.294-6.7-6.593a213.87,213.87,0,0,0,22.375,8.75l-3.639-5.352,20.489,6.892q-.765-2.3-1.538-4.614,10.629,3.171,21.251,6.345-5.248-5.143-10.489-10.291a287.287,287.287,0,0,0,29.054,8.559q-5.392-5.247-10.777-10.5,17.1,4.7,34.188,9.41-4.449-4.369-8.891-8.728,19.871,4.941,39.735,9.883-3.916-5.072-7.84-10.139a401.587,401.587,0,0,1,39.617,10.9l-6.236-7.109q20.681,4.017,41.355,8.038-3.018-2.728-6.035-5.46c10.3,2.044,20.851,3.667,31.539,4.848-4.053-1.91-6.923-4.666-7.974-7.652a307.687,307.687,0,0,1,38.248,8.177q-5.392-4.967-10.8-9.939,7.1,1.577,14.018,3.421V1679q-4.6-1.769-9.283-3.372c-1.572-.539-3.149-1.069-4.734-1.579" transform="translate(-0.023 -1451.534)" fill="#e3d400"/>
          <path id="Path_931418" data-name="Path 931418" d="M281,1803.392q5.4,4.967,10.8,9.939a307.643,307.643,0,0,0-38.248-8.177c1.05,2.986,3.92,5.743,7.974,7.652-10.688-1.181-21.236-2.8-31.539-4.848q3.018,2.728,6.035,5.46-20.681-4.016-41.355-8.038l6.236,7.109a401.621,401.621,0,0,0-39.617-10.9q3.927,5.071,7.84,10.139-19.86-4.942-39.735-9.883,4.45,4.362,8.891,8.728-17.1-4.707-34.188-9.41,5.381,5.248,10.777,10.5a287.287,287.287,0,0,1-29.054-8.559q5.237,5.15,10.489,10.291-10.629-3.171-21.251-6.346.776,2.305,1.538,4.614l-20.489-6.892,3.639,5.352a213.87,213.87,0,0,1-22.375-8.75q3.351,3.294,6.7,6.593-12.648-4.584-25.282-9.171a20.136,20.136,0,0,0,4.224,11.011q-10.552-3.978-21.1-7.96c-.318,3.9,1.783,7.843,5.829,10.938q-3.939-1.641-7.715-3.416v12.218h295v-14.773q-6.916-1.838-14.018-3.421" transform="translate(-0.023 -1565.92)" fill="#a2bb00"/>
        </g>
      </g>
    </g>
  </g>
</svg>
