<svg xmlns="http://www.w3.org/2000/svg" width="100" height="100" viewBox="0 0 100 100">
  <g id="img12" transform="translate(-637 -6992)">
    <g id="Group_1098742" data-name="Group 1098742" transform="translate(637.242 6992)">
      <rect id="Rectangle_400898" data-name="Rectangle 400898" width="100" height="100" rx="50" transform="translate(-0.242)" fill="#fff" opacity="0.859"/>
      <g id="Rectangle_400907" data-name="Rectangle 400907" transform="translate(-0.242)" fill="none" stroke="#f3bc5b" stroke-linecap="round" stroke-width="3" stroke-dasharray="0 7">
        <rect width="100" height="100" rx="50" stroke="none"/>
        <rect x="1.5" y="1.5" width="97" height="97" rx="48.5" fill="none"/>
      </g>
    </g>
    <g id="Group_1107006" data-name="Group 1107006" transform="translate(645.398 7000.157)">
      <rect id="Rectangle_400898-2" data-name="Rectangle 400898" width="84" height="84" rx="42" transform="translate(-0.399 -0.157)" fill="#004e3d" opacity="0.859"/>
      <rect id="Rectangle_400907-2" data-name="Rectangle 400907" width="84" height="84" rx="42" transform="translate(-0.398 -0.157)" fill="none"/>
    </g>
    <g id="Group_1176320" data-name="Group 1176320" transform="translate(659.307 6994.66)">
      <g id="Group_1176318" data-name="Group 1176318" transform="translate(0.81 22.841)">
        <g id="Group_1176315" data-name="Group 1176315" transform="translate(0 11.609)">
          <path id="Path_929701" data-name="Path 929701" d="M30.016,174.236c-22.4-8.221-25.022-25.7-20.894-32.747,2.849-4.865,9.424-6.008,14.807-2.945l.02.012c.05.028.1.057.15.087l.022.013a15.1,15.1,0,0,1,5.894,6.6c4.024-8.4,13.032-10.314,18.293-6.6a9.043,9.043,0,0,1,2.6,2.834c4.128,7.049,1.5,24.527-20.894,32.748Z" transform="translate(-7.496 -136.846)" fill="#ee596b"/>
          <path id="Path_929702" data-name="Path 929702" d="M30.016,174.236c-22.4-8.221-25.022-25.7-20.894-32.747,2.849-4.865,9.424-6.008,14.807-2.945-5.667-3.116-14.391,9.493-7.522,19.749A116.651,116.651,0,0,0,30.016,174.236Z" transform="translate(-7.496 -136.846)" fill="#ed3a4f"/>
        </g>
        <g id="Group_1176316" data-name="Group 1176316" transform="translate(30.31 2.884)">
          <path id="Path_929703" data-name="Path 929703" d="M299.4,75.665c-11.664-4.281-13.03-13.383-10.881-17.054,1.484-2.533,4.908-3.129,7.711-1.534l.01.006.078.045.011.007a7.866,7.866,0,0,1,3.07,3.438c2.1-4.375,6.786-5.371,9.526-3.438a4.709,4.709,0,0,1,1.354,1.476C312.435,62.282,311.068,71.384,299.4,75.665Z" transform="translate(-287.676 -56.194)" fill="#ee596b"/>
          <path id="Path_929704" data-name="Path 929704" d="M299.4,75.665c-11.664-4.281-13.03-13.383-10.881-17.054,1.484-2.533,4.908-3.129,7.711-1.534-2.951-1.623-7.494,4.944-3.917,10.285A60.753,60.753,0,0,0,299.4,75.665Z" transform="translate(-287.676 -56.194)" fill="#ed3a4f"/>
        </g>
        <g id="Group_1176317" data-name="Group 1176317" transform="translate(13.457 0)">
          <path id="Path_929705" data-name="Path 929705" d="M138.405,40.35c-6.48-2.378-7.24-7.436-6.045-9.475a3.1,3.1,0,0,1,4.284-.852l.006,0,.043.025.006,0a4.369,4.369,0,0,1,1.705,1.91c1.164-2.431,3.771-2.984,5.293-1.91a2.615,2.615,0,0,1,.753.82c1.194,2.039.435,7.1-6.045,9.475Z" transform="translate(-131.889 -29.532)" fill="#ee596b"/>
          <path id="Path_929706" data-name="Path 929706" d="M138.405,40.35c-6.48-2.378-7.24-7.436-6.045-9.475a3.1,3.1,0,0,1,4.284-.852c-1.64-.9-4.164,2.747-2.176,5.714A33.757,33.757,0,0,0,138.405,40.35Z" transform="translate(-131.889 -29.532)" fill="#ed3a4f"/>
        </g>
        <path id="Path_929707" data-name="Path 929707" d="M28.383,342.98l3.7-1.27a1.234,1.234,0,0,0,0-2.333l-3.7-1.27a1.233,1.233,0,0,1-.766-.766l-1.27-3.7a1.234,1.234,0,0,0-2.333,0l-1.27,3.7a1.233,1.233,0,0,1-.766.766l-3.7,1.27a1.234,1.234,0,0,0,0,2.333l3.7,1.27a1.234,1.234,0,0,1,.766.766l1.27,3.7a1.234,1.234,0,0,0,2.333,0l1.27-3.7a1.234,1.234,0,0,1,.766-.766Z" transform="translate(-16.371 -300.002)" fill="#f1f4f6"/>
      </g>
      <g id="Group_1176319" data-name="Group 1176319" transform="translate(-0.001 22.03)">
        <path id="Path_929708" data-name="Path 929708" d="M54.429,51.509A5.865,5.865,0,0,0,48.985,48.7a7.932,7.932,0,0,0-6.137,3.568A7.932,7.932,0,0,0,36.712,48.7a5.864,5.864,0,0,0-5.443,2.813,9.29,9.29,0,0,0-.563,6.891,15.257,15.257,0,0,0-7.375,6.513,15.868,15.868,0,0,0-4.789-5.142,13.679,13.679,0,0,0-7.024-2.345,10.527,10.527,0,0,0-9.779,5.032A14.2,14.2,0,0,0,0,69.335a22.059,22.059,0,0,0,1.728,8.741.811.811,0,0,0,1.5-.619c-2.108-5.11-2.145-10.676-.093-14.179a8.932,8.932,0,0,1,8.311-4.231,12.059,12.059,0,0,1,6.189,2.072,14.581,14.581,0,0,1,4.96,5.867.811.811,0,0,0,1.464,0,13.971,13.971,0,0,1,7.161-7.045A14.89,14.89,0,0,0,34.814,65.1a22.212,22.212,0,0,0,7.755,4.631.811.811,0,0,0,.559,0q.981-.36,1.9-.776a21.823,21.823,0,0,1-3.948,12.867C37.352,87.338,31.22,91.8,23.331,94.75a44.693,44.693,0,0,1-9.318-4.706l2.77-.952a2.045,2.045,0,0,0,0-3.868l-3.7-1.27a.42.42,0,0,1-.262-.262L11.553,80a2.02,2.02,0,0,0-1.934-1.38h0A2.02,2.02,0,0,0,7.685,80L6.584,83.2a26.181,26.181,0,0,1-1.963-2.923.811.811,0,0,0-1.406.81,27.819,27.819,0,0,0,2.118,3.147l-2.877.989a2.045,2.045,0,0,0,0,3.868l3.7,1.27a.419.419,0,0,1,.262.262l1.27,3.7a2.045,2.045,0,0,0,3.868,0l1.111-3.234a46.105,46.105,0,0,0,10.386,5.29.811.811,0,0,0,.559,0A44.985,44.985,0,0,0,35.161,90.25a31.546,31.546,0,0,0,7.26-7.517A23.188,23.188,0,0,0,46.6,68.176a21.2,21.2,0,0,0,2.737-1.758.811.811,0,1,0-.983-1.291,21.86,21.86,0,0,1-5.5,2.98c-3.149-1.2-8.394-3.927-10.3-9.235-.857-2.387-.81-4.955.119-6.542a4.27,4.27,0,0,1,3.976-2.011,6.51,6.51,0,0,1,5.472,3.914.811.811,0,0,0,1.464,0,6.51,6.51,0,0,1,5.473-3.914,4.27,4.27,0,0,1,3.976,2.011c1.373,2.345,1,6.9-2.408,10.712a.811.811,0,1,0,1.211,1.08A13.72,13.72,0,0,0,55.248,57.2a8.771,8.771,0,0,0-.819-5.7ZM11.289,90.1l-1.27,3.7a.422.422,0,0,1-.8,0L7.95,90.1a2.032,2.032,0,0,0-1.269-1.27l-3.7-1.27a.422.422,0,0,1,0-.8l3.7-1.27A2.031,2.031,0,0,0,7.95,84.22l1.27-3.7a.4.4,0,0,1,.4-.285h0a.4.4,0,0,1,.4.285l1.27,3.7a2.032,2.032,0,0,0,1.269,1.269l3.7,1.27a.422.422,0,0,1,0,.8l-3.7,1.27A2.032,2.032,0,0,0,11.289,90.1Z" transform="translate(0.001 -45.806)"/>
        <path id="Path_929709" data-name="Path 929709" d="M131.459,34.421a.812.812,0,0,0,.559,0c1.934-.71,5.367-2.426,6.631-5.948a5.763,5.763,0,0,0-.165-4.7,3.611,3.611,0,0,0-3.351-1.741,4.7,4.7,0,0,0-3.394,1.746,4.7,4.7,0,0,0-3.394-1.746,3.61,3.61,0,0,0-3.351,1.741,5.763,5.763,0,0,0-.165,4.7C126.092,31.995,129.525,33.711,131.459,34.421Zm-5.065-9.827a2,2,0,0,1,1.776-.942l.108,0a3.232,3.232,0,0,1,2.73,1.97.812.812,0,0,0,1.464,0,3.232,3.232,0,0,1,2.73-1.97,2.02,2.02,0,0,1,1.883.94,4.131,4.131,0,0,1,.038,3.33c-.985,2.745-3.683,4.2-5.383,4.867-1.7-.667-4.4-2.122-5.383-4.867A4.132,4.132,0,0,1,126.394,24.595Z" transform="translate(-110.955 -22.03)"/>
      </g>
    </g>
  </g>
</svg>
