<svg xmlns="http://www.w3.org/2000/svg" width="124" height="124" viewBox="0 0 124 124">
  <g id="img26" transform="translate(-1234.5 -458)">
    <g id="Ellipse_12108" data-name="Ellipse 12108" transform="translate(1241.5 465)" fill="#f3bc5b" stroke="rgba(255,255,255,0.4)" stroke-width="7">
      <circle cx="55" cy="55" r="55" stroke="none"/>
      <circle cx="55" cy="55" r="58.5" fill="none"/>
    </g>
    <g id="Group_1176222" data-name="Group 1176222" transform="translate(1259.566 483.262)">
      <path id="Path_929462" data-name="Path 929462" d="M57.572,19.017,40.948,8.9V2h-9.2V8.9A11.843,11.843,0,0,0,26,19.053V66.39a4.6,4.6,0,0,0,4.6,4.6h32.2a4.6,4.6,0,0,0,4.6-4.6v-29.9a20.459,20.459,0,0,0-9.823-17.478Zm5.222,25.526H58.2a5.556,5.556,0,0,1-3.926-1.625l-7.1-7.1A5.547,5.547,0,0,1,45.547,31.9V23.962a3.564,3.564,0,0,1,5.474-3.006l4.012,2.554a16.756,16.756,0,0,1,7.761,14.135Z" transform="translate(3.746 0.15)" fill="#a97ae1"/>
      <path id="Path_929463" data-name="Path 929463" d="M30,19.247v29.9H66.794V36.495a20.459,20.459,0,0,0-9.823-17.478L40.348,8.9V2h-4.6v8.049C32.185,12.189,30,15.088,30,19.247Zm14.948,4.714a3.564,3.564,0,0,1,5.474-3.006l4.012,2.554A16.756,16.756,0,0,1,62.2,37.645v6.9H57.6a5.556,5.556,0,0,1-3.926-1.625l-7.1-7.1A5.547,5.547,0,0,1,44.948,31.9Z" transform="translate(4.345 0.15)" fill="#b28de7"/>
      <path id="Path_929464" data-name="Path 929464" d="M26,43H67.394V59.1H26Z" transform="translate(3.746 6.293)" fill="#f47269"/>
      <path id="Path_929465" data-name="Path 929465" d="M66.711,57H30.554a4.58,4.58,0,0,0,3.962,2.3H66.548a4.574,4.574,0,0,0,.163-1.15Z" transform="translate(4.428 8.39)" fill="#b28de7"/>
      <path id="Path_929466" data-name="Path 929466" d="M30,56.8a4.558,4.558,0,0,0,.637,2.3H66.794V43H30Z" transform="translate(4.345 6.293)" fill="#ff918f"/>
      <path id="Path_929467" data-name="Path 929467" d="M12,27H23.5v4.6H12Z" transform="translate(1.648 3.895)" fill="#a3e1bf"/>
      <path id="Path_929468" data-name="Path 929468" d="M15.348,28.648,11.9,20.6H5V16H19.948l9.2,6.9-6.9,2.3v3.449Z" transform="translate(0.599 2.247)" fill="#facb46"/>
      <path id="Path_929469" data-name="Path 929469" d="M6.6,20A9.2,9.2,0,0,1,2.92,27.359l-.92.69H3.15A8.049,8.049,0,0,0,11.2,20Z" transform="translate(0.15 2.847)" fill="#4ab081"/>
      <path id="Path_929470" data-name="Path 929470" d="M14.749,31v2.6a1.369,1.369,0,0,1-.758,1.225,2.792,2.792,0,0,0,0,4.993,1.369,1.369,0,0,1,.757,1.224,2.568,2.568,0,0,1-1.246,2.2l-1.545.928A6.094,6.094,0,0,0,9,49.4V66.645H28.547V47.655A23.557,23.557,0,0,0,21.649,31Z" transform="translate(1.199 4.495)" fill="#4ab081"/>
      <path id="Path_929471" data-name="Path 929471" d="M9,47H28.547V59.648H9Z" transform="translate(1.199 6.892)" fill="#e3b233"/>
      <path id="Path_929472" data-name="Path 929472" d="M15.974,31.6H22.92V27H15.862a29.531,29.531,0,0,1,.112,4.6Z" transform="translate(2.227 3.895)" fill="#80cda5"/>
      <path id="Path_929473" data-name="Path 929473" d="M16.326,28.648h4.758V25.2l6.9-2.3-9.2-6.9h-6.02L14.8,21.782A29.573,29.573,0,0,1,16.326,28.648Z" transform="translate(1.763 2.247)" fill="#f9d26e"/>
      <path id="Path_929474" data-name="Path 929474" d="M15.728,35.848a5.268,5.268,0,0,0,.626,3.853,5.267,5.267,0,0,1-1.231,6.822A5.735,5.735,0,0,0,13.208,49.4H27.917V47.655A23.555,23.555,0,0,0,21.018,31H16.371a29.609,29.609,0,0,1-.643,4.848Z" transform="translate(1.829 4.495)" fill="#62be90"/>
      <path id="Path_929475" data-name="Path 929475" d="M13,48.61v6.669a4.369,4.369,0,0,0,4.369,4.369H27.948V47H13.239A5.722,5.722,0,0,0,13,48.61Z" transform="translate(1.798 6.892)" fill="#facb46"/>
      <ellipse id="Ellipse_13526" data-name="Ellipse 13526" cx="7" cy="2" rx="7" ry="2" transform="translate(14.645 57.645)" fill="#ffe29c"/>
      <path id="Path_929476" data-name="Path 929476" d="M14.124,16c.546,1.543,2.691,3.177,5.534,4.039a11.24,11.24,0,0,0,4.914.46L18.581,16Z" transform="translate(1.966 2.247)" fill="#ffe29c"/>
      <path id="Path_929477" data-name="Path 929477" d="M22.092,33.325a2.123,2.123,0,0,0-.722,2.711l1.514,3.029a3.715,3.715,0,0,1,.393,1.664,3.709,3.709,0,0,0,3.248,3.679,23.522,23.522,0,0,0-4.434-11.083Z" transform="translate(3.019 4.843)" fill="#8ecfa6"/>
      <ellipse id="Ellipse_13527" data-name="Ellipse 13527" cx="4.5" cy="7" rx="4.5" ry="7" transform="translate(35.645 16.645)" fill="#fb9a4f"/>
      <path id="Path_929478" data-name="Path 929478" d="M40.642,13.088a4.05,4.05,0,0,0,1.358.9l7.121,2.848a7.372,7.372,0,0,0,4.8.222L39.863,8.494A4.036,4.036,0,0,0,40.642,13.088Z" transform="translate(5.763 1.123)" fill="#ccbaf5"/>
      <path id="Path_929479" data-name="Path 929479" d="M31,2h9.2V8.9H31Z" transform="translate(4.495 0.15)" fill="#4ab081"/>
      <path id="Path_929480" data-name="Path 929480" d="M34,2h5.749V8.9H34Z" transform="translate(4.944 0.15)" fill="#62be90"/>
      <ellipse id="Ellipse_13528" data-name="Ellipse 13528" cx="2.875" cy="6.393" rx="2.875" ry="6.393" transform="translate(38.944 17.603)" fill="#ffab6f"/>
      <path id="Path_929481" data-name="Path 929481" d="M60.547,41.882h-4.6a5.556,5.556,0,0,1-3.926-1.625l-7.1-7.1A5.547,5.547,0,0,1,43.3,29.234V21.3a3.54,3.54,0,0,1,.361-1.537A6.066,6.066,0,0,0,41,24.776v5.393a6.074,6.074,0,0,0,1.777,4.293l6.77,6.769a6.145,6.145,0,0,0,4.346,1.8h7.8l-1.15-1.725Z" transform="translate(5.993 2.811)" fill="#a97ae1"/>
      <path id="Path_929482" data-name="Path 929482" d="M61.915,18.185,45.843,8.4V2.15A1.15,1.15,0,0,0,44.693,1h-9.2a1.15,1.15,0,0,0-1.15,1.15V8.418A13.063,13.063,0,0,0,28.6,19.2v3.644l-7.359-5.519a1.15,1.15,0,0,0-.69-.23H5.6a1.15,1.15,0,0,0-1.15,1.15v4.6a1.141,1.141,0,0,0,1.06,1.131,8.1,8.1,0,0,1-3.13,5.308l-.92.69a1.15,1.15,0,0,0,.69,2.07H3.3a9.207,9.207,0,0,0,8.91-6.954L14.2,29.746h-.557A1.15,1.15,0,0,0,12.5,30.9v4.6a1.15,1.15,0,0,0,1.15,1.15H14.8V38.1a.221.221,0,0,1-.121.2,3.939,3.939,0,0,0,0,7.047.223.223,0,0,1,.122.2,1.425,1.425,0,0,1-.69,1.215l-1.545.927a7.278,7.278,0,0,0-3.515,6.21V71.139a1.15,1.15,0,0,0,1.15,1.15H29.746a1.15,1.15,0,0,0,1.15-1.15v-.03a5.689,5.689,0,0,0,3.449,1.18h32.2a5.756,5.756,0,0,0,5.749-5.749v-29.9A21.732,21.732,0,0,0,61.915,18.185ZM36.645,3.3h6.9V7.9h-6.9ZM28.6,55.042V65.39H11.348V55.042Zm2.3-4.6H69.989v13.8H30.9Zm-2.3-8.664a24.521,24.521,0,0,0-3.22-5.181,1.134,1.134,0,0,0,.92-1.1V30.9a1.15,1.15,0,0,0-1.15-1.15H24V28.275l4.6-1.534ZM14.8,34.345v-2.3H24v2.3ZM5.6,29.353A10.428,10.428,0,0,0,7.827,24H10.1a6.917,6.917,0,0,1-4.5,5.357Zm7.961-6.96a1.15,1.15,0,0,0-1.062-.7H6.749V19.4H20.164L27.3,24.75l-4.817,1.61a1.15,1.15,0,0,0-.786,1.087v2.3H16.705Zm.192,27.259,1.547-.92a3.738,3.738,0,0,0,1.8-3.193,2.508,2.508,0,0,0-1.392-2.254,1.641,1.641,0,0,1,0-2.935A2.507,2.507,0,0,0,17.1,38.1V36.645H22.34a22.238,22.238,0,0,1,6.256,15.5v.593h-17.1a4.972,4.972,0,0,1,2.255-3.09Zm-2.4,20.337v-2.3H28.6v2.3Zm55.192,0h-32.2A3.449,3.449,0,0,1,30.9,66.54H69.989A3.449,3.449,0,0,1,66.54,69.989Zm3.449-21.847H30.9V19.2a10.749,10.749,0,0,1,4.927-9h8.549L60.72,20.15a19.423,19.423,0,0,1,9.27,16.494Z" transform="translate(0 0)"/>
      <path id="Path_929483" data-name="Path 929483" d="M53.254,20.289l-4.013-2.553A4.714,4.714,0,0,0,42,21.714v7.934a6.747,6.747,0,0,0,1.963,4.738l7.1,7.1A6.654,6.654,0,0,0,55.8,43.446h4.6a1.15,1.15,0,0,0,1.15-1.15V35.4a17.822,17.822,0,0,0-8.293-15.108Zm5.993,20.857H55.8a4.369,4.369,0,0,1-3.113-1.289l-7.1-7.1A4.435,4.435,0,0,1,44.3,29.648V21.714a2.415,2.415,0,0,1,3.707-2.035l4.013,2.554A15.532,15.532,0,0,1,59.247,35.4Z" transform="translate(6.143 2.397)"/>
      <path id="Path_929484" data-name="Path 929484" d="M35.749,14C32.53,14,30,17.536,30,22.049S32.53,30.1,35.749,30.1,41.5,26.562,41.5,22.049,38.969,14,35.749,14Zm0,13.8c-1.87,0-3.449-2.633-3.449-5.749S33.88,16.3,35.749,16.3,39.2,18.933,39.2,22.049,37.619,27.8,35.749,27.8Z" transform="translate(4.345 1.948)"/>
    </g>
  </g>
</svg>
