<svg xmlns="http://www.w3.org/2000/svg" width="295" height="170" viewBox="0 0 295 170">
  <g id="img2" transform="translate(-1124.571 -534)">
    <rect id="Rectangle_453994" data-name="Rectangle 453994" width="295" height="170" rx="10" transform="translate(1124.571 534)" fill="#ffebc9"/>
    <g id="Capa_2_1_" transform="translate(1154.347 302.958)">
      <g id="Capa_1-2" transform="translate(0 264.943)">
        <rect id="Rectangle_454473" data-name="Rectangle 454473" width="236.449" height="101.269" fill="none"/>
        <path id="Path_930521" data-name="Path 930521" d="M1.208,488.807H3.23V499.7H1.208Z" transform="translate(-0.741 -402.316)" fill="#2f7338"/>
        <path id="Path_930522" data-name="Path 930522" d="M11.274,495.522h1.711v.933h0a2.43,2.43,0,0,1,2.334-1.244c1.711,0,2.489,1.4,2.489,3.111v5.133H16.1V499.1c0-.933,0-2.333-1.244-2.333s-1.711,1.711-1.711,2.8v3.889H11.274v-7.933Z" transform="translate(-6.918 -406.231)" fill="#2f7338"/>
        <path id="Path_930523" data-name="Path 930523" d="M37.032,497.764a5.6,5.6,0,0,0-1.711-.311c-.467,0-1.089.155-1.089.933,0,1.244,3.267.467,3.267,3.422,0,1.867-1.555,2.645-3.111,2.645a10.5,10.5,0,0,1-2.178-.311l.156-1.712a4.137,4.137,0,0,0,1.867.467c.467,0,1.244-.155,1.244-.933,0-1.555-3.267-.466-3.267-3.422a2.457,2.457,0,0,1,2.489-2.489h.311a9.094,9.094,0,0,1,2.022.311v1.4Z" transform="translate(-19.766 -406.763)" fill="#2f7338"/>
        <path id="Path_930524" data-name="Path 930524" d="M48.91,494.151h-1.4V492.6h1.4V491.04l1.867-.622v2.334h1.711v1.555H50.777v3.734c0,.622.156,1.244.933,1.244a1.166,1.166,0,0,0,.778-.155v1.711a4.314,4.314,0,0,1-1.4.155,2.381,2.381,0,0,1-2.334-2.645Z" transform="translate(-29.154 -403.305)" fill="#2f7338"/>
        <path id="Path_930525" data-name="Path 930525" d="M63.616,487.2h1.867v2.022H63.616Zm0,3.422h1.867v8.09H63.616Z" transform="translate(-39.038 -401.327)" fill="#2f7338"/>
        <path id="Path_930526" data-name="Path 930526" d="M73.068,494.151h-1.4V492.6h1.4V491.04l1.867-.622v2.334h1.711v1.555H74.935v3.734c0,.622.156,1.244.933,1.244a1.167,1.167,0,0,0,.778-.155v1.711a4.314,4.314,0,0,1-1.4.155c-1.555,0-2.333-1.089-2.333-2.645Z" transform="translate(-43.979 -403.305)" fill="#2f7338"/>
        <path id="Path_930527" data-name="Path 930527" d="M94.71,503.741H93v-1.089h0a2.742,2.742,0,0,1-2.333,1.245c-1.711,0-2.489-1.4-2.489-3.111v-5.134h1.711v4.355c0,.933,0,2.334,1.244,2.334s1.711-1.712,1.711-2.645v-3.889h1.867v7.933Z" transform="translate(-54.109 -406.516)" fill="#2f7338"/>
        <path id="Path_930528" data-name="Path 930528" d="M109.305,494.151h-1.4V492.6h1.4V491.04l1.867-.622v2.334h1.711v1.555h-1.711v3.734c0,.622.156,1.244.933,1.244a1.167,1.167,0,0,0,.778-.155v1.711a4.314,4.314,0,0,1-1.4.155c-1.555,0-2.334-1.089-2.334-2.645Z" transform="translate(-66.215 -403.305)" fill="#2f7338"/>
        <path id="Path_930529" data-name="Path 930529" d="M126.876,495.651a3.851,3.851,0,0,1,3.889,3.889v.467a3.831,3.831,0,0,1-7.622.778v-.622a3.868,3.868,0,0,1,3.267-4.355A.571.571,0,0,1,126.876,495.651Zm0,6.689c1.4,0,1.867-1.4,1.867-2.8s-.622-2.333-1.867-2.333-1.867,1.244-1.867,2.333C125.009,500.785,125.475,502.34,126.876,502.34Z" transform="translate(-75.541 -406.516)" fill="#2f7338"/>
        <path id="Path_930530" data-name="Path 930530" d="M163.44,498.892a10.524,10.524,0,0,1-2.178.311,5.01,5.01,0,0,1-5.445-4.356v-1.089c0-3.733,2.022-5.755,5.445-5.755a4.971,4.971,0,0,1,2.178.467l-.156,1.867a3.571,3.571,0,0,0-2.178-.622c-2.022,0-3.267,1.711-3.267,3.889a3.474,3.474,0,0,0,2.956,3.889h.311a5.486,5.486,0,0,0,2.178-.467Z" transform="translate(-95.617 -401.823)" fill="#2f7338"/>
        <path id="Path_930531" data-name="Path 930531" d="M180.984,495.651a3.633,3.633,0,0,1,3.733,3.889v.467a3.926,3.926,0,0,1-3.422,4.2,3.729,3.729,0,0,1-4.2-3.422v-.778a3.868,3.868,0,0,1,3.267-4.355Zm0,6.689c1.4,0,1.867-1.4,1.867-2.8s-.622-2.333-1.867-2.333-1.867,1.089-1.867,2.333S179.584,502.34,180.984,502.34Z" transform="translate(-108.649 -406.516)" fill="#2f7338"/>
        <path id="Path_930532" data-name="Path 930532" d="M200.913,486.391h1.867v11.667h-1.867Z" transform="translate(-123.289 -400.833)" fill="#2f7338"/>
        <path id="Path_930533" data-name="Path 930533" d="M213.194,495.651a3.633,3.633,0,0,1,3.733,3.889v.467a3.831,3.831,0,0,1-7.622.778v-.622a3.868,3.868,0,0,1,3.267-4.355A1.175,1.175,0,0,1,213.194,495.651Zm0,6.689c1.4,0,1.867-1.4,1.867-2.8s-.622-2.333-1.867-2.333-1.867,1.244-1.867,2.333C211.483,500.785,211.794,502.34,213.194,502.34Z" transform="translate(-128.415 -406.516)" fill="#2f7338"/>
        <path id="Path_930534" data-name="Path 930534" d="M232.877,495.807h1.711V496.9h0a2.483,2.483,0,0,1,2.178-1.244,2.2,2.2,0,0,1,2.178,1.4,2.346,2.346,0,0,1,2.178-1.4c1.711,0,2.333,1.4,2.333,3.111V503.9h-1.867v-4.822c0-.778,0-1.866-1.089-1.866s-1.4,1.711-1.4,2.645v3.889h-2.022v-4.822c0-.778,0-1.866-1.089-1.866s-1.4,1.711-1.4,2.645v3.889h-1.867v-7.778Z" transform="translate(-142.808 -406.516)" fill="#2f7338"/>
        <path id="Path_930535" data-name="Path 930535" d="M265.334,486.391H267.2v4.667h0a2.483,2.483,0,0,1,2.178-1.244c2.178,0,2.956,2.022,2.956,4.2s-.778,4.2-2.956,4.2a2.482,2.482,0,0,1-2.178-1.245h0v.933h-1.867Zm3.578,10.267c1.244,0,1.555-1.555,1.555-2.645s-.311-2.489-1.555-2.489-1.711,1.4-1.711,2.489.467,2.645,1.711,2.645Z" transform="translate(-162.821 -400.833)" fill="#2f7338"/>
        <path id="Path_930536" data-name="Path 930536" d="M287.881,487.2h1.867v2.022h-1.867Zm0,3.422h1.867v8.09h-1.867Z" transform="translate(-176.657 -401.327)" fill="#2f7338"/>
        <path id="Path_930537" data-name="Path 930537" d="M297.324,496.274a7.328,7.328,0,0,1,2.489-.622c2.178,0,3.111,1.089,3.111,3.422v3.111a7.587,7.587,0,0,0,.155,1.867h-1.555a3.04,3.04,0,0,0-.155-1.245h0a2.634,2.634,0,0,1-2.178,1.4,2.3,2.3,0,0,1-2.489-2.178v-.155a2.431,2.431,0,0,1,1.245-2.334,6.449,6.449,0,0,1,2.489-.467h.933c0-1.244-.467-1.711-1.555-1.711a3.073,3.073,0,0,0-2.178.933Zm2.334,6.222a1.386,1.386,0,0,0,1.244-.778,1.915,1.915,0,0,0,.311-1.555h-.778c-.778,0-2.022.155-2.022,1.4,0,.622.466.933,1.244.933Z" transform="translate(-182.055 -406.516)" fill="#2f7338"/>
        <path id="Path_930538" data-name="Path 930538" d="M317.676,495.56h1.866v.933h0a2.743,2.743,0,0,1,2.334-1.244c1.711,0,2.489,1.4,2.489,3.111v5.133H322.5v-4.355c0-.933,0-2.333-1.245-2.333s-1.711,1.555-1.711,2.645v3.889h-1.866V495.56Z" transform="translate(-194.94 -406.269)" fill="#2f7338"/>
        <path id="Path_930539" data-name="Path 930539" d="M342.439,495.651a3.634,3.634,0,0,1,3.733,3.889v.467a3.831,3.831,0,0,1-7.622.778v-.778a3.867,3.867,0,0,1,3.267-4.355Zm0,6.689c1.4,0,1.867-1.4,1.867-2.8s-.622-2.333-1.867-2.333-1.866,1.244-1.866,2.333C340.573,500.784,340.884,502.34,342.439,502.34Z" transform="translate(-207.726 -406.516)" fill="#2f7338"/>
        <path id="Path_930540" data-name="Path 930540" d="M373.66,488.807h2.178l3.889,10.889h-2.178l-.933-2.489h-4.045l-.933,2.489h-2.022Zm1.089,2.178h0l-1.4,4.511h2.8Z" transform="translate(-226.813 -402.316)" fill="#2f7338"/>
        <path id="Path_930541" data-name="Path 930541" d="M404.4,495.56v7.156c0,2.178-.778,4.2-3.733,4.2a4.567,4.567,0,0,1-2.489-.622l.156-1.712a5.435,5.435,0,0,0,2.022.778c2.022,0,2.178-1.711,2.178-3.111h0a2.483,2.483,0,0,1-2.178,1.244c-2.178,0-2.956-1.866-2.956-4.044s.933-4.2,3.111-4.2a2.312,2.312,0,0,1,2.178,1.244h0V495.4Zm-1.866,3.889c0-1.4-.467-2.489-1.556-2.489s-1.712,1.244-1.712,2.489.467,2.488,1.555,2.488S402.532,500.849,402.532,499.449Z" transform="translate(-243.861 -406.269)" fill="#2f7338"/>
        <path id="Path_930542" data-name="Path 930542" d="M420.75,495.807h1.711v1.867h0a2.164,2.164,0,0,1,2.022-2.022h.622v2.022a1.97,1.97,0,0,0-.933-.156c-1.555,0-1.555,2.022-1.555,3.267v2.955H420.75v-7.933Z" transform="translate(-258.191 -406.516)" fill="#2f7338"/>
        <path id="Path_930543" data-name="Path 930543" d="M436.9,495.651a3.851,3.851,0,0,1,3.889,3.889v.467a3.831,3.831,0,0,1-7.622.778v-.622a3.868,3.868,0,0,1,3.267-4.355A.571.571,0,0,1,436.9,495.651Zm0,6.689c1.4,0,1.867-1.4,1.867-2.8s-.622-2.333-1.867-2.333-1.866,1.244-1.866,2.333C435.035,500.785,435.346,502.34,436.9,502.34Z" transform="translate(-265.788 -406.516)" fill="#2f7338"/>
        <path id="Path_930544" data-name="Path 930544" d="M456.182,495.769h1.866v1.089h0a2.209,2.209,0,0,1,2.178-1.244c2.178,0,3.111,2.022,3.111,4.2s-.778,4.2-3.111,4.2a2.524,2.524,0,0,1-2.178-1.089h0v4.2h-1.866Zm2.022,4.044c0,1.089.467,2.645,1.711,2.645s1.555-1.555,1.555-2.645-.311-2.489-1.555-2.489S458.2,498.569,458.2,499.813Z" transform="translate(-279.934 -406.478)" fill="#2f7338"/>
        <path id="Path_930545" data-name="Path 930545" d="M483.744,503.429a4.563,4.563,0,0,1-2.488.622c-2.334,0-3.733-1.555-3.733-4.2,0-2.334,1.089-4.2,3.267-4.2,2.645,0,3.422,2.022,3.422,4.822h-4.978A1.929,1.929,0,0,0,481.1,502.5h.156a4.7,4.7,0,0,0,2.489-.778v1.712Zm-1.244-4.356c0-1.089-.467-1.866-1.555-1.866s-1.555.778-1.711,1.866Z" transform="translate(-293.029 -406.516)" fill="#2f7338"/>
        <path id="Path_930546" data-name="Path 930546" d="M503.032,497.517a3.666,3.666,0,0,0-1.244-.311c-1.245,0-1.867,1.089-1.867,2.489,0,1.555.622,2.645,2.022,2.645a4.539,4.539,0,0,0,1.4-.311l.155,1.711a7.8,7.8,0,0,1-1.867.311c-2.333,0-3.578-1.867-3.578-4.2s1.244-4.2,3.422-4.2a3.944,3.944,0,0,1,1.867.311Z" transform="translate(-305.628 -406.516)" fill="#2f7338"/>
        <path id="Path_930547" data-name="Path 930547" d="M521.5,503.741h-1.711v-1.089h0a2.742,2.742,0,0,1-2.333,1.245c-1.712,0-2.489-1.4-2.489-3.111v-5.134h1.867v4.355c0,.933,0,2.334,1.244,2.334s1.711-1.712,1.711-2.645v-3.889h1.867Z" transform="translate(-316.006 -406.516)" fill="#2f7338"/>
        <path id="Path_930548" data-name="Path 930548" d="M536.433,496.274a7.323,7.323,0,0,1,2.489-.622c2.178,0,3.111,1.089,3.111,3.422v4.978h-1.711c0-.467-.155-.778-.155-1.245h0a2.634,2.634,0,0,1-2.178,1.4,2.457,2.457,0,0,1-2.489-2.489,2.483,2.483,0,0,1,1.244-2.178,6.451,6.451,0,0,1,2.489-.467h1.089c0-1.244-.467-1.711-1.711-1.711a3.072,3.072,0,0,0-2.178.933v-2.022Zm2.178,6.222a1.857,1.857,0,0,0,1.4-.778,3.135,3.135,0,0,0,.466-1.711H539.7c-.778,0-2.178.156-2.178,1.4-.156.778.467,1.089,1.089,1.089Z" transform="translate(-328.607 -406.516)" fill="#2f7338"/>
        <path id="Path_930549" data-name="Path 930549" d="M557.242,495.807h1.711v1.867h0a2.307,2.307,0,0,1,2.022-2.022h.622v2.022a1.689,1.689,0,0,0-.778-.156c-1.555,0-1.555,2.022-1.555,3.267v2.955H557.4Z" transform="translate(-341.949 -406.516)" fill="#2f7338"/>
        <path id="Path_930550" data-name="Path 930550" d="M571.334,487.2H573.2v2.022h-1.867Zm0,3.422H573.2v8.09h-1.867Z" transform="translate(-350.596 -401.327)" fill="#2f7338"/>
        <path id="Path_930551" data-name="Path 930551" d="M583.862,495.651a3.851,3.851,0,0,1,3.889,3.889v.467a3.831,3.831,0,1,1-7.622.778v-.622a3.867,3.867,0,0,1,3.267-4.355A.571.571,0,0,1,583.862,495.651Zm0,6.689c1.4,0,1.866-1.4,1.866-2.8s-.622-2.333-1.866-2.333S582,498.451,582,499.54C582.151,500.785,582.462,502.34,583.862,502.34Z" transform="translate(-355.969 -406.516)" fill="#2f7338"/>
        <path id="Path_930552" data-name="Path 930552" d="M416.44,335.77h.156l2.334.933.622.311-.155-.156,8.711-3.733-2.644-.778-10.578-2.178-11.045,1.555,3.733,1.4Z" transform="translate(-247.814 -304.969)" fill="#2f7338"/>
        <path id="Path_930553" data-name="Path 930553" d="M442.538,330.216l12.133-3.267H438.494l-6.067,1.244h0l10.578,2.178-.623-.156Z" transform="translate(-265.357 -302.993)" fill="#85bb40"/>
        <path id="Path_930554" data-name="Path 930554" d="M458.414,342.02l3.267-1.711-8.244-2.334-.622-.155-8.711,3.733.155.156h.311l.467.311,8.4,3.733h0l2.177.933,6.067-3.889-1.4-.311Z" transform="translate(-272.522 -309.664)" fill="#bfc630"/>
        <path id="Path_930555" data-name="Path 930555" d="M474.839,322.739l-4.355,1.244L458.35,327.25h-.156l.623.156,2.644.778.622.155,8.244,2.334.778-.467,14.778-8.089Z" transform="translate(-281.168 -300.028)" fill="#009748"/>
        <path id="Path_930556" data-name="Path 930556" d="M503.7,316.48l-3.733,2.178-14.778,8.089-.778.467-3.267,1.711,1.867.466,1.4.311,3.111-1.866h0l8.4,1.4.933-.778.311-.311,13.845-9.956.156-.155h.155l2.178-1.556Z" transform="translate(-295.252 -296.568)" fill="#85bb40"/>
        <path id="Path_930557" data-name="Path 930557" d="M529.14,354.922l-.622.622-.311.311-8.867-2.334-8.4,7.622h.156l1.711.622,10.422,3.422-1.556,1.711-.622.467,2.489.778,12.133-11.822-2.334-.311Z" transform="translate(-313.535 -319.299)" fill="#bfc630"/>
        <path id="Path_930558" data-name="Path 930558" d="M534.8,318.036h-.155l-.156.155-13.845,9.956-.311.311-.933.778,1.244.155,2.489.467,2.022.311h.155l-.777.622,8.867,2.334.311-.311.622-.622,16.178-15.711Z" transform="translate(-318.724 -296.568)" fill="#009748"/>
        <path id="Path_930559" data-name="Path 930559" d="M351.461,346.54l8.555-4.044-9.8-6.689-11.2,2.177L351.3,350.274l2.956-1.4-1.089-.933Z" transform="translate(-208.035 -308.428)" fill="#2f7338"/>
        <path id="Path_930560" data-name="Path 930560" d="M382.866,332.631l-3.733-1.4-5.289-1.867-10.267,1.4,1.711,1.089,9.8,6.689,1.245-.622.467-.156,2.8,1.867.933-.311.156-.156,9.023-3.267.467-.155,1.555-.467Z" transform="translate(-223.107 -304.475)" fill="#85bb40"/>
        <path id="Path_930561" data-name="Path 930561" d="M395.027,360.44l-.155-.156h0l-7.156-4.978-3.111-2.023h0l-.311-.155-.156-.156h.156l-2.8-1.867-.467.156-1.244.622-8.555,4.044,1.711,1.4,1.089.933,10.422,9.489.933-.622Z" transform="translate(-227.802 -317.816)" fill="#bfc630"/>
        <path id="Path_930562" data-name="Path 930562" d="M451.4,360.843l2.334-1.555h.155l-2.178-.933h0l.311.156v.155l-10.733,6.845,12.289,8.09.622-.467.311-.156,9.022-7.467Z" transform="translate(-270.792 -322.264)" fill="#85bb40"/>
        <path id="Path_930563" data-name="Path 930563" d="M432.427,374.862h0l.155.156h0Z" transform="translate(-265.357 -332.394)" fill="#8abf45"/>
        <path id="Path_930564" data-name="Path 930564" d="M489.581,373.873l-1.711-.622h-.156l-.467.311-2.022,1.866-2.178-.778-9.022,7.467-.311.156-.622.467h0l2.645,1.866,10.578,6.844,11.511-11.978.622-.467L500,377.3Z" transform="translate(-290.311 -331.406)" fill="#009748"/>
        <path id="Path_930565" data-name="Path 930565" d="M493.278,348.206h0l-2.022-.311-2.489-.467-1.244-.155-8.4-1.4h0l-3.111,1.866-6.067,3.889h-.155l-2.334,1.555,12.133,4.667,2.178.778,2.022-1.866.467-.311,8.4-7.622.777-.622Z" transform="translate(-286.851 -314.605)" fill="#2f7338"/>
        <path id="Path_930566" data-name="Path 930566" d="M444.816,347.886h0Z" transform="translate(-272.768 -315.841)" fill="#13a654"/>
        <path id="Path_930567" data-name="Path 930567" d="M429.223,349.954l-8.4-3.733-.467-.311h-.311l-.622-.311-2.334-.933h-.156l-1.555.467-.467.155-9.023,3.267-.156.156-.933.311h-.156l.156.156.311.155h0l3.111,2.023,7.156,4.978.155.156.155-.156.778-.467.311-.156h0l2.022,1.4,10.733-6.845v-.155Z" transform="translate(-248.308 -313.864)" fill="#009748"/>
        <path id="Path_930568" data-name="Path 930568" d="M473.092,397.813h0l.311.311Z" transform="translate(-290.311 -346.478)" fill="#3d7f3c"/>
        <path id="Path_930569" data-name="Path 930569" d="M469.513,407.511l-10.578-6.844-1.711-1.245-11.511,12.445L460.336,426.8l15.245-15.244Z" transform="translate(-273.51 -347.465)" fill="#bfc630"/>
        <path id="Path_930570" data-name="Path 930570" d="M474.52,398.928l-.622-.311Z" transform="translate(-290.805 -346.971)" fill="#3d7f3c"/>
        <path id="Path_930571" data-name="Path 930571" d="M433.377,383.051l-.311-.311-12.289-8.089-2.022-1.4h0l-.311.156-.778.467-.155.156h0l-9.645,6.689.311.467,14.311,14.778v-.155L434,383.362Z" transform="translate(-250.285 -331.406)" fill="#2f7338"/>
        <path id="Path_930572" data-name="Path 930572" d="M404.662,365.54h0l-.467.155.467-.155a7.508,7.508,0,0,0-1.089.467c-.467.467.155.467.467.311s.933-.311,1.089-.622,0-.156-.467-.156" transform="translate(-247.548 -326.65)" fill="#3d7f3c"/>
        <path id="Path_930573" data-name="Path 930573" d="M403.616,370.03h.155c-.778,0-.778,1.711.311,1.4,0-.155-.155-.467,0-.622s.467-.156.467-.467-.622-.311-.933-.311" transform="translate(-247.435 -329.429)" fill="#3d7f3c"/>
        <path id="Path_930574" data-name="Path 930574" d="M400.032,367.614h0c-.467.156-.622.156-.622.622s0,.467.311.311a1.214,1.214,0,0,0,.622-.622c0-.156,0-.311-.311-.311" transform="translate(-245.096 -327.947)" fill="#3d7f3c"/>
        <path id="Path_930575" data-name="Path 930575" d="M398.98,372.849l-.467.467c-.155.155-.155.467-.311.622a.525.525,0,0,0,.778.467c.155-.622.311-1.244,0-1.555" transform="translate(-244.355 -331.159)" fill="#3d7f3c"/>
        <path id="Path_930576" data-name="Path 930576" d="M403.114,362.814l.156-.622c0-.311-.311-.467-.622-.311h.156c-.622.467-1.089,1.555,0,1.089.155,0,.155.156.311-.155" transform="translate(-246.777 -324.391)" fill="#3d7f3c"/>
        <path id="Path_930577" data-name="Path 930577" d="M394.734,368.822h0c-.467.467-.778.933-.622,1.4.311,0,.466-.156.778-.156,0-.156.311-.778.311-.933s-.312-.311-.467-.311" transform="translate(-241.82 -328.688)" fill="#3d7f3c"/>
        <path id="Path_930578" data-name="Path 930578" d="M473.364,431.629c0-.156-.156-.311-.156-.467s-.622.155-.778.311c-.467.622.155.933.778.933s.622,0,.622-.467-.311-.155-.467-.311" transform="translate(-289.804 -366.917)" fill="#08a554"/>
        <path id="Path_930579" data-name="Path 930579" d="M487.574,434.982c0-.156.156-.467,0-.622-.155-.311-.467-.311-.778-.311-.155.155-.622.311-.467.778s.778.311.778.778c.467-.156.467-.311.467-.622" transform="translate(-298.414 -368.714)" fill="#08a554"/>
        <path id="Path_930580" data-name="Path 930580" d="M473.065,422.5c.155,0,.467.467.622.156v-.311a1.875,1.875,0,0,0-.778-.778c-.155,0-.622.155-.622.467s.622.311.778.467" transform="translate(-289.817 -361.054)" fill="#08a554"/>
        <path id="Path_930581" data-name="Path 930581" d="M475.8,428.009c-.155,0,0,.311,0,.467.156.467.156.622.622.778.155,0,.155-.622,0-.778s-.311-.467-.622-.467" transform="translate(-291.93 -365.008)" fill="#08a554"/>
        <path id="Path_930582" data-name="Path 930582" d="M480.906,429.922h0c-.467-.311-.467.622-.311.933s.622.778.933.622a1.029,1.029,0,0,0,.155-.933c-.155-.155-.466-.155-.777-.622" transform="translate(-294.857 -366.143)" fill="#08a554"/>
        <path id="Path_930583" data-name="Path 930583" d="M479.726,423.772a.572.572,0,0,0-.155-.467,4.124,4.124,0,0,0-.778-.933.94.94,0,0,0-.467.933c.155.311.622.467.778.622s.622.156.622-.155" transform="translate(-293.522 -361.549)" fill="#08a554"/>
        <path id="Path_930584" data-name="Path 930584" d="M486.321,427.176c.311,0,.622.155.467-.311s-.622-.467-1.089-.467c-.155,0-.311,0-.311.156a.707.707,0,0,0,0,.778c.156.311.156.311.311.155a.808.808,0,0,1,.622-.311" transform="translate(-297.784 -364.019)" fill="#08a554"/>
        <path id="Path_930585" data-name="Path 930585" d="M471.883,381.645c-.155,0-.311.156-.467.156-.311,0-.466.311,0,.933s.467.467.622,0l.155-.467s.311-.155,0-.467-.311-.156-.311-.156" transform="translate(-289.102 -336.533)" fill="#3d7f3c"/>
        <path id="Path_930586" data-name="Path 930586" d="M463.7,377.68h-.155a.152.152,0,0,0-.155.156c-.467.311-.311.778.155,1.4.155.156.155.467.467-.156a2.213,2.213,0,0,0,.311-.933c-.156-.311-.311-.467-.622-.467" transform="translate(-284.181 -334.123)" fill="#3d7f3c"/>
        <path id="Path_930587" data-name="Path 930587" d="M475.286,376.875h-.467c-.622.156-.622.933.311.933s.933-.622.155-.933" transform="translate(-291.105 -333.629)" fill="#3d7f3c"/>
        <path id="Path_930588" data-name="Path 930588" d="M468.291,372.957c.622-.155,1.4-.778.311-.933s-.933,1.245-.311.933" transform="translate(-287.066 -330.645)" fill="#3d7f3c"/>
        <path id="Path_930589" data-name="Path 930589" d="M469.655,378.66a2.65,2.65,0,0,0-.155-1.089c-.311-.155-.311,0-.467,0h-.155c-.311,0-.467.311-.311,1.089.155.311.467.311.778.156.155,0,.155,0,.311-.156" transform="translate(-287.496 -334.014)" fill="#3d7f3c"/>
        <path id="Path_930590" data-name="Path 930590" d="M463.619,372c-.156,0-.156-1.089-.933-.155s.778,1.089,1.244.467l-.311-.311" transform="translate(-283.793 -330.312)" fill="#3d7f3c"/>
        <path id="Path_930591" data-name="Path 930591" d="M511.378,356.4a1.413,1.413,0,0,0-1.089-.467.152.152,0,0,0-.156.156c.311.311.467.622.933.778.311.156.311-.311.311-.467" transform="translate(-313.041 -320.782)" fill="#91bf3f"/>
        <path id="Path_930592" data-name="Path 930592" d="M504.964,354.73h0c-.311,0-.467.155-.467.311s.311.155.622.155c1.089,0,.156-.466-.156-.466" transform="translate(-309.582 -320.04)" fill="#91bf3f"/>
        <path id="Path_930593" data-name="Path 930593" d="M501.688,362.278c-.155-.156-.155,0-.311.155h0c-.467.311,0,2.022.622.933a2.877,2.877,0,0,0-.311-1.089" transform="translate(-307.551 -324.632)" fill="#91bf3f"/>
        <path id="Path_930594" data-name="Path 930594" d="M505.678,358.354h0l-.311.156c-.156.155-.467.311-.467.622,0,.155.311.311.467.311s.155,0,.155-.156a.586.586,0,0,0,.156-.933" transform="translate(-309.829 -322.264)" fill="#91bf3f"/>
        <path id="Path_930595" data-name="Path 930595" d="M501.64,355.439h-.311c-.155,0-.311.155-.155.311s.467,0,.622,0c.622-.311.156-.467-.155-.311" transform="translate(-307.503 -320.438)" fill="#91bf3f"/>
        <path id="Path_930596" data-name="Path 930596" d="M494.027,362.939c-.311.311-.622.622-.467.933.156.467.933-.622,1.089-1.089h0c-.311,0-.466.156-.622.156" transform="translate(-302.846 -324.982)" fill="#91bf3f"/>
        <path id="Path_930597" data-name="Path 930597" d="M493.145,358.912c0-.155-.156-.155-.311-.155a.572.572,0,0,0-.467.155c-.467.467-.933,1.555,0,1.089.311-.155.934-.622.778-1.089" transform="translate(-301.808 -322.511)" fill="#91bf3f"/>
        <path id="Path_930598" data-name="Path 930598" d="M497.225,356.341c-.467.155-1.4,1.089-.155.778.311-.156.778-.467.778-.622s-.467-.155-.622-.155" transform="translate(-304.643 -321.029)" fill="#91bf3f"/>
        <path id="Path_930599" data-name="Path 930599" d="M501.294,357.549c-.467.155-1.245,1.711-.311,1.089.311-.156.622-.933.311-1.089" transform="translate(-307.156 -321.77)" fill="#91bf3f"/>
        <path id="Path_930600" data-name="Path 930600" d="M506.593,329.364a1.97,1.97,0,0,0-.933.156c-.467.156-.311.467.155.622s.622-.155.778-.311c0-.155.156-.155.156-.311a.153.153,0,0,1-.156-.156" transform="translate(-310.123 -304.475)" fill="#91bf3f"/>
        <path id="Path_930601" data-name="Path 930601" d="M486.355,331.081c-.155.311.933,0,.933-.311h0c.311-.311-.933,0-.933.311" transform="translate(-298.44 -305.259)" fill="#91bf3f"/>
        <path id="Path_930602" data-name="Path 930602" d="M485.093,334.6a2,2,0,0,0-1.555.622c-.156.311.933-.155,1.555-.622h0" transform="translate(-296.711 -307.687)" fill="#91bf3f"/>
        <path id="Path_930603" data-name="Path 930603" d="M483.162,332.988c-.933.155-2.489.778-1.4.622.467-.155,1.089-.311,1.555-.467.155,0,0-.155-.155-.155" transform="translate(-295.402 -306.698)" fill="#91bf3f"/>
        <path id="Path_930604" data-name="Path 930604" d="M481.509,332.65a10.734,10.734,0,0,0,1.244-.467h-.311c-.467.155-1.089.467-.933.467" transform="translate(-295.461 -306.204)" fill="#91bf3f"/>
        <path id="Path_930605" data-name="Path 930605" d="M490.367,330.389c.155.156.622-.155.933-.311.155,0,.155-.155.311-.155a.152.152,0,0,0-.155-.156c-.622.156-1.244.467-1.089.622" transform="translate(-300.896 -304.722)" fill="#91bf3f"/>
        <path id="Path_930606" data-name="Path 930606" d="M491.4,333.206a1.72,1.72,0,0,0-1.244,0l-.155.156c0,.311.155.622,1.4,0,.156.155.311-.156,0-.156" transform="translate(-300.688 -306.761)" fill="#91bf3f"/>
        <path id="Path_930607" data-name="Path 930607" d="M492.236,330.975c-.622.155-.622.311-.622.467s.933-.156,1.244-.467h-.622" transform="translate(-301.676 -305.463)" fill="#91bf3f"/>
        <path id="Path_930608" data-name="Path 930608" d="M500.726,330.975h-.155a2.876,2.876,0,0,0-1.089.311c-.156,0-.156.156,0,.156.466.155,1.866-.156,1.244-.467" transform="translate(-306.433 -305.463)" fill="#91bf3f"/>
        <path id="Path_930609" data-name="Path 930609" d="M496.3,328.559c-.311,0-1.555.311-.933.467.777-.156,1.089-.467.933-.467" transform="translate(-303.874 -303.981)" fill="#91bf3f"/>
        <path id="Path_930610" data-name="Path 930610" d="M498.466,329.884h0c.155-.311-.311-.156-.622,0s0,.155.155.155h.155a.544.544,0,0,0,.311-.155" transform="translate(-305.418 -304.684)" fill="#91bf3f"/>
        <path id="Path_930611" data-name="Path 930611" d="M504.287,328.559a2.313,2.313,0,0,0-1.4.311.542.542,0,0,0,.311.156c.155,0,.467-.156.622-.156h.467c0-.155.155-.155,0-.311" transform="translate(-308.594 -303.981)" fill="#91bf3f"/>
        <path id="Path_930612" data-name="Path 930612" d="M501.559,327.91h0c.311-.156.156-.156,0-.156h-.311a.856.856,0,0,0-.778.467,9.85,9.85,0,0,1,1.089-.311" transform="translate(-307.111 -303.487)" fill="#91bf3f"/>
        <path id="Path_930613" data-name="Path 930613" d="M430.815,374.459Z" transform="translate(-264.367 -332.147)" fill="#8abf45"/>
        <path id="Path_930614" data-name="Path 930614" d="M443.205,346.833l-.311-.155Z" transform="translate(-271.78 -315.099)" fill="#13a654"/>
        <path id="Path_930615" data-name="Path 930615" d="M472.287,397.813h0l.311.155Z" transform="translate(-289.817 -346.478)" fill="#3d7f3c"/>
        <path id="Path_930616" data-name="Path 930616" d="M473.559,398.526l-.467-.311Z" transform="translate(-290.311 -346.725)" fill="#3d7f3c"/>
        <path id="Path_930617" data-name="Path 930617" d="M214.611,328.458h0L205.9,352.881h17.267Zm-6.378-11.978h13.378l23.022,59.268H231.566l-5.133-13.534h-23.8L197.5,375.748H185.21Z" transform="translate(-113.653 -296.568)" fill="#2f7338"/>
        <path id="Path_930618" data-name="Path 930618" d="M92.375,363.285a32.562,32.562,0,0,1-12.756,2.333c-12.6,0-20.067-9.023-20.067-21.156S67.174,323,79.308,323a24.252,24.252,0,0,1,12.756,3.111h0l1.089.622,1.244-9.956-1.4-.622h0a42.488,42.488,0,0,0-13.378-2.489c-20.067,0-32.512,11.356-32.512,31.734s13.223,29.711,32.512,29.711a67.447,67.447,0,0,0,13.534-1.866l1.4-.467-1.244-9.8Z" transform="translate(-28.907 -294.839)" fill="#2f7338"/>
        <path id="Path_930619" data-name="Path 930619" d="M1.208,316.48H13.03v59.268H1.208V316.48Z" transform="translate(-0.741 -296.568)" fill="#2f7338"/>
      </g>
    </g>
  </g>
</svg>
