<svg xmlns="http://www.w3.org/2000/svg" width="85.336" height="85.336" viewBox="0 0 85.336 85.336">
  <g id="img3" transform="translate(-704.668 -6155)">
    <path id="Path_925100" data-name="Path 925100" d="M9.482,0H75.854a9.482,9.482,0,0,1,9.482,9.482V75.854a9.482,9.482,0,0,1-9.482,9.482H9.482A9.482,9.482,0,0,1,0,75.854V9.482A9.482,9.482,0,0,1,9.482,0Z" transform="translate(704.668 6155)" fill="#f3bc5b"/>
    <g id="Group_1174966" data-name="Group 1174966" transform="translate(716.375 6174.69)">
      <path id="Path_928098" data-name="Path 928098" d="M355.994,190.515l-4.77-9.675-1.75-3.5A2.42,2.42,0,0,0,347.311,176H335.987V200.19h17.656a2.418,2.418,0,0,0,2.419-2.419v-6.685A2.448,2.448,0,0,0,355.994,190.515Z" transform="translate(-295.353 -162.7)" fill="#85e374"/>
      <g id="Group_1174964" data-name="Group 1174964" transform="translate(45.471 18.14)">
        <path id="Path_928099" data-name="Path 928099" d="M391.155,225.677h-15.17V216h10.4l4.582,9.164A2.458,2.458,0,0,1,391.155,225.677Z" transform="translate(-375.985 -216.002)" fill="#57555c"/>
        <path id="Path_928100" data-name="Path 928100" d="M393.955,340.834a5.946,5.946,0,0,1,.122,1.209,6.047,6.047,0,0,1-12.093,0,5.943,5.943,0,0,1,.122-1.209,6.047,6.047,0,0,1,11.849,0Z" transform="translate(-381.258 -321.485)" fill="#57555c"/>
      </g>
      <path id="Path_928101" data-name="Path 928101" d="M47.006,76.008H12.419A2.418,2.418,0,0,0,10,78.427v31.443a2.418,2.418,0,0,0,2.419,2.419H49.424V78.427A2.418,2.418,0,0,0,47.006,76.008Z" transform="translate(-8.791 -74.799)" fill="#f0e6de"/>
      <g id="Group_1174965" data-name="Group 1174965" transform="translate(1.017 27.664)">
        <path id="Path_928102" data-name="Path 928102" d="M81.968,340.834a5.945,5.945,0,0,1,.122,1.209,6.047,6.047,0,1,1-12.093,0,5.946,5.946,0,0,1,.122-1.209,6.047,6.047,0,0,1,11.849,0Z" transform="translate(-62.548 -331.009)" fill="#57555c"/>
        <rect id="Rectangle_453446" data-name="Rectangle 453446" width="5.083" height="5.083" transform="translate(0 0)" fill="#57555c"/>
      </g>
      <path id="Path_928103" data-name="Path 928103" d="M101.2,128.424a1.209,1.209,0,1,0-1.209-1.209A1.21,1.21,0,0,0,101.2,128.424Z" transform="translate(-87.902 -118.749)"/>
      <path id="Path_928104" data-name="Path 928104" d="M56.953,83.607l-1.75-3.5A3.608,3.608,0,0,0,51.958,78.1H41.843V69.636a3.632,3.632,0,0,0-3.628-3.628H3.628A3.632,3.632,0,0,0,0,69.636v31.443a3.632,3.632,0,0,0,3.628,3.628H7.256a7.226,7.226,0,0,0,1.854,4.837h-7.9a1.209,1.209,0,0,0,0,2.419h59.5a1.209,1.209,0,1,0,0-2.419H57.646a7.226,7.226,0,0,0,1.854-4.837c0-.069,0-.138-.005-.206a3.634,3.634,0,0,0,2.424-3.422V94.394C61.918,92.982,62.2,94.3,56.953,83.607Zm-1.829,1.75,3.628,7.256H46.681V85.357Zm-8.283,24.187H19.915a7.226,7.226,0,0,0,1.854-4.837H44.987A7.227,7.227,0,0,0,46.841,109.544ZM2.419,95.032H4.837v2.419H2.419Zm1.209,7.256a1.211,1.211,0,0,1-1.209-1.209V99.87H6.047A1.209,1.209,0,0,0,7.256,98.66V93.823a1.209,1.209,0,0,0-1.209-1.209H2.419V69.636a1.211,1.211,0,0,1,1.209-1.209H38.215a1.211,1.211,0,0,1,1.209,1.209v32.652H21.353a7.256,7.256,0,0,0-13.682,0Zm6.047,2.419a4.774,4.774,0,0,1,.1-.969,4.837,4.837,0,0,1,9.479,0v.005a4.755,4.755,0,0,1,.1.964,4.837,4.837,0,0,1-9.675,0Zm37.731,0a4.774,4.774,0,0,1,.1-.969,4.837,4.837,0,0,1,9.479,0v.005a4.755,4.755,0,0,1,.1.964,4.837,4.837,0,0,1-9.675,0ZM59,102.057a7.256,7.256,0,0,0-13.6.231H41.843V80.52H51.958a1.2,1.2,0,0,1,1.082.669l.875,1.75H45.471a1.209,1.209,0,0,0-1.209,1.209v9.675a1.209,1.209,0,0,0,1.209,1.209H59.5v6.047A1.208,1.208,0,0,1,59,102.057Z" transform="translate(0 -66.008)"/>
      <path id="Path_928105" data-name="Path 928105" d="M141.2,128.424h15.238a1.209,1.209,0,0,0,0-2.419H141.2a1.209,1.209,0,1,0,0,2.419Z" transform="translate(-123.063 -118.749)"/>
      <path id="Path_928106" data-name="Path 928106" d="M191.6,166H181.2a1.209,1.209,0,0,0,0,2.419h10.4a1.209,1.209,0,1,0,0-2.419Z" transform="translate(-158.225 -153.911)"/>
      <path id="Path_928107" data-name="Path 928107" d="M414.4,366a2.419,2.419,0,1,0,2.419,2.419A2.421,2.421,0,0,0,414.4,366Z" transform="translate(-362.158 -329.716)"/>
      <path id="Path_928108" data-name="Path 928108" d="M102.415,366a2.419,2.419,0,1,0,2.419,2.419A2.421,2.421,0,0,0,102.415,366Z" transform="translate(-87.903 -329.716)"/>
    </g>
  </g>
</svg>
