<svg xmlns="http://www.w3.org/2000/svg" width="110" height="110" viewBox="0 0 110 110">
  <g id="img31" transform="translate(-704.668 -6155)">
    <path id="Path_925100" data-name="Path 925100" d="M12.222,0H97.778A12.222,12.222,0,0,1,110,12.222V97.778A12.222,12.222,0,0,1,97.778,110H12.222A12.222,12.222,0,0,1,0,97.778V12.222A12.222,12.222,0,0,1,12.222,0Z" transform="translate(704.668 6155)" fill="#ff955e"/>
    <g id="Group_1177074" data-name="Group 1177074" transform="translate(678.291 6157.431)">
      <path id="Path_932730" data-name="Path 932730" d="M131.236,61H111.841A34.111,34.111,0,0,1,95.385,71.244V89.418c0,8.806,3.907,17.038,11.611,24.467a57.266,57.266,0,0,0,14.54,10.1,57.189,57.189,0,0,0,14.545-10.1c7.7-7.425,11.606-15.657,11.606-24.466V71.244A34.112,34.112,0,0,1,131.236,61Z" transform="translate(-40.161 -40.184)" fill="#59abff"/>
      <path id="Path_932731" data-name="Path 932731" d="M265.686,61h-9.7v62.983a57.189,57.189,0,0,0,14.545-10.1c7.7-7.425,11.606-15.657,11.606-24.466V71.244A34.112,34.112,0,0,1,265.686,61Z" transform="translate(-174.611 -40.184)" fill="#4a9be5"/>
      <path id="Path_932732" data-name="Path 932732" d="M183.364,146.152l-6.969-12.064-6.965-12.066a3.488,3.488,0,0,0-6.048,0l-6.964,12.064-6.969,12.066a3.49,3.49,0,0,0,3.026,5.237h27.864a3.491,3.491,0,0,0,3.025-5.238Z" transform="translate(-85.03 -89.806)" fill="#ffdf40"/>
      <path id="Path_932733" data-name="Path 932733" d="M269.918,151.387a3.491,3.491,0,0,0,3.025-5.238l-6.969-12.064-6.965-12.066a3.378,3.378,0,0,0-3.026-1.749v31.116Z" transform="translate(-174.609 -89.803)" fill="#ffbe40"/>
      <path id="Path_932734" data-name="Path 932734" d="M81.375,92.137a1.3,1.3,0,0,1-.442-.077c-6.966-2.513-14.823-8.205-19.519-12.731A48.826,48.826,0,0,1,51.3,65.764a37.319,37.319,0,0,1-3.889-16.531V25.906a1.3,1.3,0,0,1,1.08-1.283c6.031-1.045,14.193-3.805,18.826-11.024a1.3,1.3,0,0,1,1.1-.6H94.335a1.3,1.3,0,0,1,1.1.6c4.638,7.219,12.8,9.98,18.831,11.024a1.3,1.3,0,0,1,1.08,1.283V49.233a37.319,37.319,0,0,1-3.89,16.531A48.821,48.821,0,0,1,101.34,79.328c-4.7,4.527-12.557,10.219-19.525,12.731A1.3,1.3,0,0,1,81.375,92.137ZM50.017,26.989V49.233c0,10.277,4.442,19.771,13.2,28.219,4.4,4.237,11.659,9.532,18.154,11.992,6.5-2.46,13.76-7.755,18.158-11.993,8.76-8.447,13.2-17.942,13.2-28.219V26.989A36.018,36.018,0,0,1,102.2,23.228a24.974,24.974,0,0,1-8.562-7.622H69.112a24.949,24.949,0,0,1-8.558,7.622,36.011,36.011,0,0,1-10.536,3.761Zm31.357,59.54a1.3,1.3,0,0,1-.521-.109A59.373,59.373,0,0,1,65.028,75.576,43.805,43.805,0,0,1,56.1,63.727,32.215,32.215,0,0,1,52.62,49.233V30.079a1.3,1.3,0,0,1,.958-1.256c6.955-1.91,12.654-5.413,16.48-10.13a1.3,1.3,0,0,1,1.01-.482H91.686a1.3,1.3,0,0,1,1.011.482c3.827,4.716,9.524,8.219,16.476,10.13a1.3,1.3,0,0,1,.957,1.256V49.233a32.234,32.234,0,0,1-3.483,14.494,43.784,43.784,0,0,1-8.921,11.848A59.344,59.344,0,0,1,81.9,86.42,1.3,1.3,0,0,1,81.375,86.529ZM55.224,31.06V49.233c0,8.806,3.907,17.038,11.611,24.467a57.266,57.266,0,0,0,14.54,10.1A57.189,57.189,0,0,0,95.919,73.7c7.7-7.425,11.606-15.657,11.606-24.466V31.06A34.112,34.112,0,0,1,91.074,20.816H71.679A34.109,34.109,0,0,1,55.224,31.06Zm26.151,19.9a3.731,3.731,0,0,1-3.664-3.6l-.425-8.348a3.849,3.849,0,0,1,1.079-2.867,4.152,4.152,0,0,1,6.024,0,3.847,3.847,0,0,1,1.079,2.866l-.425,8.345A3.726,3.726,0,0,1,81.375,50.956Zm0-13.5a1.555,1.555,0,0,0-1.122.483,1.28,1.28,0,0,0-.365.94l.425,8.345a1.066,1.066,0,1,0,2.129,0l.425-8.346a1.278,1.278,0,0,0-.365-.939,1.561,1.561,0,0,0-1.127-.485Zm0,22.307a3.67,3.67,0,1,1,3.67-3.67A3.67,3.67,0,0,1,81.375,59.763Zm0-4.735a1.065,1.065,0,1,0,1.065,1.065,1.065,1.065,0,0,0-1.065-1.065Zm13.934,9.162H67.445a6.1,6.1,0,0,1-5.282-9.144l6.969-12.067L76.1,30.914a6.094,6.094,0,0,1,10.56,0h0L93.621,42.98l6.97,12.064a6.1,6.1,0,0,1-5.282,9.145ZM81.375,30.468a3.374,3.374,0,0,0-3.022,1.75L71.389,44.281,64.419,56.347a3.49,3.49,0,0,0,3.026,5.237H95.309a3.491,3.491,0,0,0,3.025-5.238L91.365,44.282,84.4,32.217A3.378,3.378,0,0,0,81.375,30.468Z"/>
      <path id="Path_932735" data-name="Path 932735" d="M250.51,271.1a1.065,1.065,0,1,0,1.065,1.065A1.065,1.065,0,0,0,250.51,271.1Z" transform="translate(-169.135 -216.073)" fill="#ec4c36"/>
      <path id="Path_932736" data-name="Path 932736" d="M248.337,174.083a1.114,1.114,0,0,0,1.067-1.125l.425-8.346a1.278,1.278,0,0,0-.365-.939,1.547,1.547,0,0,0-2.248,0,1.28,1.28,0,0,0-.365.94l.425,8.345A1.117,1.117,0,0,0,248.337,174.083Z" transform="translate(-166.963 -125.732)" fill="#ec4c36"/>
      <path id="Path_932737" data-name="Path 932737" d="M76.616,90.847c4.4,4.237,11.659,9.532,18.154,11.992,6.5-2.46,13.76-7.755,18.158-11.993,8.76-8.447,13.2-17.942,13.2-28.219V40.384a36.018,36.018,0,0,1-10.537-3.761A24.974,24.974,0,0,1,107.032,29H82.507a24.949,24.949,0,0,1-8.558,7.622,36.022,36.022,0,0,1-10.536,3.761V62.628C63.412,72.905,67.854,82.4,76.616,90.847Zm-10.6-28.219V43.474a1.3,1.3,0,0,1,.958-1.256c6.955-1.91,12.654-5.413,16.48-10.13a1.3,1.3,0,0,1,1.012-.482h20.618a1.3,1.3,0,0,1,1.011.482c3.827,4.716,9.524,8.219,16.476,10.13a1.3,1.3,0,0,1,.957,1.256V62.628a32.234,32.234,0,0,1-3.483,14.494,43.784,43.784,0,0,1-8.921,11.848A59.344,59.344,0,0,1,95.291,99.815a1.3,1.3,0,0,1-1.043,0A59.373,59.373,0,0,1,78.422,88.972,43.805,43.805,0,0,1,69.5,77.123a32.208,32.208,0,0,1-3.486-14.495Z" transform="translate(-13.395 -13.395)" fill="#bec7cf"/>
      <path id="Path_932738" data-name="Path 932738" d="M268.249,29H255.986v2.605H266.3a1.3,1.3,0,0,1,1.011.482c3.827,4.716,9.524,8.219,16.476,10.13a1.3,1.3,0,0,1,.957,1.256V62.628a32.234,32.234,0,0,1-3.483,14.494,43.784,43.784,0,0,1-8.921,11.848,59.344,59.344,0,0,1-15.831,10.845,1.3,1.3,0,0,1-.521.109v2.916c6.5-2.46,13.76-7.755,18.158-11.993,8.76-8.447,13.2-17.942,13.2-28.219V40.384a36.017,36.017,0,0,1-10.537-3.761A24.972,24.972,0,0,1,268.249,29Z" transform="translate(-174.611 -13.395)" fill="#abb3ba"/>
    </g>
  </g>
</svg>
