<svg xmlns="http://www.w3.org/2000/svg" width="114" height="114" viewBox="0 0 114 114">
  <g id="img36" transform="translate(-1234.5 -458)">
    <g id="Ellipse_12108" data-name="Ellipse 12108" transform="translate(1241.5 465)" fill="#f3bc5b" stroke="rgba(255,255,255,0.4)" stroke-width="7">
      <circle cx="50" cy="50" r="50" stroke="none"/>
      <circle cx="50" cy="50" r="53.5" fill="none"/>
    </g>
    <g id="Group_1176832" data-name="Group 1176832" transform="translate(1260.5 484)">
      <path id="Path_930873" data-name="Path 930873" d="M92.989,69.243h2.888a5.845,5.845,0,0,1,3.237.809,4.864,4.864,0,0,1,2.022,2.72l1.06,3.25a1.89,1.89,0,0,1,.084.92,1.978,1.978,0,0,1-1.046,1.451,2.015,2.015,0,0,1-.907.21H92.989a1.38,1.38,0,0,1-1.381-1.381v-6.6A1.384,1.384,0,0,1,92.989,69.243Zm2.888,1.967h-2.3v5.427h6.752l-1.06-3.25a2.9,2.9,0,0,0-1.2-1.674A4.05,4.05,0,0,0,95.876,71.21Z" transform="translate(-46.52 -35.162)" fill="#004e3d"/>
      <path id="Path_930874" data-name="Path 930874" d="M95.358,101.441a6.527,6.527,0,1,1-4.617,1.912A6.514,6.514,0,0,1,95.358,101.441Zm0,3.614a2.922,2.922,0,1,1,0,5.845,2.893,2.893,0,0,1-2.064-.851,2.92,2.92,0,0,1,2.064-4.994Zm0,1.967a.953.953,0,0,0-.962.949.938.938,0,0,0,.293.684.9.9,0,0,0,.669.279.955.955,0,0,0,.963-.962A.944.944,0,0,0,95.358,107.021Zm3.237-2.274a4.6,4.6,0,1,0,1.325,3.223A4.589,4.589,0,0,0,98.594,104.748Z" transform="translate(-45.108 -51.513)" fill="#004e3d"/>
      <path id="Path_930875" data-name="Path 930875" d="M35.447,35.113a.963.963,0,0,1-1.339.348.8.8,0,0,1-.349-.362l-9.9-16.769a12.02,12.02,0,0,1-1.172-2.916,11.894,11.894,0,0,1-.4-3.083,12.325,12.325,0,1,1,24.651,0,12.537,12.537,0,0,1-.39,3.083,12.245,12.245,0,0,1-1.159,2.9ZM34.61,4.757a7.573,7.573,0,1,1-5.357,2.218A7.526,7.526,0,0,1,34.61,4.757ZM38.572,8.37A5.608,5.608,0,1,0,40.2,12.332,5.577,5.577,0,0,0,38.572,8.37ZM34.61,32.686,43.678,17.34a10.368,10.368,0,0,0,.963-2.413,10.5,10.5,0,0,0,.321-2.595,10.351,10.351,0,1,0-20.7,0,10.52,10.52,0,0,0,.32,2.595,10.754,10.754,0,0,0,.949,2.386Z" transform="translate(-11.313)" fill="#004e3d"/>
      <path id="Path_930876" data-name="Path 930876" d="M78.091,85.44a.983.983,0,0,1,.977.991.97.97,0,0,1-.977.977H73.948a.983.983,0,0,1-.991-.977,1,1,0,0,1,.991-.991Zm19.14-7.9H97.9L94.5,67.207a6.66,6.66,0,0,0-3-4.031,8.335,8.335,0,0,0-4.1-.865H77.2a1,1,0,0,1-.991-.991.982.982,0,0,1,.991-.977H87.4a10.212,10.212,0,0,1,5.05,1.116,8.564,8.564,0,0,1,3.92,5.148l3.627,11.035a1.2,1.2,0,0,1,.055.307v6.194a3.273,3.273,0,0,1-.962,2.3v.014a3.258,3.258,0,0,1-2.3.949h-.572a.983.983,0,0,1-.991-.977,1,1,0,0,1,.991-.991h.572a1.276,1.276,0,0,0,.907-.377H97.7a1.343,1.343,0,0,0,.377-.92v-.669H97.23a2.771,2.771,0,0,1-1.981-.837h-.014a2.819,2.819,0,0,1-.823-1.981v-.293a2.817,2.817,0,0,1,.823-1.981c.028-.028.056-.042.07-.07A2.808,2.808,0,0,1,97.231,77.544Zm.851,1.981h-.851a.771.771,0,0,0-.559.209l-.042.029a.866.866,0,0,0-.251.6v.293a.858.858,0,0,0,.851.851h.851Z" transform="translate(-37.048 -30.643)" fill="#004e3d"/>
      <path id="Path_930877" data-name="Path 930877" d="M26.1,101.441a6.55,6.55,0,1,1-4.618,1.912A6.564,6.564,0,0,1,26.1,101.441Zm0,3.614a2.93,2.93,0,1,1-2.93,2.915A2.935,2.935,0,0,1,26.1,105.055Zm0,1.967a.953.953,0,0,0-.963.949.985.985,0,0,0,.279.684.925.925,0,0,0,.684.279.956.956,0,0,0,0-1.911Zm3.222-2.274a4.563,4.563,0,1,0,1.339,3.223A4.558,4.558,0,0,0,29.323,104.748Z" transform="translate(-9.932 -51.513)" fill="#004e3d"/>
      <path id="Path_930878" data-name="Path 930878" d="M15.391,65.189a.991.991,0,0,1,1.982,0V79.307a.991.991,0,0,1-1.982,0Zm23.6,0a.983.983,0,0,1,.977-.991,1,1,0,0,1,.991.991V79.307a.983.983,0,0,1-.991.977A.97.97,0,0,1,39,79.307Zm-5.9,5.343a.97.97,0,0,1,.976-.977.983.983,0,0,1,.991.977v8.775a.983.983,0,0,1-.991.977.97.97,0,0,1-.976-.976Zm-5.9,1.716a.994.994,0,0,1,.991-.99.982.982,0,0,1,.977.99v7.059a.971.971,0,0,1-.977.977.983.983,0,0,1-.991-.977Zm-5.9-7.058a1,1,0,0,1,.991-.991.982.982,0,0,1,.977.991V79.307a.971.971,0,0,1-.977.977.983.983,0,0,1-.991-.977Z" transform="translate(-7.816 -32.601)" fill="#004e3d"/>
      <path id="Path_930879" data-name="Path 930879" d="M40.576,22.86a.984.984,0,1,1,1.283-1.493l1.311,1.13,2.26-3.278a.972.972,0,0,1,1.367-.265.984.984,0,0,1,.252,1.367L44.189,24.5a.6.6,0,0,0-.07.1.975.975,0,0,1-1.381.1Z" transform="translate(-20.431 -9.537)" fill="#004e3d"/>
      <path id="Path_930880" data-name="Path 930880" d="M51.218,26.087a.982.982,0,0,1-.976-.991.97.97,0,0,1,.976-.976h7.8a.97.97,0,0,1,.977.976.983.983,0,0,1-.977.991Zm-46.26,4.9a.982.982,0,0,1-.99-.976.994.994,0,0,1,.99-.99h5.58a1,1,0,0,1,.991.99.983.983,0,0,1-.991.976Zm37.108,0a.97.97,0,0,1-.977-.976.982.982,0,0,1,.977-.99H53.241a1,1,0,0,1,.991.99.983.983,0,0,1-.991.976Z" transform="translate(-2.015 -12.248)" fill="#004e3d"/>
      <path id="Path_930881" data-name="Path 930881" d="M34.36,49.442a.982.982,0,0,1-.976-.99.971.971,0,0,1,.976-.977H36.2A4.937,4.937,0,0,1,39.675,48.9a4.806,4.806,0,0,1,1.451,3.432V77.916a2.907,2.907,0,0,1-.879,2.092,3.008,3.008,0,0,1-2.106.865H25.348a.983.983,0,0,1-.991-.977,1,1,0,0,1,.991-.991H38.141a1.011,1.011,0,0,0,.725-.293.967.967,0,0,0,.293-.7V52.33a2.814,2.814,0,0,0-.864-2.037,2.94,2.94,0,0,0-2.093-.851ZM6.208,78.905A1,1,0,0,1,7.2,79.9a.982.982,0,0,1-.991.977H2.986a2.975,2.975,0,0,1-2.093-.865A2.865,2.865,0,0,1,0,77.915V52.33A4.806,4.806,0,0,1,1.451,48.9a5,5,0,0,1,3.488-1.423H11.16a.983.983,0,0,1,.991.977.994.994,0,0,1-.991.99H4.939a3,3,0,0,0-2.107.851,2.846,2.846,0,0,0-.865,2.037V77.915a.969.969,0,0,0,.293.7,1.035,1.035,0,0,0,.726.293H6.208Z" transform="translate(0 -24.108)" fill="#004e3d"/>
    </g>
  </g>
</svg>
