<svg xmlns="http://www.w3.org/2000/svg" width="110" height="110" viewBox="0 0 110 110">
  <g id="img34_1" transform="translate(-704.668 -6155)">
    <path id="Path_925100" data-name="Path 925100" d="M12.222,0H97.778A12.222,12.222,0,0,1,110,12.222V97.778A12.222,12.222,0,0,1,97.778,110H12.222A12.222,12.222,0,0,1,0,97.778V12.222A12.222,12.222,0,0,1,12.222,0Z" transform="translate(704.668 6155)" fill="#dae4e3"/>
    <g id="Group_1177086" data-name="Group 1177086" transform="translate(702.953 6172)">
      <g id="Group_1177084" data-name="Group 1177084" transform="translate(23.814 1.099)">
        <path id="Path_932748" data-name="Path 932748" d="M74.312,120.426H33.878a3.663,3.663,0,0,1-3.663-3.663v-58.6A3.663,3.663,0,0,1,33.878,54.5H74.312a3.663,3.663,0,0,1,3.663,3.663v58.6A3.663,3.663,0,0,1,74.312,120.426Z" transform="translate(-30.215 -47.614)" fill="#e29a6c"/>
        <path id="Path_932749" data-name="Path 932749" d="M309.268,58.163v58.6a3.662,3.662,0,0,1-3.663,3.663h-4.4a3.662,3.662,0,0,0,3.663-3.663v-58.6A3.662,3.662,0,0,0,301.21,54.5h4.4A3.662,3.662,0,0,1,309.268,58.163Z" transform="translate(-261.509 -47.614)" fill="#ce845c"/>
        <path id="Path_932750" data-name="Path 932750" d="M98.452,141.636h-37.5a.733.733,0,0,1-.733-.733V85.233a.733.733,0,0,1,.733-.733h37.5a.733.733,0,0,1,.733.733V140.9A.733.733,0,0,1,98.452,141.636Z" transform="translate(-55.82 -73.219)" fill="#fff"/>
        <path id="Path_932751" data-name="Path 932751" d="M170.54,23.176h-5.86a1.465,1.465,0,0,1-1.465-1.465V8.965A1.465,1.465,0,0,1,164.68,7.5h5.86a1.465,1.465,0,0,1,1.465,1.465V21.711A1.465,1.465,0,0,1,170.54,23.176Z" transform="translate(-143.73 -7.5)" fill="#bcf1f8"/>
        <path id="Path_932752" data-name="Path 932752" d="M189.07,8.965V21.711a1.465,1.465,0,0,1-1.465,1.465h-4.4a1.465,1.465,0,0,0,1.465-1.465V8.965A1.465,1.465,0,0,0,183.21,7.5h4.4A1.465,1.465,0,0,1,189.07,8.965Z" transform="translate(-160.796 -7.5)" fill="#8ef0f0"/>
        <path id="Path_932753" data-name="Path 932753" d="M124.808,28.9h-6.593V27.43a2.93,2.93,0,0,1,2.93-2.93h3.663Z" transform="translate(-105.323 -22.009)" fill="#7de8f9"/>
        <path id="Path_932754" data-name="Path 932754" d="M229.808,28.9h-6.593V24.5h3.663a2.93,2.93,0,0,1,2.93,2.93Z" transform="translate(-194.94 -22.009)" fill="#7de8f9"/>
        <path id="Path_932755" data-name="Path 932755" d="M229.8,27.43V28.9h-4.4V27.43a2.931,2.931,0,0,0-2.2-2.838V24.5h3.663A2.929,2.929,0,0,1,229.8,27.43Z" transform="translate(-194.936 -22.009)" fill="#00ddf9"/>
        <path id="Path_932756" data-name="Path 932756" d="M119.662,162.227H90.948a.733.733,0,0,1-.733-.732V145.233a.733.733,0,0,1,.733-.733h28.714a.733.733,0,0,1,.733.733v16.262A.733.733,0,0,1,119.662,162.227Z" transform="translate(-81.425 -124.429)" fill="#baf39a"/>
        <path id="Path_932757" data-name="Path 932757" d="M281.21,167.641l7.072-1.725a5.762,5.762,0,0,1,3.084.084A14.2,14.2,0,1,0,282,156.547a5.777,5.777,0,0,1,.07,3.037l-1.749,7.173A.733.733,0,0,0,281.21,167.641Z" transform="translate(-243.665 -119.074)" fill="#fcf1f2"/>
        <path id="Path_932758" data-name="Path 932758" d="M386.185,152.431a14.218,14.218,0,0,1-16.41,14.041,14.212,14.212,0,0,0,0-28.082,14.212,14.212,0,0,1,16.408,14.041Z" transform="translate(-320.029 -119.069)" fill="#f4e5e0"/>
        <path id="Path_932759" data-name="Path 932759" d="M347.564,197.235a4.32,4.32,0,0,0-7.308-3.121.624.624,0,0,1-.865,0,4.32,4.32,0,0,0-7.308,3.121v.135c0,4.275,6.89,8.984,7.741,8.984s7.741-4.709,7.741-8.984Z" transform="translate(-287.859 -165.75)" fill="#ff8d95"/>
        <path id="Path_932760" data-name="Path 932760" d="M379.857,197.232v.135c0,2.137-1.721,4.383-3.551,6.1a12.861,12.861,0,0,1-4.189,2.889,6.788,6.788,0,0,1-2.2-1.242,21.345,21.345,0,0,0,1.991-1.647c1.83-1.713,3.551-3.958,3.551-6.1v-.135a4.316,4.316,0,0,0-2.121-3.72,4.168,4.168,0,0,1,.56-.281,4.323,4.323,0,0,1,5.957,4Z" transform="translate(-320.152 -165.747)" fill="#ff738a"/>
      </g>
      <g id="Group_1177085" data-name="Group 1177085" transform="translate(22.715)">
        <path id="Path_932761" data-name="Path 932761" d="M75.759,19.151a15.321,15.321,0,0,0-3.087.313V11.647a4.767,4.767,0,0,0-4.761-4.761H59.78V6.519a4.033,4.033,0,0,0-4.029-4.029H53.184A2.565,2.565,0,0,0,50.624,0h-5.86A2.565,2.565,0,0,0,42.2,2.491H39.636a4.033,4.033,0,0,0-4.029,4.029v.366H27.476a4.767,4.767,0,0,0-4.761,4.761v58.6a4.767,4.767,0,0,0,4.761,4.761h27.34a1.1,1.1,0,1,0,0-2.2H27.476a2.567,2.567,0,0,1-2.564-2.564v-58.6a2.567,2.567,0,0,1,2.564-2.564H42.2v2.2H28.941a1.833,1.833,0,0,0-1.831,1.831V21.17a1.1,1.1,0,1,0,2.2,0V13.478H42.2v1.831a2.567,2.567,0,0,0,2.564,2.564h5.86a2.567,2.567,0,0,0,2.564-2.564V13.478H66.08v9.131a15.436,15.436,0,0,0-2.2,2.2V21.9a1.833,1.833,0,0,0-1.831-1.831H33.336A1.833,1.833,0,0,0,31.505,21.9V38.164A1.833,1.833,0,0,0,33.336,40h27.95a4.785,4.785,0,0,1-.131,1.353l-1.242,5.093H45.936a1.1,1.1,0,1,0,0,2.2h13.45a1.827,1.827,0,0,0,2.234,2.1l4.46-1.088v18.77H29.308V26.3a1.1,1.1,0,0,0-2.2,0V68.783a1.833,1.833,0,0,0,1.831,1.831h37.5a1.833,1.833,0,0,0,1.831-1.831V49.11l.414-.1a4.743,4.743,0,0,1,1.784-.092v21.33a2.567,2.567,0,0,1-2.564,2.564H59.944a1.1,1.1,0,0,0,0,2.2h7.967a4.767,4.767,0,0,0,4.761-4.761V49.456a15.309,15.309,0,1,0,3.087-30.3ZM57.583,6.519v.366h-4.4v-2.2h2.564A1.833,1.833,0,0,1,57.583,6.519ZM37.8,6.886V6.519a1.833,1.833,0,0,1,1.831-1.831H42.2v2.2ZM50.99,15.309a.367.367,0,0,1-.366.366h-5.86a.367.367,0,0,1-.366-.366V2.564a.367.367,0,0,1,.366-.366h5.86a.367.367,0,0,1,.366.366Zm15.456-4.029H53.187v-2.2H67.911a2.567,2.567,0,0,1,2.564,2.564v8.445a15.245,15.245,0,0,0-2.2,1.017v-8A1.833,1.833,0,0,0,66.446,11.281ZM33.7,22.268H61.685v6.117c0,.016,0,.032,0,.048a15.338,15.338,0,0,0-.872,9.364H33.7Zm42.056,25.3a13.106,13.106,0,0,1-3.917-.6,6.857,6.857,0,0,0-3.672-.1l-6.486,1.582,1.607-6.587a6.879,6.879,0,0,0-.086-3.615,13.114,13.114,0,1,1,12.554,9.319Z" transform="translate(-22.715)"/>
        <path id="Path_932762" data-name="Path 932762" d="M135.2,168.733h-1.99a1.1,1.1,0,0,0-.967.577l-1.445,2.675-2.5-7.509a1.106,1.106,0,0,0-2.045-.1l-1.949,4.359H122.24a1.1,1.1,0,0,0-.993.629l-.677,1.434-1.97-5.748a1.1,1.1,0,0,0-2.111.112l-.813,3.572h-1.861a1.1,1.1,0,1,0,0,2.2h2.737a1.1,1.1,0,0,0,1.071-.855l.15-.659,1.594,4.651a1.106,1.106,0,0,0,2.033.113l1.536-3.25h2.081a1.1,1.1,0,0,0,1-.65l1.087-2.432,2.413,7.239a1.106,1.106,0,0,0,2.009.175l2.34-4.331H135.2a1.1,1.1,0,0,0,0-2.2Z" transform="translate(-99.53 -139.748)"/>
        <path id="Path_932763" data-name="Path 932763" d="M174.814,424.2h8.914a1.1,1.1,0,0,0,0-2.2h-8.914a1.1,1.1,0,0,0,0,2.2Z" transform="translate(-151.593 -360.176)"/>
        <path id="Path_932764" data-name="Path 932764" d="M174.814,394.2h16.848a1.1,1.1,0,1,0,0-2.2H174.814a1.1,1.1,0,0,0,0,2.2Z" transform="translate(-151.593 -334.571)"/>
        <path id="Path_932765" data-name="Path 932765" d="M83.192,384.2l2.47,2.47a1.1,1.1,0,0,0,1.546.008l6.588-6.451a1.1,1.1,0,1,0-1.538-1.57l-5.811,5.691-1.7-1.7a1.1,1.1,0,0,0-1.554,1.554Z" transform="translate(-74.057 -322.913)"/>
        <path id="Path_932766" data-name="Path 932766" d="M174.814,349.2h8.914a1.1,1.1,0,0,0,0-2.2h-8.914a1.1,1.1,0,0,0,0,2.2Z" transform="translate(-151.593 -296.164)"/>
        <path id="Path_932767" data-name="Path 932767" d="M85.664,311.669a1.1,1.1,0,0,0,1.546.008l6.588-6.451a1.1,1.1,0,1,0-1.538-1.57l-5.811,5.691-1.7-1.7a1.1,1.1,0,1,0-1.554,1.554Z" transform="translate(-74.059 -258.901)"/>
        <path id="Path_932768" data-name="Path 932768" d="M336.842,185.414a5.389,5.389,0,0,0-3.419,1.216,5.419,5.419,0,0,0-8.839,4.2v.135c0,2.685,2.12,5.233,3.9,6.9,1.413,1.323,3.88,3.185,4.94,3.185s3.527-1.863,4.94-3.185c1.779-1.665,3.9-4.213,3.9-6.9v-.135A5.426,5.426,0,0,0,336.842,185.414Zm3.222,5.555c0,3.224-5.231,7.215-6.642,7.84-1.411-.625-6.642-4.617-6.642-7.84v-.135a3.221,3.221,0,0,1,5.449-2.328,1.72,1.72,0,0,0,2.385,0,3.221,3.221,0,0,1,5.45,2.327v.135Z" transform="translate(-280.359 -158.25)"/>
      </g>
    </g>
  </g>
</svg>
