<svg xmlns="http://www.w3.org/2000/svg" width="110" height="110" viewBox="0 0 110 110">
  <g id="img32_1" transform="translate(-704.668 -6155)">
    <path id="Path_925100" data-name="Path 925100" d="M12.222,0H97.778A12.222,12.222,0,0,1,110,12.222V97.778A12.222,12.222,0,0,1,97.778,110H12.222A12.222,12.222,0,0,1,0,97.778V12.222A12.222,12.222,0,0,1,12.222,0Z" transform="translate(704.668 6155)" fill="#dae4e3"/>
    <g id="Group_1177082" data-name="Group 1177082" transform="translate(778.454 6231.656)">
      <g id="Group_1177075" data-name="Group 1177075" transform="translate(-8.078 -8.429)">
        <path id="Path_932739" data-name="Path 932739" d="M340.185,340.988a7.362,7.362,0,0,1-10.307,0l-14.31-14.31,10.307-10.307,14.31,14.31A7.289,7.289,0,0,1,340.185,340.988Z" transform="translate(-315.568 -316.371)" fill="#eab7a2"/>
      </g>
      <g id="Group_1177076" data-name="Group 1177076" transform="translate(-62.496 -63.042)">
        <circle id="Ellipse_13573" data-name="Ellipse 13573" cx="25.397" cy="25.397" r="25.397" transform="translate(0 35.912) rotate(-45)" fill="#b7bcce"/>
      </g>
      <g id="Group_1177077" data-name="Group 1177077" transform="translate(-45.498 -46.058)">
        <path id="Path_932740" data-name="Path 932740" d="M74.514,92.8A18.928,18.928,0,1,1,87.9,60.491a19.1,19.1,0,0,1,0,26.769A18.8,18.8,0,0,1,74.514,92.8Z" transform="translate(-55.595 -54.947)" fill="#bedaff"/>
      </g>
      <g id="Group_1177078" data-name="Group 1177078" transform="translate(-12.324 -12.688)">
        <path id="Path_932741" data-name="Path 932741" d="M298.795,292.866l-6.613,6.611-6.116-6.117a25.561,25.561,0,0,0,6.642-6.581Z" transform="translate(-286.066 -286.779)" fill="#fff"/>
      </g>
      <g id="Group_1177079" data-name="Group 1177079" transform="translate(-39.636 -33.389)">
        <path id="Path_932742" data-name="Path 932742" d="M109.437,142.962c-7.745,0-13.114,6.6-13.114,6.6s5.369,6.6,13.114,6.6,13.114-6.6,13.114-6.6S117.183,142.962,109.437,142.962Z" transform="translate(-96.323 -142.962)" fill="#fff"/>
      </g>
      <g id="Group_1177080" data-name="Group 1177080" transform="translate(-31.981 -32.248)">
        <circle id="Ellipse_13574" data-name="Ellipse 13574" cx="5.46" cy="5.46" r="5.46" fill="#868eaf"/>
      </g>
      <g id="Group_1177081" data-name="Group 1177081" transform="translate(-53.385 -53.967)">
        <path id="Path_932743" data-name="Path 932743" d="M80.357,85.88a20.558,20.558,0,0,0,0-28.805,20.178,20.178,0,0,0-7.725-4.849,1.44,1.44,0,0,0-.942,2.722,17.318,17.318,0,0,1,6.63,4.164,17.488,17.488,0,1,1-24.732,0,17.322,17.322,0,0,1,6.585-4.148,1.44,1.44,0,1,0-.949-2.719,20.182,20.182,0,0,0-7.672,4.831A20.368,20.368,0,0,0,80.357,85.88Z" transform="translate(-39.149 -44.64)"/>
        <path id="Path_932744" data-name="Path 932744" d="M71.747,58.83,57.437,44.52a1.454,1.454,0,0,0-2.037,0l-.808.808-4.235-4.235A27.077,27.077,0,0,0,46.586,7.86a26.838,26.838,0,0,0-37.954,0,26.789,26.789,0,0,0,0,37.954A27.076,27.076,0,0,0,41.672,49.7l4.271,4.272-.851.851a1.44,1.44,0,0,0,0,2.037L59.4,71.174A8.728,8.728,0,1,0,71.747,58.83ZM10.669,43.778a24.18,24.18,0,0,1,0-33.88,23.957,23.957,0,0,1,33.881,0,24.171,24.171,0,0,1,2.781,30.551,26.723,26.723,0,0,1-6.314,6.25,24.171,24.171,0,0,1-30.348-2.921Zm33.406,4.257a29.338,29.338,0,0,0,4.593-4.557l3.888,3.888L47.98,51.941Zm25.635,21.1a5.9,5.9,0,0,1-8.271,0L48.148,55.846l8.271-8.271L69.71,60.867A5.9,5.9,0,0,1,69.71,69.138Z" transform="translate(-0.804)"/>
        <path id="Path_932745" data-name="Path 932745" d="M86.642,140.09a1.44,1.44,0,0,0,0,1.817c.237.291,5.9,7.133,14.231,7.133s13.995-6.841,14.232-7.133a1.44,1.44,0,0,0,0-1.817c-.237-.291-5.9-7.133-14.232-7.133S86.878,139.8,86.642,140.09Zm14.231,4.928a4.02,4.02,0,1,1,4.02-4.02A4.024,4.024,0,0,1,100.873,145.018Zm-5.747-7.833a6.881,6.881,0,0,0,0,7.626,19.968,19.968,0,0,1-5.4-3.813A19.97,19.97,0,0,1,95.127,137.185Zm11.493,7.626a6.881,6.881,0,0,0,0-7.626,19.967,19.967,0,0,1,5.4,3.813A19.967,19.967,0,0,1,106.62,144.811Z" transform="translate(-74.01 -113.819)"/>
        <path id="Path_932746" data-name="Path 932746" d="M175.181,173.8a1.439,1.439,0,1,0-.779,1.881A1.452,1.452,0,0,0,175.181,173.8Z" transform="translate(-147.712 -148.025)"/>
        <path id="Path_932747" data-name="Path 932747" d="M177.16,46.954a1.439,1.439,0,1,0,.779-1.881A1.455,1.455,0,0,0,177.16,46.954Z" transform="translate(-151.684 -38.494)"/>
      </g>
    </g>
  </g>
</svg>
