<svg xmlns="http://www.w3.org/2000/svg" width="110" height="110" viewBox="0 0 110 110">
  <g id="img33" transform="translate(-704.668 -6155)">
    <path id="Path_925100" data-name="Path 925100" d="M12.222,0H97.778A12.222,12.222,0,0,1,110,12.222V97.778A12.222,12.222,0,0,1,97.778,110H12.222A12.222,12.222,0,0,1,0,97.778V12.222A12.222,12.222,0,0,1,12.222,0Z" transform="translate(704.668 6155)" fill="#ff955e"/>
    <g id="layer1" transform="translate(728.184 6178.517)">
      <path id="path7833" d="M4.275.265A2.945,2.945,0,0,0,1.323,3.216V36.668a2.945,2.945,0,0,0,2.952,2.952H55.435a2.945,2.945,0,0,0,2.952-2.952V3.216A2.945,2.945,0,0,0,55.435.265Z" transform="translate(3.596 0.719)" fill="#549ad4"/>
      <path id="path7863" d="M52.088.265C55.114,37.756,2.561,38.635,2.561,38.635l-.607.92a2.976,2.976,0,0,0,.607.063H53.721a2.945,2.945,0,0,0,2.952-2.952V3.216A2.945,2.945,0,0,0,53.721.265Z" transform="translate(5.31 0.719)" fill="#3588cb"/>
      <path id="path7838" d="M4.722,1.359A2.336,2.336,0,0,0,2.381,3.7v26.53a2.336,2.336,0,0,0,2.341,2.341H49.233a2.336,2.336,0,0,0,2.341-2.341V3.7a2.336,2.336,0,0,0-2.341-2.341Z" transform="translate(6.474 3.696)" fill="#e4eff8"/>
      <path id="path7858" d="M48.476,1.36C47.38,24.94,17.321,30.215,2.466,31.385A2.327,2.327,0,0,0,4.493,32.57H49a2.335,2.335,0,0,0,2.341-2.341V3.7A2.335,2.335,0,0,0,49,1.36Z" transform="translate(6.703 3.696)" fill="#c4dcf0"/>
      <path id="path7816" d="M17.96,34.617,10.7,20.079a2.51,2.51,0,0,1,.9-3.36,2.454,2.454,0,0,1,3.36.9l3,5.192V8.053a1.968,1.968,0,1,1,3.935,0v8.855a1.968,1.968,0,1,1,3.935,0v.984a1.968,1.968,0,0,1,3.935,0v.984a1.968,1.968,0,1,1,3.935,0V27.73c0,2.952-1.968,4.919-1.968,6.887Z" transform="translate(28.281 16.543)" fill="#ffd1b5"/>
      <path id="path7828" d="M24.5,9C24.87,23.635,14.36,26.416,13.112,26.7H24.369c0-1.968,1.968-3.935,1.968-6.887V10.954A1.957,1.957,0,0,0,24.5,9Z" transform="translate(35.646 24.465)" fill="#ffb98d"/>
      <path id="path7825" d="M13,8.862a2.455,2.455,0,0,0-1.4.325,2.511,2.511,0,0,0-.9,3.361l7.258,14.539h1.968L12.67,12.547a2.511,2.511,0,0,1,.9-3.361,2.433,2.433,0,0,1,.256-.115A2.457,2.457,0,0,0,13,8.862Z" transform="translate(28.281 24.075)" fill="#f5f9fb"/>
      <path id="path7790" d="M4.162,5.671a4.93,4.93,0,0,0-3.9,5.138V19.18c0,2.79,2.952,8.693,2.952,10.661v3.935H18.149c0-1.962,2.1-4.905,2.108-8.855H12.991c-.49-4.067-3.872-5.059-3.872-6.887v-4.22C9.014,10.325,6.588,8.826,5.184,9.3V6.891Z" transform="translate(0.719 15.417)" fill="#ffd1b5"/>
      <path id="path7820" d="M4.162,5.671a4.93,4.93,0,0,0-3.9,5.138V19.18c0,2.79,2.952,8.693,2.952,10.661v3.935H5.184V29.841c0-1.968-2.952-7.871-2.952-10.661V10.809A5.189,5.189,0,0,1,4.625,6.222Z" transform="translate(0.719 15.417)" fill="#f5f9fb"/>
      <path id="path7810" d="M15.9,10.848C12.5,17.677,1.058,19.7,1.058,19.7H15.991c0-1.962,2.1-4.905,2.108-8.855Z" transform="translate(2.877 29.49)" fill="#ffb98d"/>
      <path id="rect7783" d="M13.874,13.758H27.648a1.963,1.963,0,0,1,1.968,1.968v6.887a1.963,1.963,0,0,1-1.968,1.968H13.874a1.963,1.963,0,0,1-1.968-1.968V15.726a1.963,1.963,0,0,1,1.968-1.968Z" transform="translate(32.368 37.403)" fill="#549ad4"/>
      <path id="path7785" d="M28.33,13.8c-1.813,7.263-11.57,9.27-16.4,9.27a1.957,1.957,0,0,0,1.877,1.4H27.582A1.963,1.963,0,0,0,29.55,22.5V15.618a1.963,1.963,0,0,0-1.22-1.82Z" transform="translate(32.434 37.511)" fill="#3588cb"/>
      <path id="path7787" d="M13.874,13.841a1.963,1.963,0,0,0-1.968,1.968v6.58a1.963,1.963,0,0,0,1.968,1.968h1.968a1.963,1.963,0,0,1-1.968-1.968v-6.58a1.963,1.963,0,0,1,1.968-1.968Z" transform="translate(32.368 37.627)" fill="#f5f9fb"/>
      <path id="rect7771" d="M2.761,13.229H16.536A1.963,1.963,0,0,1,18.5,15.2v8.855a1.963,1.963,0,0,1-1.968,1.968H2.761A1.963,1.963,0,0,1,.794,24.052V15.2A1.963,1.963,0,0,1,2.761,13.229Z" transform="translate(2.158 35.964)" fill="#549ad4"/>
      <path id="path7773" d="M17.217,13.269C15.4,20.532,5.168,23.535.818,24.507a1.957,1.957,0,0,0,1.877,1.4H16.47a1.963,1.963,0,0,0,1.968-1.968V15.089a1.963,1.963,0,0,0-1.22-1.82Z" transform="translate(2.224 36.072)" fill="#3588cb"/>
      <path id="rect7780" d="M2.761,13.229A1.963,1.963,0,0,0,.794,15.2v8.855a1.963,1.963,0,0,0,1.968,1.968H4.729a1.963,1.963,0,0,1-1.968-1.968V15.2a1.963,1.963,0,0,1,1.968-1.968Z" transform="translate(2.158 35.964)" fill="#f5f9fb"/>
      <path id="path7803" d="M6.653,10.848C6.642,14.8,4.545,17.74,4.545,19.7H6.513c0-1.962,2.1-4.905,2.108-8.855Z" transform="translate(12.356 29.49)" fill="#ffb98d"/>
      <path id="path7808" d="M4.275,11.225v5.2c0,1.828,3.382,2.82,3.872,6.887h1.968c-.49-4.067-3.872-6.043-3.872-7.871v-4.22C6.137,7.736,3.711,6.237,1.323,6.708c.42-.471,2.846,1.028,2.952,4.518Z" transform="translate(3.596 18.006)" fill="#ffb98d"/>
      <path id="path7844" d="M3.44,13.014a9.839,9.839,0,0,1,19.677,0v3.935H3.44Z" transform="translate(9.351 8.631)" fill="#ff5151"/>
      <g id="Group_1177083" data-name="Group 1177083" transform="translate(19.677 8.855)">
        <path id="path7856" d="M5.292,9.756V8.772a2.952,2.952,0,1,1,5.9,0v.984Z" transform="translate(-5.292 6.969)" fill="#ffca28"/>
        <path id="rect7840" d="M1.968,5.9A1.963,1.963,0,0,0,3.935,3.935V1.968A1.968,1.968,0,1,0,0,1.968V3.935A1.963,1.963,0,0,0,1.968,5.9Z" transform="translate(30.5 5.903) rotate(180)" fill="#ffca28"/>
        <path id="rect7842" d="M12.286,4.233A1.963,1.963,0,0,1,14.254,6.2V8.169a1.968,1.968,0,0,1-3.935,0V6.2A1.963,1.963,0,0,1,12.286,4.233Z" transform="translate(8.375 2.654)" fill="#ffca28"/>
      </g>
      <path id="path7848" d="M7.524,3.175a9.883,9.883,0,0,0-1.968.2,9.841,9.841,0,0,1,7.871,9.641v3.935h3.935V13.014A9.839,9.839,0,0,0,7.524,3.175Z" transform="translate(15.105 8.631)" fill="#ff2929"/>
      <path id="path7853" d="M13.278,3.175A9.839,9.839,0,0,0,3.44,13.014v3.935H5.407V13.014a9.841,9.841,0,0,1,8.855-9.791q-.486-.048-.984-.048Z" transform="translate(9.351 8.631)" fill="#f5f9fb"/>
      <path id="rect820" d="M7.873,0A3.95,3.95,0,0,0,3.937,3.937V20.325A5.5,5.5,0,0,0,.951,22.681,6.849,6.849,0,0,0,0,26.226V34.6a19.972,19.972,0,0,0,1.532,5.963c.371,1.04.736,2.048,1,2.89a8.4,8.4,0,0,1,.413,1.8V48.97a2.944,2.944,0,0,0-.98,2.187V60.01a2.97,2.97,0,0,0,2.95,2.957H18.7a2.969,2.969,0,0,0,2.948-2.957V51.157a2.962,2.962,0,0,0-1.685-2.66c.168-.673.511-1.6.894-2.671a17.512,17.512,0,0,0,1.068-4.5H40.227l4.6,9.214a2.96,2.96,0,0,0-1.539,2.586V60.01a2.969,2.969,0,0,0,2.948,2.957H60.01a2.977,2.977,0,0,0,2.957-2.957V53.125A2.968,2.968,0,0,0,61.128,50.4a16.865,16.865,0,0,1,.771-1.914,10.123,10.123,0,0,0,1.068-4.212V3.937A3.952,3.952,0,0,0,59.03,0Zm0,1.968H59.03A1.944,1.944,0,0,1,61,3.937v28.7a2.732,2.732,0,0,0-.988-.173,2.577,2.577,0,0,0-.98.179V6.885a2.961,2.961,0,0,0-2.948-2.948H10.82A2.961,2.961,0,0,0,7.873,6.885V23.974c-.06-.026-.12-.054-.181-.079A3.171,3.171,0,0,0,5.9,23.684V3.937a1.944,1.944,0,0,1,1.968-1.97Zm1.968,23.8V6.885a.955.955,0,0,1,.98-.98H56.082a.955.955,0,0,1,.98.98V31.66a2.609,2.609,0,0,0-.98-.177,2.842,2.842,0,0,0-1.459.379A2.925,2.925,0,0,0,52.145,30.5a3.127,3.127,0,0,0-.988.171v-4.1H54.1a.985.985,0,0,0,0-1.97H51.157a2.953,2.953,0,1,0-5.905,0H36.4a.985.985,0,0,0,0,1.97h8.853V35.68l-1.161-2.01a3.455,3.455,0,0,0-4.7-1.264,3.411,3.411,0,0,0-1.683,3.013H12.348c-.453-.5-.864-.9-1.134-1.228-.307-.372-.394-.573-.394-.738V29.217a6.783,6.783,0,0,0-.98-3.454ZM48.209,7.873a2.969,2.969,0,0,0-2.957,2.948H36.4a.985.985,0,0,0,0,1.97h8.853a2.953,2.953,0,0,0,5.905,0h2.955a.985.985,0,0,0,0-1.97H51.157a2.961,2.961,0,0,0-2.948-2.948Zm0,1.968a.955.955,0,0,1,.98.98v1.97a.985.985,0,1,1-1.97,0v-1.97A.963.963,0,0,1,48.209,9.841Zm-25.579.98A10.836,10.836,0,0,0,11.81,21.643v3.935a.984.984,0,0,0,.98.99H32.462a.984.984,0,0,0,.99-.99V21.643A10.836,10.836,0,0,0,22.631,10.821Zm-.988,2.023v.934a.984.984,0,0,0,1.968,0v-.934a8.81,8.81,0,0,1,4.548,1.875l-.663.663a.986.986,0,0,0,1.4,1.4l.663-.663a8.806,8.806,0,0,1,1.874,4.548H30.5a.984.984,0,1,0,0,1.968h.978V24.6H26.568a3.918,3.918,0,0,0-.965-2.571l1.655-1.655a.981.981,0,1,0-1.387-1.387l-1.918,1.908a3.893,3.893,0,0,0-1.322-.231A3.951,3.951,0,0,0,18.7,24.6H13.778V22.631h.98a.984.984,0,0,0,0-1.968h-.926a8.809,8.809,0,0,1,1.875-4.548l.663.663a.984.984,0,0,0,1.387-1.4l-.659-.659a8.808,8.808,0,0,1,4.545-1.879Zm18.692,1.914a2.961,2.961,0,0,0-2.948,2.948H36.4a.985.985,0,0,0,0,1.97h.988a2.953,2.953,0,1,0,5.905,0H54.112a.985.985,0,0,0,0-1.97H43.292a2.969,2.969,0,0,0-2.957-2.948Zm0,1.968a.963.963,0,0,1,.99.98v1.97a.985.985,0,1,1-1.97,0v-1.97A.955.955,0,0,1,40.334,16.726Zm-36.4,5.719V33.457a.984.984,0,0,0,1.968,0V26.276c0-.473.107-.54.233-.609a1.015,1.015,0,0,1,.813.05c.791.321,1.838,1.4,1.9,3.543v4.191a3.154,3.154,0,0,0,.844,2c.429.521.916.975,1.372,1.489a6,6,0,0,1,1.722,4.387.984.984,0,0,0,1.968,0h5.186A15.936,15.936,0,0,1,19,45.165a20.111,20.111,0,0,0-.842,3.044H4.917V45.252a8.114,8.114,0,0,0-.5-2.4c-.287-.906-.665-1.917-1.032-2.948A21.956,21.956,0,0,1,1.968,34.6V26.226A5.051,5.051,0,0,1,2.629,23.7a3.321,3.321,0,0,1,1.309-1.255Zm18.693.186A1.953,1.953,0,0,1,24.6,24.6H20.663a1.953,1.953,0,0,1,1.968-1.968ZM49.189,24.6V37.387a.984.984,0,0,0,1.968,0V33.451a.984.984,0,1,1,1.968,0v3.935a.984.984,0,0,0,1.968,0V34.431a.985.985,0,0,1,1.97,0v2.955a.984.984,0,0,0,1.968,0V35.419a.984.984,0,1,1,1.968,0v8.853a8.242,8.242,0,0,1-.9,3.413,12.774,12.774,0,0,0-.961,2.492H46.849l-6.985-14a1.5,1.5,0,0,1,.507-2.071,1.455,1.455,0,0,1,2.02.538l3,5.192a.984.984,0,0,0,1.829-.486c0-4.917,0-9.844,0-14.756a.985.985,0,1,1,1.97,0Zm-35.4,12.788H38.261l.982,1.968H14.533a7.917,7.917,0,0,0-.748-1.968ZM4.917,50.177H18.7a.955.955,0,0,1,.98.98V60.01A.961.961,0,0,1,18.7,61H4.917a.961.961,0,0,1-.98-.988V51.157a.955.955,0,0,1,.98-.98ZM46.24,52.145H60.01a.961.961,0,0,1,.988.98V60.01A.967.967,0,0,1,60.01,61H46.24a.967.967,0,0,1-.988-.988V53.125a.961.961,0,0,1,.988-.98Z" transform="translate(0 0)"/>
    </g>
  </g>
</svg>
