<svg xmlns="http://www.w3.org/2000/svg" width="223" height="124.861" viewBox="0 0 223 124.861">
  <g id="img30" transform="translate(-197.711 -14378.139)">
    <rect id="Rectangle_454107" data-name="Rectangle 454107" width="223" height="82" rx="10" transform="translate(197.711 14421)" fill="#b2be91"/>
    <g id="Group_1176827" data-name="Group 1176827" transform="translate(11226.063 12386.829)">
      <g id="Group_1176806" data-name="Group 1176806" transform="translate(-11019.353 1991.31)">
        <path id="Path_930772" data-name="Path 930772" d="M370.473,74.947h-5.86V55.721a2.411,2.411,0,0,1,2.411-2.411h1.039a2.411,2.411,0,0,1,2.411,2.411V74.947Z" transform="translate(-261.839 -53.31)" fill="#647484"/>
        <g id="Group_1176786" data-name="Group 1176786" transform="translate(106.38 97.815)">
          <ellipse id="Ellipse_13554" data-name="Ellipse 13554" cx="10.142" cy="13.298" rx="10.142" ry="13.298" transform="translate(37.864)" fill="#19283b"/>
          <rect id="Rectangle_454499" data-name="Rectangle 454499" width="11.269" height="26.595" transform="translate(47.781 26.595) rotate(180)" fill="#19283b"/>
          <ellipse id="Ellipse_13555" data-name="Ellipse 13555" cx="10.142" cy="13.298" rx="10.142" ry="13.298" transform="translate(26.595)" fill="#0c1723"/>
          <path id="Path_930773" data-name="Path 930773" d="M412.173,341.177H375.9a1.925,1.925,0,0,1-1.925-1.925v-.658a1.925,1.925,0,0,1,1.925-1.925h36.268a1.925,1.925,0,0,1,1.925,1.925v.658A1.924,1.924,0,0,1,412.173,341.177Z" transform="translate(-373.98 -325.4)" fill="#788896"/>
        </g>
        <g id="Group_1176787" data-name="Group 1176787" transform="translate(14.424 97.815)">
          <ellipse id="Ellipse_13556" data-name="Ellipse 13556" cx="10.142" cy="13.298" rx="10.142" ry="13.298" transform="translate(33.807)" fill="#19283b"/>
          <rect id="Rectangle_454500" data-name="Rectangle 454500" width="11.269" height="26.595" transform="translate(44.175 26.595) rotate(180)" fill="#19283b"/>
          <ellipse id="Ellipse_13557" data-name="Ellipse 13557" cx="10.142" cy="13.298" rx="10.142" ry="13.298" transform="translate(22.538)" fill="#0c1723"/>
          <path id="Path_930774" data-name="Path 930774" d="M173.309,341.177H137.041a1.925,1.925,0,0,1-1.925-1.925v-.658a1.925,1.925,0,0,1,1.925-1.925h36.268a1.925,1.925,0,0,1,1.925,1.925v.658A1.925,1.925,0,0,1,173.309,341.177Z" transform="translate(-135.116 -325.4)" fill="#788896"/>
        </g>
        <path id="Path_930775" data-name="Path 930775" d="M175.629,184.879H102.588a4.941,4.941,0,0,1-4.941-4.941V116.8a4.941,4.941,0,0,1,4.941-4.941h73.041Z" transform="translate(-97.647 -89.318)" fill="#ffd302"/>
        <path id="Path_930776" data-name="Path 930776" d="M300.213,184.879h32.906V117.761a5.9,5.9,0,0,0-5.9-5.9h-27Z" transform="translate(-222.231 -89.318)" fill="#f4b537"/>
        <rect id="Rectangle_454501" data-name="Rectangle 454501" width="12.17" height="37.864" transform="translate(99.168 17.129)" fill="#647484"/>
        <rect id="Rectangle_454502" data-name="Rectangle 454502" width="5.409" height="37.864" transform="translate(101.421 17.129)" fill="#8097aa"/>
        <path id="Path_930777" data-name="Path 930777" d="M196.733,287.046H102.687a5.25,5.25,0,0,1-5.04-5.409v2.622a5.055,5.055,0,0,0,5.041,5.041h94.044a5.055,5.055,0,0,0,5.041-5.041v-2.622A5.249,5.249,0,0,1,196.733,287.046Z" transform="translate(-97.647 -193.738)" fill="#f4b537"/>
        <g id="Group_1176788" data-name="Group 1176788" transform="translate(0 90.999)">
          <path id="Path_930778" data-name="Path 930778" d="M267.954,301.542H99.081a1.438,1.438,0,0,0-1.433,1.433v5.247a1.437,1.437,0,0,0,1.433,1.433H267.954a1.438,1.438,0,0,0,1.433-1.433v-5.247A1.437,1.437,0,0,0,267.954,301.542Z" transform="translate(-97.648 -296.98)" fill="#647484"/>
          <path id="Path_930779" data-name="Path 930779" d="M267.709,312.8H99.325a1.72,1.72,0,0,1-1.678-1.749v2.776a1.683,1.683,0,0,0,1.678,1.678H267.709a1.683,1.683,0,0,0,1.678-1.678v-2.776A1.72,1.72,0,0,1,267.709,312.8Z" transform="translate(-97.647 -302.827)" fill="#788896"/>
          <path id="Path_930780" data-name="Path 930780" d="M153.716,302.367H122.783a12.676,12.676,0,0,1,12.676-12.676h5.582a12.676,12.676,0,0,1,12.675,12.676Z" transform="translate(-113.106 -289.691)" fill="#647484"/>
        </g>
        <g id="Group_1176790" data-name="Group 1176790" transform="translate(5.82 41.02)">
          <g id="Group_1176789" data-name="Group 1176789">
            <path id="Path_930781" data-name="Path 930781" d="M177.827,240.3H114.4a1.614,1.614,0,0,1-1.639-1.578h0a1.614,1.614,0,0,1,1.639-1.578h63.424a1.614,1.614,0,0,1,1.639,1.578h0A1.614,1.614,0,0,1,177.827,240.3Z" transform="translate(-112.764 -207.393)" fill="#f28f00"/>
            <path id="Path_930782" data-name="Path 930782" d="M191.418,214.538H136.5a1.614,1.614,0,0,1-1.639-1.578h0a1.614,1.614,0,0,1,1.639-1.578h54.916a1.614,1.614,0,0,1,1.639,1.578h0A1.613,1.613,0,0,1,191.418,214.538Z" transform="translate(-126.356 -191.549)" fill="#f28f00"/>
            <path id="Path_930783" data-name="Path 930783" d="M225.3,188.778H191.593a1.614,1.614,0,0,1-1.639-1.578h0a1.614,1.614,0,0,1,1.639-1.578H225.3a1.614,1.614,0,0,1,1.639,1.578h0A1.613,1.613,0,0,1,225.3,188.778Z" transform="translate(-160.238 -175.706)" fill="#f28f00"/>
            <path id="Path_930784" data-name="Path 930784" d="M258.122,163.018H245.3a1.582,1.582,0,0,1-1.578-1.578h0a1.582,1.582,0,0,1,1.578-1.578h12.819a1.582,1.582,0,0,1,1.578,1.578h0A1.582,1.582,0,0,1,258.122,163.018Z" transform="translate(-193.31 -159.863)" fill="#f28f00"/>
          </g>
        </g>
        <g id="Group_1176791" data-name="Group 1176791" transform="translate(7.212 98.266)">
          <ellipse id="Ellipse_13558" data-name="Ellipse 13558" cx="10.142" cy="13.298" rx="10.142" ry="13.298" transform="translate(11.72)" fill="#19283b"/>
          <rect id="Rectangle_454503" data-name="Rectangle 454503" width="11.269" height="26.595" transform="translate(21.636 26.595) rotate(180)" fill="#19283b"/>
          <ellipse id="Ellipse_13559" data-name="Ellipse 13559" cx="10.142" cy="13.298" rx="10.142" ry="13.298" fill="#494f5b"/>
          <ellipse id="Ellipse_13560" data-name="Ellipse 13560" cx="5.184" cy="8.564" rx="5.184" ry="8.564" transform="translate(4.958 4.508)" fill="#dfe5f5"/>
          <ellipse id="Ellipse_13561" data-name="Ellipse 13561" cx="5.86" cy="9.466" rx="5.86" ry="9.466" transform="translate(4.507 3.606)" fill="#dfe5f5"/>
          <path id="Path_930785" data-name="Path 930785" d="M133.791,318.361a3.384,3.384,0,0,1,1.273.274c-2.357.962-4.57,4.471-4.57,9.206s2.213,8.243,4.57,9.206a3.384,3.384,0,0,1-1.273.274c-2.764,0-5.843-3.893-5.843-9.479S131.027,318.361,133.791,318.361Z" transform="translate(-123.495 -314.591)" fill="#afb6c6"/>
          <ellipse id="Ellipse_13562" data-name="Ellipse 13562" cx="3.381" cy="5.409" rx="3.381" ry="5.409" transform="translate(6.31 7.663)" fill="#f3f7ff"/>
        </g>
        <g id="Group_1176803" data-name="Group 1176803" transform="translate(86.546 34.258)">
          <g id="Group_1176793" data-name="Group 1176793" transform="translate(73.925 25.637)">
            <g id="Group_1176792" data-name="Group 1176792">
              <path id="Path_930786" data-name="Path 930786" d="M536.109,224.143h0a4.069,4.069,0,0,0,4.057-4.057v-7.135a4.069,4.069,0,0,0-4.057-4.057h0a4.069,4.069,0,0,0-4.057,4.057v7.135A4.069,4.069,0,0,0,536.109,224.143Z" transform="translate(-525.29 -208.895)" fill="#19283b"/>
              <path id="Path_930787" data-name="Path 930787" d="M516.454,235.7h9.225a.452.452,0,0,0,.451-.451h0a.452.452,0,0,0-.451-.451h-9.225a.452.452,0,0,0-.451.451h0A.452.452,0,0,0,516.454,235.7Z" transform="translate(-515.42 -224.827)" fill="#19283b"/>
              <path id="Path_930788" data-name="Path 930788" d="M514.488,233.586a1.127,1.127,0,1,1,1.127,1.127A1.127,1.127,0,0,1,514.488,233.586Z" transform="translate(-514.488 -223.388)" fill="#19283b"/>
            </g>
          </g>
          <path id="Path_930789" data-name="Path 930789" d="M433.919,142.3a4.981,4.981,0,0,1,4.168,2.261l15.645,34.633a5.029,5.029,0,0,1,.818,2.751v16.648c0,2.768,1.082,5.012-1.672,5.012h-46.97a5,5,0,0,1-5-5V142.3Z" transform="translate(-370.709 -142.299)" fill="#c4314a"/>
          <path id="Path_930790" data-name="Path 930790" d="M322.46,147.3a5,5,0,0,1,5-5h28.01a4.981,4.981,0,0,1,4.168,2.261l15.645,34.633a5.029,5.029,0,0,1,.818,2.751v16.648c0,2.768,1.082,5.012-1.672,5.012H322.46Z" transform="translate(-322.46 -142.299)" fill="#ff5050"/>
          <path id="Path_930791" data-name="Path 930791" d="M377.983,302.367H347.05a12.676,12.676,0,0,1,12.676-12.676h5.582a12.676,12.676,0,0,1,12.676,12.676Z" transform="translate(-337.584 -232.95)" fill="#647484"/>
          <path id="Path_930792" data-name="Path 930792" d="M367.448,163.265l8.851,20a3.747,3.747,0,0,1-3.427,5.264H340.258a3.747,3.747,0,0,1-3.747-3.747v-20a3.747,3.747,0,0,1,3.747-3.747h23.763A3.747,3.747,0,0,1,367.448,163.265Z" transform="translate(-331.102 -153.822)" fill="#a5344c"/>
          <path id="Path_930793" data-name="Path 930793" d="M340.024,186.943v-20a2.4,2.4,0,0,1,2.395-2.395h23.764a2.4,2.4,0,0,1,2.19,1.426l8.849,20a2.375,2.375,0,0,1-.371,2.533,2.455,2.455,0,0,1-1.893.836H342.419A2.4,2.4,0,0,1,340.024,186.943Z" transform="translate(-333.262 -155.982)" fill="#98d3e5"/>
          <path id="Path_930794" data-name="Path 930794" d="M352.2,189.338h12.823l7.322-24.792H359.463Z" transform="translate(-340.752 -155.982)" fill="#fff" opacity="0.5"/>
          <rect id="Rectangle_454504" data-name="Rectangle 454504" width="53.64" height="1.803" transform="translate(0 48.232)" fill="#b3b3b3"/>
          <g id="Group_1176795" data-name="Group 1176795" transform="translate(30.201 25.637)">
            <g id="Group_1176794" data-name="Group 1176794">
              <path id="Path_930795" data-name="Path 930795" d="M404.968,224.143h0a4.069,4.069,0,0,1-4.057-4.057v-7.135a4.069,4.069,0,0,1,4.057-4.057h0a4.069,4.069,0,0,1,4.057,4.057v7.135A4.069,4.069,0,0,1,404.968,224.143Z" transform="translate(-400.911 -208.895)" fill="#19283b"/>
              <path id="Path_930796" data-name="Path 930796" d="M421.323,235.7H412.1a.452.452,0,0,1-.451-.451h0a.452.452,0,0,1,.451-.451h9.225a.452.452,0,0,1,.451.451h0A.452.452,0,0,1,421.323,235.7Z" transform="translate(-407.514 -224.827)" fill="#19283b"/>
              <path id="Path_930797" data-name="Path 930797" d="M435.951,233.586a1.127,1.127,0,1,0-1.127,1.127A1.127,1.127,0,0,0,435.951,233.586Z" transform="translate(-421.075 -223.388)" fill="#19283b"/>
            </g>
          </g>
          <g id="Group_1176796" data-name="Group 1176796" transform="translate(54.092 46.879)">
            <circle id="Ellipse_13563" data-name="Ellipse 13563" cx="4.057" cy="4.057" r="4.057" fill="#494f5b"/>
            <circle id="Ellipse_13564" data-name="Ellipse 13564" cx="4.057" cy="4.057" r="4.057" transform="translate(0.902)" fill="#647484"/>
            <path id="Path_930798" data-name="Path 930798" d="M469.064,269.578a2.789,2.789,0,1,0,2.789-2.789A2.789,2.789,0,0,0,469.064,269.578Z" transform="translate(-466.718 -265.743)" fill="#dfe5f5"/>
            <path id="Path_930799" data-name="Path 930799" d="M469.064,269.578a2.789,2.789,0,1,0,2.789-2.789A2.789,2.789,0,0,0,469.064,269.578Z" transform="translate(-466.718 -265.743)" fill="#dfe5f5"/>
            <path id="Path_930800" data-name="Path 930800" d="M477.568,269.578a2.787,2.787,0,0,0-2.364-2.753,2.789,2.789,0,1,1,0,5.507A2.787,2.787,0,0,0,477.568,269.578Z" transform="translate(-470.494 -265.743)" fill="#afb6c6"/>
          </g>
          <g id="Group_1176797" data-name="Group 1176797" transform="translate(52.739 40.569)">
            <path id="Path_930801" data-name="Path 930801" d="M459.456,250.682a2.415,2.415,0,0,0,2.408,2.408h4.724a2.712,2.712,0,0,0,2.7-2.7h0a2.712,2.712,0,0,0-2.7-2.7h-5.719a1.417,1.417,0,0,0-1.413,1.413Z" transform="translate(-459.456 -247.682)" fill="#494f5b"/>
            <path id="Path_930802" data-name="Path 930802" d="M462.969,250.682a2.415,2.415,0,0,0,2.408,2.408H470.1a2.712,2.712,0,0,0,2.7-2.7h0a2.712,2.712,0,0,0-2.7-2.7h-5.719a1.417,1.417,0,0,0-1.413,1.413Z" transform="translate(-461.617 -247.682)" fill="#647484"/>
            <path id="Path_930803" data-name="Path 930803" d="M472.484,253.9a1.363,1.363,0,0,0,1.215-1.969,1.323,1.323,0,0,0-1.219-.736h-6l.021,1.7a1,1,0,0,0,1,1h4.978Z" transform="translate(-463.777 -249.842)" fill="#ecb220"/>
            <path id="Path_930804" data-name="Path 930804" d="M480.735,252.545a1.354,1.354,0,0,0-1.352-1.352h.9a1.324,1.324,0,0,1,1.22.736,1.363,1.363,0,0,1-1.215,1.969h-.9A1.353,1.353,0,0,0,480.735,252.545Z" transform="translate(-471.712 -249.841)" fill="#c17f1f"/>
          </g>
          <g id="Group_1176798" data-name="Group 1176798" transform="translate(77.08 46.879)">
            <circle id="Ellipse_13565" data-name="Ellipse 13565" cx="4.057" cy="4.057" r="4.057" fill="#494f5b"/>
            <circle id="Ellipse_13566" data-name="Ellipse 13566" cx="4.057" cy="4.057" r="4.057" transform="translate(0.902)" fill="#647484"/>
            <path id="Path_930805" data-name="Path 930805" d="M528.86,269.578a2.789,2.789,0,1,0,2.789-2.789A2.789,2.789,0,0,0,528.86,269.578Z" transform="translate(-526.483 -265.743)" fill="#dfe5f5"/>
            <path id="Path_930806" data-name="Path 930806" d="M528.86,269.578a2.789,2.789,0,1,0,2.789-2.789A2.789,2.789,0,0,0,528.86,269.578Z" transform="translate(-526.483 -265.743)" fill="#dfe5f5"/>
            <path id="Path_930807" data-name="Path 930807" d="M537.364,269.578A2.787,2.787,0,0,0,535,266.825a2.789,2.789,0,1,1,0,5.507A2.787,2.787,0,0,0,537.364,269.578Z" transform="translate(-530.259 -265.743)" fill="#afb6c6"/>
          </g>
          <g id="Group_1176799" data-name="Group 1176799" transform="translate(75.728 40.569)">
            <path id="Path_930808" data-name="Path 930808" d="M519.172,250.682a2.415,2.415,0,0,0,2.408,2.408H526.3a2.712,2.712,0,0,0,2.7-2.7h0a2.712,2.712,0,0,0-2.7-2.7h-5.719a1.417,1.417,0,0,0-1.413,1.413Z" transform="translate(-519.172 -247.682)" fill="#494f5b"/>
            <path id="Path_930809" data-name="Path 930809" d="M522.685,250.682a2.415,2.415,0,0,0,2.408,2.408h4.724a2.712,2.712,0,0,0,2.7-2.7h0a2.712,2.712,0,0,0-2.7-2.7H524.1a1.417,1.417,0,0,0-1.413,1.413Z" transform="translate(-521.333 -247.682)" fill="#647484"/>
            <path id="Path_930810" data-name="Path 930810" d="M532.2,253.9a1.363,1.363,0,0,0,1.215-1.969,1.323,1.323,0,0,0-1.219-.736h-6l.021,1.7a1,1,0,0,0,1,1H532.2Z" transform="translate(-523.493 -249.842)" fill="#ecb220"/>
            <path id="Path_930811" data-name="Path 930811" d="M540.531,252.545a1.354,1.354,0,0,0-1.352-1.352h.9a1.323,1.323,0,0,1,1.219.736,1.363,1.363,0,0,1-1.215,1.969h-.9A1.354,1.354,0,0,0,540.531,252.545Z" transform="translate(-531.476 -249.841)" fill="#c17f1f"/>
          </g>
          <g id="Group_1176800" data-name="Group 1176800" transform="translate(6.456 36.061)">
            <path id="Path_930812" data-name="Path 930812" d="M339.231,239.014c-.068,1.658,2.26,3.1,5.2,3.222s5.379-1.126,5.448-2.784-2.26-3.1-5.2-3.222S339.3,237.355,339.231,239.014Z" transform="translate(-339.229 -236.126)" fill="#c4314a"/>
            <path id="Path_930813" data-name="Path 930813" d="M342.417,238.676l6.769-.031a1.34,1.34,0,0,0,1.33-1.343h0a1.341,1.341,0,0,0-1.343-1.33L342.4,236a1.341,1.341,0,0,0-1.33,1.343h0A1.341,1.341,0,0,0,342.417,238.676Z" transform="translate(-340.364 -235.972)" fill="#494f5b"/>
          </g>
          <g id="Group_1176802" data-name="Group 1176802" transform="translate(41.611 5.86)">
            <path id="Path_930814" data-name="Path 930814" d="M430.674,159.5l12.291,27.387a1.408,1.408,0,0,0,1.284.831h23.431a1.407,1.407,0,0,0,1.287-1.976l-12.1-27.387a1.407,1.407,0,0,0-1.287-.838h-23.62A1.407,1.407,0,0,0,430.674,159.5Z" transform="translate(-430.55 -157.521)" fill="#a5344c"/>
            <path id="Path_930815" data-name="Path 930815" d="M446.416,188.53l-.05-.032-12.291-27.386a.046.046,0,0,1,0-.052.047.047,0,0,1,.047-.025H457.74l.051.033,12.1,27.386a.046.046,0,0,1,0,.052.047.047,0,0,1-.047.025H446.416Z" transform="translate(-432.714 -159.682)" fill="#98d3e5"/>
            <path id="Path_930816" data-name="Path 930816" d="M505.353,188.452l-12.1-27.387-.05-.033h-1.349a.056.056,0,0,1,.05.033L504,188.452a.046.046,0,0,1,0,.052.046.046,0,0,1-.047.025H505.3a.047.047,0,0,0,.047-.025A.044.044,0,0,0,505.353,188.452Z" transform="translate(-468.252 -159.681)" fill="#56768b"/>
            <g id="Group_1176801" data-name="Group 1176801" transform="translate(8.705 1.352)" opacity="0.5">
              <path id="Path_930817" data-name="Path 930817" d="M472.039,166.718l-2.5-5.651-.05-.033H458.049l-4.887,16.424,4.955,11.04.05.033h7.791Z" transform="translate(-453.162 -161.034)" fill="#fff"/>
              <path id="Path_930818" data-name="Path 930818" d="M504.964,196.779l-1.133-2.564-3.855,14.723H501.7Z" transform="translate(-481.954 -181.441)" fill="#fff"/>
            </g>
          </g>
        </g>
        <g id="Group_1176804" data-name="Group 1176804" transform="translate(148.3 98.266)">
          <path id="Path_930819" data-name="Path 930819" d="M484.3,316.231h14.267A1.435,1.435,0,0,0,500,314.8V310a1.435,1.435,0,0,0-1.431-1.431H484.3A1.435,1.435,0,0,0,482.874,310v4.8A1.435,1.435,0,0,0,484.3,316.231Z" transform="translate(-482.874 -308.568)" fill="#c17f1f"/>
          <path id="Path_930820" data-name="Path 930820" d="M487.818,316.231h14.267a1.435,1.435,0,0,0,1.431-1.431V310a1.435,1.435,0,0,0-1.431-1.431H487.818A1.435,1.435,0,0,0,486.387,310v4.8A1.435,1.435,0,0,0,487.818,316.231Z" transform="translate(-485.035 -308.568)" fill="#ecb220"/>
        </g>
        <g id="Group_1176805" data-name="Group 1176805" transform="translate(96.012 98.266)">
          <ellipse id="Ellipse_13567" data-name="Ellipse 13567" cx="10.142" cy="13.298" rx="10.142" ry="13.298" transform="translate(11.269)" fill="#19283b"/>
          <rect id="Rectangle_454505" data-name="Rectangle 454505" width="11.269" height="26.595" transform="translate(21.636 26.595) rotate(180)" fill="#19283b"/>
          <ellipse id="Ellipse_13568" data-name="Ellipse 13568" cx="10.142" cy="13.298" rx="10.142" ry="13.298" fill="#494f5b"/>
          <ellipse id="Ellipse_13569" data-name="Ellipse 13569" cx="5.184" cy="8.564" rx="5.184" ry="8.564" transform="translate(4.958 4.508)" fill="#dfe5f5"/>
          <ellipse id="Ellipse_13570" data-name="Ellipse 13570" cx="5.86" cy="9.466" rx="5.86" ry="9.466" transform="translate(4.056 3.606)" fill="#dfe5f5"/>
          <path id="Path_930821" data-name="Path 930821" d="M363.88,318.361a3.384,3.384,0,0,1,1.273.274c-2.357.962-4.57,4.471-4.57,9.206s2.213,8.243,4.57,9.206a3.384,3.384,0,0,1-1.273.274c-2.763,0-5.843-3.893-5.843-9.479S361.116,318.361,363.88,318.361Z" transform="translate(-353.807 -314.591)" fill="#afb6c6"/>
          <ellipse id="Ellipse_13571" data-name="Ellipse 13571" cx="3.381" cy="5.409" rx="3.381" ry="5.409" transform="translate(5.86 7.663)" fill="#f3f7ff"/>
        </g>
      </g>
      <g id="Group_1176826" data-name="Group 1176826" transform="translate(-10858.111 2032.623)">
        <g id="Group_1176807" data-name="Group 1176807" transform="translate(4.439 20.815)">
          <path id="Path_930822" data-name="Path 930822" d="M528.021,226.556c6.938,8.025,18.637-3.569,18.637-3.569" transform="translate(-528.021 -219.795)" fill="none" stroke="#ffb692" stroke-linecap="round" stroke-miterlimit="10" stroke-width="7"/>
          <path id="Path_930823" data-name="Path 930823" d="M568.881,222.077l-3.479-3.786,3.327-3.057a2.043,2.043,0,0,1,2.886.122l.715.778a2.042,2.042,0,0,1-.122,2.886Z" transform="translate(-551.011 -214.695)" fill="#c4314a"/>
        </g>
        <g id="Group_1176813" data-name="Group 1176813" transform="translate(18.65 17.353)">
          <g id="Group_1176808" data-name="Group 1176808" transform="translate(0 57.291)">
            <rect id="Rectangle_454506" data-name="Rectangle 454506" width="2.867" height="5.058" transform="translate(3.665 0.038) rotate(-0.768)" fill="#f6f4ff"/>
            <path id="Path_930824" data-name="Path 930824" d="M568.334,360.922h.651l-.03-2.224,3.4-.046.049,3.626h-.024v1.539h-6.638v-.3A2.592,2.592,0,0,1,568.334,360.922Z" transform="translate(-565.431 -357.061)" fill="#6bddbc"/>
            <path id="Path_930825" data-name="Path 930825" d="M574.26,366.794a5.972,5.972,0,0,1,3.36-3.3l.023,1.764h-.024v1.539Z" transform="translate(-570.67 -360.037)" fill="#3a9b9b"/>
            <path id="Path_930826" data-name="Path 930826" d="M571.818,372.005h-6.577a.306.306,0,0,1-.306-.306h0a.306.306,0,0,1,.306-.306h6.577a.306.306,0,0,1,.306.306h0A.306.306,0,0,1,571.818,372.005Z" transform="translate(-564.935 -364.898)" fill="#eff6ff"/>
          </g>
          <g id="Group_1176809" data-name="Group 1176809" transform="translate(5.228 57.291)">
            <rect id="Rectangle_454507" data-name="Rectangle 454507" width="2.867" height="5.058" transform="translate(3.665 0.038) rotate(-0.768)" fill="#f6f4ff"/>
            <path id="Path_930827" data-name="Path 930827" d="M584.621,364.548h-2.4a2.9,2.9,0,0,0-2.9,2.9h6.638v-1.555A1.34,1.34,0,0,0,584.621,364.548Z" transform="translate(-579.012 -360.687)" fill="#6bddbc"/>
            <path id="Path_930828" data-name="Path 930828" d="M588.11,362.319l-.394.005-.048-3.626,3.4-.046.049,3.626-3.007.04" transform="translate(-584.144 -357.061)" fill="#6bddbc"/>
            <path id="Path_930829" data-name="Path 930829" d="M585.4,372.005h-6.577a.306.306,0,0,1-.306-.306h0a.306.306,0,0,1,.306-.306H585.4a.306.306,0,0,1,.306.306h0A.307.307,0,0,1,585.4,372.005Z" transform="translate(-578.515 -364.898)" fill="#eff6ff"/>
          </g>
          <path id="Path_930830" data-name="Path 930830" d="M579.963,265.924h-3.684a4.064,4.064,0,0,1-4.052-4.052h0a2.721,2.721,0,0,1,2.713-2.712H581.3a2.721,2.721,0,0,1,2.713,2.712h0A4.064,4.064,0,0,1,579.963,265.924Z" transform="translate(-569.42 -238.579)" fill="#3e3d5e"/>
          <path id="Path_930831" data-name="Path 930831" d="M581.928,259.159h-6.646a2.577,2.577,0,0,0-2.268,1.366,12.751,12.751,0,0,0,11.36,2.508,3.8,3.8,0,0,0,.125-.95v-.353A2.579,2.579,0,0,0,581.928,259.159Z" transform="translate(-569.904 -238.579)" fill="#262638"/>
          <g id="Group_1176811" data-name="Group 1176811" transform="translate(2.809 2.162)">
            <g id="Group_1176810" data-name="Group 1176810">
              <path id="Path_930832" data-name="Path 930832" d="M572.231,231.825H584.46V216.659a5.342,5.342,0,0,0-5.342-5.341h0a6.887,6.887,0,0,0-6.887,6.887v13.62Z" transform="translate(-572.231 -211.318)" fill="#ff5a5a"/>
            </g>
            <path id="Path_930833" data-name="Path 930833" d="M584.189,213.36c.2,1.139-1.18,2.334-3.084,2.669s-3.61-.316-3.81-1.456,1.18-2.334,3.084-2.669S583.989,212.22,584.189,213.36Z" transform="translate(-575.334 -211.624)" fill="#ffb692"/>
          </g>
          <g id="Group_1176812" data-name="Group 1176812" transform="translate(5.82)">
            <path id="Path_930834" data-name="Path 930834" d="M580.053,209.083c0-5.5,1.073-2.64,2.4-2.64s2.4-2.5,2.4,2.64c0,1.926-1.073,1.76-2.4,1.76S580.053,211.009,580.053,209.083Z" transform="translate(-580.053 -205.701)" fill="#ffb692"/>
            <path id="Path_930835" data-name="Path 930835" d="M584.8,207.477c-.226-2.942-1.191-1.034-2.347-1.034-1.282,0-2.329-2.678-2.394,2.142A4.612,4.612,0,0,0,584.8,207.477Z" transform="translate(-580.059 -205.701)" fill="#d88d87"/>
          </g>
          <path id="Path_930836" data-name="Path 930836" d="M591.734,272.655a249.1,249.1,0,0,0-.4,34.482" transform="translate(-580.894 -246.88)" fill="none" stroke="#3e3d5e" stroke-miterlimit="10" stroke-width="11"/>
          <path id="Path_930837" data-name="Path 930837" d="M578.5,272.655a249.075,249.075,0,0,0-.4,34.482" transform="translate(-572.756 -246.88)" fill="none" stroke="#3e3d5e" stroke-miterlimit="10" stroke-width="11"/>
        </g>
        <g id="Group_1176821" data-name="Group 1176821" transform="translate(18.272 3.967)">
          <g id="Group_1176819" data-name="Group 1176819" transform="translate(2.655 2.079)">
            <g id="Group_1176814" data-name="Group 1176814" transform="translate(0 6.131)">
              <path id="Path_930838" data-name="Path 930838" d="M572.885,193.357c.291.789.1,1.6-.422,1.808s-1.185-.26-1.477-1.049-.1-1.6.422-1.808S572.594,192.569,572.885,193.357Z" transform="translate(-570.849 -192.259)" fill="#ffb692"/>
              <path id="Path_930839" data-name="Path 930839" d="M572.915,194.353a.475.475,0,0,1,.251-.026c0-.013-.008-.026-.013-.04-.192-.521-.629-.832-.975-.693s-.471.673-.279,1.195a1.047,1.047,0,0,0,.725.719C572.451,195,572.577,194.488,572.915,194.353Z" transform="translate(-571.439 -193.06)" fill="#d88d87"/>
            </g>
            <path id="Path_930840" data-name="Path 930840" d="M578.714,180.177H576.48a3.178,3.178,0,0,0-3.169,3.169v4.613a4.438,4.438,0,0,0,4.425,4.425h0a4.438,4.438,0,0,0,4.425-4.425v-4.335A3.458,3.458,0,0,0,578.714,180.177Z" transform="translate(-572.363 -178.697)" fill="#ffb692"/>
            <path id="Path_930841" data-name="Path 930841" d="M581.82,182.144a3.455,3.455,0,0,0-3.108-1.968h-2.234a3.178,3.178,0,0,0-3.169,3.169V185C576.256,185.374,579.471,183.741,581.82,182.144Z" transform="translate(-572.363 -178.696)" fill="#d88d87"/>
            <path id="Path_930842" data-name="Path 930842" d="M581.774,183.511c-2.142.119-3.657-.4-3.483-3.472l-6,.818v1.667a3.254,3.254,0,0,1-.549-2.686c.409-1.484,1.914-3.656,5.551-3.5S582.892,179.112,581.774,183.511Z" transform="translate(-571.338 -176.332)" fill="#3e3d5e"/>
            <g id="Group_1176817" data-name="Group 1176817" transform="translate(2.215 6.125)">
              <path id="Path_930843" data-name="Path 930843" d="M580.116,198.756s1.155.211,1.16.428-.557.32-.711.227A2.74,2.74,0,0,1,580.116,198.756Z" transform="translate(-578.764 -196.249)" fill="#d88d87"/>
              <g id="Group_1176815" data-name="Group 1176815">
                <path id="Path_930844" data-name="Path 930844" d="M577.576,193.707a.487.487,0,1,1-.487-.487A.487.487,0,0,1,577.576,193.707Z" transform="translate(-576.603 -192.844)" fill="#34344f"/>
                <path id="Path_930845" data-name="Path 930845" d="M586.666,193.707a.487.487,0,1,1-.487-.487A.487.487,0,0,1,586.666,193.707Z" transform="translate(-582.194 -192.844)" fill="#34344f"/>
                <path id="Path_930846" data-name="Path 930846" d="M580.932,192.243c-.13.559-.3,1.1-.476,1.637-.091.268-.182.536-.284.8l-.019.05c-.008.022.008-.015,0-.034s0,0,0,0a.331.331,0,0,0,.049.062l.146.145c.1.1.2.2.3.311a1.984,1.984,0,0,1-.4-.178,1.553,1.553,0,0,1-.186-.125.533.533,0,0,1-.1-.095.2.2,0,0,1-.027-.051.167.167,0,0,1,0-.086l.017-.051c.092-.27.194-.538.3-.805C580.455,193.285,580.675,192.755,580.932,192.243Z" transform="translate(-578.648 -192.243)" fill="#d88d87"/>
              </g>
              <g id="Group_1176816" data-name="Group 1176816" transform="translate(1.251 2.848)">
                <path id="Path_930847" data-name="Path 930847" d="M580.265,200.485a10.423,10.423,0,0,0,1.978-.784c.454-.244.947.309.761.862a1.9,1.9,0,0,1-1.426,1.348,1.758,1.758,0,0,1-1.441-.194A.723.723,0,0,1,580.265,200.485Z" transform="translate(-579.852 -199.642)" fill="#34344f"/>
                <path id="Path_930848" data-name="Path 930848" d="M582.745,202.887a1.9,1.9,0,0,0,1.426-1.348.759.759,0,0,0,.038-.246,1.924,1.924,0,0,0-1.225.083,1.876,1.876,0,0,0-1.235,1.515.011.011,0,0,0,0,0A2.115,2.115,0,0,0,582.745,202.887Z" transform="translate(-581.019 -200.618)" fill="#ff9292"/>
                <path id="Path_930849" data-name="Path 930849" d="M583.03,202.6c.1.13.411.067.7-.14s.434-.481.335-.611-.411-.067-.7.14S582.931,202.468,583.03,202.6Z" transform="translate(-581.787 -200.957)" fill="#ffabab"/>
                <path id="Path_930850" data-name="Path 930850" d="M580.265,200.485a10.419,10.419,0,0,0,1.978-.784.524.524,0,0,1,.713.268,3.852,3.852,0,0,1-1.73,1.059,4.316,4.316,0,0,1-1.367.209A.663.663,0,0,1,580.265,200.485Z" transform="translate(-579.852 -199.642)" fill="#fff"/>
              </g>
            </g>
            <g id="Group_1176818" data-name="Group 1176818" transform="translate(8.768 6.122)">
              <path id="Path_930851" data-name="Path 930851" d="M593.737,193.378c-.262.8-.043,1.6.489,1.792s1.175-.3,1.437-1.1.043-1.6-.489-1.792S594,192.579,593.737,193.378Z" transform="translate(-593.626 -192.234)" fill="#ffb692"/>
              <path id="Path_930852" data-name="Path 930852" d="M594.984,194.358a.473.473,0,0,0-.251-.017c0-.013.007-.027.012-.04.173-.528.6-.854.949-.729s.5.656.323,1.183a1.047,1.047,0,0,1-.7.745C595.472,194.987,595.327,194.48,594.984,194.358Z" transform="translate(-594.307 -193.04)" fill="#d88d87"/>
            </g>
          </g>
          <g id="Group_1176820" data-name="Group 1176820">
            <circle id="Ellipse_13572" data-name="Ellipse 13572" cx="0.761" cy="0.761" r="0.761" transform="translate(8.916)" fill="#81c5ef"/>
            <path id="Path_930853" data-name="Path 930853" d="M582.679,178.167,572.6,176.65s.411-5.222,6.347-4.146C584.346,173.483,582.679,178.167,582.679,178.167Z" transform="translate(-569.274 -171.809)" fill="#5291c1"/>
            <path id="Path_930854" data-name="Path 930854" d="M578.882,177.6c1.388-3.96-1.389-5.159-1.571-5.233a4.684,4.684,0,0,0-4.707,4.288l6.278.945Z" transform="translate(-569.274 -171.815)" fill="#81c5ef"/>
            <path id="Path_930855" data-name="Path 930855" d="M573.561,183.915c-4.251,1.021-7.816,2.637-9.608-.633l3.38-.648Z" transform="translate(-563.953 -178.129)" fill="#34739b"/>
          </g>
          <path id="Path_930856" data-name="Path 930856" d="M586.589,190.176l-.664-.254a.4.4,0,0,0-.286.747l.664.254a.4.4,0,1,0,.286-.747Z" transform="translate(-577.133 -182.595)" fill="#323244"/>
          <path id="Path_930857" data-name="Path 930857" d="M575.779,190.176l.664-.254a.4.4,0,0,1,.286.747l-.664.254a.4.4,0,0,1-.286-.747Z" transform="translate(-571.068 -182.595)" fill="#323244"/>
        </g>
        <g id="Group_1176824" data-name="Group 1176824" transform="translate(30.166 0)">
          <path id="Path_930858" data-name="Path 930858" d="M599.933,192.149c10.272-.725,14.3-6.628,10.454-17.262" transform="translate(-597.976 -169.397)" fill="none" stroke="#ffb692" stroke-linecap="round" stroke-miterlimit="10" stroke-width="7"/>
          <path id="Path_930859" data-name="Path 930859" d="M601.052,212.208l.775,5.083-4.467.681a2.043,2.043,0,0,1-2.327-1.711l-.159-1.045a2.043,2.043,0,0,1,1.711-2.327Z" transform="translate(-594.85 -192.35)" fill="#c4314a"/>
          <g id="Group_1176823" data-name="Group 1176823" transform="translate(8.092)">
            <path id="Path_930860" data-name="Path 930860" d="M621.075,167.3c-1.033,1.7-3.191-.225-3.191-.225l-2.015-.122a1.437,1.437,0,0,1,1.92-1.292s-1.564-2.009-1.386-3.1c.084-.512,1.68-1.738,2.743-1.928a.4.4,0,0,1,.472.339,3.763,3.763,0,0,0,1.241,2.334C622.1,164.314,623.174,166.319,621.075,167.3Z" transform="translate(-615.869 -160.625)" fill="#ffb692"/>
            <path id="Path_930861" data-name="Path 930861" d="M620.858,172.99a2.065,2.065,0,0,1,2.535-.021,2.781,2.781,0,0,0-2.463.111Z" transform="translate(-618.937 -167.958)" fill="#d88d87"/>
            <path id="Path_930862" data-name="Path 930862" d="M623.883,169.37a5,5,0,0,0-2.081,1.016S622.138,169.136,623.883,169.37Z" transform="translate(-619.518 -165.986)" fill="#d88d87"/>
            <g id="Group_1176822" data-name="Group 1176822" transform="translate(1.13 0.036)">
              <path id="Path_930863" data-name="Path 930863" d="M624.6,164.166l-.1.008a6.207,6.207,0,0,1-.779-3.43l.1-.026A6.567,6.567,0,0,0,624.6,164.166Z" transform="translate(-621.805 -160.718)" fill="#d88d87"/>
              <path id="Path_930864" data-name="Path 930864" d="M620.333,165.315l-.105.117a4.438,4.438,0,0,1-1.422-2.912,6.348,6.348,0,0,1,1.024-.721,4.909,4.909,0,0,0,1.114,3.169l-.1.069a3.775,3.775,0,0,1-1.193-3.091l-.72.471A4.093,4.093,0,0,0,620.333,165.315Z" transform="translate(-618.803 -161.383)" fill="#d88d87"/>
            </g>
          </g>
        </g>
        <path id="Path_930865" data-name="Path 930865" d="M521.808,226.352c-1.888.8-3.008.361-3.332-.221a7.012,7.012,0,0,0-1.986-1.45,1.286,1.286,0,0,1,1.751-.551s-1.662-2-1.533-2.584,2.669-1.265,3.676-.514S523.25,224.78,521.808,226.352Z" transform="translate(-516.49 -197.574)" fill="#ffb692"/>
        <g id="Group_1176825" data-name="Group 1176825" transform="translate(0.862 23.128)">
          <path id="Path_930866" data-name="Path 930866" d="M522.871,223.446c.064-.011-1.14-1.743-1.739-2.6-.073.011-.146.023-.217.037C521.553,221.757,522.807,223.457,522.871,223.446Z" transform="translate(-520.074 -220.792)" fill="#d88d87"/>
          <path id="Path_930867" data-name="Path 930867" d="M518.73,221.5c.673,1,1.786,2.638,1.856,2.638s-1.094-1.789-1.695-2.7C518.836,221.453,518.782,221.474,518.73,221.5Z" transform="translate(-518.73 -221.152)" fill="#d88d87"/>
          <path id="Path_930868" data-name="Path 930868" d="M523.286,220.7a18.244,18.244,0,0,0,1.656,2.3,17.122,17.122,0,0,0-1.376-2.287C523.474,220.706,523.381,220.7,523.286,220.7Z" transform="translate(-521.532 -220.702)" fill="#d88d87"/>
        </g>
      </g>
    </g>
  </g>
</svg>
