<svg xmlns="http://www.w3.org/2000/svg" width="60" height="60" viewBox="0 0 60 60">
  <g id="img47" transform="translate(-513.711 -31670)">
    <path id="Path_929559" data-name="Path 929559" d="M6.667,0H53.333A6.667,6.667,0,0,1,60,6.667V53.333A6.667,6.667,0,0,1,53.333,60H6.667A6.667,6.667,0,0,1,0,53.333V6.667A6.667,6.667,0,0,1,6.667,0Z" transform="translate(513.711 31670)" fill="#dae4e3"/>
    <g id="Group_1177139" data-name="Group 1177139" transform="translate(520.711 31675.918)">
      <g id="Group_1177132" data-name="Group 1177132" transform="translate(0 1.082)">
        <g id="Group_1177131" data-name="Group 1177131" transform="translate(0 0)">
          <path id="Path_932877" data-name="Path 932877" d="M45.835,38.94l-4.626-3.1.719-1.374a.675.675,0,0,0-.085-.752,14.287,14.287,0,0,0-4.16-2.97,38.369,38.369,0,0,0,2.455-7.268A49.721,49.721,0,0,0,41.29,8.557a.676.676,0,0,0-.6-.6A35.611,35.611,0,0,1,28.2,4.2a28.344,28.344,0,0,1-4.7-2.96.676.676,0,0,0-.867,0A34.755,34.755,0,0,1,5.448,7.954a.676.676,0,0,0-.6.6,45.887,45.887,0,0,0,.025,7.56.676.676,0,0,0,1.347-.105,48.433,48.433,0,0,1-.071-6.776A37.064,37.064,0,0,0,18.6,5.38a31.855,31.855,0,0,0,4.472-2.764A31.846,31.846,0,0,0,27.539,5.38,37.066,37.066,0,0,0,39.988,9.236a49.993,49.993,0,0,1-1.165,13.936,36.508,36.508,0,0,1-2.662,7.634c-.031.065-.063.128-.1.192q-.1.209-.21.416-.06.117-.12.232-.113.215-.228.426-.1.177-.195.351-.088.157-.177.312t-.182.309c-.044.074-.089.147-.133.22q-.216.355-.441.7l-.033.051c-.078.119-.157.237-.237.355l-.1.151q-.7,1.027-1.484,1.961l-.009.011q-.151.181-.3.357c-.081.093-.162.184-.244.276l-.049.055q-.139.154-.28.3l-.014.015a24.108,24.108,0,0,1-8.555,5.872,24.325,24.325,0,0,1-9.93-7.478l-.029-.037c-.062-.078-.123-.158-.185-.238a28.26,28.26,0,0,1-2.969-4.855.677.677,0,0,0-.07-.115A39.307,39.307,0,0,1,6.5,18.7a.676.676,0,0,0-1.34.177A41.319,41.319,0,0,0,8.451,30.749a14.293,14.293,0,0,0-4.16,2.97.676.676,0,0,0-.085.752l.719,1.374L.3,38.94a.676.676,0,0,0,.05,1.153l3.78,2.079v4.175a.676.676,0,0,0,1.019.582L12.655,42.5l.013-.009.023-.015.039-.029.018-.015c.016-.013.031-.027.045-.042l.007-.007a.668.668,0,0,0,.049-.057l0,0,0-.005a.668.668,0,0,0,.042-.065l.008-.014a.678.678,0,0,0,.035-.074l0-.013a.7.7,0,0,0,.021-.067l0-.018a.683.683,0,0,0,.014-.08s0-.007,0-.011a.662.662,0,0,0,0-.073c0-.006,0-.011,0-.017a.68.68,0,0,0-.009-.083V41.8a.665.665,0,0,0-.018-.075l-.006-.019a.67.67,0,0,0-.031-.078L12,39.692a17.927,17.927,0,0,1,1.95-.828,25.461,25.461,0,0,0,8.872,5.867.675.675,0,0,0,.5,0,25.5,25.5,0,0,0,8.872-5.867,17.922,17.922,0,0,1,1.95.828l-.925,1.931a.671.671,0,0,0-.031.078l-.006.019a.666.666,0,0,0-.018.075V41.8a.68.68,0,0,0-.009.083c0,.006,0,.011,0,.017a.686.686,0,0,0,0,.073s0,.007,0,.011a.664.664,0,0,0,.014.08l0,.018a.666.666,0,0,0,.021.067l0,.013a.668.668,0,0,0,.035.074l.008.014a.68.68,0,0,0,.042.065l0,.005,0,0a.668.668,0,0,0,.049.057l.007.007q.021.022.045.042l.018.015.039.029.023.015.013.009,7.507,4.432a.676.676,0,0,0,1.019-.582V42.172l3.78-2.079a.675.675,0,0,0,.05-1.154ZM5.481,45.164V41.772a.676.676,0,0,0-.35-.592L1.975,39.445l3.581-2.4,2.376,4.539a.668.668,0,0,0,.044.072c.006.009.014.017.02.026s.021.027.032.04.024.024.036.036l.023.022c.015.013.031.025.047.037l.017.013c.018.012.037.023.056.034l.014.007a.657.657,0,0,0,.063.028l.011,0a.685.685,0,0,0,.069.022l.01,0c.015,0,.029.008.044.011l1.961.333Zm4.584-4.315.049-.035.107-.076.07-.048.114-.078.074-.049.126-.083.048-.03.149-.094.012-.007.327.683Zm.71-2.043-.006,0-.017.01h0l-.007,0-.085.047-.154.088-.09.052-.01.006-.014.008-.237.142-.036.022-.137.086-.029.018,0,0a12.364,12.364,0,0,0-1.232.887L6.51,35.957l-.878-1.678a14.946,14.946,0,0,1,3.409-2.314q.105.206.213.409c.036.069.074.137.11.205q.14.26.284.515c.021.038.042.077.063.115a28.417,28.417,0,0,0,2.384,3.549l.06.076q.106.133.212.264l.11.134c.063.076.125.152.189.227q.142.168.286.333A18.179,18.179,0,0,0,10.775,38.805Zm22.408-1.013,0-.005c.058-.067.116-.134.173-.2l.105-.123q.132-.156.262-.315l.009-.011q.635-.775,1.22-1.608c.052-.074.1-.149.152-.224.062-.09.124-.181.185-.272s.137-.205.2-.309q.082-.125.162-.252.134-.21.265-.424.089-.145.176-.291.1-.171.2-.344.113-.195.223-.392c.04-.072.081-.144.121-.217q.145-.263.285-.531l.095-.182.066-.127A15.117,15.117,0,0,1,40.5,34.28l-3.088,5.9a12.36,12.36,0,0,0-1.232-.887l0,0-.028-.018-.137-.085-.045-.027-.228-.137-.014-.008-.01-.006-.09-.052-.154-.088-.085-.047-.007,0h0l-.017-.01-.006,0A18.2,18.2,0,0,0,33.183,37.792Zm2.007,2.834.134-.279.012.007.148.094.049.031.126.083.073.048.115.079.07.048.1.075.051.036L35,41.031ZM41,41.18a.676.676,0,0,0-.35.592v3.391l-4.9-2.891,1.961-.333.021-.005.049-.012.035-.011.046-.018.033-.015.043-.024.031-.018.041-.03.027-.021c.014-.012.027-.025.04-.038l.021-.021a.667.667,0,0,0,.043-.053l.011-.014a.664.664,0,0,0,.044-.072l2.376-4.539,3.581,2.4Z" transform="translate(0 -1.082)" fill="#004e3d"/>
        </g>
      </g>
      <g id="Group_1177134" data-name="Group 1177134" transform="translate(8.92 6.126)">
        <g id="Group_1177133" data-name="Group 1177133">
          <path id="Path_932878" data-name="Path 932878" d="M127.186,62.894a.676.676,0,0,0-.6-.6,26.393,26.393,0,0,1-13.006-5.078.676.676,0,0,0-.866,0,26.391,26.391,0,0,1-13.006,5.079.676.676,0,0,0-.6.6,36.59,36.59,0,0,0,.154,7.2c.43,3.781,1.629,9.233,4.9,13.736a.676.676,0,1,0,1.094-.794A28.069,28.069,0,0,1,100.6,69.97a37.88,37.88,0,0,1-.2-6.4,27.737,27.737,0,0,0,12.738-4.984,27.732,27.732,0,0,0,12.738,4.984,36.116,36.116,0,0,1-.005,4.148.676.676,0,0,0,1.349.076A33.833,33.833,0,0,0,127.186,62.894Z" transform="translate(-98.997 -57.056)" fill="#004e3d"/>
        </g>
      </g>
      <g id="Group_1177136" data-name="Group 1177136" transform="translate(15.7 18.89)">
        <g id="Group_1177135" data-name="Group 1177135">
          <path id="Path_932879" data-name="Path 932879" d="M194.844,198.712a.676.676,0,0,0-.755.585c-1.5,11.882-7.564,16.81-12.489,18.85a18.222,18.222,0,0,1-6.206-4.2.676.676,0,1,0-.973.937,19.6,19.6,0,0,0,6.929,4.622.675.675,0,0,0,.5,0,19.8,19.8,0,0,0,10.132-8.966,30.283,30.283,0,0,0,3.447-11.071A.676.676,0,0,0,194.844,198.712Z" transform="translate(-174.233 -198.707)" fill="#004e3d"/>
        </g>
      </g>
      <g id="Group_1177138" data-name="Group 1177138" transform="translate(15.047 16.563)">
        <g id="Group_1177137" data-name="Group 1177137">
          <path id="Path_932880" data-name="Path 932880" d="M182.571,173.579a2.369,2.369,0,0,0-3.346,0l-6.017,6.017-2.172-2.172a2.366,2.366,0,0,0-3.346,3.346l3.846,3.845a2.366,2.366,0,0,0,3.346,0l7.691-7.691A2.369,2.369,0,0,0,182.571,173.579Zm-.955,2.391-7.691,7.691a1.015,1.015,0,0,1-1.435,0l-3.845-3.845a1.015,1.015,0,0,1,1.435-1.436l2.65,2.65a.676.676,0,0,0,.956,0l6.5-6.5a1.015,1.015,0,1,1,1.436,1.436Z" transform="translate(-166.996 -172.887)" fill="#004e3d"/>
        </g>
      </g>
    </g>
  </g>
</svg>
