<svg xmlns="http://www.w3.org/2000/svg" width="85" height="85" viewBox="0 0 85 85">
  <g id="img4" transform="translate(14645.893 16099.787)" opacity="0.4">
    <rect id="Rectangle_439064" data-name="Rectangle 439064" width="11.919" height="1.324" transform="translate(-14645.893 -16094.489)" fill="#004e3d"/>
    <rect id="Rectangle_439065" data-name="Rectangle 439065" width="1.324" height="11.919" transform="translate(-14640.595 -16099.787)" fill="#004e3d"/>
    <rect id="Rectangle_439066" data-name="Rectangle 439066" width="11.919" height="1.324" transform="translate(-14627.623 -16094.489)" fill="#004e3d"/>
    <rect id="Rectangle_439067" data-name="Rectangle 439067" width="1.324" height="11.919" transform="translate(-14622.324 -16099.787)" fill="#004e3d"/>
    <rect id="Rectangle_439068" data-name="Rectangle 439068" width="11.919" height="1.324" transform="translate(-14609.353 -16094.489)" fill="#004e3d"/>
    <rect id="Rectangle_439069" data-name="Rectangle 439069" width="1.324" height="11.919" transform="translate(-14604.054 -16099.787)" fill="#004e3d"/>
    <rect id="Rectangle_439070" data-name="Rectangle 439070" width="11.919" height="1.324" transform="translate(-14591.081 -16094.489)" fill="#004e3d"/>
    <rect id="Rectangle_439071" data-name="Rectangle 439071" width="1.324" height="11.919" transform="translate(-14585.783 -16099.787)" fill="#004e3d"/>
    <rect id="Rectangle_439072" data-name="Rectangle 439072" width="11.919" height="1.324" transform="translate(-14572.812 -16094.489)" fill="#004e3d"/>
    <rect id="Rectangle_439073" data-name="Rectangle 439073" width="1.324" height="11.919" transform="translate(-14567.514 -16099.787)" fill="#004e3d"/>
    <rect id="Rectangle_439074" data-name="Rectangle 439074" width="11.919" height="1.324" transform="translate(-14645.893 -16076.344)" fill="#004e3d"/>
    <rect id="Rectangle_439075" data-name="Rectangle 439075" width="1.324" height="11.919" transform="translate(-14640.595 -16081.518)" fill="#004e3d"/>
    <rect id="Rectangle_439076" data-name="Rectangle 439076" width="11.919" height="1.324" transform="translate(-14627.623 -16076.344)" fill="#004e3d"/>
    <rect id="Rectangle_439077" data-name="Rectangle 439077" width="1.324" height="11.919" transform="translate(-14622.324 -16081.518)" fill="#004e3d"/>
    <rect id="Rectangle_439078" data-name="Rectangle 439078" width="11.919" height="1.324" transform="translate(-14609.353 -16076.344)" fill="#004e3d"/>
    <rect id="Rectangle_439079" data-name="Rectangle 439079" width="1.324" height="11.919" transform="translate(-14604.054 -16081.518)" fill="#004e3d"/>
    <rect id="Rectangle_439080" data-name="Rectangle 439080" width="11.919" height="1.324" transform="translate(-14591.081 -16076.344)" fill="#004e3d"/>
    <rect id="Rectangle_439081" data-name="Rectangle 439081" width="1.324" height="11.919" transform="translate(-14585.783 -16081.518)" fill="#004e3d"/>
    <rect id="Rectangle_439082" data-name="Rectangle 439082" width="11.919" height="1.324" transform="translate(-14572.812 -16076.344)" fill="#004e3d"/>
    <rect id="Rectangle_439083" data-name="Rectangle 439083" width="1.324" height="11.919" transform="translate(-14567.514 -16081.518)" fill="#004e3d"/>
    <rect id="Rectangle_439084" data-name="Rectangle 439084" width="11.919" height="1.324" transform="translate(-14645.893 -16057.948)" fill="#004e3d"/>
    <rect id="Rectangle_439085" data-name="Rectangle 439085" width="1.324" height="11.919" transform="translate(-14640.595 -16063.247)" fill="#004e3d"/>
    <rect id="Rectangle_439086" data-name="Rectangle 439086" width="11.919" height="1.324" transform="translate(-14627.623 -16057.948)" fill="#004e3d"/>
    <rect id="Rectangle_439087" data-name="Rectangle 439087" width="1.324" height="11.919" transform="translate(-14622.324 -16063.247)" fill="#004e3d"/>
    <rect id="Rectangle_439088" data-name="Rectangle 439088" width="11.919" height="1.324" transform="translate(-14609.353 -16057.948)" fill="#004e3d"/>
    <rect id="Rectangle_439089" data-name="Rectangle 439089" width="1.324" height="11.919" transform="translate(-14604.054 -16063.247)" fill="#004e3d"/>
    <rect id="Rectangle_439090" data-name="Rectangle 439090" width="11.919" height="1.324" transform="translate(-14591.081 -16057.948)" fill="#004e3d"/>
    <rect id="Rectangle_439091" data-name="Rectangle 439091" width="1.324" height="11.919" transform="translate(-14585.783 -16063.247)" fill="#004e3d"/>
    <rect id="Rectangle_439092" data-name="Rectangle 439092" width="11.919" height="1.324" transform="translate(-14572.812 -16057.948)" fill="#004e3d"/>
    <rect id="Rectangle_439093" data-name="Rectangle 439093" width="1.324" height="11.919" transform="translate(-14567.514 -16063.247)" fill="#004e3d"/>
    <rect id="Rectangle_439094" data-name="Rectangle 439094" width="11.919" height="1.324" transform="translate(-14645.893 -16039.555)" fill="#004e3d"/>
    <rect id="Rectangle_439095" data-name="Rectangle 439095" width="1.324" height="11.919" transform="translate(-14640.595 -16044.976)" fill="#004e3d"/>
    <rect id="Rectangle_439096" data-name="Rectangle 439096" width="11.919" height="1.324" transform="translate(-14627.623 -16039.555)" fill="#004e3d"/>
    <rect id="Rectangle_439097" data-name="Rectangle 439097" width="1.324" height="11.919" transform="translate(-14622.324 -16044.976)" fill="#004e3d"/>
    <rect id="Rectangle_439098" data-name="Rectangle 439098" width="11.919" height="1.324" transform="translate(-14609.353 -16039.555)" fill="#004e3d"/>
    <rect id="Rectangle_439099" data-name="Rectangle 439099" width="1.324" height="11.919" transform="translate(-14604.054 -16044.976)" fill="#004e3d"/>
    <rect id="Rectangle_439100" data-name="Rectangle 439100" width="11.919" height="1.324" transform="translate(-14591.081 -16039.555)" fill="#004e3d"/>
    <rect id="Rectangle_439101" data-name="Rectangle 439101" width="1.324" height="11.919" transform="translate(-14585.783 -16044.976)" fill="#004e3d"/>
    <rect id="Rectangle_439102" data-name="Rectangle 439102" width="11.919" height="1.324" transform="translate(-14572.812 -16039.555)" fill="#004e3d"/>
    <rect id="Rectangle_439103" data-name="Rectangle 439103" width="1.324" height="11.919" transform="translate(-14567.514 -16044.976)" fill="#004e3d"/>
    <rect id="Rectangle_439104" data-name="Rectangle 439104" width="11.919" height="1.324" transform="translate(-14645.893 -16021.408)" fill="#004e3d"/>
    <rect id="Rectangle_439105" data-name="Rectangle 439105" width="1.324" height="11.919" transform="translate(-14640.595 -16026.706)" fill="#004e3d"/>
    <rect id="Rectangle_439106" data-name="Rectangle 439106" width="11.919" height="1.324" transform="translate(-14627.623 -16021.408)" fill="#004e3d"/>
    <rect id="Rectangle_439107" data-name="Rectangle 439107" width="1.324" height="11.919" transform="translate(-14622.324 -16026.706)" fill="#004e3d"/>
    <rect id="Rectangle_439108" data-name="Rectangle 439108" width="11.919" height="1.324" transform="translate(-14609.353 -16021.408)" fill="#004e3d"/>
    <rect id="Rectangle_439109" data-name="Rectangle 439109" width="1.324" height="11.919" transform="translate(-14604.054 -16026.706)" fill="#004e3d"/>
    <rect id="Rectangle_439110" data-name="Rectangle 439110" width="11.919" height="1.324" transform="translate(-14591.081 -16021.408)" fill="#004e3d"/>
    <rect id="Rectangle_439111" data-name="Rectangle 439111" width="1.324" height="11.919" transform="translate(-14585.783 -16026.706)" fill="#004e3d"/>
    <rect id="Rectangle_439112" data-name="Rectangle 439112" width="11.919" height="1.324" transform="translate(-14572.812 -16021.408)" fill="#004e3d"/>
    <rect id="Rectangle_439113" data-name="Rectangle 439113" width="1.324" height="11.919" transform="translate(-14567.514 -16026.706)" fill="#004e3d"/>
  </g>
</svg>
