<svg xmlns="http://www.w3.org/2000/svg" width="60" height="60" viewBox="0 0 60 60">
  <g id="img43" transform="translate(-513.711 -31420)">
    <path id="Path_929554" data-name="Path 929554" d="M6.667,0H53.333A6.667,6.667,0,0,1,60,6.667V53.333A6.667,6.667,0,0,1,53.333,60H6.667A6.667,6.667,0,0,1,0,53.333V6.667A6.667,6.667,0,0,1,6.667,0Z" transform="translate(513.711 31420)" fill="#dae4e3"/>
    <g id="Group_1177107" data-name="Group 1177107" transform="translate(521.071 31407.857)">
      <g id="Group_1177106" data-name="Group 1177106" transform="translate(0 21.395)">
        <path id="Path_932854" data-name="Path 932854" d="M206.4,253.741a.663.663,0,0,0-.663.663v1.379a.663.663,0,0,0,1.327,0V254.4A.663.663,0,0,0,206.4,253.741Z" transform="translate(-187.541 -233.19)" fill="#004e3d"/>
        <path id="Path_932855" data-name="Path 932855" d="M291.831,253.741a.663.663,0,0,0-.663.663v1.379a.663.663,0,1,0,1.327,0V254.4A.663.663,0,0,0,291.831,253.741Z" transform="translate(-265.414 -233.19)" fill="#004e3d"/>
        <path id="Path_932856" data-name="Path 932856" d="M45.176,29.2a1.934,1.934,0,0,0-.715-.832c-3.034-2.183-8.314-1.58-11.342.352-.2.13-.395.265-.575.4-.225-.186-.456-.363-.689-.535l.09-.761v-.01a8.487,8.487,0,0,1,1.795-4.316A1.248,1.248,0,0,0,32.7,21.4a7.581,7.581,0,0,0-5.528,3.239l-.018.028L26.3,26.022c-.023.037-1.062-.216-1.173-.234a16.683,16.683,0,0,0-6.14.26l-.862-1.38-.018-.028A7.58,7.58,0,0,0,12.582,21.4a1.248,1.248,0,0,0-1.044,2.1,8.488,8.488,0,0,1,1.795,4.316v.01l.095.8q-.338.249-.664.518-.284-.221-.606-.427a11.206,11.206,0,0,0-3.379-1.384.663.663,0,0,0-.309,1.29,9.872,9.872,0,0,1,2.974,1.212q.165.105.317.215a14.26,14.26,0,0,0-3.736,6.928A13.53,13.53,0,0,1,6.11,34.906a19.122,19.122,0,0,0-1.625-1.853c-.6-.573-1.3-1-1.935-1.515a3.215,3.215,0,0,1-1.188-1.552.512.512,0,0,1-.026-.294c.015-.038.072-.111.257-.244A7.046,7.046,0,0,1,5.61,28.306a.663.663,0,0,0-.01-1.327H5.589A8.348,8.348,0,0,0,.818,28.372,1.934,1.934,0,0,0,.1,29.2,1.767,1.767,0,0,0,.084,30.34C.6,32.2,2.3,32.8,3.566,34.01a17.859,17.859,0,0,1,1.51,1.727,12.072,12.072,0,0,0,2.7,2.71c-.537,4.647,1.537,8.293,3.914,11.912a10.413,10.413,0,0,1,2.016,5.006c.005.114.009.231.012.35a4.4,4.4,0,0,0-.959,2.742,4.445,4.445,0,0,0,4.449,4.431H28.068a4.445,4.445,0,0,0,4.449-4.431,4.4,4.4,0,0,0-.959-2.742c0-.119.007-.236.012-.35a10.285,10.285,0,0,1,2.042-5.032c2.375-3.617,4.448-7.261,3.915-11.9A12.161,12.161,0,0,0,40.2,35.737a17.825,17.825,0,0,1,1.51-1.727,10.305,10.305,0,0,1,1.1-.874c.247-.18.5-.366.751-.566A4.458,4.458,0,0,0,45.2,30.34a1.767,1.767,0,0,0-.019-1.137Zm-16.91-3.817a6.256,6.256,0,0,1,4.369-2.64,9.93,9.93,0,0,0-2.009,4.932l-.011.089A15.284,15.284,0,0,0,27.633,26.4ZM12.644,22.747a6.255,6.255,0,0,1,4.369,2.64l.652,1.042a15.414,15.414,0,0,0-3,1.379l-.015-.129A9.932,9.932,0,0,0,12.644,22.747ZM28.068,61.562H17.211A3.1,3.1,0,1,1,18.7,55.728a.663.663,0,0,0,.851-.192,3.83,3.83,0,0,1,6.181,0,.664.664,0,0,0,.851.192,3.11,3.11,0,1,1,1.488,5.834Zm4.409-11.931-.11.169a14.568,14.568,0,0,1-4.1-1.414c-.165-.088-.331-.182-.493-.282a.663.663,0,1,0-.692,1.132c.185.113.374.221.563.321A15.686,15.686,0,0,0,31.635,51a10.435,10.435,0,0,0-1.326,3.63,4.435,4.435,0,0,0-2.241-.606,4.484,4.484,0,0,0-1.614.3,5.156,5.156,0,0,0-7.629,0,4.485,4.485,0,0,0-1.614-.3,4.434,4.434,0,0,0-2.241.605,12.532,12.532,0,0,0-2.169-5c-2.51-3.823-4.509-7.372-3.533-12.11a13.25,13.25,0,0,1,1.786-4.43,12.709,12.709,0,0,1,1.481-1.9,13.36,13.36,0,0,1,4.992-3.3,14.309,14.309,0,0,1,5.113-.942q.546,0,1.087.042a10.547,10.547,0,0,1-.823,4.221c-1.526,3.6-2.67,6.927-1.193,11.126a14.086,14.086,0,0,0,2.862,4.823.663.663,0,0,0,.977-.9,12.75,12.75,0,0,1-2.588-4.366c-1.322-3.757-.3-6.7,1.163-10.168a11.874,11.874,0,0,0,.928-4.576A14.1,14.1,0,0,1,32.2,30.629a12.847,12.847,0,0,1,3.814,6.891c.976,4.738-1.023,8.288-3.533,12.11ZM43.916,29.987a3.215,3.215,0,0,1-1.188,1.552c-.222.179-.453.347-.7.525a11.489,11.489,0,0,0-1.236.99,19.109,19.109,0,0,0-1.625,1.852,13.7,13.7,0,0,1-1.89,2.055,14.263,14.263,0,0,0-3.732-6.925c.092-.066.187-.131.286-.194,2.606-1.663,7.294-2.234,9.853-.393.185.133.242.206.257.244A.511.511,0,0,1,43.916,29.987Z" transform="translate(0 -21.395)" fill="#004e3d"/>
        <path id="Path_932857" data-name="Path 932857" d="M217.653,428.987a.9.9,0,1,0,.906.9A.9.9,0,0,0,217.653,428.987Z" transform="translate(-197.575 -392.935)" fill="#004e3d"/>
        <path id="Path_932858" data-name="Path 932858" d="M275.578,428.987a.9.9,0,1,0,.906.9A.9.9,0,0,0,275.578,428.987Z" transform="translate(-250.377 -392.935)" fill="#004e3d"/>
      </g>
    </g>
  </g>
</svg>
