<svg xmlns="http://www.w3.org/2000/svg" width="60" height="60" viewBox="0 0 60 60">
  <g id="img42" transform="translate(-198.711 -31420)">
    <path id="Path_925100" data-name="Path 925100" d="M6.667,0H53.333A6.667,6.667,0,0,1,60,6.667V53.333A6.667,6.667,0,0,1,53.333,60H6.667A6.667,6.667,0,0,1,0,53.333V6.667A6.667,6.667,0,0,1,6.667,0Z" transform="translate(198.711 31420)" fill="#dae4e3"/>
    <g id="Group_1177104" data-name="Group 1177104" transform="translate(210.907 31428.43)">
      <path id="Path_932847" data-name="Path 932847" d="M33.726,30.2a7.853,7.853,0,0,0-3.963-2.488V4.235A4.241,4.241,0,0,0,25.526,0H9.563A3.858,3.858,0,0,0,7.837.408l-.008,0-.009,0-.1.052-.074.04L7.564.559,7.481.61,7.406.659,7.317.721,7.251.769,7.159.84,7.1.889,7.007.968l-.056.049c-.031.028-.061.057-.09.086l-.051.05c-.036.036-.07.073-.1.111l-.028.03L4.143,4.146.975,7.709C.937,7.752.9,7.8.864,7.84l-.032.041c-.023.03-.047.06-.069.09S.728,8.02.71,8.044L.668,8.1c-.021.032-.042.064-.062.1l-.025.039c-.024.038-.046.076-.068.115L.5,8.375q-.038.066-.072.134v0A3.854,3.854,0,0,0,0,10.274v26.19A4.241,4.241,0,0,0,4.237,40.7H22.08A7.842,7.842,0,0,0,33.726,30.2ZM7.365,3.058v4.72a.507.507,0,0,1-.506.506H2.719L5.259,5.427ZM4.237,39.015a2.554,2.554,0,0,1-2.551-2.551V10.274a2.134,2.134,0,0,1,.024-.3h5.15A2.194,2.194,0,0,0,9.05,7.778V1.747a2.169,2.169,0,0,1,.512-.062H25.526a2.554,2.554,0,0,1,2.552,2.551V27.461c-.1,0-.209-.006-.313-.006A7.852,7.852,0,0,0,19.921,35.3c0,.1,0,.208.007.312,0,.028,0,.056,0,.084q.006.132.017.264c0,.017,0,.035,0,.052q.014.154.034.305c0,.026.007.052.011.078.012.082.024.163.039.245l.013.074c.018.1.039.2.061.3l.015.064q.029.121.061.242l.022.083c.027.1.056.195.087.291,0,.011.008.021.011.032.028.087.059.173.09.259l.031.084q.046.123.1.244l.018.044q.059.139.123.275l.038.079q.052.108.108.215l.035.067.013.025Zm23.528,2.44A6.158,6.158,0,1,1,33.922,35.3a6.151,6.151,0,0,1-6.158,6.158Zm0,0" fill="#004e3d"/>
      <path id="Path_932848" data-name="Path 932848" d="M91.679,154.888h13.359a.843.843,0,0,0,0-1.685H91.679a.843.843,0,0,0,0,1.685Zm0,0" transform="translate(-83.182 -140.295)" fill="#004e3d"/>
      <path id="Path_932849" data-name="Path 932849" d="M250.922,227.13a.842.842,0,0,0-.1-.128.85.85,0,0,0-.274-.182.84.84,0,0,0-.487-.048.836.836,0,0,0-.157.048.866.866,0,0,0-.146.078.816.816,0,0,0-.128.1.846.846,0,0,0-.1.128.9.9,0,0,0-.077.146.847.847,0,0,0-.048.158.849.849,0,0,0,0,.329.838.838,0,0,0,.048.157.883.883,0,0,0,.077.146.864.864,0,0,0,.1.128.848.848,0,0,0,.6.247.818.818,0,0,0,.165-.017.847.847,0,0,0,.158-.048.9.9,0,0,0,.146-.077.95.95,0,0,0,.128-.1.9.9,0,0,0,.1-.128.86.86,0,0,0,.078-.146.836.836,0,0,0,.048-.157.839.839,0,0,0-.048-.487A.873.873,0,0,0,250.922,227.13Zm0,0" transform="translate(-228.366 -207.65)" fill="#004e3d"/>
      <path id="Path_932850" data-name="Path 932850" d="M91.679,228.439h9.988a.843.843,0,1,0,0-1.685H91.679a.843.843,0,1,0,0,1.685Zm0,0" transform="translate(-83.182 -207.648)" fill="#004e3d"/>
      <path id="Path_932851" data-name="Path 932851" d="M91.679,301.994h13.359a.843.843,0,1,0,0-1.685H91.679a.843.843,0,1,0,0,1.685Zm0,0" transform="translate(-83.182 -275.005)" fill="#004e3d"/>
      <path id="Path_932852" data-name="Path 932852" d="M101.312,373.859H91.679a.843.843,0,1,0,0,1.685h9.633a.843.843,0,1,0,0-1.685Zm0,0" transform="translate(-83.182 -342.358)" fill="#004e3d"/>
      <path id="Path_932853" data-name="Path 932853" d="M283.216,374.124a19.62,19.62,0,0,0-3.262,5.456l-2.605-1.67a.843.843,0,1,0-.909,1.419l3.468,2.223a.843.843,0,0,0,1.248-.426,20.314,20.314,0,0,1,3.288-5.847.843.843,0,0,0-1.227-1.155Zm0,0" transform="translate(-252.791 -342.358)" fill="#004e3d"/>
    </g>
  </g>
</svg>
