<svg xmlns="http://www.w3.org/2000/svg" width="100" height="100" viewBox="0 0 100 100">
  <g id="img42" transform="translate(-637 -6992)">
    <g id="Group_1098742" data-name="Group 1098742" transform="translate(637.242 6992)">
      <rect id="Rectangle_400898" data-name="Rectangle 400898" width="100" height="100" rx="50" transform="translate(-0.242)" fill="#fff" opacity="0.859"/>
      <g id="Rectangle_400907" data-name="Rectangle 400907" transform="translate(-0.242)" fill="none" stroke="#f3bc5b" stroke-linecap="round" stroke-width="3" stroke-dasharray="0 7">
        <rect width="100" height="100" rx="50" stroke="none"/>
        <rect x="1.5" y="1.5" width="97" height="97" rx="48.5" fill="none"/>
      </g>
    </g>
    <g id="Group_1107006" data-name="Group 1107006" transform="translate(645.398 7000.157)">
      <rect id="Rectangle_400898-2" data-name="Rectangle 400898" width="84" height="84" rx="42" transform="translate(-0.399 -0.157)" fill="#004e3d" opacity="0.859"/>
      <rect id="Rectangle_400907-2" data-name="Rectangle 400907" width="84" height="84" rx="42" transform="translate(-0.398 -0.157)" fill="none"/>
    </g>
    <g id="Group_1176133" data-name="Group 1176133" transform="translate(655 7009.976)">
      <g id="Ikon">
        <path id="Path_929455" data-name="Path 929455" d="M18,51a10,10,0,1,0,16.02-7.975.049.049,0,0,1-.02-.04V9c-.246-7.933-11.757-7.927-12,0V42.985a.049.049,0,0,1-.02.04A9.957,9.957,0,0,0,18,51Z" fill="#90caf9"/>
        <path id="Path_929456" data-name="Path 929456" d="M30.024,47.554A.049.049,0,0,1,30,47.512V23H26V47.512a.049.049,0,0,1-.024.042,4,4,0,1,0,4.049,0Z" fill="#f4511e"/>
        <path id="Path_929457" data-name="Path 929457" d="M30,10a2,2,0,0,0-4,0V23h4Z" fill="#eee"/>
        <path id="Path_929458" data-name="Path 929458" d="M50,10H40a2,2,0,0,0-2,2V24H52V12A2,2,0,0,0,50,10Z" fill="#689f38"/>
        <path id="Path_929459" data-name="Path 929459" d="M38,36a2,2,0,0,0,2,2H50a2,2,0,0,0,2-2V24H38Z" fill="#f4511e"/>
      </g>
      <g id="line">
        <path id="Path_929460" data-name="Path 929460" d="M31,47V9.983a2.917,2.917,0,0,0-3-2.955h0A2.921,2.921,0,0,0,25,10V47a5,5,0,1,0,6,0ZM28,9.028A.941.941,0,0,1,29,10V22H27V10.017a.946.946,0,0,1,1-.989Zm2.111,44.1A2.956,2.956,0,0,1,28.006,54c-2.96.111-4.147-4.177-1.528-5.581A1.093,1.093,0,0,0,27,47.512V24h2V47.512a1.093,1.093,0,0,0,.52.906,3.006,3.006,0,0,1,.591,4.71ZM35,42.525V8.969a6.806,6.806,0,0,0-7-6.917h0A6.814,6.814,0,0,0,21,9V42.524A10.885,10.885,0,0,0,17,51a11,11,0,1,0,18-8.475Zm1.909,9.751a9.037,9.037,0,0,1-7.825,7.661,8.923,8.923,0,0,1-7.061-2.208A9.016,9.016,0,0,1,19,51a8.9,8.9,0,0,1,3.57-7.167,1.1,1.1,0,0,0,.43-.847V9.031a4.826,4.826,0,0,1,5-4.979h0A4.818,4.818,0,0,1,33,9V42.985a1.1,1.1,0,0,0,.417.838,8.925,8.925,0,0,1,3.491,8.453ZM18,43H12a1,1,0,0,1,0-2h6a1,1,0,0,1,0,2Zm0-4H14a1,1,0,0,1,0-2h4a1,1,0,0,1,0,2Zm-6-6h6a1,1,0,0,1,0,2H12a1,1,0,0,1,0-2Zm6-2H14a1,1,0,0,1,0-2h4a1,1,0,0,1,0,2Zm-6-6h6a1,1,0,0,1,0,2H12a1,1,0,0,1,0-2Zm6-2H14a1,1,0,0,1,0-2h4a1,1,0,0,1,0,2Zm-6-6h6a1,1,0,0,1,0,2H12a1,1,0,0,1,0-2Zm6-2H14a1,1,0,0,1,0-2h4a1,1,0,0,1,0,2ZM12,9h6a1,1,0,0,1,0,2H12a1,1,0,0,1,0-2Zm2-4h4a1,1,0,0,1,0,2H14a1,1,0,0,1,0-2ZM50,9H40a3,3,0,0,0-3,3V36a3,3,0,0,0,3,3H50a3,3,0,0,0,3-3V12a3,3,0,0,0-3-3ZM39,12a1,1,0,0,1,1-1H50a1,1,0,0,1,1,1V23H39ZM51,36a1,1,0,0,1-1,1H40a1,1,0,0,1-1-1V25H51ZM41,30h8a1,1,0,0,1,0,2H41a1,1,0,0,1,0-2Zm8-12H46v3a1,1,0,0,1-2,0V18H41a1,1,0,0,1,0-2h3V13a1,1,0,0,1,2,0v3h3a1,1,0,0,1,0,2Z"/>
      </g>
    </g>
  </g>
</svg>
