<svg xmlns="http://www.w3.org/2000/svg" width="100" height="100" viewBox="0 0 100 100">
  <g id="img40" transform="translate(-637 -6992)">
    <g id="Group_1098742" data-name="Group 1098742" transform="translate(637.242 6992)">
      <rect id="Rectangle_400898" data-name="Rectangle 400898" width="100" height="100" rx="50" transform="translate(-0.242)" fill="#fff" opacity="0.859"/>
      <g id="Rectangle_400907" data-name="Rectangle 400907" transform="translate(-0.242)" fill="none" stroke="#f3bc5b" stroke-linecap="round" stroke-width="3" stroke-dasharray="0 7">
        <rect width="100" height="100" rx="50" stroke="none"/>
        <rect x="1.5" y="1.5" width="97" height="97" rx="48.5" fill="none"/>
      </g>
    </g>
    <g id="Group_1107006" data-name="Group 1107006" transform="translate(645.398 7000.157)">
      <rect id="Rectangle_400898-2" data-name="Rectangle 400898" width="84" height="84" rx="42" transform="translate(-0.399 -0.157)" fill="#004e3d" opacity="0.859"/>
      <rect id="Rectangle_400907-2" data-name="Rectangle 400907" width="84" height="84" rx="42" transform="translate(-0.398 -0.157)" fill="none"/>
    </g>
    <g id="Group_1176131" data-name="Group 1176131" transform="translate(655 7009.997)">
      <path id="Path_929436" data-name="Path 929436" d="M60,46V18L32,32V60Z" fill="#b5806b"/>
      <path id="Path_929437" data-name="Path 929437" d="M4,18V46L32,60V32Z" fill="#d4977c"/>
      <path id="Path_929438" data-name="Path 929438" d="M60,18,32,32,4,18,32,4Z" fill="#b5806b"/>
      <path id="Path_929439" data-name="Path 929439" d="M60,18,32,32V4Z" fill="#9b6856"/>
      <path id="Path_929440" data-name="Path 929440" d="M18,34l4,4V27l-8-4V34Z" fill="#f3f9ff"/>
      <path id="Path_929441" data-name="Path 929441" d="M49.15,12.58,22,27l-8-4L41.15,8.58Z" fill="#f3f9ff"/>
      <path id="Path_929442" data-name="Path 929442" d="M49.15,12.58,32,21.69V13.44l9.15-4.86Z" fill="#d8e2ef"/>
      <path id="Path_929443" data-name="Path 929443" d="M60.447,17.1l-28-14a1,1,0,0,0-.894,0l-28,14A1,1,0,0,0,3,18V46a1,1,0,0,0,.553.9l28,14a1,1,0,0,0,.894,0l28-14A1,1,0,0,0,61,46V18A1,1,0,0,0,60.447,17.1ZM32,30.882l-7.817-3.909L49.169,13.7l8.6,4.3ZM16.183,22.973,41.169,9.7l5.8,2.9L21.986,25.875ZM15,24.618l6,3v7.968l-2.293-2.293A1,1,0,0,0,18,33H15Zm17-19.5L38.972,8.6,13.986,21.875,6.236,18ZM5,19.618l8,4V34a1,1,0,0,0,1,1h3.586l3.707,3.707A1,1,0,0,0,23,38V28.618l8,4V58.382l-26-13ZM33,58.382V32.618l26-13V45.382Z"/>
    </g>
  </g>
</svg>
