<svg xmlns="http://www.w3.org/2000/svg" width="100" height="100" viewBox="0 0 100 100">
  <g id="img41" transform="translate(-637 -6992)">
    <g id="Group_1098742" data-name="Group 1098742" transform="translate(637.242 6992)">
      <rect id="Rectangle_400898" data-name="Rectangle 400898" width="100" height="100" rx="50" transform="translate(-0.242)" fill="#fff" opacity="0.859"/>
      <g id="Rectangle_400907" data-name="Rectangle 400907" transform="translate(-0.242)" fill="none" stroke="#f3bc5b" stroke-linecap="round" stroke-width="3" stroke-dasharray="0 7">
        <rect width="100" height="100" rx="50" stroke="none"/>
        <rect x="1.5" y="1.5" width="97" height="97" rx="48.5" fill="none"/>
      </g>
    </g>
    <g id="Group_1107006" data-name="Group 1107006" transform="translate(645.398 7000.157)">
      <rect id="Rectangle_400898-2" data-name="Rectangle 400898" width="84" height="84" rx="42" transform="translate(-0.399 -0.157)" fill="#004e3d" opacity="0.859"/>
      <rect id="Rectangle_400907-2" data-name="Rectangle 400907" width="84" height="84" rx="42" transform="translate(-0.398 -0.157)" fill="none"/>
    </g>
    <g id="Group_1177103" data-name="Group 1177103" transform="translate(661.901 7016.904)">
      <path id="Path_932834" data-name="Path 932834" d="M50.981,58.231H11.965A1.961,1.961,0,0,1,10,56.27V11.961A1.961,1.961,0,0,1,11.965,10H50.981a1.961,1.961,0,0,1,1.961,1.961V56.27A1.961,1.961,0,0,1,50.981,58.231Z" transform="translate(-9.02 -9.02)" fill="#a5ddff"/>
      <rect id="Rectangle_454540" data-name="Rectangle 454540" width="33.527" height="38.82" transform="translate(5.689 5.686)" fill="#fff"/>
      <path id="Path_932835" data-name="Path 932835" d="M380.273,310.695v9.215l-3.137-3.121L374,319.91v-9.215Z" transform="translate(-337.332 -280.238)" fill="#95e540"/>
      <path id="Path_932836" data-name="Path 932836" d="M320.414,118.98h0a1.872,1.872,0,0,1,2.673.716h0a1.872,1.872,0,0,0,1.75,1.01h0a1.871,1.871,0,0,1,1.956,1.956h0a1.872,1.872,0,0,0,1.01,1.75h0a1.872,1.872,0,0,1,.716,2.673h0a1.871,1.871,0,0,0,0,2.02h0a1.872,1.872,0,0,1-.716,2.673h0a1.872,1.872,0,0,0-1.01,1.75h0a1.871,1.871,0,0,1-1.956,1.956h0a1.871,1.871,0,0,0-1.75,1.01h0a1.872,1.872,0,0,1-2.673.716h0a1.871,1.871,0,0,0-2.02,0h0a1.872,1.872,0,0,1-2.673-.716h0a1.871,1.871,0,0,0-1.75-1.01h0a1.872,1.872,0,0,1-1.957-1.956h0a1.872,1.872,0,0,0-1.01-1.75h0a1.872,1.872,0,0,1-.716-2.673h0a1.871,1.871,0,0,0,0-2.02h0a1.872,1.872,0,0,1,.716-2.673h0a1.872,1.872,0,0,0,1.01-1.75h0a1.872,1.872,0,0,1,1.957-1.956h0a1.871,1.871,0,0,0,1.75-1.01h0a1.872,1.872,0,0,1,2.673-.716h0A1.872,1.872,0,0,0,320.414,118.98Z" transform="translate(-279.6 -107.049)" fill="#fe6663"/>
      <path id="Path_932837" data-name="Path 932837" d="M43.921,43.525a.98.98,0,0,0-.98.98v2.745a.981.981,0,0,1-.98.98H2.945a.981.981,0,0,1-.98-.98V2.941a.981.981,0,0,1,.98-.98H41.961a.981.981,0,0,1,.98.98v5.2a.98.98,0,1,0,1.961,0v-5.2A2.944,2.944,0,0,0,41.961,0H2.945A2.944,2.944,0,0,0,0,2.941v44.31a2.944,2.944,0,0,0,2.941,2.941H41.961A2.944,2.944,0,0,0,44.9,47.251V44.506A.98.98,0,0,0,43.921,43.525Z" transform="translate(0)"/>
      <path id="Path_932838" data-name="Path 932838" d="M82.506,52.509a.98.98,0,0,0,.98-.98V48.98a.98.98,0,0,0-.98-.98H48.978a.98.98,0,0,0-.98.98V69.469a.98.98,0,1,0,1.961,0V49.961H81.525v1.568A.98.98,0,0,0,82.506,52.509Z" transform="translate(-43.289 -43.295)"/>
      <path id="Path_932839" data-name="Path 932839" d="M48.974,295.961a.981.981,0,1,0-.693-.287A.986.986,0,0,0,48.974,295.961Z" transform="translate(-43.286 -265.179)"/>
      <path id="Path_932840" data-name="Path 932840" d="M49.959,333.48a.98.98,0,0,0-1.961,0v10.93a.98.98,0,0,0,.98.98H82.506a.98.98,0,0,0,.98-.98v-2.157a.98.98,0,1,0-1.961,0v1.176H49.959Z" transform="translate(-43.289 -299.905)"/>
      <path id="Path_932841" data-name="Path 932841" d="M231.632,350.693l-1.937,1.938-1.2-1.2a1.952,1.952,0,0,0-2.758,0l-.784.784a.98.98,0,1,0,1.386,1.386l.776-.776,1.2,1.2a1.952,1.952,0,0,0,2.758,0l1.945-1.945a.98.98,0,0,0-1.386-1.387Z" transform="translate(-202.634 -316.056)"/>
      <path id="Path_932842" data-name="Path 932842" d="M154.169,118.6a2.852,2.852,0,0,0-1.091-4.073.894.894,0,0,1-.481-.833,2.852,2.852,0,0,0-2.981-2.981.891.891,0,0,1-.833-.481,2.852,2.852,0,0,0-4.072-1.091h0a.893.893,0,0,1-.962,0,2.852,2.852,0,0,0-4.072,1.091.9.9,0,0,1-.833.481,2.852,2.852,0,0,0-2.981,2.981.894.894,0,0,1-.481.833,2.846,2.846,0,0,0-1.515,2.918H116.759a.98.98,0,0,0,0,1.961h17.607a.882.882,0,0,1-.077.156,2.858,2.858,0,0,0-.354,2.277,2.817,2.817,0,0,0,.1.311h-17.28a.98.98,0,1,0,0,1.961H135.8a.886.886,0,0,1,.058.357,2.852,2.852,0,0,0,2.981,2.981.892.892,0,0,1,.833.481,2.845,2.845,0,0,0,.436.622v9.155a.98.98,0,0,0,1.672.695l2.446-2.433,2.446,2.433a.98.98,0,0,0,1.672-.7v-9.155a2.844,2.844,0,0,0,.436-.622.9.9,0,0,1,.833-.481,2.852,2.852,0,0,0,2.981-2.981.894.894,0,0,1,.481-.833,2.852,2.852,0,0,0,1.091-4.073A.893.893,0,0,1,154.169,118.6Zm-9.249,15.292a.98.98,0,0,0-1.383,0l-1.465,1.458V129.47a2.859,2.859,0,0,0,1.676-.447.893.893,0,0,1,.962,0,2.857,2.857,0,0,0,1.541.451c.045,0,.09,0,.135,0v5.882Zm7.6-13.272a.891.891,0,0,1-.341,1.273,2.86,2.86,0,0,0-1.539,2.666.891.891,0,0,1-.932.932,2.859,2.859,0,0,0-2.666,1.539.891.891,0,0,1-1.273.341,2.86,2.86,0,0,0-3.078,0,.891.891,0,0,1-1.273-.341,2.858,2.858,0,0,0-2.666-1.539.891.891,0,0,1-.932-.932,2.858,2.858,0,0,0-.776-2.088c-.015-.017-.031-.033-.047-.049a2.836,2.836,0,0,0-.716-.529.891.891,0,0,1-.341-1.273,2.86,2.86,0,0,0,0-3.078.891.891,0,0,1,.341-1.273,2.86,2.86,0,0,0,1.539-2.666.891.891,0,0,1,.932-.932,2.859,2.859,0,0,0,2.666-1.539.891.891,0,0,1,1.273-.341,2.859,2.859,0,0,0,3.078,0,.891.891,0,0,1,1.273.341,2.859,2.859,0,0,0,2.666,1.539.891.891,0,0,1,.932.932,2.86,2.86,0,0,0,1.539,2.666.891.891,0,0,1,.341,1.273A2.859,2.859,0,0,0,152.518,120.621Z" transform="translate(-104.425 -98.036)"/>
      <path id="Path_932843" data-name="Path 932843" d="M382.161,184.844l-3.254,3.254-1.3-1.3a.98.98,0,1,0-1.386,1.386l1.988,1.988a.98.98,0,0,0,1.386,0l3.947-3.947a.98.98,0,1,0-1.386-1.386Z" transform="translate(-339.081 -166.465)"/>
      <path id="Path_932844" data-name="Path 932844" d="M106.965,118.98a.981.981,0,1,0-.287.693A.988.988,0,0,0,106.965,118.98Z" transform="translate(-94.707 -106.432)"/>
      <path id="Path_932845" data-name="Path 932845" d="M143.31,118a.98.98,0,0,0,0,1.961h4.771a.98.98,0,0,0,0-1.961Z" transform="translate(-128.374 -106.432)"/>
      <path id="Path_932846" data-name="Path 932846" d="M190.7,294H179.5a.98.98,0,1,0,0,1.961H190.7a.98.98,0,0,0,0-1.961Z" transform="translate(-161.012 -265.179)"/>
    </g>
  </g>
</svg>
