<svg xmlns="http://www.w3.org/2000/svg" width="60" height="60" viewBox="0 0 60 60">
  <g id="img48" transform="translate(-828.711 -31670)">
    <path id="Path_929558" data-name="Path 929558" d="M6.667,0H53.333A6.667,6.667,0,0,1,60,6.667V53.333A6.667,6.667,0,0,1,53.333,60H6.667A6.667,6.667,0,0,1,0,53.333V6.667A6.667,6.667,0,0,1,6.667,0Z" transform="translate(828.711 31670)" fill="#dae4e3"/>
    <path id="Path_932881" data-name="Path 932881" d="M30.33,34.029H42.943a.523.523,0,0,1,0,1.046H30.33a.523.523,0,1,1,0-1.046ZM22.919,40.7a4.44,4.44,0,0,0,4.435-4.435c0-.086,0-.173-.008-.261a.523.523,0,1,0-1.044.061c0,.066.006.134.006.2a3.389,3.389,0,1,1-3.389-3.389,3.344,3.344,0,0,1,1.569.384.523.523,0,1,0,.486-.927A4.436,4.436,0,1,0,22.919,40.7ZM27,32.458,23.05,36.4,21.74,35.1a.523.523,0,0,0-.739.74l1.679,1.679a.522.522,0,0,0,.739,0L27.735,33.2a.523.523,0,1,0-.739-.74ZM39.606,37.5H30.33a.523.523,0,1,0,0,1.046h9.276a.523.523,0,0,0,0-1.046ZM26.794,46.257a.523.523,0,0,0-.492.553c0,.066.006.134.006.2a3.389,3.389,0,1,1-3.389-3.389A3.344,3.344,0,0,1,24.488,44a.523.523,0,1,0,.486-.927,4.436,4.436,0,1,0,2.382,3.932c0-.086,0-.173-.008-.261a.524.524,0,0,0-.554-.493ZM27,43.2,23.05,47.148,21.74,45.839a.523.523,0,0,0-.739.74l1.679,1.679a.522.522,0,0,0,.739,0l4.316-4.316A.523.523,0,0,0,27,43.2Zm12.61,5.043H30.33a.523.523,0,1,0,0,1.046h9.276a.523.523,0,1,0,0-1.046ZM28.369,25.524a6.513,6.513,0,1,1,6.513,6.513A6.52,6.52,0,0,1,28.369,25.524Zm1.046,0a5.467,5.467,0,1,0,5.467-5.467A5.473,5.473,0,0,0,29.415,25.524Zm1.847,1.742a.523.523,0,0,1-.523-.523V24.3a.523.523,0,0,1,.523-.523h1.877V21.9a.523.523,0,0,1,.523-.523H36.1a.523.523,0,0,1,.523.523v1.877H38.5a.523.523,0,0,1,.523.523v2.438a.523.523,0,0,1-.523.523H36.624v1.877a.523.523,0,0,1-.523.523H33.662a.523.523,0,0,1-.523-.523V27.265Zm.523-1.046h1.877a.523.523,0,0,1,.523.523v1.877h1.392V26.742a.523.523,0,0,1,.523-.523h1.877V24.827H36.1a.523.523,0,0,1-.523-.523V22.427H34.185V24.3a.523.523,0,0,1-.523.523H31.785ZM56.771,58.192A1.774,1.774,0,0,1,55.2,59.1H37.653a1.77,1.77,0,0,1-1.571-.907,1.9,1.9,0,0,1-.136-.29H16.976A1.979,1.979,0,0,1,15,55.926V27.414h0a.523.523,0,0,1,.152-.37l9.373-9.372a.52.52,0,0,1,.37-.152H44.973A1.979,1.979,0,0,1,46.949,19.5V40.351A1.77,1.77,0,0,1,48,41.184L56.77,56.379a1.772,1.772,0,0,1,0,1.813Zm-39.984-31.3h6.856a.731.731,0,0,0,.731-.731V19.305ZM42.179,45.818H30.33a.523.523,0,1,1,0-1.046H42.783l2.072-3.589A1.773,1.773,0,0,1,45.9,40.35V19.5a.932.932,0,0,0-.93-.93H25.418v7.6a1.778,1.778,0,0,1-1.777,1.777h-7.6V55.926a.932.932,0,0,0,.93.93H35.888a1.84,1.84,0,0,1,.2-.478ZM55.864,56.9,47.092,41.707a.768.768,0,0,0-1.33,0L36.989,56.9a.768.768,0,0,0,.665,1.152H55.2a.768.768,0,0,0,.664-1.153ZM46.426,45.45a.523.523,0,0,0-.523.523v6.454a.523.523,0,1,0,1.046,0V45.973A.523.523,0,0,0,46.426,45.45Zm0,9.251a.525.525,0,1,0,.523.527V55.22A.52.52,0,0,0,46.426,54.7Z" transform="translate(822.711 31661.48)" fill="#004e3d"/>
  </g>
</svg>
