<svg xmlns="http://www.w3.org/2000/svg" width="100" height="100" viewBox="0 0 100 100">
  <g id="img41" transform="translate(-637 -6992)">
    <g id="Group_1098742" data-name="Group 1098742" transform="translate(637.242 6992)">
      <rect id="Rectangle_400898" data-name="Rectangle 400898" width="100" height="100" rx="50" transform="translate(-0.242)" fill="#fff" opacity="0.859"/>
      <g id="Rectangle_400907" data-name="Rectangle 400907" transform="translate(-0.242)" fill="none" stroke="#f3bc5b" stroke-linecap="round" stroke-width="3" stroke-dasharray="0 7">
        <rect width="100" height="100" rx="50" stroke="none"/>
        <rect x="1.5" y="1.5" width="97" height="97" rx="48.5" fill="none"/>
      </g>
    </g>
    <g id="Group_1107006" data-name="Group 1107006" transform="translate(645.398 7000.157)">
      <rect id="Rectangle_400898-2" data-name="Rectangle 400898" width="84" height="84" rx="42" transform="translate(-0.399 -0.157)" fill="#004e3d" opacity="0.859"/>
      <rect id="Rectangle_400907-2" data-name="Rectangle 400907" width="84" height="84" rx="42" transform="translate(-0.398 -0.157)" fill="none"/>
    </g>
    <g id="Layer_x0020_1" transform="translate(654.237 6911.572)">
      <path id="Path_929444" data-name="Path 929444" d="M40.185,143.482a5.532,5.532,0,0,1-1.664,3.455H48.759a6.572,6.572,0,0,1-1.536-3.455Zm-10.622,3.455a6.428,6.428,0,0,1-1.792-3.455h-6.4a5.532,5.532,0,0,1-1.664,3.455Zm-18.813,0a6.428,6.428,0,0,1-1.792-3.455H7.167a3.552,3.552,0,0,1-3.583-3.455V115.455A3.552,3.552,0,0,1,7.167,112H42.1a3.471,3.471,0,0,1,3.583,3.455v3.967l9.854-.128a1.052,1.052,0,0,1,.768.512l5.5,10.75a.47.47,0,0,1,.128.384v11.518c-.128.64-.384,1.024-1.024,1.024H59.125a5.718,5.718,0,0,1-1.536,3.455h7.039a.913.913,0,0,1,.9,1.024.962.962,0,0,1-.9.9H.9a.875.875,0,0,1-.9-.9.913.913,0,0,1,.9-1.024Zm3.711,0h1.408a4.446,4.446,0,0,0-.64-8.83,4.446,4.446,0,0,0-.768,8.83Zm18.813,0h1.408a4.446,4.446,0,0,0-.64-8.83,4.446,4.446,0,0,0-.768,8.83Zm18.941,0h1.92a4.16,4.16,0,1,0-1.92,0Zm-36.985-1.024a3.392,3.392,0,0,1,0-6.783,3.525,3.525,0,0,1,3.455,3.455A3.416,3.416,0,0,1,15.229,145.914Zm0-4.863a1.556,1.556,0,0,0-1.536,1.536,1.536,1.536,0,1,0,1.536-1.536Zm6.143.512h6.4a6.342,6.342,0,0,1,6.271-5.247,6.208,6.208,0,0,1,6.143,5.247h3.583v-8.447H5.5V139.9a1.613,1.613,0,0,0,1.664,1.664H8.958a6.342,6.342,0,0,1,6.271-5.247A6.208,6.208,0,0,1,21.372,141.563Zm12.67,4.351a3.392,3.392,0,1,1,3.327-3.327A3.416,3.416,0,0,1,34.042,145.914Zm0-4.863a1.536,1.536,0,0,0,0,3.071,1.542,1.542,0,0,0,0-3.071Zm19.2,4.607c-3.839,0-3.839-5.759,0-5.759C56.95,139.9,56.95,145.658,53.238,145.658Zm0-3.839a1.024,1.024,0,1,0,0,2.048A1.024,1.024,0,0,0,53.238,141.819Zm6.783-8.446v-1.408H45.688v9.6h1.664a5.935,5.935,0,0,1,5.887-4.735,6.151,6.151,0,0,1,5.887,4.735h.9v-6.4H53.878a.962.962,0,0,1-1.92.128v-1.92a.96.96,0,1,1,1.92,0ZM43.768,131.2V115.455A1.515,1.515,0,0,0,42.1,113.92H7.167A1.587,1.587,0,0,0,5.5,115.455V131.2Zm1.92-1.152H59.509l-4.607-8.83-9.214.128Z" fill-rule="evenodd"/>
      <path id="Path_929445" data-name="Path 929445" d="M43,144.277H81.265V128.536A1.515,1.515,0,0,0,79.6,127H44.664A1.587,1.587,0,0,0,43,128.536Z" transform="translate(-37.497 -13.08)" fill="#ffe600" fill-rule="evenodd"/>
      <path id="Path_929446" data-name="Path 929446" d="M81.265,277H43v6.783a1.613,1.613,0,0,0,1.664,1.664h1.792a6.342,6.342,0,0,1,6.271-5.247,6.208,6.208,0,0,1,6.143,5.247h6.4a6.342,6.342,0,0,1,6.271-5.247,6.208,6.208,0,0,1,6.143,5.247h3.583Z" transform="translate(-37.497 -143.884)" fill="#ff700d" fill-rule="evenodd"/>
      <g id="Group_1176132" data-name="Group 1176132" transform="translate(10.75 138.107)">
        <path id="Path_929447" data-name="Path 929447" d="M239.83,320.479A4.425,4.425,0,0,0,235.479,316a4.446,4.446,0,0,0-.768,8.83h1.408A4.4,4.4,0,0,0,239.83,320.479Zm-4.351-3.455a3.392,3.392,0,1,1-3.455,3.455A3.416,3.416,0,0,1,235.479,317.024Z" transform="translate(-212.187 -316)" fill="#99a4ac" fill-rule="evenodd"/>
        <path id="Path_929448" data-name="Path 929448" d="M92.83,320.479A4.425,4.425,0,0,0,88.479,316a4.446,4.446,0,0,0-.768,8.83h1.408A4.4,4.4,0,0,0,92.83,320.479Zm-4.351-3.455a3.525,3.525,0,0,1,3.455,3.455,3.416,3.416,0,0,1-3.455,3.327,3.392,3.392,0,0,1,0-6.783Z" transform="translate(-84 -316)" fill="#99a4ac" fill-rule="evenodd"/>
        <path id="Path_929449" data-name="Path 929449" d="M387.223,321.919c3.711,0,3.711,5.759,0,5.759C383.384,327.678,383.384,321.919,387.223,321.919Zm4.1,2.943a4.16,4.16,0,1,0-5.119,4.1h1.92A4.15,4.15,0,0,0,391.319,324.862Z" transform="translate(-344.735 -320.127)" fill="#99a4ac" fill-rule="evenodd"/>
      </g>
      <path id="Path_929450" data-name="Path 929450" d="M364.551,272.863a6.151,6.151,0,0,1,5.887,4.735h.9v-6.4h-6.143a.962.962,0,0,1-1.92.128v-1.92a.96.96,0,0,1,1.92,0h6.143V268H357v9.6h1.664A5.935,5.935,0,0,1,364.551,272.863Z" transform="translate(-311.312 -136.036)" fill="#ff700d" fill-rule="evenodd"/>
      <path id="Path_929451" data-name="Path 929451" d="M408.806,347.048a1.026,1.026,0,0,0,0-2.048A1.026,1.026,0,1,0,408.806,347.048Z" transform="translate(-355.567 -203.181)" fill="#f1f1f1" fill-rule="evenodd"/>
      <path id="Path_929452" data-name="Path 929452" d="M255.536,342.071a1.542,1.542,0,0,0,0-3.071,1.536,1.536,0,1,0,0,3.071Z" transform="translate(-221.494 -197.949)" fill="#f1f1f1" fill-rule="evenodd"/>
      <path id="Path_929453" data-name="Path 929453" d="M110.071,340.536A1.479,1.479,0,0,0,108.536,339,1.556,1.556,0,0,0,107,340.536a1.536,1.536,0,1,0,3.071,0Z" transform="translate(-93.306 -197.949)" fill="#f1f1f1" fill-rule="evenodd"/>
      <path id="Path_929454" data-name="Path 929454" d="M357,192.83h13.822L366.214,184l-9.214.128Z" transform="translate(-311.312 -62.786)" fill="#d9f2f2" fill-rule="evenodd"/>
    </g>
  </g>
</svg>
