<svg xmlns="http://www.w3.org/2000/svg" width="110" height="110" viewBox="0 0 110 110">
  <g id="img4_1" transform="translate(-704.668 -6155)">
    <path id="Path_925100" data-name="Path 925100" d="M12.222,0H97.778A12.222,12.222,0,0,1,110,12.222V97.778A12.222,12.222,0,0,1,97.778,110H12.222A12.222,12.222,0,0,1,0,97.778V12.222A12.222,12.222,0,0,1,12.222,0Z" transform="translate(704.668 6155)" fill="#dae4e3"/>
    <g id="Group_1177272" data-name="Group 1177272" transform="translate(718.553 6174.034)">
      <path id="Path_933000" data-name="Path 933000" d="M440.859,87.172h5.149v56.644h-5.149Zm0,0" transform="translate(-370.055 -73.172)" fill="#a4d7f5"/>
      <path id="Path_933001" data-name="Path 933001" d="M440.859,87.172h5.149v3.862h-5.149Zm0,0" transform="translate(-370.055 -73.172)" fill="#73c1ef"/>
      <path id="Path_933002" data-name="Path 933002" d="M229.3,295.578a6.437,6.437,0,1,1-12.874,0" transform="translate(-181.664 -248.106)" fill="#ffb680"/>
      <path id="Path_933003" data-name="Path 933003" d="M188.926,202.67v9.012a3.862,3.862,0,1,0,7.724,0V185.934a2.574,2.574,0,0,0-2.575-2.575H170.9a2.574,2.574,0,0,0-2.575,2.575v25.747a3.862,3.862,0,1,0,7.724,0V202.67a1.288,1.288,0,0,1,1.287-1.287h10.3a1.287,1.287,0,0,1,1.287,1.287Zm0,0" transform="translate(-141.294 -153.91)" fill="#fff"/>
      <path id="Path_933004" data-name="Path 933004" d="M40.078,87.172h5.149v56.644H40.078Zm0,0" transform="translate(-33.642 -73.172)" fill="#73c1ef"/>
      <path id="Path_933005" data-name="Path 933005" d="M40.078,87.172h5.149v56.644H40.078Zm0,0" transform="translate(-33.642 -73.172)" fill="#73c1ef"/>
      <path id="Path_933006" data-name="Path 933006" d="M40.078,87.172h5.149v56.644H40.078Zm0,0" transform="translate(-33.642 -73.172)" fill="#a4d7f5"/>
      <path id="Path_933007" data-name="Path 933007" d="M40.078,87.172h5.149v3.862H40.078Zm0,0" transform="translate(-33.642 -73.172)" fill="#73c1ef"/>
      <path id="Path_933008" data-name="Path 933008" d="M72.141,215.422h59.219v3.862H72.141Zm0,0" transform="translate(-60.555 -180.824)" fill="#87bcc4"/>
      <path id="Path_933009" data-name="Path 933009" d="M416.813,215.422h3.862v3.862h-3.862Zm0,0" transform="translate(-349.871 -180.824)" fill="#498790"/>
      <path id="Path_933010" data-name="Path 933010" d="M196.65,185.934v1.287H168.328v-1.287a2.574,2.574,0,0,1,2.575-2.575h23.172a2.574,2.574,0,0,1,2.575,2.575Zm0,0" transform="translate(-141.294 -153.911)" fill="#e5ebf5"/>
      <path id="Path_933011" data-name="Path 933011" d="M304.3,319.625v6.437a3.862,3.862,0,0,1-7.724,0v-6.437Zm0,0" transform="translate(-248.946 -268.291)" fill="#87bcc4"/>
      <path id="Path_933012" data-name="Path 933012" d="M168.328,263.516a3.862,3.862,0,1,1,0,7.724" transform="translate(-141.294 -221.194)" fill="#87bcc4"/>
      <path id="Path_933013" data-name="Path 933013" d="M209.11,136.261v3.862H196.237v-3.862h-3.862v-2.575a2.575,2.575,0,0,1,2.575-2.575h1.287v-1.287a2.575,2.575,0,0,1,2.575-2.575h7.724a2.574,2.574,0,0,1,2.575,2.575v1.287H210.4a2.574,2.574,0,0,1,2.575,2.575v2.575Zm0,0" transform="translate(-161.479 -106.812)" fill="#fff"/>
      <path id="Path_933014" data-name="Path 933014" d="M214.552,215.13h-10.3a3.862,3.862,0,0,1,0-7.724h10.3a3.862,3.862,0,0,1,0,7.724Zm0,0" transform="translate(-168.208 -174.095)" fill="#f7e0ba"/>
      <path id="Path_933015" data-name="Path 933015" d="M218.413,231.453a3.862,3.862,0,0,1-3.862,3.862h-10.3a3.864,3.864,0,0,1-3.862-3.862Zm0,0" transform="translate(-168.207 -194.28)" fill="#ffb680"/>
      <path id="Path_933016" data-name="Path 933016" d="M174.886,364.853H136.265v-2.575a2.574,2.574,0,0,1,2.575-2.575h33.471a2.574,2.574,0,0,1,2.575,2.575Zm0,0" transform="translate(-114.381 -301.933)" fill="#8edf78"/>
      <path id="Path_933017" data-name="Path 933017" d="M356.549,362.278v2.575h-3.862V359.7h1.287A2.574,2.574,0,0,1,356.549,362.278Zm0,0" transform="translate(-296.044 -301.932)" fill="#52cd8d"/>
      <path id="Path_933018" data-name="Path 933018" d="M104.2,391.766h48.92V398.2H104.2Zm0,0" transform="translate(-87.468 -328.846)" fill="#a4d7f5"/>
      <path id="Path_933019" data-name="Path 933019" d="M384.75,391.766h3.862V398.2H384.75Zm0,0" transform="translate(-322.957 -328.846)" fill="#73c1ef"/>
      <path id="Path_933020" data-name="Path 933020" d="M109.6,14.74V8.3a1.287,1.287,0,0,0-1.287-1.287H41.365A1.287,1.287,0,0,0,40.078,8.3V14.74" transform="translate(-33.642 -5.889)" fill="#e2fc85"/>
      <path id="Path_933021" data-name="Path 933021" d="M452.737,8.3V14.74h-3.862V7.016h2.575A1.287,1.287,0,0,1,452.737,8.3Zm0,0" transform="translate(-376.783 -5.889)" fill="#8edf78"/>
      <path id="Path_933022" data-name="Path 933022" d="M392.766,23.547h10.3V25.96h-10.3Zm0,0" transform="translate(-329.686 -19.765)" fill="#fff"/>
      <path id="Path_933023" data-name="Path 933023" d="M360.7,23.547h2.575V25.96H360.7Zm0,0" transform="translate(-302.772 -19.765)" fill="#fff"/>
      <path id="Path_933024" data-name="Path 933024" d="M8.016,55.109H87.832v5.149H8.016Zm0,0" transform="translate(-6.729 -46.258)" fill="#87bcc4"/>
      <path id="Path_933025" data-name="Path 933025" d="M480.938,55.109H484.8v5.149h-3.862Zm0,0" transform="translate(-403.697 -46.258)" fill="#498790"/>
      <path id="Path_933026" data-name="Path 933026" d="M232.453,175.344h2.414v2.575h-2.414Zm0,0" transform="translate(-195.12 -147.183)"/>
      <path id="Path_933027" data-name="Path 933027" d="M264.516,175.344h2.414v2.575h-2.414Zm0,0" transform="translate(-222.034 -147.183)"/>
      <path id="Path_933028" data-name="Path 933028" d="M82.23,7.724H77.08V2.414A2.362,2.362,0,0,0,74.666,0H7.724A2.5,2.5,0,0,0,5.149,2.414v5.31H0v7.564H5.149V71.932h7.564V39.748H25.747V53.909h2.414v-2.8a5.068,5.068,0,0,0,0-9.845V39.748h3.475a5.259,5.259,0,0,0,4.41,2.575h10.3a5.259,5.259,0,0,0,4.41-2.575h3.314V50.207h-5.31V48.759a2.362,2.362,0,0,0-2.414-2.414h-10.3a2.5,2.5,0,0,0-2.575,2.414v7.885H24.459a3.788,3.788,0,0,0-3.862,3.7v1.448H15.448v8.851H66.781V61.793H61.632V60.345a3.65,3.65,0,0,0-3.7-3.7H56.483v-16.9H69.517V71.932H77.08V15.288H82.23ZM29.609,46.184a2.475,2.475,0,0,1-1.448,2.362V43.822a2.474,2.474,0,0,1,1.448,2.362Zm16.675,2.575a5.231,5.231,0,0,1-10.178,0Zm-10.4,4.278a7.77,7.77,0,0,0,5.23,2.078,7.473,7.473,0,0,0,5.23-2.078v3.607H35.885Zm23.333,7.308v1.448H47.632v2.414H64.367V68.23H17.862V64.207h27.2V61.793H23.011V60.345a1.374,1.374,0,0,1,1.448-1.287H57.93a1.236,1.236,0,0,1,1.287,1.287Zm-10.459-3.7V52.621h5.31v4.023ZM7.563,69.517V15.288H10.3v54.23ZM49.715,33.471a3.24,3.24,0,0,0-.957-.709V30.736h4.023a1.235,1.235,0,0,1,1.287,1.287v1.448Zm-17.04,0H28.161V32.023a1.374,1.374,0,0,1,1.448-1.287h3.862v2.026A10.531,10.531,0,0,0,32.675,33.471Zm-.652-5.149V26.874a1.374,1.374,0,0,1,1.448-1.287h2.414V23.012a1.374,1.374,0,0,1,1.448-1.287h7.724a1.236,1.236,0,0,1,1.287,1.287v2.575h2.575a1.235,1.235,0,0,1,1.287,1.287v1.448H46.344v3.784s.027.078,0,.078h-10.3c-.027,0,0-.078-.161-.078V28.322Zm20.758,0H52.62V26.874a3.65,3.65,0,0,0-3.7-3.7h-.161v-.161a3.73,3.73,0,0,0-.976-2.575,3.8,3.8,0,0,0,1.056-2.575H46.425a1.441,1.441,0,0,1-1.368,1.448H37.333a1.44,1.44,0,0,1-1.368-1.448H33.551a3.734,3.734,0,0,0,.976,2.575,3.8,3.8,0,0,0-1.056,2.575v.161a3.788,3.788,0,0,0-3.862,3.7v1.448a3.788,3.788,0,0,0-3.862,3.7v1.448H12.712V15.288h56.8V33.471H56.483V32.023a3.65,3.65,0,0,0-3.7-3.7ZM12.712,37.333V35.885H31.166a4.478,4.478,0,0,0-.189,1.368c0,.027,0-.08,0,.08Zm33.632,2.575h-10.3a2.655,2.655,0,1,1,0-5.31h10.3a2.655,2.655,0,1,1,0,5.31Zm5.067-2.575c0-.161,0-.053,0-.08a4.479,4.479,0,0,0-.189-1.368H69.517v1.448ZM74.666,69.517H71.931V15.288h2.735Zm5.149-56.644H2.413V10.138H21.884V7.724H7.563V2.414c0-.045.116,0,.161,0H74.666c.045,0,0-.045,0,0v5.31H24.459v2.414H79.816Zm0,0"/>
    </g>
  </g>
</svg>
