<svg xmlns="http://www.w3.org/2000/svg" width="110" height="110" viewBox="0 0 110 110">
  <g id="img5" transform="translate(-704.668 -6155)">
    <path id="Path_925100" data-name="Path 925100" d="M12.222,0H97.778A12.222,12.222,0,0,1,110,12.222V97.778A12.222,12.222,0,0,1,97.778,110H12.222A12.222,12.222,0,0,1,0,97.778V12.222A12.222,12.222,0,0,1,12.222,0Z" transform="translate(704.668 6155)" fill="#ff955e"/>
    <g id="Group_1177276" data-name="Group 1177276" transform="translate(716.629 6102.319)">
      <g id="Group_1177274" data-name="Group 1177274" transform="translate(1.265 79.016)">
        <path id="Path_933029" data-name="Path 933029" d="M212.76,92.728l-4.985-2.493c2.775-.93,3.739-4.985,3.739-4.985h-4.985c-2.409,0-3.739,4.985-3.739,4.985H199.05l-4.674,4.985-6.543,2.493v1.269a3.716,3.716,0,0,0,3.716,3.716h2.515c2.875,0,5.368,1.787,7.087,3.819s0,0,0,0c1.955,2.313,3.857,18.623,10.171,20.852l.032.012c.062.021.124.04.186.059s.13.039.2.056l.025.006a4.152,4.152,0,0,0,1,.122v14.956h2.492a2.493,2.493,0,0,0,2.493-2.493V135.6c0-2.235,5-2.719,5.252-6.99a2.265,2.265,0,0,1,1.872-1.814c7.017-1.75,11.758-4.794,17.372-4.794V94.63c-11.656,0-29.481-1.9-29.481-1.9Z" transform="translate(-157.427 -85.25)" fill="#fff"/>
        <path id="Path_933030" data-name="Path 933030" d="M210.729,119.183s-3.265-10.186-5.361-12.665c-1.719-2.033-4.212-3.819-7.087-3.819h-2.515c-2.053,0-3.646-.939-3.646-2.992l6.047-2.4,5.1-7.074H207s1.33-4.985,3.739-4.985h-4.215c-2.409,0-3.739,4.985-3.739,4.985h-3.739l-4.674,4.985-6.543,2.493v1.269a3.716,3.716,0,0,0,3.716,3.716h2.515c2.875,0,5.368,1.787,7.087,3.819h0c1.955,2.312,3.857,18.623,10.171,20.852l.032.012c.062.021.124.04.186.059s.13.039.2.056l.025.006a4.152,4.152,0,0,0,1,.122V142.58h2.492a2.483,2.483,0,0,0,1.723-.694V127.625c-4.05,0-5.915-5.619-6.247-8.442Z" transform="translate(-157.427 -85.251)" fill="#e3e9ee"/>
        <g id="Group_1177273" data-name="Group 1177273" transform="translate(45.59 7.478)">
          <path id="Path_933031" data-name="Path 933031" d="M280.431,224.58c-1.047-2.693-1.856-5.64-2.551-8.087,5.023-1.742,6.568-6.045,9.743-4.91,2.168.774.577,4.559,2.426,6.284,5.006,4.669-4.362,6.679-9.618,6.713Z" transform="translate(-277.88 -197.603)" fill="#626169"/>
          <path id="Path_933032" data-name="Path 933032" d="M335.9,137.528c3.938.348,2.587-3.026,6.883-1.594s6.069,6.525,11.791,4.976c3.951-1.07,2.876-4.907,3.577-6.559a4.594,4.594,0,0,1,4.363-2.849v0c-11.656-.072-28.788-1.9-28.788-1.9s-1.762,7.581,2.176,7.929Z" transform="translate(-323.978 -129.599)" fill="#626169"/>
          <path id="Path_933033" data-name="Path 933033" d="M426.176,248.527c-10.278,0-5.457,6.036-14.944,8.139-2.815.624-2.705,5.514-.655,5.393,6.071-1.774,10.472-4.313,15.6-4.313Z" transform="translate(-386.953 -228.474)" fill="#626169"/>
        </g>
        <path id="Path_933034" data-name="Path 933034" d="M32.989,213.06a14.332,14.332,0,1,1,28.665,0Z" transform="translate(-28.691 -179.594)" fill="#e6cc9f"/>
        <path id="Path_933035" data-name="Path 933035" d="M41.388,301.433H10.872L7.5,290v-6.277H44.76V290Z" transform="translate(-7.5 -250.262)" fill="#cdd9dd"/>
        <path id="Path_933036" data-name="Path 933036" d="M11.715,283.728H7.5V290l3.372,11.428h4.215L11.715,290Z" transform="translate(-7.5 -250.262)" fill="#acbfc7"/>
        <path id="Path_933037" data-name="Path 933037" d="M469.606,303.207a23.937,23.937,0,0,0-8.048,1.7l-.246.43c0,3.221,3.052,7.23,8.294,7.23Z" transform="translate(-384.792 -266.456)" fill="#ffceb7"/>
        <path id="Path_933038" data-name="Path 933038" d="M49.429,198.884a14.333,14.333,0,0,0-16.44,14.177H37.2A14.334,14.334,0,0,1,49.429,198.884Z" transform="translate(-28.691 -179.594)" fill="#dfba7f"/>
        <path id="Path_933039" data-name="Path 933039" d="M285.585,238.07a102.351,102.351,0,0,0-3.714-9.795,13.727,13.727,0,0,1-3.991,2.252c.695,2.447,1.5,5.394,2.551,8.087A27.874,27.874,0,0,0,285.585,238.07Z" transform="translate(-232.29 -204.159)" fill="#4d4c50"/>
        <path id="Path_933040" data-name="Path 933040" d="M465.563,306.116a37.185,37.185,0,0,0-4.006,1.21l-.246.43c0,3.221,3.052,7.23,8.294,7.23v-.422A14.147,14.147,0,0,1,465.563,306.116Z" transform="translate(-384.791 -268.875)" fill="#ffaa81"/>
      </g>
      <g id="Group_1177275" data-name="Group 1177275" transform="translate(16.101 122.937)">
        <path id="Path_933041" data-name="Path 933041" d="M95.489,345.728h2.529v2.529H95.489Z" transform="translate(-95.489 -345.728)" fill="#fff"/>
        <path id="Path_933042" data-name="Path 933042" d="M125.489,345.728h2.529v2.529h-2.529Z" transform="translate(-120.431 -345.728)" fill="#fff"/>
      </g>
      <path id="Path_933043" data-name="Path 933043" d="M56,94.187a3.587,3.587,0,0,0,2.666,1.5,4.73,4.73,0,0,0,4.115-1.388c.6-.55.874-.8,2.478-.266a11.75,11.75,0,0,1,3.627,2.324c2.425,2.117,5.163,3.757,8.894,2.673,3.717-1.007,4.013-4.081,4.19-5.918a5.981,5.981,0,0,1,.221-1.368A3.237,3.237,0,0,1,85.3,89.658h0c.262,0,.521,0,.776,0V87.132c-3.244-.006-6.485-.124-10.658-.362l-.146,2.525c1.862.108,3.615.192,5.25.252a6.458,6.458,0,0,0-.666,1.2,7.2,7.2,0,0,0-.41,2.114c-.189,1.965-.4,3.2-2.333,3.719-2.991.81-4.595-.511-6.625-2.184a13.854,13.854,0,0,0-4.435-2.771c-2.787-.929-3.95-.151-4.988.8a2.28,2.28,0,0,1-2.183.732c-1.742-.149-1.48-3.593-1.256-5.292,2.472.249,8.557.835,15.107,1.266l.166-2.524c-7.624-.5-14.615-1.215-15.944-1.353l-2.824-1.412a10.668,10.668,0,0,0,2.448-4.54l.37-1.557H50.365c-2.6,0-4.061,3.217-4.668,4.977a3.514,3.514,0,0,1-3.655-3.175H39.513a5.706,5.706,0,0,0,1.952,4.119l-3.973,4.236-7.086,2.7v2.141A4.972,4.972,0,0,0,32.2,96.572a9.286,9.286,0,0,0-1.972,4.238C20.8,92.3,5.288,98.534,4.35,111.219H0v7.723l3.692,12.511H8.429v6.074h2.529v-6.074H13.15v-2.529H5.582l-2.626-8.9H36.834l-2.626,8.9H15.68v2.529H28.831v6.074h2.529v-6.074H36.1l3.692-12.511v-7.724H35.44a15.493,15.493,0,0,0-2.5-7.27A6.285,6.285,0,0,1,34.6,97.666a25.98,25.98,0,0,0,2.726.063,7.51,7.51,0,0,1,.9,6.87l2.408.775a10.44,10.44,0,0,0-.1-7.047,10.576,10.576,0,0,1,3.5,2.774,22.809,22.809,0,0,1,1.613,4.629c1.492,5.524,4.382,15.791,9.694,16.774v12.577H52.547v2.529H59.09a3.761,3.761,0,0,0,3.757-3.757v-4.488c0-.292.822-.869,1.423-1.29,1.54-1.08,3.65-2.559,3.827-5.627.012-.207.391-.53.916-.661.7-.164,1.354-.394,2.048-.523l-.009-.036c2.065-.614,3.879-1.287,5.617-1.924a8.092,8.092,0,0,0,1.037,2.579l-1.733.867,1.131,2.262,2.266-1.133a9.6,9.6,0,0,0,2.948,1.817l-.95,1.9,2.262,1.131,1.2-2.41a10.812,10.812,0,0,0,1.244.074v-2.529a6.743,6.743,0,0,1-6.992-5.424,21.437,21.437,0,0,1,6.992-1.409V114.5c-5.5.018-10.342,2.741-15.648,4.273-.366-.6-.273-2.558.978-2.855,4.926-1.092,6.464-3.276,7.7-5.031,1.258-1.787,2.168-3.078,6.971-3.078v-2.529c-6.116,0-7.6,2.111-9.039,4.152-1.136,1.613-2.209,3.137-6.179,4.017-2.527.481-3.741,3.747-2.886,6.014a3.376,3.376,0,0,0-2.4,2.836c-.107,1.846-1.393,2.747-2.754,3.7-1.172.822-2.5,1.753-2.5,3.36v4.488a1.229,1.229,0,0,1-1.228,1.228H57.862V122.654h3.659v-2.529H56.607c-1.935-.014-3.688-1.807-5.337-5.469,3.787-.286,9.107-1.4,10.232-4.284.4-1.014.437-2.624-1.616-4.538-1.359-1.459.241-5.394-2.863-6.55-3.8-1.347-6.069,2.957-9.346,4.386a12.926,12.926,0,0,0-1.722-4.2C44.607,97.874,41.767,95.2,37.9,95.2H35.388a2.5,2.5,0,0,1-2.452-2.85l6-2.286,4.5-4.8h7.875L55.175,87.2c-.276,1.691-.588,5.046.821,6.989ZM37.261,117.495H2.529v-3.747H37.261Zm-12.035-6.276a5.487,5.487,0,0,0-10.662,0H11.986a8.016,8.016,0,0,1,15.817,0Zm-2.669,0H17.233A2.951,2.951,0,0,1,22.557,111.218Zm7.8,0c-1.793-12.3-19.132-12.291-20.92,0H6.889c1.947-15.652,24.07-15.641,26.011,0Zm22.4-8c1.73-1.435,2.425-1.906,3.42-1.55.32.114.413.652.513,1.894a5.912,5.912,0,0,0,1.476,4.125c.459.428,1.2,1.226.984,1.769-.506,1.3-4.679,2.551-8.872,2.732-.734-2.011-1.345-4.12-1.892-6.051a18.885,18.885,0,0,0,4.371-2.919ZM51.381,82.737h-2.97c.557-1.284,1.326-2.456,1.954-2.456h3.183A4.864,4.864,0,0,1,51.381,82.737Z"/>
    </g>
  </g>
</svg>
