<svg xmlns="http://www.w3.org/2000/svg" width="114" height="114" viewBox="0 0 114 114">
  <g id="img5" transform="translate(-1234.5 -458)">
    <g id="Ellipse_12108" data-name="Ellipse 12108" transform="translate(1241.5 465)" fill="#f3bc5b" stroke="rgba(255,255,255,0.4)" stroke-width="7">
      <circle cx="50" cy="50" r="50" stroke="none"/>
      <circle cx="50" cy="50" r="53.5" fill="none"/>
    </g>
    <g id="Layer_x0020_1" transform="translate(1254.463 493.161)">
      <path id="Path_928660" data-name="Path 928660" d="M573.113,1043.227a7.114,7.114,0,1,1,7.157-7.113A7.146,7.146,0,0,1,573.113,1043.227Zm0-12.492a5.379,5.379,0,1,0,5.422,5.378A5.377,5.377,0,0,0,573.113,1030.735Z" transform="translate(-541.417 -999.549)" fill="#004e3d" fill-rule="evenodd"/>
      <path id="Path_928661" data-name="Path 928661" d="M188.113,1043.227a7.113,7.113,0,1,1,7.113-7.113A7.118,7.118,0,0,1,188.113,1043.227Zm0-12.492a5.378,5.378,0,1,0,0,10.757,5.378,5.378,0,1,0,0-10.757Z" transform="translate(-173.117 -999.549)" fill="#004e3d" fill-rule="evenodd"/>
      <path id="Path_928662" data-name="Path 928662" d="M77.763,941.318H69.522a.868.868,0,1,1,0-1.735H76.9v-8.848H34.735v8.848h5.552a.868.868,0,0,1,0,1.735H33.867a.87.87,0,0,1-.867-.867V929.867a.87.87,0,0,1,.867-.867H77.719a.87.87,0,0,1,.868.867v10.583A.808.808,0,0,1,77.763,941.318Zm-20.776,0H52.779a.868.868,0,0,1,0-1.735h4.207A.868.868,0,0,1,56.986,941.318Z" transform="translate(-31.536 -903.886)" fill="#004e3d" fill-rule="evenodd"/>
      <path id="Path_928663" data-name="Path 928663" d="M45.39,355.682H1.625c-3.166,0-3.166-5.682,0-5.682H45.39C48.6,350,48.6,355.682,45.39,355.682ZM1.625,351.735c-.867,0-.867,2.212,0,2.212H45.39c.911,0,.911-2.212,0-2.212Z" transform="translate(0.75 -350)" fill="#004e3d" fill-rule="evenodd"/>
      <path id="Path_928664" data-name="Path 928664" d="M77.763,463.663a.87.87,0,0,1-.868-.867l-.087-21.167a.868.868,0,1,1,1.735,0L78.63,462.8A.87.87,0,0,1,77.763,463.663Zm-43.9,0A.87.87,0,0,1,33,462.8V441.628a.868.868,0,1,1,1.735,0V462.8A.87.87,0,0,1,33.867,463.663Z" transform="translate(-31.536 -436.814)" fill="#004e3d" fill-rule="evenodd"/>
      <path id="Path_928665" data-name="Path 928665" d="M78.241,542.735h-43.9a.868.868,0,0,1,0-1.735H78.2A.868.868,0,0,1,78.241,542.735Z" transform="translate(-32.014 -532.715)" fill="#004e3d" fill-rule="evenodd"/>
      <path id="Path_928666" data-name="Path 928666" d="M78.241,673.735h-43.9a.868.868,0,0,1,0-1.735H78.2A.868.868,0,0,1,78.241,673.735Z" transform="translate(-32.014 -658.033)" fill="#004e3d" fill-rule="evenodd"/>
      <path id="Path_928667" data-name="Path 928667" d="M78.241,803.735h-43.9a.868.868,0,0,1,0-1.735H78.2A.868.868,0,0,1,78.241,803.735Z" transform="translate(-32.014 -782.395)" fill="#004e3d" fill-rule="evenodd"/>
      <path id="Path_928668" data-name="Path 928668" d="M183.867,463.663A.87.87,0,0,1,183,462.8V441.628a.868.868,0,1,1,1.735,0V462.8A.87.87,0,0,1,183.867,463.663Z" transform="translate(-175.03 -436.814)" fill="#004e3d" fill-rule="evenodd"/>
      <path id="Path_928669" data-name="Path 928669" d="M361.867,463.663A.87.87,0,0,1,361,462.8V441.628a.868.868,0,1,1,1.735,0V462.8A.87.87,0,0,1,361.867,463.663Z" transform="translate(-345.309 -436.814)" fill="#004e3d" fill-rule="evenodd"/>
      <path id="Path_928670" data-name="Path 928670" d="M539.868,463.663A.87.87,0,0,1,539,462.8V441.628a.868.868,0,1,1,1.735,0V462.8A.87.87,0,0,1,539.868,463.663Z" transform="translate(-515.589 -436.814)" fill="#004e3d" fill-rule="evenodd"/>
      <path id="Path_928671" data-name="Path 928671" d="M717.867,463.663A.843.843,0,0,1,717,462.8V441.628a.868.868,0,1,1,1.735,0V462.8A.87.87,0,0,1,717.867,463.663Z" transform="translate(-685.868 -436.814)" fill="#004e3d" fill-rule="evenodd"/>
      <path id="Path_928672" data-name="Path 928672" d="M894.868,463.663A.87.87,0,0,1,894,462.8V441.628a.868.868,0,1,1,1.735,0V462.8A.87.87,0,0,1,894.868,463.663Z" transform="translate(-855.19 -436.814)" fill="#004e3d" fill-rule="evenodd"/>
      <path id="Path_928673" data-name="Path 928673" d="M656.818,1121.723c-4.424,0-4.424-6.723,0-6.723S661.286,1121.723,656.818,1121.723Zm0-4.988a1.649,1.649,0,0,0,0,3.3A1.649,1.649,0,0,0,656.818,1116.735Z" transform="translate(-625.122 -1081.818)" fill="#004e3d" fill-rule="evenodd"/>
      <path id="Path_928674" data-name="Path 928674" d="M271.818,1121.723c-4.424,0-4.424-6.723,0-6.723S276.242,1121.723,271.818,1121.723Zm0-4.988a1.648,1.648,0,0,0,0,3.3A1.648,1.648,0,0,0,271.818,1116.735Z" transform="translate(-256.821 -1081.818)" fill="#004e3d" fill-rule="evenodd"/>
      <path id="Path_928675" data-name="Path 928675" d="M78.241,930.735h-43.9a.868.868,0,0,1,0-1.735H78.2A.868.868,0,0,1,78.241,930.735Z" transform="translate(-32.014 -903.886)" fill="#004e3d" fill-rule="evenodd"/>
      <path id="Path_928676" data-name="Path 928676" d="M1178.075,481.09h-22.208a.843.843,0,0,1-.868-.867V464.867a.87.87,0,0,1,.868-.867h12.622a.894.894,0,0,1,.737.434l9.542,15.355A.834.834,0,0,1,1178.075,481.09Zm-21.34-1.735h19.736l-8.458-13.62h-11.277Z" transform="translate(-1104.87 -459.055)" fill="#004e3d" fill-rule="evenodd"/>
      <path id="Path_928677" data-name="Path 928677" d="M1260.867,580.579a.843.843,0,0,1-.867-.867V568.867a.87.87,0,0,1,.867-.867h10.887a.868.868,0,0,1,0,1.735h-10.02v9.976A.843.843,0,0,1,1260.867,580.579Z" transform="translate(-1205.315 -558.544)" fill="#004e3d" fill-rule="evenodd"/>
      <path id="Path_928678" data-name="Path 928678" d="M1179.032,835.133h-4.858a.868.868,0,0,1,0-1.735h3.99V819.735h-20.429V833.4h3.947a.868.868,0,0,1,0,1.735h-4.815a.87.87,0,0,1-.867-.867v-15.4a.87.87,0,0,1,.867-.867h22.165a.87.87,0,0,1,.867.867v15.4A.87.87,0,0,1,1179.032,835.133Z" transform="translate(-1105.826 -797.701)" fill="#004e3d" fill-rule="evenodd"/>
      <path id="Path_928679" data-name="Path 928679" d="M1585.6,938.785c-1.648,0-4.6.434-4.6-2.212v-2.819c0-2.6,2.949-2.212,4.6-2.212a.868.868,0,0,1,0,1.735c-3.47,0-2.863-.651-2.863,3.3,0,1.258,3.73-.477,3.73,1.345A.87.87,0,0,1,1585.6,938.785Z" transform="translate(-1512.392 -906.297)" fill="#004e3d" fill-rule="evenodd"/>
      <path id="Path_928680" data-name="Path 928680" d="M1274.113,1043.227a7.113,7.113,0,1,1,7.114-7.113A7.117,7.117,0,0,1,1274.113,1043.227Zm0-12.492a5.378,5.378,0,1,0,5.378,5.378A5.377,5.377,0,0,0,1274.113,1030.735Z" transform="translate(-1212.012 -999.549)" fill="#004e3d" fill-rule="evenodd"/>
      <path id="Path_928681" data-name="Path 928681" d="M1357.818,1121.723c-4.424,0-4.424-6.723,0-6.723S1362.242,1121.723,1357.818,1121.723Zm0-4.988a1.649,1.649,0,0,0,0,3.3A1.649,1.649,0,0,0,1357.818,1116.735Z" transform="translate(-1295.716 -1081.818)" fill="#004e3d" fill-rule="evenodd"/>
      <path id="Path_928682" data-name="Path 928682" d="M1050.16,996.894h-4.815a.868.868,0,0,1,0-1.735h4.815A.868.868,0,1,1,1050.16,996.894Zm0-6.159h-4.815a.868.868,0,0,1,0-1.735h4.815A.868.868,0,1,1,1050.16,990.735Z" transform="translate(-999.163 -961.284)" fill="#004e3d" fill-rule="evenodd"/>
      <path id="Path_928683" data-name="Path 928683" d="M1271.727,936.735h-4.381a.868.868,0,0,1,0-1.735h4.381A.868.868,0,0,1,1271.727,936.735Z" transform="translate(-1211.533 -909.626)" fill="#004e3d" fill-rule="evenodd"/>
    </g>
  </g>
</svg>
